<svg xmlns="http://www.w3.org/2000/svg" xmlns:xlink="http://www.w3.org/1999/xlink" width="1080" zoomAndPan="magnify" viewBox="0 0 810 1012.49997" height="1350" preserveAspectRatio="xMidYMid meet" version="1.0"><defs><clipPath id="7f5772d09a"><path d="M 127 212 L 669 212 L 669 708.730469 L 127 708.730469 Z M 127 212 " clip-rule="nonzero"/></clipPath></defs><path fill="#ffffff" d="M 531.039062 330.203125 C 531.039062 382.328125 557.949219 394.660156 583.816406 396.902344 C 609.335938 399.105469 646.113281 388.0625 647.835938 339.480469 C 649.570312 290.882812 621.878906 263.507812 589.863281 263.507812 C 561.320312 263.492188 531.039062 275.875 531.039062 330.203125 Z M 380.589844 283.636719 C 380.589844 335.761719 408.75 348.09375 435.800781 350.335938 C 462.503906 352.542969 500.964844 341.496094 502.773438 292.914062 C 504.578125 244.316406 475.617188 216.941406 442.140625 216.941406 C 412.277344 216.941406 380.589844 229.308594 380.589844 283.636719 Z M 231.203125 328.171875 C 231.203125 380.296875 259.363281 392.628906 286.414062 394.871094 C 313.113281 397.074219 351.578125 386.027344 353.382812 337.449219 C 355.191406 288.847656 326.230469 261.476562 292.753906 261.476562 C 262.871094 261.476562 231.203125 273.84375 231.203125 328.171875 Z M 231.203125 328.171875 " fill-opacity="1" fill-rule="nonzero"/><g clip-path="url(#7f5772d09a)"><path fill="#5db046" d="M 142.425781 708.429688 C 172.429688 708.429688 418.0625 708.429688 517.453125 708.429688 C 616.824219 708.429688 697.867188 701.902344 658.085938 559.386719 C 640.171875 495.191406 601.121094 446.769531 557.0625 415.503906 C 560.1875 410.015625 563.125 404.386719 565.871094 398.65625 C 571.167969 400.203125 576.953125 401.261719 583.296875 401.78125 C 585.519531 401.972656 587.792969 402.058594 590.035156 402.058594 C 606.175781 402.058594 621.253906 397.386719 632.496094 388.894531 C 642.675781 381.199219 655.042969 366.296875 656.050781 339.046875 C 657.234375 307.242188 645.542969 288.171875 635.535156 277.769531 C 623.582031 265.367188 607.410156 258.539062 589.964844 258.539062 C 546.8125 258.539062 523.046875 283.984375 523.046875 330.171875 C 523.046875 354.730469 529.542969 373.347656 542.328125 385.488281 C 545.003906 388.027344 547.925781 390.230469 551.101562 392.175781 C 548.742188 397.039062 546.222656 401.835938 543.5625 406.523438 C 512.726562 387.453125 480.292969 376.527344 451.488281 374.234375 C 451.488281 367.859375 451.488281 361.484375 451.488281 355.128906 C 464.707031 353.894531 476.871094 349.46875 486.320312 342.328125 C 496.5 334.632812 508.871094 319.730469 509.878906 292.480469 C 511.058594 260.675781 499.367188 241.605469 489.359375 231.203125 C 477.375 218.851562 461.199219 212.027344 443.757812 212.027344 C 425.03125 212.027344 408.90625 216.941406 397.128906 226.25 C 381.476562 238.617188 373.519531 257.984375 373.519531 283.777344 C 373.519531 308.371094 380.675781 327.0625 394.800781 339.339844 C 404.894531 348.128906 418.53125 353.375 435.28125 355.042969 C 435.28125 361.328125 435.28125 367.617188 435.28125 373.90625 C 400.742188 374.808594 369.488281 384.671875 341.882812 400.203125 C 340.09375 396.257812 338.289062 392.316406 336.464844 388.375 C 351.125 376.40625 358.875 356.8125 358.875 330.464844 C 358.875 305.90625 352.375 287.285156 339.589844 275.144531 C 329.566406 265.644531 316.171875 260.3125 298.625 258.871094 C 296.402344 258.679688 294.125 258.59375 291.886719 258.59375 C 275.746094 258.59375 260.667969 263.265625 249.425781 271.757812 C 239.246094 279.453125 226.875 294.355469 225.867188 321.605469 C 224.6875 353.410156 236.378906 372.480469 246.386719 382.886719 C 258.339844 395.285156 274.511719 402.113281 291.953125 402.113281 C 303.59375 402.113281 313.808594 400.253906 322.546875 396.640625 C 324.40625 400.652344 326.230469 404.648438 328.039062 408.660156 C 239.140625 467.175781 192.285156 583.304688 200.554688 628.792969 C 124.601562 642.828125 112.425781 708.429688 142.425781 708.429688 Z M 291.953125 391.308594 C 261.394531 391.308594 234.988281 366.316406 236.640625 321.988281 C 238.167969 281.101562 268.117188 269.359375 291.886719 269.359375 C 293.882812 269.359375 295.847656 269.449219 297.738281 269.605469 C 322.425781 271.652344 348.101562 282.910156 348.101562 330.464844 C 348.101562 380.019531 319.195312 391.308594 291.953125 391.308594 Z M 567.207031 387.816406 C 563.265625 386.304688 561.335938 385.351562 557.339844 383.421875 C 543.808594 375.433594 533.800781 359.886719 533.800781 330.203125 C 533.800781 280.632812 562.691406 269.34375 589.949219 269.34375 C 620.507812 269.34375 646.914062 294.335938 645.261719 338.664062 C 643.734375 379.550781 613.785156 391.292969 590.019531 391.292969 C 588.019531 391.292969 586.058594 391.203125 584.164062 391.046875 C 578.449219 390.597656 572.699219 389.625 567.207031 387.816406 Z M 443.828125 344.761719 C 441.828125 344.761719 439.867188 344.671875 437.972656 344.515625 C 413.285156 342.46875 384.308594 331.332031 384.308594 283.777344 C 384.308594 234.207031 416.5 222.8125 443.757812 222.8125 C 474.316406 222.8125 500.722656 247.804688 499.070312 292.132812 C 497.542969 333 467.59375 344.761719 443.828125 344.761719 Z M 443.828125 344.761719 " fill-opacity="1" fill-rule="nonzero"/></g><path fill="#0e0f1a" d="M 580.863281 286.277344 C 600.042969 286.277344 616.632812 304.324219 615.609375 336.351562 C 614.582031 368.382812 592.539062 375.660156 577.230469 374.21875 C 561.734375 372.742188 545.597656 364.613281 545.597656 330.257812 C 545.613281 294.425781 563.75 286.277344 580.863281 286.277344 Z M 300.066406 374.390625 C 280.886719 374.390625 264.296875 356.34375 265.320312 324.316406 C 266.363281 292.289062 288.394531 285.011719 303.699219 286.46875 C 319.195312 287.945312 335.335938 296.074219 335.335938 330.429688 C 335.335938 366.226562 317.179688 374.390625 300.066406 374.390625 Z M 443.113281 328.015625 C 441.792969 328.015625 440.492188 327.964844 439.242188 327.84375 C 422.945312 326.367188 403.800781 318.273438 403.800781 283.777344 C 403.800781 247.804688 425.0625 239.539062 443.046875 239.539062 C 463.214844 239.539062 480.65625 257.671875 479.578125 289.839844 C 478.589844 319.488281 458.800781 328.015625 443.113281 328.015625 Z M 443.113281 328.015625 " fill-opacity="1" fill-rule="nonzero"/><path fill="#1f7847" d="M 468.601562 398.082031 C 469.800781 396.625 472.285156 396.867188 473.515625 398.082031 C 474.941406 399.507812 474.699219 401.539062 473.515625 403 C 466.183594 411.976562 454.40625 417.292969 442.820312 416.617188 C 431.179688 415.9375 420.546875 409.738281 413.929688 400.21875 C 411.375 396.535156 417.386719 393.0625 419.921875 396.710938 C 425.203125 404.300781 434.203125 409.355469 443.460938 409.683594 C 453.207031 410.066406 462.46875 405.601562 468.601562 398.082031 Z M 512.464844 558.503906 C 511.492188 570.851562 511.179688 583.289062 512.101562 595.636719 C 512.917969 606.667969 514.222656 619.15625 519.902344 628.898438 C 522.890625 634.003906 527.425781 638.433594 533.242188 640.066406 C 538.820312 641.628906 544.414062 640.03125 548.652344 636.195312 C 555.1875 630.289062 557.0625 620.578125 558.695312 612.347656 C 560.867188 601.457031 562.378906 590.199219 562.308594 579.085938 C 562.273438 574.621094 555.324219 574.601562 555.359375 579.085938 C 555.410156 587.785156 554.421875 596.523438 552.980469 605.101562 C 552.25 609.496094 551.363281 613.890625 550.234375 618.199219 C 549.453125 621.1875 548.585938 624.226562 547.296875 626.640625 C 545.214844 630.546875 541.546875 634.214844 536.769531 633.710938 C 531.90625 633.207031 528.222656 629.402344 525.878906 625.390625 C 523.359375 621.101562 522.109375 616.132812 521.117188 611.304688 C 520.09375 606.371094 519.46875 601.386719 519.085938 596.367188 C 518.09375 583.773438 518.40625 571.078125 519.398438 558.503906 C 519.78125 554.039062 512.8125 554.054688 512.464844 558.503906 Z M 352.863281 558.503906 C 353.730469 569.636719 354.0625 580.820312 353.472656 591.972656 C 352.933594 601.890625 351.941406 612.46875 348.191406 621.761719 C 346.347656 626.328125 343.167969 631.019531 338.460938 632.945312 C 333.960938 634.785156 329.6875 633.101562 326.75 629.417969 C 324.527344 626.640625 323.710938 623.984375 322.703125 620.632812 C 321.539062 616.722656 320.671875 612.746094 319.925781 608.734375 C 318.082031 599.007812 316.847656 589.003906 316.902344 579.085938 C 316.9375 574.621094 309.988281 574.601562 309.953125 579.085938 C 309.898438 589.019531 311.152344 599.007812 312.886719 608.769531 C 314.332031 616.863281 315.808594 626.378906 320.878906 633.101562 C 324.355469 637.703125 329.515625 641.039062 335.492188 640.640625 C 341.257812 640.242188 346.347656 636.976562 349.875 632.511719 C 356.980469 623.53125 358.683594 611.007812 359.8125 599.960938 C 361.21875 586.207031 360.90625 572.257812 359.828125 558.484375 C 359.464844 554.074219 352.515625 554.039062 352.863281 558.503906 Z M 352.863281 558.503906 " fill-opacity="1" fill-rule="nonzero"/><path fill="#1f7847" d="M 234.191406 511.917969 C 250.988281 482.390625 273.679688 452.8125 301.664062 428.617188 C 313.375 445.691406 316.816406 472.4375 298.417969 497.554688 C 279.757812 523.050781 252.273438 520.257812 234.191406 511.917969 Z M 283.09375 552.613281 C 283.09375 537.417969 272.707031 530.207031 262.714844 529.425781 C 252.867188 528.664062 237.75 535.679688 237.074219 552.5625 C 236.414062 569.445312 248.019531 575.785156 260.371094 575.785156 C 271.402344 575.800781 283.09375 569.636719 283.09375 552.613281 Z M 387.957031 468.738281 C 387.957031 460.976562 382.640625 457.292969 377.550781 456.894531 C 372.511719 456.496094 364.796875 460.089844 364.449219 468.722656 C 364.101562 477.355469 370.042969 480.585938 376.351562 480.585938 C 381.980469 480.585938 387.957031 477.441406 387.957031 468.738281 Z M 649.015625 631.867188 C 656.171875 632.683594 662.550781 632.320312 668.179688 631 C 669.289062 612.101562 666.214844 588.621094 658.066406 559.40625 C 654.191406 545.546875 649.328125 532.414062 643.648438 520.03125 C 618.820312 524.078125 605.429688 544.851562 602.472656 565.640625 C 599.085938 589.59375 611.941406 627.613281 649.015625 631.867188 Z M 586.316406 519.785156 C 583.226562 514.421875 578.101562 513.96875 574.398438 515.722656 C 570.75 517.460938 566.84375 523 570.039062 529.113281 C 573.234375 535.226562 578.621094 535.105469 583 532.589844 C 586.910156 530.347656 589.773438 525.796875 586.316406 519.785156 Z M 586.316406 519.785156 " fill-opacity="0.4" fill-rule="nonzero"/></svg>