<svg xmlns="http://www.w3.org/2000/svg" xmlns:xlink="http://www.w3.org/1999/xlink" width="1080" zoomAndPan="magnify" viewBox="0 0 810 1012.49997" height="1350" preserveAspectRatio="xMidYMid meet" version="1.0"><defs><clipPath id="19bd2c746a"><path d="M 18 411 L 794.367188 411 L 794.367188 643 L 18 643 Z M 18 411 " clip-rule="nonzero"/></clipPath><clipPath id="6f9a979342"><path d="M 15.503906 517 L 219 517 L 219 643 L 15.503906 643 Z M 15.503906 517 " clip-rule="nonzero"/></clipPath><clipPath id="19c098f658"><path d="M 84 653 L 531 653 L 531 794.542969 L 84 794.542969 Z M 84 653 " clip-rule="nonzero"/></clipPath></defs><path fill="#717d80" d="M 579.171875 588.40625 C 575.152344 589.570312 571.21875 591.007812 567.390625 592.699219 C 560.34375 595.585938 553.5625 599.34375 546.316406 601.460938 C 534.738281 604.851562 522.890625 607.234375 511.144531 610.019531 C 507.652344 610.855469 504.128906 611.628906 500.605469 612.433594 L 485.332031 612.433594 C 483.625 611.539062 481.976562 610.53125 480.398438 609.414062 C 474.726562 604.78125 467.914062 603.675781 461.101562 603.675781 C 431.066406 603.742188 400.992188 604.078125 370.957031 604.414062 C 363.910156 604.515625 356.859375 604.949219 349.847656 605.21875 C 349.578125 605.214844 349.308594 605.222656 349.039062 605.253906 C 342.292969 605.757812 335.582031 606.628906 328.871094 606.730469 C 313.464844 606.964844 298.09375 606.761719 282.722656 606.828125 C 278.496094 606.863281 274.265625 607.46875 270.003906 607.566406 C 266.121094 608.023438 262.605469 605.242188 262.148438 601.359375 C 261.570312 598.644531 261.253906 595.878906 261.210938 593.101562 C 261.144531 575.449219 261.175781 557.761719 261.144531 540.109375 C 261.019531 538.730469 260.761719 537.371094 260.371094 536.046875 L 260.371094 532.019531 C 260.640625 531.617188 261.109375 531.179688 261.109375 530.777344 C 260.988281 520.542969 261.503906 510.308594 262.652344 500.136719 C 262.9375 496.195312 263.667969 492.296875 264.832031 488.523438 C 266.847656 482.714844 269.265625 477.011719 270.035156 470.800781 C 271.011719 463.082031 272.285156 455.429688 273.257812 447.710938 C 274.164062 440.261719 274.835938 432.742188 275.640625 425.257812 C 276.210938 420.023438 276.480469 414.71875 277.453125 409.515625 C 277.757812 407.9375 278.058594 406.363281 278.359375 404.785156 C 279.871094 397.828125 280.578125 390.722656 280.472656 383.605469 C 280.308594 382.550781 280.386719 381.472656 280.707031 380.453125 C 282.140625 377.632812 283.730469 374.898438 285.472656 372.261719 C 288.191406 368.234375 291.3125 364.441406 293.898438 360.316406 C 298.730469 352.664062 303.296875 344.808594 307.925781 337.023438 C 313.679688 327.710938 318.363281 317.78125 321.886719 307.421875 C 324.605469 298.929688 327.726562 290.472656 327.125 281.207031 C 326.867188 274.90625 327.683594 268.609375 329.539062 262.582031 C 329.976562 261.140625 330.414062 259.695312 330.917969 258.285156 C 334.339844 248.25 337.964844 238.25 341.453125 228.179688 C 345.835938 216.054688 351.832031 204.574219 359.273438 194.046875 C 361.773438 190.742188 365.96875 189.195312 370.015625 190.085938 C 379.511719 192.570312 389.144531 194.113281 398.074219 193.445312 C 401.863281 189.113281 405.152344 185.320312 408.511719 181.597656 C 409.851562 180.085938 411.464844 178.84375 412.671875 177.265625 C 416.699219 172.0625 420.558594 166.695312 424.550781 161.492188 C 428.277344 156.625 431.03125 156.054688 436.433594 158.574219 C 441.382812 161.046875 446.761719 162.5625 452.277344 163.035156 C 457.007812 163.304688 460.902344 165.382812 462.8125 170.117188 C 464.664062 174.039062 466.234375 178.089844 467.511719 182.234375 C 470.109375 192.835938 473.9375 203.097656 478.921875 212.808594 C 481.375 217.507812 484.125 221.9375 489.394531 224.152344 C 491.332031 224.859375 492.628906 226.691406 492.648438 228.75 C 492.953125 233.347656 493.726562 237.914062 494.261719 242.476562 C 495.03125 249.289062 495.871094 256.105469 496.578125 262.949219 C 496.980469 266.777344 496.980469 270.636719 497.484375 274.429688 C 498.390625 281.207031 499.632812 287.953125 500.570312 294.734375 C 501.746094 303.226562 502.617188 311.75 503.894531 320.207031 C 504.933594 326.988281 506.109375 333.734375 507.316406 340.445312 C 507.785156 343.03125 508.222656 345.613281 508.691406 348.199219 C 509.089844 351.640625 510.753906 354.808594 513.359375 357.09375 C 522.585938 364.8125 531.683594 372.699219 540.910156 380.453125 C 541.832031 381.214844 543.003906 381.609375 544.199219 381.558594 C 547.390625 381.15625 549.167969 382.699219 550.476562 385.320312 C 551.183594 386.726562 551.921875 388.136719 552.65625 389.546875 C 553.261719 390.6875 553.867188 391.863281 554.402344 393.070312 C 556.382812 397.433594 557.1875 402.402344 561.148438 405.824219 C 562.222656 406.996094 562.933594 408.453125 563.195312 410.019531 C 567.257812 425.089844 571.351562 440.160156 575.109375 455.296875 C 576.921875 462.578125 578.699219 469.894531 578.632812 477.515625 C 578.601562 482.246094 577.929688 486.945312 578.5 491.679688 C 579.238281 497.449219 579.605469 503.257812 580.210938 509.0625 C 580.949219 516.414062 581.921875 523.730469 582.527344 531.113281 C 583.03125 537.222656 583.097656 543.328125 583.367188 549.4375 C 583.398438 549.976562 583.367188 550.511719 583.433594 551.050781 C 583.9375 556.585938 584.472656 562.089844 584.976562 567.628906 C 585.101562 571.066406 585.417969 574.496094 585.917969 577.898438 C 587.070312 582.480469 584.292969 587.132812 579.710938 588.285156 C 579.53125 588.332031 579.351562 588.371094 579.171875 588.40625 Z M 579.171875 588.40625 " fill-opacity="1" fill-rule="nonzero"/><path fill="#566266" d="M 552.65625 389.546875 L 505.035156 508.023438 L 328.5 528.5625 L 278.359375 404.785156 C 279.867188 397.828125 280.578125 390.722656 280.472656 383.605469 C 280.308594 382.550781 280.386719 381.472656 280.707031 380.453125 C 282.140625 377.632812 283.730469 374.898438 285.472656 372.261719 C 288.191406 368.234375 291.3125 364.441406 293.898438 360.316406 C 298.730469 352.664062 303.296875 344.808594 307.925781 337.023438 C 313.679688 327.710938 318.363281 317.78125 321.886719 307.421875 C 324.605469 298.929688 327.726562 290.472656 327.125 281.207031 C 326.867188 274.90625 327.683594 268.609375 329.539062 262.582031 L 335.683594 341.519531 L 328.5 419.453125 L 366.859375 390.589844 L 367.902344 360.382812 L 380.285156 290.339844 L 401.3125 392.371094 L 423.246094 463.117188 L 436.164062 431.46875 L 421.265625 355.484375 L 424.285156 313.730469 L 467.242188 436.835938 L 484.730469 403.441406 L 507.316406 340.445312 C 507.785156 343.03125 508.222656 345.617188 508.691406 348.199219 C 509.089844 351.640625 510.753906 354.808594 513.355469 357.09375 C 522.585938 364.8125 531.683594 372.699219 540.910156 380.453125 C 541.832031 381.21875 543.003906 381.613281 544.199219 381.5625 C 547.386719 381.160156 549.167969 382.703125 550.476562 385.320312 C 551.179688 386.726562 551.917969 388.136719 552.65625 389.546875 Z M 552.65625 389.546875 " fill-opacity="0.49" fill-rule="nonzero"/><path fill="#94a3a6" d="M 788.628906 586.289062 C 788.058594 575.886719 784.03125 567.261719 774.5 561.589844 C 765.738281 556.617188 756.074219 553.445312 746.074219 552.257812 C 741.128906 551.445312 736.238281 550.3125 731.441406 548.867188 C 729.996094 548.285156 728.796875 547.21875 728.050781 545.847656 C 726.105469 542.390625 724.628906 538.632812 722.648438 535.175781 C 719.726562 530.140625 716.472656 525.476562 711.167969 522.320312 C 703.550781 517.789062 696.4375 512.453125 688.953125 507.722656 C 684.050781 504.597656 679.050781 501.546875 673.042969 500.773438 C 671.140625 500.527344 669.632812 499.046875 669.351562 497.148438 C 666.097656 485.335938 662.574219 473.554688 659.25 461.742188 C 657.980469 457.140625 655.621094 452.917969 652.371094 449.421875 C 648.367188 445.097656 643.835938 441.296875 638.878906 438.105469 C 634.488281 435.292969 629.898438 434.296875 626.554688 429.933594 C 625.152344 427.992188 623.953125 425.917969 622.964844 423.734375 C 615.011719 407.390625 609.835938 390.714844 605.214844 373.269531 C 603.988281 369.078125 602.511719 364.964844 600.785156 360.953125 C 600.035156 358.660156 598.441406 356.738281 596.320312 355.582031 C 595.652344 355.28125 595.382812 354.207031 594.8125 353.570312 C 593.53125 351.832031 591.992188 350.304688 590.246094 349.039062 C 587.886719 347.847656 585.347656 347.050781 582.730469 346.6875 C 579.339844 346.117188 575.847656 346.019531 572.425781 345.714844 C 569.261719 345.304688 566.082031 345.058594 562.894531 344.976562 C 550.417969 345.007812 537.996094 346.65625 525.941406 349.878906 C 517.585938 352.269531 511.457031 359.332031 508.511719 367.355469 C 507.40625 370.730469 506.652344 374.210938 506.265625 377.738281 C 504.996094 386.542969 503.859375 395.382812 502.449219 404.164062 C 501.398438 410.707031 496.074219 416.167969 492.238281 421.316406 C 487.339844 427.894531 487.492188 434.59375 486.238281 442.308594 C 485.402344 447.914062 484.527344 453.515625 483.722656 459.15625 C 483.320312 461.941406 482.851562 464.761719 482.515625 467.546875 C 482.414062 468.417969 482.3125 469.257812 482.246094 470.128906 C 482.117188 474.320312 479.582031 478.0625 475.734375 479.730469 C 466.335938 484.328125 457.175781 489.429688 447.945312 494.398438 C 444.375 496.210938 441.496094 499.144531 439.757812 502.753906 C 438.648438 505.101562 437.273438 507.351562 435.898438 509.867188 C 435.347656 509.605469 434.828125 509.277344 434.351562 508.894531 C 426.367188 500.4375 416.667969 494.09375 407.371094 487.28125 C 396.429688 479.226562 385.519531 471.207031 376.222656 461.269531 C 374.855469 459.851562 373.78125 458.175781 373.070312 456.335938 C 368.304688 443.179688 363.671875 429.957031 359.074219 416.734375 C 358.46875 414.941406 357.609375 413.246094 356.523438 411.699219 C 354.433594 408.644531 351.589844 406.183594 348.269531 404.550781 C 346.074219 403.335938 343.957031 401.988281 341.925781 400.523438 C 336.757812 397.066406 331.65625 393.542969 326.488281 390.085938 C 323.199219 388.097656 320.464844 385.316406 318.53125 381.996094 C 316.652344 378.472656 314.941406 374.878906 313.195312 371.289062 C 308.597656 361.859375 304.335938 352.261719 299.335938 343.0625 C 295.84375 336.585938 292.355469 330.039062 287.085938 324.535156 C 283.324219 320.578125 280.976562 315.308594 277.921875 310.675781 C 276.246094 308.125 274.5 305.640625 272.652344 303.226562 C 270.953125 300.9375 268.214844 299.664062 265.371094 299.835938 C 258.335938 299.96875 251.335938 300.871094 244.496094 302.519531 C 240.324219 303.375 236.015625 303.308594 231.875 302.320312 C 228.78125 301.550781 225.578125 301.347656 222.410156 301.714844 C 218.550781 302.285156 216.941406 305.808594 215.933594 309.132812 C 214.355469 314.433594 213.113281 319.839844 211.90625 325.242188 C 210.898438 329.738281 210.0625 334.304688 209.253906 338.835938 C 208.917969 340.796875 208.71875 342.78125 208.652344 344.773438 C 208.550781 348.464844 207.375 351.519531 203.917969 353.332031 C 193.984375 358.535156 185.125 365.886719 173.980469 368.671875 C 172.152344 368.898438 170.355469 369.316406 168.613281 369.914062 C 166.234375 371 164.046875 372.460938 162.136719 374.242188 C 157.839844 378.40625 153.945312 383.003906 149.71875 387.265625 C 139.476562 397.523438 130.007812 408.53125 121.390625 420.1875 C 118.128906 424.332031 114.5625 428.222656 110.71875 431.835938 C 107.632812 434.855469 107.128906 438.648438 106.488281 442.507812 C 104.914062 451.738281 103.234375 460.96875 101.722656 470.199219 C 100.28125 479.09375 98.90625 487.953125 97.597656 496.847656 C 97.183594 500.578125 94.945312 503.859375 91.621094 505.605469 C 84.976562 509.398438 78.5 513.558594 72.089844 517.753906 C 70.433594 518.824219 69.082031 520.304688 68.164062 522.050781 C 65.949219 526.546875 64.035156 531.214844 62.222656 535.914062 C 61.628906 537.65625 60.226562 539.007812 58.464844 539.539062 C 53.160156 541.550781 47.957031 543.734375 42.757812 546.015625 C 41.480469 546.542969 40.351562 547.371094 39.46875 548.429688 C 37.453125 550.746094 36.882812 553.933594 36.445312 557.125 C 35.707031 562.292969 34.871094 567.496094 34.0625 572.964844 C 34.03125 573.097656 34.03125 573.234375 33.996094 573.367188 C 30.035156 572.226562 26.644531 571.824219 23.558594 574.039062 L 23.558594 579.679688 C 26.996094 584.074219 31.378906 587.640625 36.378906 590.113281 C 47.355469 595.988281 58.464844 601.660156 69.269531 607.871094 C 77.292969 612.433594 84.808594 617.9375 92.761719 622.636719 C 101.523438 627.839844 110.4375 632.796875 119.511719 637.503906 C 123.605469 639.621094 128.101562 641.097656 132.867188 638.914062 C 133.980469 638.632812 135.152344 638.703125 136.226562 639.117188 C 156.5625 644.753906 176.914062 650.425781 197.273438 656.132812 C 204.523438 658.179688 211.636719 660.730469 218.886719 662.746094 C 232.511719 666.503906 246.105469 670.363281 259.867188 673.617188 C 270.136719 676.035156 280.640625 677.476562 291.011719 679.390625 C 300.507812 681.171875 309.941406 683.082031 319.4375 684.828125 C 326.6875 686.136719 334.003906 687.277344 341.453125 688.554688 C 341.320312 693.519531 345.148438 695.300781 348.703125 696.542969 C 354.800781 698.703125 361.03125 700.453125 367.363281 701.777344 C 376.695312 703.691406 386.089844 705.101562 395.488281 706.578125 C 399.046875 707.113281 402.636719 707.148438 406.226562 707.519531 C 411.226562 707.988281 416.230469 708.523438 421.230469 709.027344 C 421.765625 709.101562 422.304688 709.121094 422.839844 709.09375 C 427.238281 708.558594 431.199219 709.164062 433.917969 713.121094 L 434.722656 713.121094 C 439.621094 711.714844 444.285156 709.734375 449.625 709.800781 C 457.09375 709.929688 464.566406 709.671875 472.007812 709.027344 C 489.546875 707.582031 506.917969 704.527344 523.894531 699.898438 C 535.917969 696.65625 547.625 692.332031 558.867188 686.976562 C 561.441406 685.976562 564.140625 685.332031 566.886719 685.066406 C 579.035156 683.117188 591.1875 681.273438 603.335938 679.292969 C 614.277344 677.511719 625.21875 675.601562 636.191406 673.820312 C 637.382812 673.671875 638.589844 673.671875 639.78125 673.820312 C 642.03125 674.023438 644.246094 674.324219 646.496094 674.527344 C 649.253906 674.910156 652.035156 675.144531 654.820312 675.230469 C 658.535156 675.308594 662.246094 674.992188 665.894531 674.292969 C 677.066406 671.496094 687.8125 667.21875 697.84375 661.570312 C 700.492188 659.792969 702.953125 657.757812 705.195312 655.496094 C 708.71875 652.476562 712.042969 649.152344 715.765625 646.402344 C 720.867188 642.609375 727.042969 641.230469 732.984375 639.453125 C 733.21875 639.386719 733.488281 639.285156 733.722656 639.21875 C 743.320312 636.265625 753.019531 633.714844 762.652344 630.894531 C 768.417969 629.453125 773.289062 625.621094 776.042969 620.355469 C 778.863281 614.851562 782.320312 609.648438 784.871094 604.011719 C 786.621094 600.246094 787.808594 596.242188 788.394531 592.128906 C 788.65625 590.195312 788.734375 588.238281 788.628906 586.289062 Z M 400.054688 675.632812 C 399.851562 675.902344 399.652344 676.203125 399.449219 676.503906 C 384.714844 673.921875 369.949219 671.371094 354.847656 668.753906 C 360.6875 653.347656 366.457031 638.511719 374.011719 624.382812 C 379.917969 642.945312 386.796875 660.867188 400.054688 675.632812 Z M 406.261719 686.574219 C 398.679688 686.875 391.09375 687.378906 383.507812 687.3125 C 378.746094 687.347656 374 686.78125 369.378906 685.636719 C 362.933594 683.855469 356.726562 681.171875 350.449219 678.855469 C 350.484375 678.484375 350.515625 678.117188 350.550781 677.78125 C 352.632812 677.78125 354.679688 677.679688 356.757812 677.78125 C 365.21875 678.285156 373.707031 678.988281 382.199219 679.292969 C 388.574219 679.527344 395.019531 679.226562 401.429688 679.226562 C 402.160156 679.234375 402.867188 679.480469 403.445312 679.929688 C 405.523438 681.808594 407.472656 683.789062 410.121094 686.339844 C 408.242188 686.472656 407.234375 686.542969 406.261719 686.574219 Z M 415.558594 698.488281 C 419.085938 696.476562 423.410156 696.476562 426.9375 698.488281 Z M 495.871094 696.507812 C 495.839844 696.171875 495.773438 695.871094 495.738281 695.535156 C 501.914062 694.628906 508.101562 693.722656 514.296875 692.816406 C 514.292969 693.128906 514.304688 693.445312 514.332031 693.757812 C 508.1875 694.695312 502.015625 695.601562 495.871094 696.507812 Z M 575.613281 676.4375 C 575.582031 676.171875 575.546875 675.867188 575.480469 675.566406 C 584.308594 670.195312 594.105469 671.371094 603.472656 671.941406 C 594.171875 673.417969 584.910156 674.929688 575.613281 676.4375 Z M 575.613281 676.4375 " fill-opacity="1" fill-rule="nonzero"/><g clip-path="url(#19bd2c746a)"><path fill="#717d80" d="M 794.371094 618.140625 C 791.046875 619.984375 787.757812 621.964844 784.335938 623.746094 C 772.753906 629.886719 761.042969 635.726562 748.289062 639.183594 C 743.4375 640.738281 738.238281 640.855469 733.320312 639.519531 C 733.210938 639.480469 733.097656 639.457031 732.984375 639.453125 C 729.855469 638.617188 726.625 638.234375 723.386719 638.3125 C 704.625 638.246094 685.863281 638.144531 667.101562 638.445312 C 653.878906 638.648438 640.621094 639.386719 627.398438 639.988281 C 618.035156 640.390625 608.671875 640.929688 599.308594 641.464844 C 598.589844 641.621094 597.902344 641.878906 597.261719 642.238281 L 579.574219 642.238281 C 578.738281 641.664062 577.851562 641.167969 576.921875 640.761719 C 570.480469 638.480469 563.902344 636.566406 557.625 634.015625 C 540.507812 627.101562 523.527344 619.917969 506.476562 612.90625 C 505.160156 612.292969 503.734375 611.953125 502.28125 611.898438 C 499.339844 612.039062 496.402344 612.328125 493.488281 612.769531 C 481.707031 614.28125 469.894531 615.65625 458.113281 617.402344 C 448.785156 618.8125 439.320312 619.75 429.921875 624.046875 C 424.21875 618.074219 418.277344 612.097656 412.671875 605.824219 C 396.832031 588.234375 381.191406 570.449219 365.351562 552.863281 C 361.757812 548.902344 357.632812 545.445312 353.738281 541.785156 C 352.292969 540.328125 350.019531 540.089844 348.300781 541.214844 C 343.621094 543.523438 338.828125 545.597656 333.9375 547.425781 C 291.011719 563.445312 248.085938 579.511719 205.160156 595.621094 C 199.410156 597.824219 193.296875 598.917969 187.136719 598.84375 C 161.832031 598.605469 136.492188 598.472656 111.15625 598.304688 C 95.347656 598.203125 79.539062 597.9375 63.730469 598.171875 C 59.703125 598.421875 55.789062 596.769531 53.160156 593.707031 C 46.851562 586.757812 40.441406 579.878906 34.0625 572.964844 C 32.183594 570.917969 30.304688 568.902344 28.425781 566.855469 C 25.203125 563.332031 21.949219 559.84375 18.726562 556.351562 L 18.726562 555.546875 C 25.640625 553.164062 32.519531 550.816406 39.46875 548.429688 C 50.507812 544.671875 61.550781 540.878906 72.726562 537.054688 C 82.796875 546.921875 92.828125 556.722656 103.101562 566.789062 C 108.101562 564.273438 113.101562 561.824219 118.070312 559.273438 C 137.230469 549.507812 156.394531 539.671875 175.625 529.9375 C 177.773438 528.890625 179.515625 527.167969 180.59375 525.039062 C 196.367188 495.472656 212.175781 465.902344 228.015625 436.332031 C 228.316406 435.761719 228.652344 435.226562 228.988281 434.6875 C 229.257812 434.757812 229.527344 434.824219 229.828125 434.925781 C 225.074219 462.882812 220.332031 490.839844 215.597656 518.796875 C 215.871094 518.921875 216.152344 519.035156 216.4375 519.132812 C 224.257812 504.597656 232.109375 490.03125 240.03125 475.265625 C 252.886719 476.609375 265.605469 477.917969 278.527344 479.257812 C 281.246094 474.125 283.964844 469.089844 286.582031 463.988281 C 291.210938 455.128906 295.878906 446.234375 300.375 437.273438 C 301.367188 435.238281 303.09375 433.652344 305.207031 432.84375 C 320.980469 426.230469 336.722656 419.484375 352.460938 412.804688 C 354.578125 411.898438 355.582031 411.429688 356.523438 411.699219 C 357.609375 413.246094 358.46875 414.941406 359.074219 416.734375 C 363.671875 429.957031 368.304688 443.179688 373.070312 456.335938 C 373.78125 458.175781 374.855469 459.851562 376.222656 461.269531 C 385.519531 471.203125 396.429688 479.226562 407.371094 487.28125 C 416.664062 494.09375 426.367188 500.4375 434.351562 508.894531 C 434.828125 509.277344 435.347656 509.605469 435.898438 509.867188 C 437.273438 507.351562 438.648438 505.101562 439.757812 502.753906 C 441.496094 499.144531 444.375 496.210938 447.945312 494.394531 C 457.175781 489.429688 466.335938 484.328125 475.734375 479.730469 C 479.582031 478.0625 482.117188 474.320312 482.246094 470.128906 C 482.3125 469.257812 482.414062 468.417969 482.515625 467.546875 C 488.058594 468.167969 493.640625 466.789062 498.253906 463.652344 C 499.039062 463.179688 499.859375 462.765625 500.703125 462.410156 C 500.835938 462.214844 500.96875 462.023438 501.097656 461.828125 C 500.976562 462.03125 500.855469 462.234375 500.730469 462.4375 L 500.738281 462.445312 C 498.960938 465.835938 497.316406 469.324219 495.402344 472.648438 C 490.667969 480.871094 485.601562 488.890625 481.136719 497.25 C 479.660156 500.035156 479.425781 503.625 479.089844 506.882812 C 477.679688 521.882812 476.40625 536.917969 475.097656 551.957031 C 474.527344 558.835938 474.023438 565.75 473.417969 573.167969 C 485.300781 570.214844 496.84375 567.328125 508.726562 564.375 C 505.101562 553.03125 501.609375 542.019531 498.152344 531.011719 C 505.300781 534.90625 510.738281 540.679688 517.652344 545.714844 C 530.585938 515.796875 543.496094 485.972656 556.382812 456.234375 C 556.652344 456.304688 556.886719 456.402344 557.15625 456.472656 C 556.484375 460.933594 555.847656 465.398438 555.140625 469.863281 C 552.535156 485.660156 549.941406 501.445312 547.355469 517.21875 C 545.375 529.335938 543.261719 541.417969 541.550781 553.566406 C 541.136719 557.390625 541.261719 561.253906 541.917969 565.042969 C 543.597656 577.730469 545.507812 590.382812 547.421875 603.035156 C 547.890625 605.800781 548.5625 608.527344 549.4375 611.191406 C 550.511719 614.816406 551.75 615.957031 555.542969 615.589844 C 560.8125 615.050781 566.082031 613.945312 571.285156 612.90625 C 577.105469 611.914062 582.296875 608.65625 585.714844 603.84375 C 591.65625 595.753906 598.335938 588.203125 604.777344 580.550781 C 605.824219 579.34375 606.074219 577.640625 605.417969 576.1875 C 600.664062 557.996094 595.917969 539.804688 591.1875 521.613281 C 590.984375 520.859375 591.117188 520.050781 591.554688 519.398438 C 603.941406 538.53125 616.324219 557.695312 629.277344 577.699219 C 629.648438 569.074219 630.019531 561.386719 630.421875 552.792969 C 633.945312 558.601562 637.066406 563.769531 640.691406 569.777344 C 643.84375 547.660156 646.867188 526.480469 649.886719 505.304688 C 650.175781 505.265625 650.464844 505.242188 650.757812 505.234375 C 654.113281 534.726562 657.472656 564.238281 660.828125 593.773438 C 682.84375 595.117188 704.523438 596.425781 726.203125 597.734375 C 726.304688 597.601562 726.441406 597.433594 726.539062 597.296875 C 724.125 595.753906 721.773438 594.042969 719.222656 592.667969 C 712.644531 589.140625 706.035156 585.585938 699.253906 582.394531 C 696.652344 581.378906 694.828125 579 694.523438 576.222656 C 692.140625 563.234375 689.421875 550.34375 686.90625 537.390625 C 686.714844 536 686.625 534.597656 686.636719 533.195312 C 686.601562 533.160156 686.601562 533.128906 686.570312 533.09375 L 686.636719 533.027344 L 686.636719 533.195312 C 691.402344 540.039062 696.234375 546.886719 700.96875 553.769531 C 704.992188 559.609375 709.054688 565.414062 712.914062 571.355469 C 713.90625 573.101562 715.65625 574.28125 717.648438 574.542969 C 725.871094 575.683594 734.023438 577.058594 742.246094 577.964844 C 751.542969 579.007812 760.90625 579.441406 770.203125 580.449219 C 774.835938 580.953125 779.398438 582.160156 784 583 C 785.613281 583.253906 786.851562 584.5625 787.019531 586.1875 C 787.488281 588.167969 787.925781 590.148438 788.394531 592.128906 C 790.339844 600.65625 792.320312 609.246094 794.371094 618.140625 Z M 686.398438 532.769531 C 686.359375 532.726562 686.261719 532.738281 686.191406 532.722656 L 686.488281 532.921875 C 686.464844 532.867188 686.433594 532.816406 686.398438 532.769531 Z M 686.632812 533.019531 L 686.488281 532.921875 C 686.519531 532.976562 686.550781 533.023438 686.582031 533.078125 Z M 686.632812 533.019531 " fill-opacity="0.52" fill-rule="nonzero"/></g><path fill="#6d8f46" d="M 775.941406 626.296875 C 774.976562 629.910156 772.964844 633.160156 770.160156 635.636719 C 745.511719 659.226562 703.601562 671.476562 671.898438 682.105469 C 645.820312 690.847656 619.503906 699.285156 593.804688 709.089844 C 578.585938 714.898438 554.050781 730.929688 537.285156 724.398438 C 534.703125 723.390625 531.515625 723.023438 529.734375 721.277344 C 527.367188 718.992188 524.285156 717.59375 521.007812 717.316406 C 513.222656 716.242188 508.625 711.140625 504.800781 704.96875 C 504.296875 704.195312 504.09375 703.054688 503.421875 702.582031 C 499.699219 700 498.726562 695.9375 497.550781 692.011719 C 497.089844 690.574219 496.074219 689.378906 494.730469 688.6875 C 492.015625 687.082031 489.679688 684.90625 487.882812 682.3125 C 482.714844 674.089844 478.421875 665.429688 477.378906 655.527344 C 477.089844 654.519531 476.609375 653.574219 475.96875 652.742188 C 473.652344 648.582031 471.339844 644.386719 468.988281 640.257812 C 467.222656 637.179688 467.367188 633.363281 469.359375 630.425781 C 469.726562 629.753906 470.128906 629.117188 470.601562 628.378906 C 465.128906 623.410156 466.070312 617.671875 468.886719 612.265625 C 474.5 601.140625 485.039062 593.328125 497.316406 591.191406 C 510.773438 588.472656 521.78125 593.875 531.882812 601.898438 C 537.285156 606.050781 541.878906 611.160156 545.441406 616.964844 C 546.292969 618.726562 548.394531 619.484375 550.175781 618.679688 C 551.652344 618.140625 553.230469 617.738281 554.707031 617.167969 C 558.570312 615.578125 562.84375 615.28125 566.886719 616.328125 C 569.589844 617.0625 572.476562 616.507812 574.707031 614.816406 C 581.285156 610.488281 588.738281 609.546875 596.320312 608.878906 C 600.765625 608.535156 605.15625 610 608.503906 612.9375 C 611.226562 615.261719 614.253906 617.203125 617.5 618.710938 C 619.6875 619.714844 621.597656 621.234375 623.070312 623.140625 C 625.5 626.15625 629.132812 627.949219 633.003906 628.042969 C 635.085938 628.277344 637.066406 628.511719 638.542969 626.160156 C 639.71875 624.25 642.101562 623.878906 644.316406 624.148438 C 648.1875 624.535156 652.050781 623.335938 655.019531 620.824219 C 662 615.554688 674.6875 616.933594 681.332031 621.867188 C 684.453125 624.457031 687.390625 627.261719 690.125 630.257812 C 693.484375 629.285156 697.441406 627.570312 701.570312 627.136719 C 707.378906 626.496094 713.285156 626.800781 719.15625 626.734375 C 721.507812 626.699219 723.855469 626.800781 726.207031 626.765625 C 728.320312 626.699219 730.46875 626.566406 732.246094 626.464844 C 734.882812 623.210938 737.695312 620.109375 740.671875 617.167969 C 747.046875 611.359375 754.429688 609.449219 762.789062 612.738281 C 764.289062 613.238281 765.84375 613.554688 767.417969 613.675781 C 773.929688 614.515625 777.488281 619.886719 775.941406 626.296875 Z M 775.941406 626.296875 " fill-opacity="1" fill-rule="nonzero"/><g clip-path="url(#6f9a979342)"><path fill="#6d8f46" d="M 15.503906 559.902344 C 16.253906 558.417969 17.03125 556.945312 17.75 555.445312 C 19.460938 551.292969 23.261719 548.375 27.714844 547.796875 C 29.453125 547.554688 30.890625 546.3125 31.378906 544.625 C 34.820312 536.347656 39.1875 528.488281 44.394531 521.191406 C 45.625 519.472656 46.835938 517.707031 49.273438 517.339844 C 51.078125 517.066406 52.523438 517.238281 53.210938 519.09375 C 54.675781 523.046875 56.339844 526.953125 57.40625 531.015625 C 58.488281 535.226562 59.230469 539.519531 59.628906 543.851562 C 59.761719 545.289062 60.621094 546.554688 61.902344 547.210938 C 68.496094 551.789062 73.289062 558.523438 75.449219 566.253906 C 81.078125 567.753906 86.878906 569.5625 92.8125 570.71875 C 94.5625 571.058594 96.78125 569.769531 98.585938 568.84375 C 100.078125 567.953125 101.453125 566.878906 102.675781 565.644531 C 106.59375 561.960938 111.777344 559.914062 117.15625 559.929688 C 122.914062 559.949219 128.644531 559.988281 133.585938 563.703125 C 134.5 564.277344 135.566406 564.558594 136.648438 564.503906 C 143.351562 564.277344 150 565.796875 155.9375 568.914062 C 157.152344 566.707031 158.214844 564.742188 159.304688 562.789062 C 163.042969 555.585938 170.242188 550.828125 178.332031 550.203125 C 196.226562 548.824219 232.191406 560.804688 213.839844 586.453125 C 211.980469 589.050781 209.550781 591.171875 207.214844 593.355469 C 194.488281 605.246094 184.191406 619.453125 174.058594 633.621094 C 172.089844 636.375 169.972656 639.257812 166.871094 640.621094 C 164.417969 641.699219 161.640625 641.691406 158.957031 641.664062 C 148.273438 641.554688 127.96875 645.71875 120.132812 637.546875 C 119.210938 636.589844 118.339844 635.582031 117.199219 634.324219 C 113.582031 637.324219 108.800781 638.523438 104.199219 637.585938 C 103.117188 637.425781 101.917969 638.1875 100.75 638.390625 C 89.507812 640.613281 77.859375 637.703125 68.980469 630.457031 C 67.234375 628.898438 65.585938 627.234375 64.042969 625.472656 C 57.132812 629.769531 49.285156 630.714844 41.535156 631.070312 C 33.378906 631.445312 25.171875 630.453125 19.09375 623.960938 C 17.65625 622.015625 16.449219 619.90625 15.503906 617.675781 L 15.503906 616.074219 C 15.820312 615.710938 16.078125 615.304688 16.273438 614.867188 C 17.433594 610.082031 21.386719 606.484375 26.257812 605.777344 C 29.464844 605.15625 31.480469 603.820312 32.445312 600.78125 C 32.597656 600.292969 32.890625 599.851562 32.757812 600.121094 C 30.503906 594.328125 28.523438 589.0625 26.378906 583.863281 C 25.800781 582.597656 24.988281 581.453125 23.980469 580.492188 C 21.527344 578.015625 18.269531 576.269531 17.707031 572.242188 C 17.53125 570.992188 16.269531 569.894531 15.503906 568.730469 Z M 15.503906 559.902344 " fill-opacity="1" fill-rule="nonzero"/></g><path fill="#abb4b6" d="M 107.328125 653.8125 L 107.328125 647.382812 C 111.703125 639.191406 114.949219 630.445312 116.980469 621.382812 C 117.449219 618.300781 119.507812 615.695312 122.398438 614.527344 C 129.882812 611.402344 137.265625 608.042969 144.765625 604.964844 C 152.75 601.683594 160.734375 598.253906 169.628906 598.355469 C 171.421875 598.339844 172.996094 597.144531 173.496094 595.421875 C 176.394531 589.140625 179.578125 582.972656 182.125 576.550781 C 185.128906 568.976562 189.164062 562.625 197.148438 559.5 C 206.304688 555.914062 215.40625 552.195312 224.507812 548.476562 C 231.644531 545.5625 238.792969 542.667969 245.84375 539.554688 C 249.238281 538.246094 252.074219 535.796875 253.859375 532.628906 C 257.128906 526.371094 260.632812 520.230469 263.667969 513.867188 C 265.710938 509.585938 267.011719 504.960938 268.851562 500.574219 C 269.453125 498.859375 270.496094 497.328125 271.878906 496.144531 C 276.390625 492.871094 281.085938 489.851562 285.941406 487.105469 C 292.574219 483.449219 299.519531 480.355469 306.199219 476.773438 C 309.78125 474.855469 314.011719 473.441406 315.972656 469.542969 C 318.527344 464.453125 320.535156 459.089844 322.894531 453.894531 C 324.441406 450.492188 326.371094 447.167969 330.074219 445.851562 C 332.101562 445.132812 334.5 445.542969 336.691406 445.203125 C 339.714844 444.914062 342.699219 444.296875 345.585938 443.355469 C 352.507812 440.613281 359.25 437.425781 366.082031 434.460938 C 375.0625 430.566406 384.347656 427.910156 394.230469 428.019531 C 395.8125 428.015625 397.367188 428.402344 398.761719 429.148438 C 399.429688 429.535156 399.347656 431.160156 399.695312 432.195312 C 399.800781 432.515625 400.347656 432.6875 400.460938 433.007812 C 401.144531 434.964844 401.867188 436.914062 402.359375 438.921875 C 402.640625 440.070312 402.109375 441.527344 402.621094 442.480469 C 404.800781 446.539062 404.175781 451.007812 404.773438 455.28125 C 405.652344 461.578125 406.355469 467.90625 406.972656 474.238281 C 407.445312 479.132812 407.878906 484.046875 407.9375 488.960938 C 407.988281 493.203125 407.425781 497.449219 407.246094 501.703125 C 407.132812 504.460938 407.226562 507.230469 407.226562 510.515625 C 408.964844 511.460938 410.621094 512.542969 412.179688 513.761719 C 418.085938 518.945312 423.925781 524.210938 429.609375 529.636719 C 430.890625 530.960938 431.757812 532.628906 432.101562 534.4375 C 432.898438 538.589844 433.246094 542.832031 433.796875 547.035156 C 435.125 557.152344 436.351562 567.285156 437.910156 577.367188 C 438.296875 579.289062 439.386719 580.992188 440.964844 582.15625 C 450.097656 588.347656 459.1875 594.640625 469.300781 599.234375 C 476.742188 602.613281 480.542969 608.835938 481.960938 616.558594 C 483.492188 624.894531 484.769531 633.277344 485.925781 641.671875 C 486.113281 643.953125 487.222656 646.054688 488.992188 647.5 C 493.15625 650.789062 497.359375 654.035156 501.648438 657.15625 C 509.484375 662.863281 517.433594 668.410156 525.25 674.136719 C 528.566406 676.566406 531.621094 679.359375 534.894531 681.851562 C 540.003906 685.738281 542.601562 690.507812 540.855469 697.066406 C 540.378906 698.855469 540.277344 700.746094 539.808594 702.539062 C 538.882812 706.09375 540.253906 708.683594 542.964844 710.824219 C 544.109375 711.730469 545.160156 712.757812 546.308594 713.660156 C 550.402344 716.882812 551.492188 722.054688 545.222656 726.648438 C 543.300781 728.058594 541.152344 729.15625 539.148438 730.460938 C 531.136719 735.679688 523.136719 740.910156 515.144531 746.15625 C 507.808594 750.945312 500.34375 755.539062 493.144531 760.527344 C 479.082031 770.269531 465.167969 780.21875 449.035156 786.421875 L 440.191406 786.421875 C 436.929688 785.453125 433.5625 784.746094 430.425781 783.46875 C 417.253906 778.105469 404.136719 772.601562 391.03125 767.074219 C 387.003906 765.375 383.226562 762.84375 379.054688 761.769531 C 374.222656 760.527344 369.082031 760.460938 364.070312 759.917969 C 363.402344 759.890625 362.730469 759.933594 362.070312 760.042969 C 357.488281 760.777344 352.867188 761.234375 348.226562 761.398438 C 340.515625 761.285156 332.8125 760.734375 325.160156 759.75 C 319.433594 759.199219 313.941406 757.199219 309.203125 753.9375 C 307.40625 752.628906 305.382812 751.664062 303.238281 751.089844 C 292.160156 748.1875 281.1875 745.027344 271 739.660156 C 262.039062 734.941406 253.144531 730.105469 244.136719 725.484375 C 242.574219 724.765625 240.84375 724.46875 239.128906 724.628906 C 230.527344 725.296875 221.941406 726.164062 213.347656 726.953125 C 209.902344 727.269531 206.464844 727.617188 203.015625 727.859375 C 199.039062 728.136719 194.972656 728.882812 191.09375 728.351562 C 188.117188 727.941406 185.261719 726.050781 182.550781 724.476562 C 180.976562 723.558594 179.929688 721.773438 178.414062 720.714844 C 171.117188 715.617188 163.808594 710.535156 156.378906 705.636719 C 149.5 701.101562 142.425781 696.867188 135.527344 692.367188 C 132.972656 690.945312 130.875 688.832031 129.46875 686.273438 C 127.492188 682.230469 124.910156 678.480469 122.558594 674.625 C 121.039062 672.132812 119.628906 669.550781 117.882812 667.222656 C 114.46875 662.671875 110.859375 658.273438 107.328125 653.8125 Z M 107.328125 653.8125 " fill-opacity="1" fill-rule="nonzero"/><path fill="#94a3a6" d="M 107.328125 647.550781 C 111.730469 639.347656 114.980469 630.570312 116.984375 621.472656 C 117.574219 618.171875 119.976562 615.480469 123.191406 614.523438 C 129.613281 612.136719 135.722656 608.898438 142.175781 606.625 C 147.363281 604.988281 152.648438 603.675781 158 602.691406 C 160.492188 602.152344 162.910156 601.964844 164.550781 599.472656 C 165.046875 598.714844 166.941406 598.542969 168.148438 598.652344 C 170.605469 599.078125 173 597.628906 173.765625 595.253906 C 177.042969 587.765625 180.386719 580.304688 183.796875 572.875 C 184.765625 570.773438 186.109375 568.847656 187.710938 566.113281 C 188.003906 572.691406 188.664062 578.40625 188.371094 584.074219 C 187.910156 588.164062 187.027344 592.199219 185.742188 596.113281 C 181.710938 611.300781 177.589844 626.464844 173.523438 641.644531 C 173.316406 642.5 173.335938 643.390625 173.574219 644.238281 C 193.195312 627.78125 211.859375 610.308594 231.179688 593.609375 L 231.980469 594.285156 C 230.109375 597.414062 228.257812 600.558594 226.359375 603.671875 C 220.59375 613.140625 214.78125 622.582031 209.0625 632.078125 C 208.359375 633.183594 207.957031 634.449219 207.882812 635.757812 C 207.792969 646.722656 207.828125 657.6875 207.828125 669.722656 C 211.257812 666.332031 213.878906 663.285156 216.695312 660.425781 C 230.640625 646.265625 239.332031 628.414062 250.695312 612.445312 C 251.914062 610.375 253.238281 608.367188 254.660156 606.429688 C 259.160156 601.316406 260.101562 595.097656 260.933594 588.695312 C 262.195312 578.960938 263.769531 569.269531 265.207031 559.5625 L 266.039062 559.492188 C 266.460938 562.785156 266.90625 566.078125 267.300781 569.375 C 268.585938 580.085938 269.914062 590.792969 271.058594 601.519531 C 271.207031 603.359375 270.949219 605.210938 270.304688 606.945312 C 266.511719 617.480469 262.691406 628.011719 258.613281 638.441406 C 257.199219 642.050781 257.613281 644.429688 260.636719 647.105469 C 269.453125 654.902344 277.949219 663.058594 286.589844 671.054688 C 287.394531 671.707031 288.234375 672.316406 289.105469 672.878906 C 291.535156 666.921875 293.851562 661.289062 296.136719 655.644531 C 297.433594 652.429688 298.855469 649.25 299.894531 645.949219 C 301.171875 642.464844 302.054688 638.847656 302.53125 635.164062 C 303.210938 624.660156 305.089844 614.269531 308.132812 604.191406 C 311.027344 595.058594 313.3125 585.730469 315.886719 576.492188 C 316.128906 575.621094 316.496094 574.785156 316.996094 573.40625 C 328.25 613.425781 334.089844 653.867188 338.640625 694.761719 L 366.851562 695.828125 C 366.851562 692.183594 366.929688 689.011719 366.828125 685.847656 C 366.730469 682.648438 366.402344 679.460938 366.269531 676.265625 C 365.964844 668.925781 365.6875 661.585938 365.476562 654.246094 C 365.40625 652.785156 365.554688 651.324219 365.914062 649.90625 C 371.984375 628.089844 378.089844 606.289062 384.234375 584.492188 C 384.445312 583.640625 384.894531 582.863281 385.527344 582.257812 C 386.015625 587.191406 386.566406 592.125 386.976562 597.066406 C 387.589844 604.511719 388.0625 611.964844 388.6875 619.40625 C 388.792969 621.128906 389.148438 622.828125 389.738281 624.449219 C 401.34375 653.707031 413.03125 682.933594 424.601562 712.203125 C 425.164062 713.980469 426.597656 715.34375 428.394531 715.824219 C 448.25 722.085938 468.09375 728.382812 487.925781 734.710938 C 488.863281 734.886719 489.8125 734.992188 490.765625 735.027344 C 489.304688 733.414062 488.472656 732.441406 487.589844 731.519531 C 478.683594 722.257812 469.738281 713.042969 460.90625 703.710938 C 459.746094 702.492188 458.960938 700.964844 458.640625 699.3125 C 457.460938 691.679688 456.277344 684.03125 455.59375 676.347656 C 454.3125 664.695312 452.261719 653.144531 449.449219 641.765625 C 448.882812 639.242188 448.503906 636.671875 448.039062 634.125 L 448.894531 633.59375 L 472.050781 651.898438 C 474.75 649.574219 474.539062 646.453125 474.511719 643.933594 C 474.390625 632.863281 473.777344 621.796875 473.390625 610.726562 C 473.296875 607.929688 473.378906 605.128906 473.378906 602.015625 C 478.492188 605.617188 480.835938 610.835938 481.929688 616.554688 C 483.53125 624.941406 484.921875 633.386719 485.898438 641.867188 C 486.363281 645.902344 488.996094 648.074219 491.59375 650.128906 C 497.171875 654.542969 503.160156 658.441406 508.90625 662.648438 C 518.054688 669.34375 527.324219 675.894531 536.175781 682.964844 C 540.472656 686.398438 542.714844 691.21875 540.832031 697.105469 C 540.414062 698.898438 540.085938 700.714844 539.855469 702.542969 C 539.011719 705.761719 540.3125 709.160156 543.089844 710.992188 C 544.789062 712.28125 546.363281 713.726562 547.792969 715.304688 C 550.265625 717.757812 550.28125 721.753906 547.828125 724.226562 C 547.8125 724.242188 547.796875 724.261719 547.777344 724.277344 C 546.316406 725.816406 544.671875 727.167969 542.882812 728.308594 C 531.039062 735.964844 519.074219 743.433594 507.292969 751.1875 C 498.488281 756.984375 490.070312 763.371094 481.179688 769.027344 C 472.832031 774.335938 464.128906 779.09375 455.503906 783.949219 C 453.414062 784.9375 451.25 785.761719 449.035156 786.417969 L 440.191406 786.417969 C 440.035156 786.21875 439.917969 785.890625 439.71875 785.828125 C 433.582031 783.914062 427.269531 782.445312 421.332031 780.050781 C 409.105469 775.128906 397.078125 769.714844 384.964844 764.511719 C 382.667969 763.289062 380.246094 762.3125 377.746094 761.597656 C 373.226562 760.742188 368.597656 760.441406 364.011719 759.945312 C 363.34375 759.90625 362.675781 759.9375 362.015625 760.042969 C 357.691406 760.53125 353.382812 761.171875 349.046875 761.503906 C 340.917969 762.128906 332.855469 760.957031 324.871094 759.78125 C 319.320312 758.960938 313.648438 757.613281 309.167969 753.8125 C 307.4375 752.414062 305.386719 751.460938 303.199219 751.042969 C 291.480469 748.457031 280.140625 744.398438 269.441406 738.96875 C 261.03125 734.507812 252.6875 729.917969 244.214844 725.578125 C 242.515625 724.863281 240.675781 724.5625 238.835938 724.691406 C 235.539062 724.75 232.242188 725.148438 228.945312 725.414062 C 225.382812 725.703125 221.777344 725.757812 218.261719 726.335938 C 209.652344 727.847656 200.929688 728.609375 192.191406 728.609375 C 188.582031 728.523438 185.136719 727.09375 182.519531 724.605469 C 181.230469 723.253906 179.867188 721.972656 178.433594 720.773438 C 170.984375 715.566406 163.527344 710.367188 155.9375 705.367188 C 149.226562 700.945312 142.296875 696.851562 135.554688 692.480469 C 133.644531 691.367188 131.976562 689.886719 130.640625 688.128906 C 127.71875 683.75 125.230469 679.085938 122.507812 674.574219 C 121.0625 672.0625 119.488281 669.628906 117.792969 667.277344 C 114.398438 662.773438 110.828125 658.402344 107.328125 653.972656 Z M 107.328125 647.550781 " fill-opacity="0.67" fill-rule="nonzero"/><g clip-path="url(#19c098f658)"><path fill="#6d8f46" d="M 85.578125 683.941406 C 85.777344 683.78125 86.144531 683.621094 86.148438 683.457031 C 86.191406 677.476562 90.480469 675.144531 95.21875 673.988281 C 97.851562 673.59375 100.105469 671.898438 101.210938 669.476562 C 102.609375 666.234375 105.648438 663.996094 109.164062 663.628906 C 111.359375 663.453125 113.566406 663.433594 115.765625 663.574219 C 118.527344 661.414062 121.558594 658.824219 124.808594 656.542969 C 131.550781 651.808594 138.933594 653.390625 144.820312 659.402344 C 145.4375 660.097656 145.980469 660.855469 146.433594 661.667969 C 147.949219 664.109375 150.085938 666.105469 152.625 667.453125 C 156.640625 669.703125 158.480469 673.789062 159.523438 678.195312 C 159.648438 679.171875 160.09375 680.082031 160.789062 680.777344 C 169.054688 686.085938 172.679688 694.03125 174.023438 703.335938 C 174.078125 703.710938 174.199219 704.074219 174.363281 704.738281 C 178.667969 704.738281 182.972656 704.882812 187.257812 704.644531 C 188.644531 704.414062 189.917969 703.738281 190.882812 702.714844 C 193.175781 700.277344 196.078125 698.5 199.289062 697.5625 C 206.875 695.609375 212.773438 698.402344 217.679688 704.007812 C 218.109375 704.496094 218.480469 705.027344 218.992188 705.6875 C 222.125 704.429688 225.125 703.105469 228.207031 702.011719 C 238.570312 698.332031 248.738281 697.90625 258.160156 704.59375 C 261.179688 706.738281 263.851562 709.371094 267.027344 712.078125 C 270.214844 711.789062 274.5 711.148438 278.792969 711.0625 C 286.234375 710.917969 292.34375 714.417969 297.917969 718.902344 C 301.863281 722.078125 305.585938 725.527344 309.515625 728.726562 C 310.5 729.589844 311.738281 730.109375 313.046875 730.214844 C 315.578125 730.28125 318.019531 731.175781 319.996094 732.761719 C 324.960938 736.15625 330.878906 736.371094 336.152344 737.707031 C 338.359375 733.949219 340.230469 730.488281 342.359375 727.191406 C 346.21875 721.222656 352.167969 718.871094 358.953125 718.457031 C 360.90625 718.574219 362.753906 717.558594 363.703125 715.84375 C 367.753906 709.671875 375.242188 706.703125 382.425781 708.417969 C 385.714844 709.246094 389.3125 710.023438 391.96875 711.933594 C 397.164062 715.667969 399.195312 720.777344 397.953125 727.59375 C 397.300781 731.171875 398.8125 735.355469 400.101562 739 C 401.179688 742.046875 403.355469 744.710938 405.179688 747.765625 C 412.039062 745.476562 419.09375 746.445312 426.15625 747.769531 C 428.5 748.210938 430.878906 748.492188 433.25 748.769531 C 439.515625 749.5 443.542969 753.230469 446.5625 758.421875 C 447.660156 760.386719 448.914062 762.253906 450.3125 764.015625 C 451.820312 765.890625 454.558594 766.1875 456.433594 764.679688 C 457.105469 764.140625 457.605469 763.414062 457.863281 762.589844 C 459.027344 759.507812 460.058594 756.378906 461.148438 753.269531 C 464.320312 744.238281 468.675781 741.125 478.375 740.949219 C 485.457031 740.820312 487.886719 741.285156 494.777344 744.136719 C 497.238281 739.792969 501.929688 739.128906 506.160156 737.953125 C 512.25 736.261719 518.46875 735.75 524.273438 739.15625 C 527.171875 740.5625 529.347656 743.117188 530.277344 746.199219 C 531.300781 750.269531 529.933594 755.449219 526.664062 757.445312 C 524.78125 758.664062 522.824219 759.765625 520.808594 760.746094 C 482.023438 778.277344 450.507812 793.722656 406.730469 794.078125 C 364.984375 794.414062 323.757812 785.476562 283.230469 776.40625 C 261.144531 771.464844 239.066406 765.671875 216.863281 761.378906 C 189.714844 756.125 164.578125 751.875 141.070312 736.023438 C 136.023438 732.621094 130.921875 728.5 129.171875 722.671875 C 127.417969 716.84375 130.816406 709.199219 136.886719 708.777344 C 131.757812 708.617188 75.949219 691.816406 85.578125 683.941406 Z M 85.578125 683.941406 " fill-opacity="1" fill-rule="nonzero"/></g><path fill="#566266" d="M 362.953125 290.710938 C 362.585938 293.304688 362.457031 295.921875 362.566406 298.539062 C 363.277344 297.066406 363.960938 295.597656 364.597656 294.113281 C 367.257812 287.324219 369.269531 280.296875 370.605469 273.128906 C 371.21875 270.347656 371.839844 267.519531 372.539062 264.707031 C 372.886719 263.113281 373.113281 261.492188 373.21875 259.863281 C 373.238281 259.648438 373.257812 259.433594 373.277344 259.21875 C 373.441406 258.5 372.996094 257.78125 372.273438 257.613281 C 372.230469 257.601562 372.1875 257.59375 372.140625 257.589844 C 372.023438 257.554688 371.894531 257.5625 371.78125 257.621094 C 371.472656 257.808594 371.238281 258.097656 371.113281 258.4375 C 370.894531 258.929688 370.667969 259.417969 370.457031 259.871094 C 369.863281 261.019531 369.382812 262.226562 369.03125 263.472656 C 368.542969 265.507812 368.042969 267.539062 367.546875 269.5625 C 365.800781 276.667969 364.082031 283.65625 362.953125 290.710938 Z M 422.160156 348.609375 C 422.347656 349.296875 422.535156 349.980469 422.722656 350.667969 C 422.730469 350.085938 422.726562 349.511719 422.71875 348.933594 C 422.5625 340.851562 422.121094 332.753906 421.535156 324.65625 C 421.25 320.726562 420.855469 316.796875 420.457031 312.820312 C 420.03125 308.601562 419.601562 304.328125 419.308594 300.039062 C 419.296875 299.851562 419.28125 299.660156 419.269531 299.46875 C 418.761719 295.375 418.941406 291.226562 419.796875 287.191406 C 421.132812 282.332031 422.910156 277.617188 424.632812 273.035156 C 425.5625 270.566406 426.480469 268.132812 427.328125 265.6875 C 431.679688 253.140625 435.605469 241.539062 432.28125 228.878906 C 431.507812 225.03125 431.660156 221.054688 432.726562 217.277344 C 434.269531 210.789062 436.070312 204.371094 437.859375 198.015625 C 438.5 195.730469 439.136719 193.449219 439.769531 191.175781 C 439.859375 190.84375 439.953125 190.515625 440.042969 190.191406 C 441.234375 186.800781 441.785156 183.21875 441.671875 179.628906 C 441.636719 179.167969 441.492188 178.726562 441.25 178.332031 C 441.113281 178.105469 440.917969 177.914062 440.691406 177.773438 C 440.511719 177.667969 440.308594 177.613281 440.101562 177.621094 C 439.800781 177.636719 439.507812 177.738281 439.261719 177.914062 C 438.671875 178.484375 438.25 179.203125 438.035156 179.996094 C 437.792969 180.722656 437.550781 181.445312 437.308594 182.171875 C 434.070312 191.863281 430.84375 201.515625 427.882812 211.242188 C 425.945312 216.757812 425.441406 222.675781 426.421875 228.4375 C 428.363281 236.285156 428.066406 244.515625 425.570312 252.199219 C 424.96875 253.953125 424.378906 255.714844 423.785156 257.488281 C 421.859375 263.230469 419.898438 269.089844 417.488281 274.777344 C 414.523438 281.773438 414.410156 289.015625 414.976562 296.828125 C 415.203125 299.941406 415.496094 303.050781 415.796875 306.195312 C 416.039062 308.75 416.28125 311.332031 416.488281 313.917969 C 416.640625 315.816406 416.746094 317.714844 416.847656 319.574219 C 416.988281 322.109375 417.125 324.574219 417.371094 327.015625 C 417.695312 330.199219 418.210938 333.355469 418.921875 336.472656 C 419.597656 339.441406 420.421875 342.386719 421.269531 345.40625 C 421.566406 346.46875 421.867188 347.539062 422.160156 348.609375 Z M 562.113281 372.636719 C 562.691406 376.832031 563.847656 380.925781 565.550781 384.800781 C 565.5 380.898438 564.980469 377.015625 564.003906 373.238281 C 563.667969 371.671875 563.320312 370.046875 563.03125 368.414062 C 562.964844 367.910156 562.710938 367.453125 562.320312 367.125 C 562.21875 367.039062 562.097656 366.980469 561.96875 366.945312 L 561.925781 366.941406 C 561.839844 366.996094 561.769531 367.070312 561.722656 367.160156 C 561.402344 367.769531 561.308594 368.46875 561.464844 369.140625 C 561.570312 369.738281 561.683594 370.335938 561.796875 370.949219 C 561.902344 371.5 562.011719 372.066406 562.113281 372.636719 Z M 308.519531 372.324219 C 310.117188 374.855469 312.195312 377.050781 314.636719 378.78125 C 314.679688 375.101562 313.84375 371.464844 312.191406 368.175781 C 307.839844 359.363281 303.515625 350.640625 298.496094 342.390625 C 294.054688 334.683594 288.925781 327.402344 283.160156 320.628906 L 283.191406 320.710938 C 284.613281 324.679688 286.089844 328.792969 287.15625 333.035156 C 288.285156 337.257812 290.027344 341.289062 292.332031 345 C 292.785156 345.761719 293.222656 346.523438 293.648438 347.265625 C 294.015625 347.902344 294.371094 348.527344 294.734375 349.144531 C 296.066406 351.402344 297.378906 353.671875 298.6875 355.929688 C 301.910156 361.492188 305.09375 366.992188 308.519531 372.324219 Z M 402.039062 402.578125 C 402.738281 405.703125 403.792969 408.742188 405.179688 411.628906 C 405.328125 410.386719 405.339844 409.128906 405.214844 407.882812 C 404.089844 399.023438 401.214844 390.472656 396.757812 382.734375 C 394.914062 379.773438 393.574219 376.53125 392.789062 373.136719 C 391.914062 368.175781 391.277344 363.183594 390.648438 358.269531 C 390.40625 356.367188 390.167969 354.476562 389.914062 352.59375 C 390.152344 358.484375 390.449219 364.34375 390.953125 370.179688 C 391.125 375.199219 392.476562 380.105469 394.902344 384.503906 C 398.234375 390.105469 400.644531 396.207031 402.039062 402.574219 Z M 273.21875 403.066406 C 274.035156 405.789062 275.554688 408.25 277.617188 410.207031 C 278.269531 408.027344 278.429688 405.730469 278.09375 403.484375 C 277.570312 400.933594 277.089844 398.378906 276.617188 395.847656 C 276.140625 393.3125 275.671875 390.804688 275.15625 388.308594 C 274.152344 383.414062 273.070312 378.539062 271.914062 373.6875 C 271.816406 373.074219 271.550781 372.496094 271.15625 372.015625 C 270.964844 371.828125 270.726562 371.703125 270.46875 371.652344 C 270.105469 371.542969 269.726562 371.519531 269.355469 371.585938 C 269.269531 371.605469 269.191406 371.648438 269.132812 371.707031 C 268.96875 371.863281 268.539062 372.488281 268.492188 374.207031 C 268.21875 383.984375 270.351562 393.472656 273.21875 403.0625 Z M 464.710938 421.917969 C 466.261719 427.914062 467.972656 433.414062 471.210938 438.179688 C 472.429688 433.800781 472.402344 429.167969 471.125 424.804688 C 469.324219 418.097656 467.425781 411.007812 467.335938 403.480469 C 467.433594 397.59375 468.078125 391.730469 469.265625 385.960938 C 469.375 385.328125 469.484375 384.695312 469.59375 384.066406 C 470.308594 379.644531 470.285156 375.136719 469.53125 370.722656 C 468.910156 367.25 468.085938 363.820312 467.058594 360.445312 C 466.507812 358.488281 465.941406 356.472656 465.449219 354.441406 C 464.246094 349.453125 463.46875 344.425781 462.714844 339.539062 C 462.078125 335.425781 461.457031 331.414062 460.605469 327.464844 C 460.589844 328.175781 460.574219 328.886719 460.558594 329.605469 C 460.535156 335.140625 460.234375 340.667969 459.65625 346.171875 C 458.78125 351.289062 459.507812 356.554688 461.738281 361.242188 C 465.421875 368.308594 466.539062 376.4375 464.894531 384.238281 C 463.742188 389.699219 462.921875 395.222656 462.429688 400.78125 C 461.957031 407.90625 462.726562 415.058594 464.710938 421.914062 Z M 348.320312 411.578125 C 338.898438 416.390625 329.492188 421.246094 320.105469 426.144531 C 328.394531 423.640625 336.625 421.050781 344.734375 418.15625 C 347.242188 417.085938 349.582031 415.664062 351.683594 413.929688 C 352.582031 413.269531 353.523438 412.574219 354.488281 411.917969 C 354.652344 411.832031 354.777344 411.6875 354.839844 411.511719 C 354.890625 411.207031 354.835938 410.894531 354.683594 410.625 C 354.632812 410.46875 354.523438 410.335938 354.382812 410.253906 C 354.027344 410.125 353.636719 410.109375 353.273438 410.214844 C 353.097656 410.25 352.925781 410.285156 352.757812 410.316406 C 351.226562 410.539062 349.734375 410.960938 348.320312 411.578125 Z M 479.328125 471.785156 C 477.164062 474.773438 474.746094 477.566406 472.105469 480.136719 C 474.003906 479.199219 475.933594 478.296875 477.886719 477.441406 C 479.402344 476.792969 480.726562 475.765625 481.722656 474.453125 C 482.976562 472.722656 483.765625 470.699219 484.015625 468.578125 C 484.46875 465.394531 484.824219 462.1875 485.183594 458.933594 C 485.394531 457.042969 485.605469 455.132812 485.835938 453.222656 C 486.117188 450.910156 486.414062 448.597656 486.710938 446.296875 C 487.175781 442.675781 487.636719 439.082031 488.035156 435.480469 C 488.355469 432.628906 488.75 428.777344 491.160156 425.9375 C 492.542969 424.339844 494.375 423.207031 496.417969 422.679688 C 496.582031 422.570312 496.738281 422.453125 496.886719 422.320312 C 497.050781 422.183594 497.320312 421.960938 497.613281 421.757812 C 498.566406 421.097656 499.832031 421.121094 500.761719 421.8125 C 504.566406 424.847656 508.015625 428.300781 511.042969 432.109375 C 513.628906 435.335938 516.519531 438.3125 519.667969 440.992188 C 519.699219 438.019531 519.136719 435.070312 518.015625 432.316406 C 515.226562 425.496094 509.203125 420.261719 502.105469 415.03125 C 501.28125 414.425781 500.871094 413.40625 501.042969 412.398438 C 502.980469 401.488281 504.28125 390.472656 504.933594 379.410156 C 504.273438 381.574219 503.648438 383.738281 503.074219 385.914062 C 500.597656 395.324219 498.296875 404.792969 496.035156 414.285156 C 495.738281 415.667969 495.140625 416.96875 494.277344 418.09375 C 493.367188 419.203125 492.21875 420.097656 490.917969 420.710938 C 489.21875 421.492188 487.742188 422.6875 486.625 424.183594 C 485.824219 425.332031 485.332031 426.664062 485.1875 428.058594 C 484.945312 430.148438 484.679688 432.238281 484.417969 434.3125 C 483.898438 438.425781 483.386719 442.480469 483.027344 446.539062 C 482.800781 449.050781 482.699219 451.585938 482.597656 454.195312 C 482.484375 457.050781 482.367188 459.996094 482.074219 462.9375 C 481.9375 466.074219 480.992188 469.121094 479.328125 471.785156 Z M 135.125 436.976562 C 134.394531 438.4375 133.902344 440.003906 133.667969 441.621094 C 134.75 441.308594 135.800781 440.898438 136.804688 440.390625 C 142.746094 437.171875 148.613281 433.894531 154.285156 430.347656 C 158.761719 427.804688 162.128906 423.679688 163.714844 418.78125 C 164.164062 417.320312 164.886719 415.957031 165.839844 414.765625 C 166.710938 413.691406 167.628906 412.671875 168.492188 411.710938 C 169.605469 410.480469 170.621094 409.34375 171.53125 408.148438 C 174.164062 404.675781 176.703125 401.203125 178.960938 397.59375 C 179.449219 396.753906 179.636719 395.765625 179.484375 394.804688 C 179.449219 394.371094 179.292969 393.953125 179.023438 393.609375 C 178.648438 393.371094 178.207031 393.265625 177.761719 393.300781 C 176.542969 393.3125 175.359375 393.734375 174.40625 394.5 C 174.195312 394.683594 173.992188 394.882812 173.804688 395.09375 C 172.753906 396.242188 171.699219 397.386719 170.644531 398.527344 C 168.066406 401.320312 165.519531 404.082031 163.046875 406.902344 C 159.84375 410.5625 157.230469 413.621094 156.242188 417.851562 C 155.542969 420.832031 152.292969 423.011719 150.90625 424.023438 C 150.804688 424.09375 150.707031 424.167969 150.613281 424.238281 C 148.914062 425.480469 147.121094 426.566406 145.449219 427.578125 C 144.0625 428.421875 142.753906 429.214844 141.503906 430.074219 C 138.824219 431.792969 136.628906 434.167969 135.125 436.976562 Z M 522.535156 491.039062 C 521.933594 495.070312 521.726562 499.152344 521.914062 503.222656 C 523.039062 498.71875 523.828125 494.097656 524.539062 489.378906 C 524.644531 488.6875 524.746094 487.996094 524.851562 487.304688 C 525.835938 480.792969 526.808594 474.328125 527.570312 467.847656 C 527.914062 464.289062 528.039062 460.710938 527.941406 457.136719 L 527.9375 457.050781 C 527.878906 457.195312 527.804688 457.40625 527.714844 457.71875 C 526.929688 460.375 526.339844 463.085938 525.949219 465.824219 C 525.421875 469.511719 524.945312 473.203125 524.464844 476.921875 C 523.859375 481.605469 523.25 486.328125 522.535156 491.039062 Z M 678.484375 509.695312 C 683.589844 514.242188 689.21875 518.160156 695.253906 521.367188 C 693.847656 518.59375 691.972656 516.082031 689.714844 513.941406 C 684.644531 509.355469 679.324219 505 673.867188 500.835938 C 671.53125 499.296875 669.8125 496.984375 669 494.308594 C 667.09375 487.570312 665.109375 480.855469 663.121094 474.121094 C 661.742188 469.445312 660.371094 464.765625 659.003906 460.074219 C 657.816406 455.820312 655.789062 451.847656 653.042969 448.386719 C 650.050781 444.734375 646.359375 441.710938 642.1875 439.496094 C 629.691406 432.664062 629.292969 432.238281 622.378906 419.820312 L 622.300781 419.679688 C 622 419.140625 621.730469 418.589844 621.5 418.117188 C 621.199219 417.503906 620.957031 417.003906 620.683594 416.546875 L 620.636719 416.472656 C 618.535156 412.945312 616.433594 409.425781 614.332031 405.910156 C 615.289062 409.617188 616.230469 413.316406 617.132812 417.023438 C 618.863281 424.707031 622.902344 431.679688 628.707031 437 C 632.554688 440.417969 636.710938 443.46875 641.125 446.113281 C 645.546875 448.800781 649.097656 452.707031 651.355469 457.359375 C 651.96875 458.578125 651.585938 460.058594 650.457031 460.824219 C 650.292969 460.933594 650.132812 461.050781 649.933594 461.203125 C 649.414062 461.613281 648.851562 461.960938 648.253906 462.242188 C 644.433594 463.902344 640.613281 465.554688 636.789062 467.195312 C 629.300781 470.421875 621.828125 473.640625 614.398438 476.953125 C 611.945312 477.957031 609.71875 479.453125 607.859375 481.34375 C 607.585938 481.636719 607.320312 481.949219 607.066406 482.273438 C 622.835938 479.941406 636.109375 471.921875 650.015625 463.472656 L 650.113281 463.414062 C 651.390625 462.636719 653.058594 463.042969 653.832031 464.320312 C 653.964844 464.539062 654.066406 464.777344 654.132812 465.023438 C 659.140625 483.570312 665.984375 501.570312 674.5625 518.757812 L 674.546875 518.640625 C 674.460938 518.179688 674.335938 517.726562 674.167969 517.289062 C 673.65625 515.996094 673.421875 514.613281 673.476562 513.222656 C 673.554688 512.257812 673.832031 511.316406 674.285156 510.460938 C 674.976562 509.136719 676.613281 508.625 677.9375 509.316406 C 678.136719 509.417969 678.320312 509.546875 678.484375 509.695312 Z M 325.296875 497.648438 C 324.164062 499.945312 323.6875 502.507812 323.914062 505.058594 C 325.925781 503.957031 327.644531 502.390625 328.921875 500.484375 C 333.886719 492.578125 338.507812 484.4375 343.15625 476.246094 L 343.363281 475.882812 C 344.4375 473.996094 345.328125 472.007812 346.023438 469.953125 C 342.058594 473.320312 338.355469 476.992188 334.957031 480.929688 C 331.972656 484.902344 329.417969 489.179688 327.335938 493.6875 C 326.671875 495 325.996094 496.332031 325.296875 497.648438 Z M 617.140625 532.96875 C 617.328125 534.011719 617.574219 535.042969 617.871094 536.058594 C 617.882812 533.507812 617.832031 531.0625 617.640625 528.636719 C 617.011719 520.734375 615.835938 512.851562 614.644531 504.878906 L 614.625 504.761719 C 614.527344 504.089844 614.460938 503.410156 614.40625 502.8125 C 614.390625 501.515625 614.125 500.238281 613.617188 499.042969 C 613.597656 499.246094 613.585938 499.5 613.585938 499.816406 C 613.75 510.953125 614.9375 522.050781 617.140625 532.96875 Z M 423.710938 538.234375 C 422.640625 539.066406 421.523438 539.9375 420.347656 540.785156 C 424.757812 539.011719 428.78125 536.390625 432.1875 533.078125 C 432.894531 532.183594 433.328125 531.105469 433.441406 529.96875 C 433.421875 529.929688 433.402344 529.890625 433.378906 529.847656 C 433.28125 529.910156 433.1875 529.976562 433.097656 530.046875 C 431.929688 531.027344 430.800781 532.074219 429.609375 533.175781 C 428.058594 534.613281 426.40625 536.144531 424.613281 537.535156 C 424.3125 537.765625 424.011719 537.996094 423.710938 538.234375 Z M 719.125 578.421875 C 725.347656 579.105469 731.597656 579.605469 737.898438 580.109375 C 741.546875 580.402344 745.210938 580.695312 748.875 581.027344 C 750.191406 581.203125 751.53125 581.003906 752.742188 580.453125 C 753.585938 580.015625 754.324219 579.402344 754.90625 578.652344 C 754.464844 577.714844 753.824219 576.882812 753.03125 576.214844 C 752.234375 575.582031 751.273438 575.191406 750.261719 575.078125 C 748.5625 574.859375 746.867188 574.613281 745.191406 574.371094 C 739.695312 573.40625 734.125 572.921875 728.546875 572.917969 C 724.855469 573.210938 721.15625 572.46875 717.863281 570.777344 C 715.136719 569.152344 712.917969 566.800781 711.457031 563.980469 C 709.429688 560.726562 707.011719 557.734375 704.257812 555.066406 L 703.824219 554.609375 C 703.675781 554.4375 703.480469 554.304688 703.261719 554.234375 C 703.179688 554.207031 703.089844 554.203125 703.003906 554.226562 C 702.929688 554.246094 702.863281 554.289062 702.808594 554.347656 C 702.699219 554.480469 702.625 554.644531 702.601562 554.816406 C 702.59375 555.328125 702.703125 555.835938 702.925781 556.296875 C 705.867188 563.554688 709.972656 570.285156 715.082031 576.222656 C 716.152344 577.378906 717.570312 578.152344 719.121094 578.421875 Z M 72.175781 525.363281 L 72.175781 529.476562 C 73.195312 528.59375 74.046875 527.535156 74.695312 526.351562 C 76.445312 523.273438 77.953125 520.039062 79.609375 516.484375 C 80.328125 514.9375 81.074219 513.335938 81.871094 511.6875 C 82.210938 510.980469 82.847656 510.453125 83.605469 510.25 C 84.03125 510.136719 84.515625 510.019531 85.007812 509.898438 C 86.285156 509.589844 87.726562 509.234375 89.101562 508.765625 C 90.984375 508.125 92.863281 507.480469 94.742188 506.839844 C 105.886719 503.039062 117.003906 499.25 128.054688 495.28125 C 131.75 493.847656 135.320312 492.121094 138.734375 490.113281 C 139.410156 489.734375 139.664062 489.449219 139.683594 489.539062 C 139.671875 489.492188 139.65625 489.445312 139.632812 489.40625 C 139.464844 488.96875 139.164062 488.597656 138.765625 488.347656 C 138.414062 488.1875 138.015625 488.152344 137.636719 488.246094 C 137.308594 488.296875 136.984375 488.351562 136.660156 488.402344 C 135.128906 488.644531 133.738281 488.867188 132.410156 489.210938 C 115.976562 493.230469 99.898438 498.582031 84.332031 505.207031 C 84.273438 505.230469 84.207031 505.261719 84.101562 505.3125 C 83.359375 505.707031 82.539062 505.925781 81.703125 505.941406 C 80.988281 505.878906 80.269531 506.015625 79.625 506.332031 C 79.257812 506.558594 78.960938 506.890625 78.777344 507.285156 C 78.417969 507.960938 77.996094 508.617188 77.648438 509.152344 C 77.027344 509.925781 76.578125 510.820312 76.332031 511.78125 C 75.960938 515.21875 75.03125 518.570312 73.574219 521.703125 C 73.054688 522.984375 72.574219 524.167969 72.175781 525.363281 Z M 116.796875 526.398438 C 110.34375 530.972656 104.5 535.746094 100.261719 542.167969 C 106.542969 540.378906 112.199219 537.027344 118.113281 533.355469 C 122.984375 530.332031 127.855469 527.316406 132.726562 524.300781 C 142.769531 518.085938 152.796875 511.859375 162.808594 505.621094 C 164.910156 504.273438 166.882812 502.734375 168.695312 501.023438 C 169.082031 500.710938 169.375 500.292969 169.535156 499.824219 C 169.621094 499.464844 169.597656 499.085938 169.472656 498.738281 C 169 496.851562 169.203125 494.863281 170.042969 493.109375 C 174.148438 484.445312 178.359375 475.832031 182.578125 467.238281 C 183.671875 465.015625 184.804688 462.8125 185.921875 460.640625 C 188.152344 456.304688 190.328125 452.078125 192.171875 447.726562 C 194.160156 443.046875 196.910156 438.734375 200.316406 434.964844 C 200.722656 434.507812 201.128906 434.050781 201.539062 433.589844 C 204.507812 430.261719 207.53125 426.871094 210.714844 423.632812 C 213.414062 420.886719 216.234375 418.269531 219 415.703125 C 219.945312 414.824219 220.886719 413.949219 221.824219 413.074219 C 222.703125 412.25 223.601562 411.457031 224.464844 410.695312 C 226.054688 409.351562 227.5625 407.921875 228.988281 406.40625 C 234.015625 400.84375 235.332031 393.71875 235.601562 385.882812 C 235.757812 378.253906 237.316406 370.722656 240.191406 363.65625 C 242.503906 358.125 244.3125 353.089844 243.792969 347.636719 C 243.765625 346.488281 243.367188 345.378906 242.660156 344.472656 C 242.449219 344.261719 242.328125 344.25 242.308594 344.246094 L 242.203125 344.238281 C 241.617188 345.152344 241.203125 346.171875 240.976562 347.238281 C 240.785156 347.898438 240.59375 348.5625 240.402344 349.238281 C 239.4375 353.082031 238.09375 356.820312 236.382812 360.394531 C 232.097656 368.820312 229.851562 378.132812 229.820312 387.585938 C 229.808594 391.683594 228.835938 395.71875 226.972656 399.371094 C 225.234375 402.617188 222.753906 405.40625 219.734375 407.511719 C 216.824219 409.609375 214.101562 411.953125 211.59375 414.519531 C 206.722656 419.464844 201.949219 424.445312 197.492188 429.660156 C 193.871094 433.6875 190.628906 438.042969 187.808594 442.671875 C 185.238281 447.152344 183.0625 451.886719 180.832031 456.75 C 179.953125 458.660156 179.066406 460.59375 178.148438 462.515625 C 176.523438 465.929688 174.902344 469.347656 173.28125 472.765625 C 169.441406 480.859375 165.59375 488.964844 161.675781 497.039062 C 160.75 498.804688 159.316406 500.246094 157.558594 501.1875 C 143.480469 508.773438 129.867188 517.191406 116.796875 526.398438 Z M 569.449219 584.0625 C 569.335938 588.21875 569.339844 592.386719 569.355469 596.585938 C 572.636719 591.199219 575.867188 585.800781 578.96875 580.339844 C 579.683594 579.085938 580.429688 577.855469 581.152344 576.660156 C 583.65625 572.988281 585.578125 568.949219 586.847656 564.6875 C 587.59375 562.230469 587.363281 559.582031 586.207031 557.289062 C 585.007812 554.871094 584.070312 552.335938 583.402344 549.71875 C 582.601562 546.71875 581.851562 543.707031 581.109375 540.722656 C 579.75 535.234375 578.410156 529.84375 576.75 524.566406 C 575.65625 521.125 575.148438 517.523438 575.253906 513.914062 C 575.328125 511.125 575.46875 508.34375 575.605469 505.597656 C 575.875 500.171875 576.140625 494.898438 575.90625 489.664062 C 575.832031 483.363281 576.449219 477.074219 577.746094 470.90625 C 578.132812 468.671875 578.515625 466.488281 578.824219 464.300781 C 579.917969 456.640625 580.574219 449.355469 579.164062 442.191406 C 578.628906 439.472656 578.042969 436.761719 577.425781 434.050781 C 577.421875 434.660156 577.40625 435.253906 577.390625 435.820312 C 577.300781 437.382812 577.34375 438.949219 577.515625 440.503906 C 578.175781 446.121094 578.195312 451.792969 577.566406 457.414062 C 576.9375 465.976562 575.816406 474.496094 574.199219 482.929688 L 574.1875 482.992188 C 572.410156 491.796875 570.65625 500.507812 569.601562 509.273438 C 568.9375 514.742188 568.980469 520.273438 569.734375 525.730469 C 570.449219 529.972656 571.472656 534.15625 572.789062 538.25 C 573.289062 539.945312 573.800781 541.675781 574.269531 543.414062 C 574.636719 544.777344 574.976562 546.144531 575.3125 547.484375 C 576.101562 551.03125 577.148438 554.515625 578.449219 557.90625 C 579.148438 559.46875 579.476562 561.167969 579.40625 562.875 C 579.289062 564.449219 578.804688 565.972656 578 567.324219 C 577.488281 568.226562 576.980469 569.121094 576.472656 570.019531 C 574.484375 573.515625 572.519531 576.96875 570.664062 580.476562 C 570.007812 581.570312 569.59375 582.792969 569.449219 584.0625 Z M 461.007812 595.171875 C 461.378906 595.242188 461.757812 595.296875 462.144531 595.335938 L 462.152344 595.335938 L 461.039062 593.90625 C 457.535156 589.386719 454.039062 584.882812 450.496094 580.425781 C 450.066406 579.835938 449.503906 579.359375 448.851562 579.03125 C 447.652344 578.570312 446.578125 577.832031 445.71875 576.875 C 444.714844 575.671875 443.992188 574.257812 443.597656 572.738281 C 443.5625 573.414062 443.53125 574.09375 443.496094 574.773438 C 443.355469 577.652344 443.210938 580.566406 443.003906 583.480469 C 442.953125 583.773438 442.984375 584.074219 443.089844 584.351562 C 443.257812 584.625 443.5 584.847656 443.78125 585 C 445.339844 586.035156 446.84375 587.128906 448.296875 588.1875 C 449.53125 589.082031 450.726562 589.953125 451.941406 590.78125 C 454.628906 592.855469 457.714844 594.351562 461.007812 595.171875 Z M 418.335938 596.660156 C 418.640625 596.9375 419.019531 597.113281 419.429688 597.167969 L 419.488281 597.175781 C 419.921875 597.183594 420.34375 597.050781 420.695312 596.796875 C 421.046875 596.59375 421.320312 596.28125 421.472656 595.90625 C 421.640625 595.324219 421.621094 594.707031 421.414062 594.140625 C 420.875 592.070312 420.070312 590.074219 419.015625 588.210938 C 415.320312 582.128906 411.492188 576.125 407.535156 570.195312 C 403.660156 564.375 399.074219 559.78125 392.734375 557.347656 C 391.921875 557.019531 391.1875 556.519531 390.582031 555.882812 C 389.855469 555.148438 389.289062 554.273438 388.921875 553.304688 C 386.988281 547.972656 387.597656 542.535156 388.183594 537.835938 C 389.328125 528.625 387.976562 520.175781 382.824219 512.71875 C 379.355469 507.699219 376.882812 502.175781 377.308594 495.46875 C 377.570312 491.324219 377.777344 487.171875 377.984375 482.996094 C 378.058594 481.457031 378.136719 479.914062 378.214844 478.371094 C 378.148438 478.132812 378.117188 477.890625 378.117188 477.644531 C 378.117188 476.898438 378.136719 476.160156 378.152344 475.460938 C 378.226562 474.011719 378.203125 472.558594 378.085938 471.109375 C 377.75 468.0625 377.238281 465.035156 376.554688 462.046875 C 376.46875 461.34375 376.175781 460.683594 375.710938 460.148438 C 375.5 459.992188 375.238281 459.914062 374.976562 459.933594 C 374.675781 459.890625 374.367188 459.964844 374.113281 460.136719 C 373.578125 460.683594 373.230469 461.382812 373.117188 462.136719 C 372.292969 465.160156 371.761719 468.253906 371.535156 471.378906 C 371.167969 477.796875 370.96875 484.226562 370.769531 490.699219 C 370.710938 492.644531 370.648438 494.585938 370.585938 496.535156 C 370.464844 500.09375 370.929688 503.644531 371.964844 507.050781 C 373.523438 512.253906 376.921875 516.210938 380.832031 520.695312 L 380.847656 520.710938 C 383.425781 523.667969 386.699219 527.492188 386.714844 532.898438 C 386.722656 535.445312 386.601562 537.980469 386.484375 540.4375 C 386.417969 541.847656 386.351562 543.234375 386.304688 544.617188 C 386.140625 548.25 386.710938 551.878906 387.980469 555.285156 C 389.203125 558.414062 391.042969 561.261719 393.390625 563.664062 C 393.753906 564.039062 394.121094 564.414062 394.496094 564.800781 C 396.511719 566.757812 398.355469 568.882812 400.015625 571.152344 C 402.476562 574.71875 404.84375 578.351562 407.183594 581.949219 C 409.335938 585.253906 411.46875 588.527344 413.671875 591.746094 C 415 593.585938 416.570312 595.238281 418.335938 596.660156 Z M 132.917969 605.726562 C 133.636719 606 134.433594 606.011719 135.164062 605.761719 C 135.75 605.558594 136.347656 605.324219 137.011719 605.0625 C 138.601562 604.363281 140.265625 603.855469 141.972656 603.546875 C 148.609375 602.59375 155.277344 601.824219 161.941406 601.199219 C 166.171875 600.96875 169.910156 598.363281 171.582031 594.472656 C 175.800781 585.699219 179.796875 576.808594 183.78125 567.882812 C 184.40625 566.402344 185.320312 565.066406 186.464844 563.941406 C 187.453125 563.015625 188.613281 562.296875 189.882812 561.824219 C 192.964844 560.648438 195.964844 559.480469 198.851562 558.125 C 199.984375 557.589844 201.117188 557.058594 202.25 556.527344 C 212.988281 551.496094 223.617188 546.511719 233.851562 540.738281 C 235.988281 539.535156 238.152344 538.382812 240.285156 537.246094 C 242.515625 536.058594 244.714844 534.886719 246.855469 533.671875 C 245.773438 534.164062 244.691406 534.664062 243.617188 535.175781 C 240.9375 536.445312 238.300781 537.832031 235.609375 539.246094 C 231.921875 541.1875 228.128906 543.183594 224.183594 544.875 C 212.378906 549.945312 200.4375 554.695312 188.449219 559.261719 C 186.925781 559.8125 185.527344 560.664062 184.339844 561.769531 C 183.003906 563.097656 181.949219 564.683594 181.242188 566.433594 C 178.539062 572.589844 175.652344 578.65625 172.785156 584.683594 C 171.515625 587.355469 170.25 590.027344 168.992188 592.691406 C 168.269531 594.328125 167.109375 595.734375 165.644531 596.753906 C 163.988281 597.820312 162.078125 598.414062 160.113281 598.46875 C 154.039062 598.828125 148 599.324219 142.035156 600.148438 C 140.289062 600.476562 138.589844 601.011719 136.972656 601.738281 C 136.253906 602.023438 135.480469 602.332031 134.695312 602.613281 C 134.34375 602.765625 134.015625 602.972656 133.722656 603.21875 C 133.128906 603.613281 132.679688 604.195312 132.449219 604.875 C 132.394531 605.0625 132.40625 605.265625 132.484375 605.449219 C 132.601562 605.574219 132.75 605.671875 132.917969 605.726562 Z M 206.878906 618.796875 C 205.320312 620.613281 204.109375 622.703125 203.300781 624.957031 C 210.054688 622.566406 215.804688 618.277344 221.429688 613.257812 C 222.046875 612.707031 222.679688 612.167969 223.289062 611.652344 C 225.394531 610.066406 227.234375 608.160156 228.742188 606 C 232.84375 599.117188 236.6875 592.070312 240.550781 584.96875 C 233.695312 591.484375 226.917969 598.082031 220.21875 604.761719 L 219.496094 605.480469 C 215.089844 609.867188 210.765625 614.167969 206.878906 618.792969 Z M 284.042969 680.613281 C 283.546875 682.289062 283.046875 683.96875 282.542969 685.652344 C 282.980469 685.253906 283.386719 684.820312 283.761719 684.363281 C 286.3125 681.230469 288.699219 677.949219 291.132812 674.59375 C 292.921875 672.132812 294.738281 669.632812 296.628906 667.1875 C 303.929688 657.863281 307.175781 645.996094 305.636719 634.253906 C 305.15625 630.730469 305.492188 627.148438 306.617188 623.777344 C 309.046875 616.847656 311.398438 609.890625 313.757812 602.917969 C 315.378906 598.121094 317.007812 593.324219 318.652344 588.523438 C 321.195312 581.121094 322.015625 574.121094 319.269531 567.078125 C 318.824219 565.753906 318.601562 564.363281 318.617188 562.964844 L 318.605469 562.675781 C 318.503906 560.164062 318.421875 557.652344 318.34375 555.15625 C 318.257812 552.445312 318.171875 549.75 318.058594 547.066406 C 317.695312 549.84375 317.335938 552.621094 316.984375 555.398438 C 316.792969 556.910156 316.574219 558.414062 316.359375 559.890625 C 315.773438 563.414062 315.394531 566.96875 315.21875 570.539062 C 315.09375 578.453125 313.902344 586.3125 311.675781 593.90625 C 309.941406 599.136719 307.863281 604.246094 305.449219 609.199219 C 305.214844 609.699219 304.988281 610.199219 304.757812 610.699219 C 300.539062 619.894531 298.328125 629.886719 298.273438 640.007812 C 298.246094 646.941406 296.164062 653.710938 292.289062 659.464844 L 292.066406 659.800781 C 290.636719 661.746094 289.460938 663.863281 288.5625 666.101562 C 286.933594 670.867188 285.5 675.710938 284.042969 680.613281 Z M 197.832031 688.292969 C 197.558594 689.222656 197.261719 690.234375 196.890625 691.273438 C 200.460938 686.734375 203.386719 681.726562 205.589844 676.386719 C 207.03125 672.421875 209.035156 668.679688 211.535156 665.277344 C 213.726562 662.703125 216.140625 660.320312 218.75 658.167969 C 219.851562 657.199219 220.910156 656.273438 221.929688 655.316406 C 222.304688 654.960938 222.683594 654.609375 223.058594 654.257812 C 224.648438 652.773438 226.179688 651.34375 227.632812 649.847656 C 227.960938 649.507812 228.082031 649.300781 228.125 649.304688 C 228.117188 649.289062 228.105469 649.273438 228.09375 649.25 C 227.855469 648.878906 227.6875 648.816406 227.660156 648.804688 C 227.445312 648.761719 227.222656 648.78125 227.027344 648.871094 C 226.84375 648.929688 226.664062 648.984375 226.5 649.03125 C 225.945312 649.15625 225.414062 649.359375 224.921875 649.640625 C 224.46875 649.980469 224.019531 650.316406 223.570312 650.652344 C 220.277344 653.113281 217.082031 655.503906 214.109375 658.117188 C 211.71875 660.074219 209.617188 662.355469 207.859375 664.894531 C 203.769531 671.703125 200.566406 679.007812 198.339844 686.632812 C 198.167969 687.167969 198.003906 687.71875 197.832031 688.292969 Z M 502.78125 712.878906 C 507.957031 718.21875 512.816406 723.0625 518.886719 726.191406 C 518.144531 723.996094 517.191406 721.878906 516.035156 719.867188 C 508.722656 707.929688 498.449219 698.5 487.515625 689.320312 C 484.855469 687.265625 482.945312 684.394531 482.074219 681.148438 C 480.355469 674.234375 478.691406 667.285156 477.160156 660.308594 C 477.054688 659.824219 476.949219 659.34375 476.847656 658.867188 C 475.519531 652.683594 474.34375 647.785156 470 644.929688 C 463.519531 640.671875 456.617188 637.003906 449.597656 633.28125 C 448.863281 632.890625 448.125 632.503906 447.527344 632.167969 C 447.257812 632.128906 446.980469 632.136719 446.710938 632.191406 C 446.605469 632.210938 446.503906 632.234375 446.402344 632.261719 C 446.320312 632.804688 446.359375 633.359375 446.519531 633.886719 C 447.757812 637.195312 450.136719 639.957031 453.226562 641.671875 C 454.765625 642.585938 456.273438 643.542969 457.738281 644.476562 C 459.410156 645.539062 461.03125 646.570312 462.683594 647.53125 C 464.417969 648.515625 465.929688 649.847656 467.125 651.449219 C 468.328125 653.117188 469.175781 655.015625 469.609375 657.027344 C 471.652344 665.886719 473.78125 674.726562 475.996094 683.539062 C 476.890625 687.1875 478.867188 690.484375 481.667969 692.996094 C 482.863281 694.089844 484.0625 695.183594 485.269531 696.273438 C 491.171875 701.640625 497.15625 707.078125 502.78125 712.878906 Z M 365.78125 696.964844 C 366.574219 703.746094 369.316406 709.6875 373.113281 715.886719 L 373.160156 715.585938 C 374.347656 708.210938 375.375 701.722656 374.304688 694.976562 C 373.75 690.074219 372.160156 685.347656 369.636719 681.109375 C 368.242188 679.125 367.335938 676.839844 366.996094 674.441406 C 366.566406 669.449219 366.4375 664.441406 366.308594 659.535156 C 366.292969 658.859375 366.273438 658.1875 366.257812 657.515625 C 366.230469 656.613281 366.226562 655.707031 366.21875 654.839844 C 366.214844 654.171875 366.210938 653.523438 366.199219 652.890625 C 365.941406 653.816406 365.6875 654.746094 365.429688 655.671875 C 363.390625 663.058594 361.347656 670.464844 359.195312 677.839844 C 358.851562 678.878906 358.890625 680.007812 359.308594 681.019531 C 359.875 682.660156 360.671875 684.210938 361.675781 685.625 C 364.105469 688.933594 365.527344 692.871094 365.78125 696.964844 Z M 365.78125 696.964844 " fill-opacity="1" fill-rule="nonzero"/></svg>