<svg xmlns="http://www.w3.org/2000/svg" xmlns:xlink="http://www.w3.org/1999/xlink" width="1080" zoomAndPan="magnify" viewBox="0 0 810 1012.49997" height="1350" preserveAspectRatio="xMidYMid meet" version="1.0"><defs><clipPath id="6f71c01eb8"><path d="M 490 307 L 654 307 L 654 748.683594 L 490 748.683594 Z M 490 307 " clip-rule="nonzero"/></clipPath><clipPath id="c68a7799ba"><path d="M 559 309 L 762 309 L 762 748.683594 L 559 748.683594 Z M 559 309 " clip-rule="nonzero"/></clipPath></defs><path fill="#ca7a42" d="M 115.472656 526.285156 L 507.855469 526.285156 L 507.855469 742.527344 L 115.472656 742.527344 Z M 115.472656 526.285156 " fill-opacity="1" fill-rule="nonzero"/><path fill="#934b27" d="M 507.855469 547.695312 L 507.855469 742.527344 L 475.65625 742.527344 L 475.65625 656.414062 L 361.210938 646.769531 L 475.65625 635.464844 L 385.886719 623.703125 L 475.65625 623.703125 L 475.65625 547.695312 Z M 507.855469 547.695312 " fill-opacity="1" fill-rule="nonzero"/><path fill="#ca7a42" d="M 551.851562 322.796875 L 170.164062 322.796875 C 170.164062 322.796875 86.882812 384.972656 115.570312 526.285156 L 490.242188 528.933594 L 539.714844 528.835938 Z M 551.851562 322.796875 " fill-opacity="1" fill-rule="nonzero"/><path fill="#934b27" d="M 517.152344 373.089844 L 497.402344 396.160156 L 361.1875 396.160156 L 490.339844 409.820312 L 482.578125 479.769531 L 264.664062 495.761719 L 423.277344 532.734375 L 551.972656 514.621094 L 559.035156 361.066406 Z M 517.152344 373.089844 " fill-opacity="1" fill-rule="nonzero"/><g clip-path="url(#6f71c01eb8)"><path fill="#fff4cc" d="M 653.464844 629.882812 L 572.921875 732.039062 L 559.828125 748.660156 L 507.421875 744.980469 L 491.828125 743.871094 C 487.695312 608.957031 493.003906 515.246094 501.96875 450.230469 C 503.480469 439.214844 505.117188 429.039062 506.820312 419.609375 C 507.46875 415.976562 508.144531 412.464844 508.816406 409.074219 L 508.816406 408.953125 C 511.53125 395.339844 514.390625 383.457031 517.320312 373.117188 C 519.988281 363.6875 523.953125 355.003906 528.976562 347.234375 C 545.722656 321.28125 574.078125 305.71875 604.304688 307.8125 L 648.179688 310.839844 L 648.417969 320.917969 L 649.382812 377.972656 L 649.621094 388.246094 L 650.101562 417.589844 Z M 653.464844 629.882812 " fill-opacity="1" fill-rule="nonzero"/></g><path fill="#934b27" d="M 250.609375 709.863281 C 245.898438 715.996094 133.976562 722.34375 133.976562 722.34375 L 133.976562 742.527344 L 115.714844 742.527344 L 115.714844 547.621094 L 352.992188 528.113281 L 385.792969 563.402344 L 133.976562 574.464844 L 133.976562 625.625 L 239.554688 625.625 L 133.976562 646.046875 L 133.976562 697.304688 L 203.800781 697.304688 L 158.871094 709.863281 C 158.871094 709.863281 255.320312 703.726562 250.609375 709.863281 Z M 250.609375 709.863281 " fill-opacity="1" fill-rule="nonzero"/><path fill="#934b27" d="M 154.28125 343.9375 C 154.28125 343.9375 120.542969 436.929688 137.699219 479.769531 L 244.3125 495.789062 L 138.972656 532.78125 L 81.714844 520.058594 L 109.46875 373.117188 Z M 154.28125 343.9375 " fill-opacity="1" fill-rule="nonzero"/><path fill="#ffffff" d="M 649.332031 378.070312 L 508.648438 409.050781 C 511.363281 395.414062 514.246094 383.507812 517.179688 373.164062 C 519.84375 363.710938 523.832031 355.003906 528.855469 347.234375 L 648.417969 320.894531 Z M 649.332031 378.070312 " fill-opacity="0.55" fill-rule="nonzero"/><path fill="#ffffff" d="M 650.078125 417.613281 L 501.921875 450.230469 C 503.433594 439.214844 505.066406 429.015625 506.773438 419.585938 L 649.621094 388.148438 Z M 650.078125 417.613281 " fill-opacity="0.55" fill-rule="nonzero"/><g clip-path="url(#c68a7799ba)"><path fill="#e3dcbf" d="M 559.683594 748.683594 C 559.683594 748.683594 544.113281 263.671875 676.820312 313.03125 C 809.527344 362.386719 746.261719 686 746.261719 686 Z M 559.683594 748.683594 " fill-opacity="1" fill-rule="nonzero"/></g><path fill="#ca7a42" d="M 728.699219 670.367188 L 717.863281 674.671875 L 594.09375 723.882812 L 578.835938 729.945312 C 578.835938 729.945312 570.617188 281.542969 676.390625 326.019531 C 698.734375 335.425781 713.96875 356.207031 724.109375 383.144531 C 728.410156 394.59375 731.796875 407.175781 734.441406 420.453125 C 754.816406 523.855469 728.699219 670.367188 728.699219 670.367188 Z M 728.699219 670.367188 " fill-opacity="1" fill-rule="nonzero"/><path fill="#fff4cc" d="M 170.019531 323.230469 C 170.019531 323.230469 135.609375 354.570312 122.417969 437.769531 C 119.535156 455.980469 117.660156 476.664062 117.398438 500.070312 L 115.523438 742.285156 L 81.019531 740.84375 L 64.773438 740.167969 L 64.773438 495.859375 C 64.773438 495.859375 66.867188 402.773438 96.757812 353.511719 C 106.585938 337.324219 123.644531 326.886719 142.507812 325.394531 Z M 170.019531 323.230469 " fill-opacity="1" fill-rule="nonzero"/><path fill="#e3dcbf" d="M 115.472656 431.757812 C 112.566406 449.988281 110.691406 470.722656 110.429688 494.152344 L 110.429688 736.703125 L 73.976562 735.261719 C 70.277344 691.171875 54.730469 468.03125 115.472656 431.757812 Z M 115.472656 431.757812 " fill-opacity="1" fill-rule="nonzero"/><path fill="#934b27" d="M 724.109375 383.167969 C 704.527344 346.152344 666.992188 352.140625 666.992188 352.140625 C 579.964844 344.613281 594.066406 723.882812 594.066406 723.882812 L 578.808594 729.945312 C 578.808594 729.945312 570.59375 281.542969 676.363281 326.019531 C 698.734375 335.449219 713.96875 356.230469 724.109375 383.167969 Z M 724.109375 383.167969 " fill-opacity="1" fill-rule="nonzero"/><path fill="#934b27" d="M 600.84375 464.46875 L 644.597656 464.46875 L 600.84375 479.695312 Z M 600.84375 464.46875 " fill-opacity="1" fill-rule="nonzero"/><path fill="#934b27" d="M 588.109375 549.859375 L 660.339844 549.859375 L 588.109375 557.53125 Z M 588.109375 549.859375 " fill-opacity="1" fill-rule="nonzero"/><path fill="#934b27" d="M 728.699219 670.367188 L 717.863281 674.671875 C 717.863281 674.671875 726.054688 620.144531 727.714844 581.996094 C 729.371094 543.84375 734.441406 420.5 734.441406 420.5 C 754.816406 523.855469 728.699219 670.367188 728.699219 670.367188 Z M 728.699219 670.367188 " fill-opacity="1" fill-rule="nonzero"/><path fill="#934b27" d="M 730.117188 581.996094 L 660.242188 599.167969 L 730.117188 602.753906 Z M 730.117188 581.996094 " fill-opacity="1" fill-rule="nonzero"/><path fill="#fff4cc" d="M 115.472656 495.738281 L 522.992188 495.738281 L 522.992188 563.328125 L 115.472656 563.328125 Z M 115.472656 495.738281 " fill-opacity="1" fill-rule="nonzero"/><path fill="#934b27" d="M 742.371094 508.75 L 672.496094 525.949219 L 742.371094 529.511719 Z M 742.371094 508.75 " fill-opacity="1" fill-rule="nonzero"/><path fill="#ffe077" d="M 333.867188 563.375 C 335.957031 559.890625 337.132812 555.847656 337.132812 551.566406 C 337.132812 538.335938 325.792969 527.5625 311.882812 527.5625 C 297.945312 527.5625 286.628906 538.335938 286.628906 551.566406 C 286.628906 555.847656 287.804688 559.863281 289.871094 563.328125 L 289.246094 563.328125 C 281.246094 563.328125 274.78125 569.824219 274.78125 577.808594 L 274.78125 598.015625 C 274.78125 613.792969 286.339844 626.878906 301.453125 629.308594 C 303.109375 629.570312 304.816406 629.714844 306.546875 629.714844 L 315.675781 629.714844 C 333.171875 629.714844 347.347656 615.523438 347.347656 598.011719 L 347.347656 577.785156 C 347.347656 570.160156 341.386719 563.882812 333.867188 563.375 Z M 296.960938 551.542969 C 296.960938 544.015625 303.640625 537.878906 311.855469 537.878906 C 320.074219 537.878906 326.753906 544.015625 326.753906 551.542969 C 326.753906 556.546875 323.800781 560.949219 319.402344 563.328125 L 304.335938 563.328125 C 299.914062 560.949219 296.960938 556.570312 296.960938 551.542969 Z M 296.960938 551.542969 " fill-opacity="1" fill-rule="nonzero"/><path fill="#ca7a42" d="M 136.621094 521.234375 L 495.839844 521.234375 L 495.839844 532.78125 L 136.621094 532.78125 Z M 136.621094 521.234375 " fill-opacity="1" fill-rule="nonzero"/><path fill="#ffe5b3" d="M 171.582031 340.378906 L 154.160156 395.003906 L 425.628906 340.378906 C 425.628906 340.378906 242.632812 311.179688 171.582031 340.378906 Z M 171.582031 340.378906 " fill-opacity="0.22" fill-rule="nonzero"/><path fill="#ffe5b3" d="M 167.710938 426.105469 L 146.398438 480.730469 L 478.804688 426.105469 C 478.804688 426.105469 254.71875 396.902344 167.710938 426.105469 Z M 167.710938 426.105469 " fill-opacity="0.22" fill-rule="nonzero"/><path fill="#ffad56" d="M 319.328125 560.203125 L 307.507812 560.203125 C 300.636719 560.203125 294.4375 556.015625 290.472656 548.753906 C 287.539062 543.363281 285.929688 536.414062 285.929688 529.171875 C 285.929688 521.957031 287.539062 515.003906 290.496094 509.59375 C 294.460938 502.304688 300.660156 498.144531 307.53125 498.144531 L 319.328125 498.144531 C 325.023438 498.144531 329.6875 502.785156 329.636719 508.511719 C 329.636719 514.210938 325 518.832031 319.28125 518.832031 C 319.28125 518.832031 319.28125 518.832031 319.257812 518.832031 L 308.996094 518.832031 C 308.0625 520.226562 306.570312 523.785156 306.570312 529.171875 C 306.570312 534.585938 308.0625 538.121094 308.996094 539.515625 L 319.066406 539.515625 C 325.046875 539.515625 329.902344 544.496094 329.566406 550.460938 C 329.324219 555.894531 324.832031 560.203125 319.328125 560.203125 Z M 319.328125 560.203125 " fill-opacity="1" fill-rule="nonzero"/><path fill="#ffad56" d="M 320.484375 590.292969 C 320.484375 587.214844 315.535156 584.710938 309.429688 584.710938 C 303.328125 584.710938 298.378906 587.214844 298.378906 590.292969 C 298.378906 592.457031 300.828125 594.332031 304.410156 595.273438 L 301.09375 613.601562 L 318.585938 613.601562 L 314.933594 595.152344 C 318.25 594.164062 320.484375 592.359375 320.484375 590.292969 Z M 320.484375 590.292969 " fill-opacity="1" fill-rule="nonzero"/><path fill="#222429" d="M 320.484375 591.375 C 320.484375 588.730469 316.207031 586.5625 310.945312 586.5625 C 305.683594 586.5625 301.40625 588.730469 301.40625 591.375 C 301.40625 593.25 303.519531 594.863281 306.59375 595.65625 L 303.734375 611.433594 L 318.824219 611.433594 L 315.675781 595.535156 C 318.5625 594.71875 320.484375 593.15625 320.484375 591.375 Z M 320.484375 591.375 " fill-opacity="1" fill-rule="nonzero"/><path fill="#ffad56" d="M 347.347656 577.808594 L 347.347656 598.015625 C 347.347656 615.523438 333.171875 629.714844 315.675781 629.714844 L 306.546875 629.714844 C 304.816406 629.714844 303.109375 629.570312 301.453125 629.308594 L 321.277344 619.421875 C 328.84375 615.644531 334.324219 608.695312 336.222656 600.441406 L 339.03125 588.222656 C 340.449219 581.996094 339.753906 575.476562 336.992188 569.726562 L 333.964844 563.351562 C 341.4375 563.929688 347.347656 570.183594 347.347656 577.808594 Z M 347.347656 577.808594 " fill-opacity="0.22" fill-rule="nonzero"/><path fill="#ffffff" d="M 296.625 566.238281 L 291.816406 567.371094 C 284.488281 569.101562 279.15625 575.453125 278.722656 582.980469 L 278.335938 589.378906 C 278.074219 593.78125 284.175781 595.199219 285.859375 591.109375 L 286.265625 588.65625 C 287.492188 581.273438 292.828125 575.234375 299.988281 573.117188 C 303.207031 570.496094 300.683594 565.300781 296.625 566.238281 Z M 296.625 566.238281 " fill-opacity="0.33" fill-rule="nonzero"/></svg>