<svg xmlns="http://www.w3.org/2000/svg" xmlns:xlink="http://www.w3.org/1999/xlink" width="1080" zoomAndPan="magnify" viewBox="0 0 810 1012.49997" height="1350" preserveAspectRatio="xMidYMid meet" version="1.0"><defs><clipPath id="aa30099d5a"><path d="M 524 383 L 695 383 L 695 546.992188 L 524 546.992188 Z M 524 383 " clip-rule="nonzero"/></clipPath><clipPath id="fbfe8fec78"><path d="M 207 410 L 351 410 L 351 546.992188 L 207 546.992188 Z M 207 410 " clip-rule="nonzero"/></clipPath><clipPath id="8d915663fa"><path d="M 44 329 L 766.808594 329 L 766.808594 546.992188 L 44 546.992188 Z M 44 329 " clip-rule="nonzero"/></clipPath><clipPath id="496ec76c72"><path d="M 600 435 L 710 435 L 710 546.992188 L 600 546.992188 Z M 600 435 " clip-rule="nonzero"/></clipPath><clipPath id="e5218d67f1"><path d="M 44 384 L 174 384 L 174 546.992188 L 44 546.992188 Z M 44 384 " clip-rule="nonzero"/></clipPath><clipPath id="cd74ee1c29"><path d="M 278 329 L 453 329 L 453 546.992188 L 278 546.992188 Z M 278 329 " clip-rule="nonzero"/></clipPath><clipPath id="60f76ae466"><path d="M 429 328.847656 L 503 328.847656 L 503 409 L 429 409 Z M 429 328.847656 " clip-rule="nonzero"/></clipPath><clipPath id="ab606bb877"><path d="M 44 493 L 766.808594 493 L 766.808594 546.992188 L 44 546.992188 Z M 44 493 " clip-rule="nonzero"/></clipPath></defs><g clip-path="url(#aa30099d5a)"><path fill="#939de2" d="M 694.691406 527.410156 L 694.398438 526.796875 C 690.753906 518.773438 686.320312 511.210938 681.09375 504.113281 C 680.925781 503.855469 680.738281 503.617188 680.550781 503.363281 C 680.363281 503.105469 680.140625 502.816406 679.933594 502.542969 C 675.433594 496.628906 670.417969 491.074219 666.714844 484.597656 C 664.585938 480.726562 662.828125 476.695312 661.445312 472.5 C 659.050781 465.15625 657.136719 457.691406 655.699219 450.105469 C 644.320312 441.105469 640.484375 425.1875 631.167969 414.058594 C 628.796875 411.230469 602.085938 385.34375 597.53125 383.792969 C 597.226562 383.691406 597.019531 383.707031 596.917969 383.792969 C 588.390625 394.785156 580.953125 416.429688 568.230469 421.59375 C 562.15625 424.046875 553.203125 425.394531 548.921875 430.472656 C 542.003906 438.675781 536.285156 447.640625 531.761719 457.363281 C 531.214844 458.523438 530.703125 459.683594 530.191406 460.773438 C 522.652344 478.34375 523.554688 498.265625 525.226562 518 C 525.238281 518.070312 525.238281 518.136719 525.226562 518.207031 L 525.433594 520.761719 C 526.183594 529.285156 527.003906 537.90625 527.273438 546.324219 L 600.945312 546.324219 L 601.164062 546.632812 L 601.164062 546.324219 L 687.917969 546.324219 L 689.28125 542.558594 L 692.421875 533.816406 L 694.261719 528.703125 L 694.398438 528.3125 L 694.65625 527.613281 L 694.65625 527.492188 Z M 694.691406 527.410156 " fill-opacity="1" fill-rule="nonzero"/></g><g clip-path="url(#fbfe8fec78)"><path fill="#939de2" d="M 343.65625 472.003906 C 339.863281 463.851562 335.070312 456.335938 329.277344 449.457031 C 325.679688 445.195312 318.191406 444.070312 313.089844 442.027344 C 302.429688 437.699219 296.1875 419.546875 289.039062 410.34375 C 289.039062 410.242188 288.800781 410.226562 288.542969 410.34375 C 284.722656 411.65625 262.328125 433.351562 260.347656 435.703125 C 252.539062 445.042969 249.3125 458.386719 239.777344 465.917969 C 238.574219 472.269531 236.972656 478.519531 234.96875 484.667969 C 233.820312 488.214844 232.347656 491.621094 230.550781 494.890625 C 227.445312 500.3125 223.234375 504.964844 219.464844 509.921875 L 218.953125 510.621094 L 218.492188 511.234375 C 214.121094 517.191406 210.40625 523.53125 207.351562 530.253906 C 207.351562 530.425781 207.183594 530.59375 207.113281 530.765625 L 207.113281 530.988281 L 207.335938 531.566406 L 207.4375 531.890625 L 208.992188 536.238281 L 211.632812 543.566406 L 212.761719 546.734375 L 285.492188 546.734375 L 285.492188 546.992188 L 285.660156 546.734375 L 347.410156 546.734375 C 347.628906 539.746094 348.3125 532.574219 348.945312 525.378906 C 348.945312 524.664062 349.0625 523.933594 349.132812 523.214844 C 349.140625 523.160156 349.140625 523.101562 349.132812 523.046875 C 350.53125 506.464844 351.28125 489.8125 344.96875 475.089844 C 344.558594 473.863281 344.117188 472.890625 343.65625 472.003906 Z M 343.65625 472.003906 " fill-opacity="1" fill-rule="nonzero"/></g><g clip-path="url(#8d915663fa)"><path fill="#6a7abd" d="M 766.039062 429.398438 L 766.039062 546.375 L 44.183594 546.375 L 44.183594 469.242188 C 55.359375 474.398438 66.96875 478.234375 79.015625 480.746094 L 79.730469 480.882812 C 90.070312 471.132812 101.90625 462.425781 111.644531 452.746094 C 123.996094 440.527344 130.628906 420.09375 139.636719 405.027344 C 140.027344 404.398438 140.4375 403.785156 140.882812 403.203125 C 141.324219 402.625 141.785156 402.0625 142.28125 401.5 C 146.382812 397.496094 151.113281 394.472656 156.472656 392.433594 L 158.621094 391.496094 L 159.730469 391.019531 L 162.800781 389.742188 L 163.210938 389.570312 L 167.183594 387.867188 L 167.457031 387.746094 C 168.445312 387.285156 169.433594 386.828125 170.40625 386.332031 C 171.316406 385.867188 172.203125 385.390625 173.070312 384.898438 C 173.613281 384.578125 174.175781 384.253906 174.773438 383.894531 C 183.710938 392.976562 192.324219 404.210938 201.109375 414.058594 C 202.953125 416.089844 204.792969 418.046875 206.671875 419.921875 C 213.050781 426.246094 212.929688 437.765625 218.167969 445.246094 C 219.347656 446.929688 220.652344 448.515625 222.074219 450.003906 C 228.675781 456.921875 237.527344 461.539062 246.089844 465.917969 C 254.652344 470.300781 261.765625 478.972656 269.097656 486.542969 C 271.421875 488.996094 273.886719 491.300781 276.484375 493.460938 C 277.03125 493.902344 277.578125 494.328125 278.191406 494.722656 C 278.414062 494.910156 278.632812 495.0625 278.855469 495.214844 L 279.09375 495.402344 C 289.535156 485.671875 301.847656 475.292969 312.269531 465.578125 C 321.3125 464.929688 330.847656 459.324219 339.304688 456.019531 C 342.113281 455.050781 344.683594 453.644531 347.015625 451.808594 C 349.648438 449.292969 351.792969 446.414062 353.445312 443.167969 C 360.097656 431.808594 366.738281 420.445312 373.371094 409.082031 C 381.179688 395.722656 387.015625 378.816406 398.953125 369.1875 C 411.765625 358.859375 415.839844 338.152344 429.65625 329.785156 L 430.75 329.15625 L 430.886719 329.15625 L 431.160156 329 L 431.671875 329.410156 C 452.410156 345.652344 473.238281 364.160156 488.898438 385.566406 C 489.605469 386.371094 490.449219 387 491.421875 387.453125 C 492.394531 387.90625 493.417969 388.144531 494.492188 388.171875 C 497.902344 388.683594 501.960938 388.410156 504.605469 390.679688 C 506.941406 392.671875 507.746094 395.925781 508.527344 398.941406 C 510.710938 407.359375 513.675781 415.492188 517.425781 423.339844 C 521.175781 431.183594 525.640625 438.601562 530.824219 445.589844 C 530.722656 449.558594 531.035156 453.496094 531.761719 457.398438 C 532.34375 460.417969 533.144531 463.382812 534.164062 466.285156 C 535.183594 469.1875 536.410156 472 537.84375 474.722656 C 539.28125 477.445312 540.90625 480.050781 542.726562 482.53125 C 544.542969 485.015625 546.535156 487.351562 548.699219 489.539062 C 550.957031 489.675781 553.183594 490.011719 555.378906 490.554688 C 557.574219 491.097656 559.699219 491.832031 561.757812 492.765625 C 563.820312 493.699219 565.777344 494.808594 567.632812 496.101562 C 569.488281 497.390625 571.210938 498.839844 572.800781 500.449219 C 579.179688 506.71875 583.972656 514.492188 588.679688 522.175781 L 599.835938 540.378906 L 600.910156 542.082031 C 600.964844 542.1875 601.027344 542.289062 601.097656 542.390625 L 601.574219 543.171875 L 603.09375 540.445312 L 603.433594 539.867188 C 603.757812 539.289062 604.082031 538.707031 604.425781 538.164062 C 605.652344 536.050781 606.914062 533.894531 608.210938 531.703125 C 613.617188 522.636719 619.503906 513.09375 624.109375 504.742188 C 624.671875 504.453125 625.234375 504.128906 625.8125 503.804688 C 635.230469 498.335938 645.839844 488.246094 653.753906 481.308594 C 656.6875 478.675781 659.257812 475.730469 661.460938 472.464844 C 669.566406 460.808594 674.546875 445.757812 683.894531 435.429688 C 684.25 435.039062 684.625 434.628906 685 434.253906 C 696.53125 440.050781 710.074219 446.441406 721.605469 452.25 C 725.546875 459.734375 729.554688 467.777344 733.546875 475.992188 L 745.484375 463.773438 Z M 766.039062 429.398438 " fill-opacity="1" fill-rule="nonzero"/></g><g clip-path="url(#496ec76c72)"><path fill="#4c63a6" d="M 704.890625 471.492188 C 703.492188 469.992188 701.84375 468.855469 699.941406 468.085938 C 696.632812 466.703125 692.898438 466.550781 689.8125 464.675781 C 684.0625 461.265625 682.492188 453.496094 682.765625 446.695312 C 682.851562 444.566406 683.910156 439.625 683.875 435.464844 C 674.527344 445.808594 669.546875 460.839844 661.445312 472.515625 C 659.234375 475.769531 656.664062 478.714844 653.734375 481.34375 C 645.804688 488.28125 635.195312 498.386719 625.796875 503.839844 C 625.214844 504.164062 624.671875 504.488281 624.089844 504.777344 C 619.484375 513.128906 613.601562 522.671875 608.195312 531.738281 C 606.898438 533.929688 605.636719 536.082031 604.40625 538.195312 C 604.066406 538.777344 603.742188 539.371094 603.417969 539.902344 L 603.078125 540.496094 L 601.558594 543.207031 C 601.386719 542.953125 601.234375 542.679688 601.082031 542.421875 C 601.011719 542.324219 600.949219 542.222656 600.894531 542.117188 C 600.882812 542.160156 600.882812 542.207031 600.894531 542.253906 C 600.730469 543.472656 600.640625 544.703125 600.621094 545.933594 L 600.621094 546.429688 L 696.140625 546.429688 L 689.316406 542.660156 L 679.664062 537.414062 C 683.71875 535.5 687.984375 534.363281 692.457031 534.003906 C 693.53125 533.902344 694.605469 533.867188 695.695312 533.867188 C 695.695312 533.765625 695.695312 533.679688 695.695312 533.59375 C 695.703125 533.539062 695.703125 533.480469 695.695312 533.425781 C 695.351562 532.117188 695.101562 530.796875 694.945312 529.453125 C 694.945312 529.113281 694.945312 528.789062 694.859375 528.449219 C 694.773438 528.105469 694.859375 527.972656 694.859375 527.734375 L 694.859375 527.476562 C 694.761719 525.542969 694.855469 523.617188 695.132812 521.699219 C 695.480469 519.164062 696.148438 516.71875 697.140625 514.355469 C 698.128906 511.996094 699.402344 509.804688 700.964844 507.777344 L 681.25 504.195312 L 679.765625 503.925781 L 680.703125 503.445312 L 708.128906 489.8125 C 708.367188 489.320312 708.574219 488.816406 708.746094 488.296875 C 709.199219 486.851562 709.457031 485.371094 709.519531 483.859375 C 709.578125 482.34375 709.441406 480.847656 709.101562 479.371094 C 708.761719 477.894531 708.234375 476.488281 707.519531 475.152344 C 706.808594 473.816406 705.929688 472.59375 704.890625 471.492188 Z M 704.890625 471.492188 " fill-opacity="1" fill-rule="nonzero"/></g><g clip-path="url(#e5218d67f1)"><path fill="#4c63a6" d="M 165.015625 425.136719 C 166.253906 411.457031 168.953125 398.074219 173.121094 384.984375 C 172.242188 385.484375 171.355469 385.960938 170.457031 386.417969 C 169.488281 386.910156 168.496094 387.371094 167.507812 387.832031 L 167.234375 387.949219 L 163.261719 389.65625 L 162.851562 389.824219 L 159.78125 391.105469 L 158.671875 391.582031 L 156.523438 392.519531 C 151.164062 394.558594 146.433594 397.582031 142.332031 401.585938 C 141.835938 402.113281 141.375 402.675781 140.933594 403.289062 C 140.488281 403.902344 140.082031 404.480469 139.6875 405.113281 C 130.683594 420.109375 124.046875 440.542969 111.695312 452.832031 C 101.855469 462.425781 90.070312 471.132812 79.730469 480.882812 L 79.015625 480.746094 C 66.96875 478.234375 55.359375 474.398438 44.183594 469.242188 L 44.183594 546.445312 L 78.113281 546.445312 C 82.511719 542.492188 88.976562 540.464844 95 539.796875 C 101.019531 539.132812 107.585938 539.253906 113.609375 538.09375 C 116.125 537.617188 118.535156 536.816406 120.839844 535.691406 L 117.171875 534.3125 L 110.351562 531.6875 C 111.730469 531.515625 113.128906 531.34375 114.546875 531.140625 C 118.433594 530.613281 122.390625 529.980469 126.347656 529.335938 L 130.511719 528.652344 C 136.15625 527.730469 141.785156 526.828125 147.277344 526.179688 C 146.824219 523.085938 146.753906 519.984375 147.070312 516.871094 C 147.390625 513.757812 148.082031 510.734375 149.15625 507.792969 C 149.667969 506.386719 150.265625 505.019531 150.945312 503.6875 L 128.34375 498.042969 L 160.429688 469.464844 C 163.378906 466.839844 172.367188 464.554688 172.367188 464.554688 C 172.367188 464.554688 173.050781 452.472656 171.976562 448.621094 C 163.261719 442.132812 153.8125 436.992188 143.628906 433.199219 C 150.246094 430.761719 158.210938 429.570312 164.847656 427.132812 C 164.898438 426.464844 164.949219 425.800781 165.015625 425.136719 Z M 165.015625 425.136719 " fill-opacity="1" fill-rule="nonzero"/></g><g clip-path="url(#cd74ee1c29)"><path fill="#4c63a6" d="M 423.960938 437.800781 C 419.203125 433.710938 411.695312 422.460938 412.019531 416.15625 C 412.230469 413.300781 412.847656 410.535156 413.863281 407.855469 C 415.117188 404.582031 416.582031 401.398438 418.246094 398.3125 L 433.597656 368.523438 C 433.476562 368.183594 433.375 367.839844 433.273438 367.5 C 431.101562 360.714844 429.773438 353.765625 429.28125 346.65625 C 428.886719 340.992188 429.019531 335.339844 429.675781 329.699219 C 415.824219 338.066406 411.746094 358.773438 398.972656 369.101562 C 387.03125 378.730469 381.128906 395.636719 373.386719 409 C 366.757812 420.359375 360.117188 431.722656 353.464844 443.082031 C 351.804688 446.335938 349.65625 449.21875 347.015625 451.742188 C 344.6875 453.570312 342.125 454.96875 339.324219 455.933594 C 330.792969 459.238281 321.328125 464.847656 312.289062 465.492188 C 301.847656 475.207031 289.550781 485.605469 279.113281 495.316406 L 278.875 495.148438 L 278.207031 494.652344 C 279.488281 496.832031 281.085938 498.746094 283.003906 500.394531 C 284.917969 502.046875 287.050781 503.339844 289.398438 504.28125 C 295.042969 506.71875 301.21875 507.484375 307.257812 508.558594 C 313.917969 509.769531 320.480469 511.390625 326.941406 513.417969 C 331.425781 514.832031 335.859375 516.433594 340.210938 518.238281 C 349.75 522.164062 358.847656 526.929688 367.5 532.539062 C 373.964844 536.726562 380.109375 541.332031 385.941406 546.359375 L 410.503906 546.359375 C 412.324219 541.171875 414.699219 536.253906 417.632812 531.601562 C 410.910156 528.191406 404.3125 524.359375 397.675781 520.421875 C 390.5625 516.210938 383.433594 511.898438 376.21875 508.355469 L 400.011719 510.554688 L 409.257812 511.40625 L 425.71875 512.921875 L 428.121094 513.144531 C 426.929688 511.644531 425.769531 510.042969 424.609375 508.371094 C 419.699219 501.136719 415.503906 493.503906 412.023438 485.480469 C 408.546875 477.457031 405.84375 469.183594 403.917969 460.652344 C 412.003906 464.0625 416.046875 465.511719 424.132812 468.96875 C 422.050781 465.730469 420.464844 460.058594 418.382812 456.820312 L 438.203125 464.828125 C 442.875 466.703125 446.988281 471.644531 451.335938 474.425781 L 452.207031 474.953125 C 448.871094 467.828125 444.824219 461.136719 440.0625 454.875 C 435.300781 448.613281 429.933594 442.921875 423.960938 437.800781 Z M 423.960938 437.800781 " fill-opacity="1" fill-rule="nonzero"/></g><g clip-path="url(#60f76ae466)"><path fill="#dfdaf8" d="M 488.863281 385.410156 C 473.203125 364.023438 452.378906 345.5 431.636719 329.257812 L 431.125 328.847656 L 430.851562 329 C 430.371094 331.128906 430.015625 333.273438 429.792969 335.445312 C 429.269531 339.457031 429.105469 343.484375 429.296875 347.523438 C 429.488281 351.566406 430.035156 355.558594 430.9375 359.503906 C 431.835938 363.449219 433.078125 367.285156 434.660156 371.007812 C 436.242188 374.734375 438.140625 378.289062 440.351562 381.679688 C 440.476562 378.835938 441.089844 376.105469 442.195312 373.480469 C 442.46875 372.84375 442.824219 372.253906 443.261719 371.714844 C 443.699219 371.171875 444.199219 370.699219 444.761719 370.292969 C 445.328125 369.890625 445.9375 369.566406 446.589844 369.328125 C 447.242188 369.085938 447.914062 368.9375 448.609375 368.878906 C 449.839844 369.027344 451.011719 369.375 452.121094 369.929688 C 453.230469 370.480469 454.214844 371.207031 455.074219 372.101562 C 460.902344 377.082031 466.175781 382.597656 470.886719 388.648438 C 475.601562 394.699219 479.660156 401.15625 483.0625 408.027344 C 481.652344 405.234375 480.910156 402.273438 480.84375 399.148438 C 481.015625 396.082031 482.996094 392.859375 485.960938 392.433594 C 487.019531 392.339844 488.058594 392.425781 489.085938 392.6875 L 502.148438 395.246094 C 499.472656 393.023438 496.917969 390.667969 494.492188 388.171875 C 493.398438 388.132812 492.363281 387.871094 491.382812 387.390625 C 490.402344 386.910156 489.5625 386.25 488.863281 385.410156 Z M 488.863281 385.410156 " fill-opacity="1" fill-rule="nonzero"/></g><path fill="#dfdaf8" d="M 454.507812 438.824219 C 448.761719 434.679688 442.007812 432.328125 435.578125 429.382812 C 429.144531 426.433594 422.765625 422.683594 418.84375 416.683594 C 418.125 415.558594 417.394531 414.296875 416.148438 413.890625 C 415.800781 413.796875 415.453125 413.796875 415.109375 413.886719 C 414.761719 413.980469 414.460938 414.148438 414.203125 414.402344 L 416.710938 404.515625 C 411.285156 408.914062 410.773438 417.519531 413.488281 424.046875 C 416.199219 430.574219 421.402344 435.601562 426.179688 440.714844 C 439.246094 454.726562 449.949219 470.355469 458.296875 487.597656 C 455.636719 477.816406 452.980469 468.03125 450.332031 458.25 C 449.710938 456.582031 449.582031 454.878906 449.9375 453.136719 C 450.910156 449.96875 455.054688 448.878906 458.039062 450.085938 C 461.023438 451.296875 463.15625 454.058594 465.117188 456.699219 C 465.035156 449.40625 460.273438 443.03125 454.507812 438.824219 Z M 454.507812 438.824219 " fill-opacity="1" fill-rule="nonzero"/><path fill="#dfdaf8" d="M 265.707031 533.355469 C 263.613281 531.644531 261.90625 529.613281 260.589844 527.253906 C 260.230469 526.523438 259.308594 525.003906 259.632812 524.136719 C 260.46875 523.449219 261.378906 522.882812 262.363281 522.433594 C 260.890625 520.082031 259.042969 518.085938 256.820312 516.433594 C 254.960938 514.984375 252.945312 513.691406 250.917969 512.242188 C 245.988281 508.695312 241.160156 504.84375 235.566406 502.324219 C 234.679688 504.417969 234.933594 507.433594 234.78125 509.683594 C 230.636719 502.324219 225.570312 495.964844 221.441406 488.601562 L 215.761719 506.667969 C 221.699219 513.691406 227.566406 522.007812 233.5 528.976562 C 233.671875 527.085938 235.085938 517.761719 237.9375 517.710938 C 239.640625 517.710938 243.703125 527.101562 244.554688 528.601562 L 246.550781 522.773438 C 248.269531 525.054688 250.164062 527.183594 252.230469 529.15625 C 254.300781 531.128906 256.515625 532.921875 258.878906 534.53125 C 261.242188 536.140625 263.71875 537.546875 266.3125 538.753906 C 268.90625 539.957031 271.582031 540.941406 274.335938 541.707031 C 272.101562 538.46875 268.707031 536.066406 265.707031 533.355469 Z M 265.707031 533.355469 " fill-opacity="1" fill-rule="nonzero"/><path fill="#dfdaf8" d="M 174.757812 383.996094 C 174.210938 384.339844 173.664062 384.679688 173.050781 384.984375 C 172.199219 385.480469 171.34375 385.957031 170.40625 386.417969 C 168.519531 395.757812 166.894531 405.203125 165.527344 414.757812 C 165.035156 418.285156 162.835938 424.0625 166.195312 426.464844 C 169.042969 428.511719 176.003906 428.511719 177.757812 432.003906 C 175.722656 427.953125 174.449219 423.675781 173.9375 419.171875 C 177.351562 417.46875 180.914062 415.765625 184.683594 415.765625 C 190.277344 415.847656 195.140625 419.753906 198.859375 424.046875 C 202.578125 428.339844 205.679688 433.300781 210.285156 436.65625 C 205.289062 430.25 203.753906 421.847656 201.109375 414.058594 C 192.324219 404.210938 183.710938 392.976562 174.757812 383.996094 Z M 174.757812 383.996094 " fill-opacity="1" fill-rule="nonzero"/><path fill="#dfdaf8" d="M 233.519531 468.492188 C 235.359375 471.902344 238.992188 478.90625 238.210938 482.960938 C 239.113281 478.34375 239.914062 473.726562 240.902344 469.105469 C 244.386719 470.957031 247.648438 473.128906 250.695312 475.632812 C 253.742188 478.132812 256.507812 480.910156 259 483.964844 C 261.488281 487.019531 263.652344 490.289062 265.484375 493.773438 C 267.320312 497.261719 268.792969 500.894531 269.902344 504.675781 C 269.984375 498.605469 269.648438 492.5625 268.894531 486.542969 C 261.558594 478.992188 254.53125 470.351562 245.867188 465.917969 C 237.203125 461.488281 228.46875 456.9375 221.851562 450.003906 C 221.683594 451.164062 221.777344 452.304688 222.132812 453.421875 C 222.492188 454.539062 223.074219 455.523438 223.882812 456.375 C 227.464844 460.398438 231.027344 463.703125 233.519531 468.492188 Z M 233.519531 468.492188 " fill-opacity="1" fill-rule="nonzero"/><path fill="#dfdaf8" d="M 730.066406 514.199219 C 722.9375 498.164062 715.550781 481.820312 703.335938 469.363281 C 708.453125 474.578125 705.726562 485.3125 710.296875 491.515625 C 716.292969 499.597656 722.882812 507.15625 730.066406 514.199219 Z M 730.066406 514.199219 " fill-opacity="1" fill-rule="nonzero"/><path fill="#dfdaf8" d="M 710.792969 529.554688 C 708.4375 527.578125 705.972656 525.742188 703.40625 524.050781 C 702.160156 523.234375 697.316406 519.3125 695.851562 520.082031 C 694.382812 520.847656 694.46875 527.546875 694.261719 529.214844 L 717.238281 535.640625 C 715.449219 535.179688 712.328125 530.851562 710.792969 529.554688 Z M 710.792969 529.554688 " fill-opacity="1" fill-rule="nonzero"/><path fill="#dfdaf8" d="M 377.769531 519.519531 L 377.921875 519.382812 C 377.902344 519.460938 377.851562 519.507812 377.769531 519.519531 Z M 377.769531 519.519531 " fill-opacity="1" fill-rule="nonzero"/><path fill="#dfdaf8" d="M 378.195312 519.125 L 377.921875 519.382812 C 377.941406 519.261719 377.941406 519.109375 378.195312 519.125 Z M 378.195312 519.125 " fill-opacity="1" fill-rule="nonzero"/><path fill="#dfdaf8" d="M 480.980469 522.515625 C 480.929688 522.601562 480.867188 522.671875 480.792969 522.738281 Z M 480.980469 522.515625 " fill-opacity="1" fill-rule="nonzero"/><g clip-path="url(#ab606bb877)"><path fill="#2d4d8b" d="M 763.105469 529.660156 L 763.632812 529.777344 C 762.53125 527.859375 761.050781 526.289062 759.199219 525.074219 C 759.992188 524.332031 760.90625 523.789062 761.933594 523.445312 C 762.964844 523.097656 764.019531 522.984375 765.101562 523.097656 L 759.300781 517.472656 L 764.09375 517.609375 C 762.035156 514.960938 759.960938 512.332031 757.867188 509.71875 L 763.378906 510.027344 L 758.738281 504.078125 C 758.371094 503.644531 758.066406 503.167969 757.835938 502.644531 C 757.699219 501.859375 757.714844 501.074219 757.875 500.289062 C 758.035156 499.507812 758.335938 498.78125 758.773438 498.113281 C 759.4375 496.679688 759.914062 494.824219 758.910156 493.648438 C 755.855469 497.667969 752.820312 501.726562 749.785156 505.746094 C 751.003906 505.914062 752.097656 506.378906 753.058594 507.144531 C 750.691406 510.386719 747.667969 512.804688 743.984375 514.40625 C 745.933594 515.46875 748.007812 516.152344 750.210938 516.449219 C 749.105469 518.171875 747.789062 519.714844 746.261719 521.074219 C 744.738281 522.4375 743.054688 523.570312 741.222656 524.476562 L 746.339844 526.847656 C 744.90625 527.949219 743.339844 528.8125 741.640625 529.4375 C 739.9375 530.058594 738.183594 530.410156 736.378906 530.492188 L 741.953125 533.117188 C 737.976562 534.132812 733.933594 534.644531 729.828125 534.652344 L 735.59375 531.925781 C 733.179688 531.628906 730.90625 530.902344 728.769531 529.742188 C 729.625 528.945312 730.601562 528.34375 731.699219 527.933594 C 732.796875 527.527344 733.929688 527.347656 735.097656 527.390625 L 729.078125 523.523438 L 734.195312 523.078125 C 733.058594 522.507812 732.023438 521.800781 731.078125 520.953125 C 730.132812 520.105469 729.316406 519.148438 728.625 518.085938 C 727.9375 517.019531 727.398438 515.882812 727.011719 514.675781 C 726.625 513.46875 726.402344 512.230469 726.347656 510.960938 L 717.050781 518.886719 L 721.179688 519.894531 C 719.015625 522.058594 716.582031 523.867188 713.878906 525.3125 L 720.019531 526.761719 C 718.78125 527.878906 717.367188 528.695312 715.78125 529.207031 C 714.191406 529.722656 712.570312 529.890625 710.910156 529.710938 L 710.433594 529.710938 C 711.5 531.492188 712.929688 532.902344 714.730469 533.9375 L 712.855469 534.5 C 711.5 534.945312 710.113281 535.253906 708.695312 535.417969 C 704.183594 535.792969 699.8125 535.183594 695.578125 533.59375 L 695.390625 533.59375 L 695.542969 533.59375 C 697.078125 532.777344 698.597656 531.890625 700.113281 531.105469 L 704.105469 528.925781 L 694.707031 528.617188 L 694.296875 528.617188 L 687.152344 528.378906 C 688.601562 527.921875 690.253906 527.171875 691.703125 526.675781 C 688.417969 525.425781 685.277344 523.875 682.289062 522.023438 L 689.777344 520.964844 C 686.261719 519.992188 683.203125 518.226562 680.601562 515.667969 L 687.097656 514.660156 C 682.886719 513.09375 679.695312 509.546875 676.746094 506.140625 C 674.03125 508.933594 670.960938 511.257812 667.535156 513.109375 L 672.15625 515.394531 C 672.476562 515.519531 672.730469 515.726562 672.925781 516.007812 C 673.351562 516.792969 672.414062 517.609375 671.628906 517.984375 L 664.378906 521.425781 L 668.867188 523.132812 C 669.121094 523.234375 669.429688 523.386719 669.480469 523.675781 C 669.53125 523.964844 669.257812 524.238281 669.019531 524.425781 C 665.949219 526.667969 662.539062 528.089844 658.785156 528.6875 L 663.613281 526.828125 C 662.179688 526.164062 660.984375 525.003906 659.601562 524.273438 L 653.191406 520.863281 C 652.917969 520.710938 652.59375 520.488281 652.609375 520.183594 C 652.628906 519.875 653.003906 519.707031 653.308594 519.601562 L 658.425781 518 L 651.023438 513.84375 C 652.984375 512.710938 655.09375 512.066406 657.351562 511.917969 C 654.402344 510.394531 651.671875 508.542969 649.167969 506.359375 C 646.664062 504.179688 644.457031 501.730469 642.546875 499.015625 L 636.679688 504.25 L 640.890625 504.605469 C 640.328125 505.839844 639.578125 506.945312 638.644531 507.925781 C 637.707031 508.910156 636.636719 509.710938 635.433594 510.332031 C 636.03125 511.066406 637.140625 511.066406 638.027344 511.253906 C 638.914062 511.441406 640.003906 512.140625 639.730469 513.074219 C 639.523438 513.636719 639.136719 514.015625 638.570312 514.21875 C 636.769531 515.113281 634.863281 515.640625 632.859375 515.804688 L 637.003906 520.03125 L 630.46875 519.058594 C 629.632812 518.921875 628.660156 518.699219 628.335938 517.898438 C 628.273438 517.691406 628.246094 517.476562 628.265625 517.257812 C 628.28125 517.039062 628.335938 516.832031 628.433594 516.632812 C 628.53125 516.4375 628.660156 516.265625 628.824219 516.117188 C 628.988281 515.972656 629.171875 515.859375 629.378906 515.785156 C 630.203125 515.503906 631.046875 515.445312 631.902344 515.617188 L 626.101562 510.503906 L 630.539062 509.566406 C 628.671875 507.839844 627.074219 505.898438 625.746094 503.738281 C 624.324219 501.449219 623.105469 499.058594 622.09375 496.5625 C 619.765625 501.597656 616.707031 506.140625 612.917969 510.195312 C 612.136719 510.859375 611.648438 511.695312 611.453125 512.699219 C 611.453125 513.707031 612.542969 514.710938 613.328125 514.117188 L 608.210938 522.296875 L 612.59375 523.164062 C 610.84375 526.140625 608.65625 528.746094 606.027344 530.988281 L 608.175781 531.6875 L 610.308594 532.386719 C 609.675781 533.652344 608.851562 534.777344 607.835938 535.765625 C 606.820312 536.75 605.671875 537.546875 604.390625 538.144531 C 603.460938 538.59375 602.488281 538.910156 601.472656 539.101562 L 603.402344 539.882812 L 604.867188 540.496094 L 599.800781 540.496094 C 598.402344 540.496094 597.019531 540.328125 595.621094 540.207031 L 593.183594 539.953125 C 593.398438 539.890625 593.570312 539.765625 593.695312 539.578125 C 593.890625 539.234375 593.929688 538.878906 593.8125 538.503906 C 593.75 538.277344 593.628906 538.082031 593.457031 537.921875 L 593.097656 537.921875 C 591.046875 537.726562 589.089844 537.1875 587.230469 536.308594 C 585.367188 535.433594 583.707031 534.265625 582.25 532.8125 L 584.519531 532.265625 L 588.714844 531.226562 L 582.421875 526.539062 L 589.242188 525.789062 C 587.0625 524.699219 585.128906 523.277344 583.441406 521.523438 C 581.75 519.769531 580.40625 517.78125 579.402344 515.5625 C 576.6875 520.21875 573.230469 524.234375 569.03125 527.613281 L 568.175781 528.277344 C 569.046875 528.160156 569.882812 528.003906 570.753906 527.800781 C 571.910156 527.542969 573.046875 527.21875 574.164062 526.828125 C 573.742188 527.296875 573.316406 527.738281 572.886719 528.160156 C 569.585938 531.535156 565.96875 534.535156 562.039062 537.15625 L 568.296875 538.351562 C 563.722656 540.230469 558.964844 541.265625 554.019531 541.453125 L 558.539062 539.746094 C 556.835938 539.746094 555.539062 540.328125 553.882812 539.644531 C 551.816406 538.769531 549.667969 538.199219 547.4375 537.941406 L 551.292969 536.59375 L 544.109375 533.628906 L 549.960938 532.027344 L 542.59375 528.039062 L 546.566406 527.410156 L 548.273438 527.136719 L 541.226562 521.410156 L 546.257812 521.101562 L 538.753906 516.195312 L 544.246094 515.460938 L 535.71875 506.941406 C 534.800781 508.449219 533.714844 509.824219 532.460938 511.066406 C 530.375 513.777344 528.007812 516.21875 525.363281 518.394531 L 525.246094 518.476562 L 525.125 518.582031 L 525.195312 518.582031 C 525.273438 518.5625 525.351562 518.5625 525.433594 518.582031 C 526.179688 518.472656 526.882812 518.597656 527.546875 518.957031 C 527.292969 519.210938 527.035156 519.46875 526.796875 519.738281 L 525.398438 521.1875 L 521.132812 525.6875 L 524.546875 525.941406 C 524.007812 527.027344 523.285156 527.964844 522.375 528.761719 C 521.464844 529.558594 520.4375 530.152344 519.292969 530.542969 L 522.824219 530.765625 C 521.3125 532.640625 519.507812 534.175781 517.414062 535.367188 L 517.925781 535.605469 C 516.089844 536.785156 514.128906 537.699219 512.042969 538.351562 C 513.609375 539.230469 515.253906 539.933594 516.972656 540.464844 C 514.847656 541.371094 512.636719 541.9375 510.335938 542.167969 L 512.164062 540.597656 C 510.796875 540.269531 509.519531 539.734375 508.324219 538.996094 L 512.144531 537.292969 L 507.4375 535.007812 L 511.273438 534.226562 C 509.382812 532.605469 507.4375 531.550781 505.425781 530.085938 L 504.914062 529.710938 C 503.160156 531.074219 501.191406 531.964844 499.011719 532.386719 C 500.261719 532.949219 501.570312 533.289062 502.933594 533.40625 C 501.1875 534.648438 499.265625 535.488281 497.167969 535.929688 L 502.066406 536.542969 C 499.40625 537.757812 496.621094 538.261719 493.707031 538.058594 L 495.738281 537.566406 L 488.539062 537.003906 C 489.476562 536.578125 489.785156 535.300781 490.636719 534.738281 C 488.925781 533.8125 487.113281 533.191406 485.195312 532.878906 C 486.320312 532.285156 487.492188 531.804688 488.707031 531.429688 C 487.039062 530.542969 485.367188 529.640625 483.695312 528.722656 L 487.414062 527.816406 C 485.363281 525.960938 483.128906 524.359375 480.710938 523.011719 C 478.996094 524.976562 477.019531 526.625 474.773438 527.953125 C 475.554688 528.632812 476.453125 529.070312 477.46875 529.265625 L 472.710938 533 C 473.6875 533.277344 474.652344 533.246094 475.609375 532.894531 C 475.167969 533.515625 474.605469 533.992188 473.921875 534.320312 C 473.234375 534.652344 472.511719 534.796875 471.753906 534.753906 L 474.925781 535.570312 C 473.816406 536.3125 472.59375 536.691406 471.257812 536.714844 C 471.257812 536.082031 470.527344 535.757812 469.914062 535.625 L 463.53125 534.140625 L 467.457031 532.179688 L 457.851562 528.242188 C 458.519531 527.902344 462.816406 525.074219 463.34375 525.328125 L 457.5625 522.585938 C 459.222656 521.460938 461.023438 520.652344 462.96875 520.164062 L 455.140625 514.117188 L 459.949219 512.957031 C 457.273438 510.484375 455.191406 507.84375 452.53125 505.390625 C 452.53125 505.066406 452.410156 504.757812 452.359375 504.433594 L 446.203125 508.320312 L 450.875 510.316406 C 448.433594 512.457031 445.683594 514.070312 442.621094 515.15625 L 447.414062 515.804688 C 445.140625 516.917969 442.746094 517.632812 440.234375 517.949219 L 441.050781 517.40625 L 435.933594 514.542969 L 441.785156 512.597656 L 434.261719 506.957031 C 435.871094 506.132812 437.574219 505.769531 439.378906 505.867188 C 436.890625 503.175781 434.554688 499.988281 432.046875 497.347656 C 429.707031 499.75 426.367188 501.351562 424.25 503.820312 C 424.984375 503.5 425.753906 503.363281 426.554688 503.414062 C 426.949219 503.457031 427.285156 503.621094 427.566406 503.902344 C 427.847656 504.179688 428.007812 504.519531 428.054688 504.914062 C 428.054688 505.679688 427.40625 506.257812 426.792969 506.71875 C 426.179688 507.179688 425.257812 507.914062 424.472656 508.421875 L 420.90625 511.203125 L 426.417969 511.953125 C 426.144531 512.324219 425.855469 512.683594 425.546875 513.042969 C 424.53125 514.25 423.355469 515.28125 422.023438 516.128906 C 420.691406 516.976562 419.261719 517.609375 417.734375 518.019531 L 424.148438 520.011719 C 423.210938 520.574219 422.214844 520.992188 421.15625 521.265625 C 420.101562 521.539062 419.023438 521.65625 417.933594 521.617188 C 416.839844 521.578125 415.777344 521.386719 414.742188 521.035156 C 413.707031 520.6875 412.742188 520.199219 411.851562 519.570312 L 417.667969 517.96875 L 409.136719 511.578125 L 412.875 510.894531 C 410.535156 508.132812 407.925781 505.882812 405.574219 503.125 L 399.894531 510.722656 L 399.773438 510.894531 L 402.28125 510.894531 C 400.6875 513.910156 398.414062 516.273438 395.457031 517.984375 C 396.910156 517.328125 398.398438 517.226562 399.925781 517.675781 C 399.238281 518.726562 398.425781 519.667969 397.488281 520.507812 C 396.222656 521.667969 394.800781 522.589844 393.222656 523.265625 C 393.957031 523.125 394.695312 523.121094 395.429688 523.257812 C 396.164062 523.394531 396.851562 523.65625 397.488281 524.050781 C 396.667969 525.296875 395.675781 526.386719 394.511719 527.3125 C 393.34375 528.242188 392.0625 528.96875 390.664062 529.488281 L 395.78125 530.628906 C 394.308594 533.5625 392.171875 535.886719 389.367188 537.601562 L 393.460938 538.707031 C 393.34375 540.054688 392.761719 540.839844 391.449219 540.753906 C 388.40625 540.550781 385.605469 539.625 383.039062 537.976562 C 384.542969 537.179688 386.136719 536.644531 387.816406 536.371094 L 381.777344 533.679688 L 387.082031 531.34375 C 384.464844 530.058594 382.015625 528.507812 379.730469 526.691406 L 384.335938 525.398438 L 377.804688 519.550781 L 369.652344 526.878906 C 370.335938 526.757812 371.011719 526.792969 371.679688 526.984375 C 372.011719 527.097656 372.285156 527.296875 372.492188 527.582031 C 372.699219 527.863281 372.8125 528.183594 372.824219 528.535156 C 372.644531 529.261719 372.21875 529.789062 371.542969 530.117188 C 370.195312 531.003906 368.816406 531.824219 367.417969 532.625 C 366.683594 533.050781 365.914062 533.457031 365.164062 533.851562 C 366.554688 534.304688 367.976562 534.445312 369.429688 534.277344 C 367.257812 536.597656 364.660156 538.25 361.632812 539.234375 C 363.03125 540.195312 364.554688 540.867188 366.207031 541.246094 C 364.738281 542.507812 363.730469 544.773438 361.871094 544.347656 C 358.378906 543.542969 354.996094 542.40625 351.722656 540.941406 C 353.050781 540.085938 354.488281 539.519531 356.039062 539.234375 L 349.214844 536.457031 L 352.628906 533.96875 C 349.046875 533.96875 346.0625 533.613281 342.394531 533.664062 C 343.453125 533.167969 344.507812 532.675781 345.566406 532.214844 C 343.117188 532.144531 340.84375 531.480469 338.742188 530.21875 L 345.566406 528.722656 L 337.039062 524.152344 L 344.03125 522.328125 C 342.574219 521.097656 341.222656 519.761719 339.972656 518.324219 C 337.832031 515.847656 336.035156 513.144531 334.582031 510.214844 C 334.300781 509.589844 334.152344 508.9375 334.136719 508.253906 C 334.117188 507.574219 334.234375 506.914062 334.480469 506.277344 L 326.703125 513.503906 L 319.46875 520.320312 L 323.800781 521.820312 C 321.890625 523.316406 319.769531 524.398438 317.4375 525.074219 C 318.277344 525.800781 319.214844 526.355469 320.253906 526.742188 C 321.292969 527.128906 322.367188 527.324219 323.476562 527.324219 C 320.96875 528.691406 318.289062 529.503906 315.445312 529.761719 L 321.207031 532.4375 C 315.667969 533.785156 310.054688 534.699219 304.375 535.179688 L 308.875 532.742188 L 304.339844 531.039062 L 310.785156 529.417969 L 298.8125 524.835938 C 299.496094 524.359375 300.332031 522.601562 301.117188 522.363281 L 302.566406 521.921875 L 298.335938 519.226562 C 298.746094 518.875 299.210938 518.769531 299.734375 518.921875 C 300.222656 519.066406 300.714844 519.101562 301.21875 519.023438 C 301.695312 518.871094 302.070312 518.238281 301.765625 517.832031 C 301.613281 517.667969 301.433594 517.550781 301.21875 517.488281 L 296.886719 515.785156 L 300.296875 515.785156 L 294.242188 511.679688 L 298.574219 510.265625 C 296.253906 508.695312 293.304688 506.855469 290.984375 505.320312 C 290.777344 506.257812 289.789062 506.71875 288.988281 507.214844 C 288.1875 507.707031 287.382812 508.644531 287.777344 509.496094 C 287.980469 509.941406 288.460938 510.210938 288.597656 510.691406 C 288.730469 511.167969 288.203125 512.003906 287.675781 512.394531 L 282.558594 516.722656 C 283.238281 516.550781 283.921875 516.550781 284.605469 516.722656 C 284.953125 516.824219 285.230469 517.027344 285.433594 517.328125 C 285.636719 517.632812 285.71875 517.964844 285.679688 518.324219 C 285.472656 518.910156 285.085938 519.332031 284.519531 519.585938 C 283.050781 520.457031 281.566406 521.289062 280.050781 522.039062 C 280.761719 521.894531 281.472656 521.894531 282.183594 522.039062 C 282.542969 522.128906 282.851562 522.304688 283.109375 522.574219 C 283.363281 522.84375 283.527344 523.160156 283.597656 523.523438 C 283.699219 524.511719 282.796875 525.226562 281.890625 525.722656 C 280.925781 526.042969 280.132812 526.613281 279.519531 527.425781 C 279.542969 527.253906 279.546875 527.082031 279.53125 526.90625 C 279.515625 526.734375 279.484375 526.566406 279.429688 526.398438 C 279.378906 526.234375 279.308594 526.074219 279.222656 525.925781 C 279.132812 525.773438 279.03125 525.636719 278.914062 525.507812 C 278.792969 525.378906 278.664062 525.265625 278.519531 525.167969 C 278.378906 525.070312 278.226562 524.988281 278.066406 524.921875 C 277.902344 524.855469 277.738281 524.808594 277.566406 524.78125 C 277.394531 524.75 277.222656 524.742188 277.046875 524.75 C 277.28125 524.429688 277.46875 524.085938 277.601562 523.714844 C 277.734375 523.339844 277.8125 522.957031 277.832031 522.5625 C 277.855469 522.167969 277.820312 521.777344 277.726562 521.390625 C 277.632812 521.007812 277.488281 520.644531 277.285156 520.300781 C 276.453125 518.972656 273.671875 518.820312 272.167969 519.210938 C 271.949219 519.476562 271.78125 519.769531 271.671875 520.097656 C 271.558594 520.421875 271.511719 520.757812 271.523438 521.101562 C 271.535156 521.449219 271.609375 521.777344 271.742188 522.097656 C 271.878906 522.414062 272.066406 522.695312 272.304688 522.945312 C 271.859375 523.230469 271.472656 523.578125 271.144531 523.992188 C 270.816406 524.40625 270.5625 524.863281 270.382812 525.359375 C 270.207031 525.859375 270.113281 526.371094 270.105469 526.902344 C 270.101562 527.429688 270.179688 527.945312 270.34375 528.449219 C 270.480469 528.855469 270.667969 529.367188 270.34375 529.675781 C 270.019531 529.980469 269.746094 529.863281 269.40625 529.898438 C 268.78125 529.992188 268.328125 530.320312 268.042969 530.886719 C 267.8125 530.347656 267.421875 529.992188 266.863281 529.8125 C 267.734375 529.554688 267.941406 528.292969 267.480469 527.476562 C 266.929688 526.738281 266.242188 526.171875 265.414062 525.773438 C 264.558594 525.332031 263.988281 524.648438 263.710938 523.726562 C 263.488281 522.570312 264.324219 521.511719 264.664062 520.320312 C 264.789062 519.804688 264.832031 519.28125 264.792969 518.753906 C 264.753906 518.226562 264.636719 517.714844 264.4375 517.226562 C 264.242188 516.734375 263.976562 516.285156 263.636719 515.875 C 263.300781 515.464844 262.910156 515.117188 262.464844 514.832031 C 261.558594 514.304688 260.589844 513.972656 259.550781 513.832031 C 258.511719 513.695312 257.488281 513.761719 256.476562 514.03125 C 255.8125 514.171875 255.1875 514.410156 254.601562 514.746094 C 254.136719 514.996094 253.753906 515.335938 253.453125 515.769531 C 253.152344 516.199219 252.964844 516.679688 252.894531 517.199219 C 252.777344 518.597656 253.765625 519.925781 253.476562 521.289062 C 253.253906 522.382812 252.316406 523.113281 251.648438 524 C 250.984375 524.886719 250.746094 526.367188 251.648438 526.929688 C 251.128906 526.964844 250.605469 526.964844 250.082031 526.929688 C 249.414062 526.878906 248.75 526.878906 248.085938 526.929688 C 248.203125 526.253906 248.273438 525.574219 248.289062 524.886719 C 248.296875 523.890625 248.1875 522.910156 247.957031 521.941406 C 247.722656 520.976562 247.378906 520.050781 246.921875 519.164062 C 246.464844 518.28125 245.90625 517.464844 245.25 516.71875 C 244.59375 515.972656 243.855469 515.3125 243.035156 514.746094 C 241.535156 513.757812 239.503906 512.53125 239.933594 510.757812 C 237.203125 511.234375 235.632812 514.167969 234.441406 516.707031 C 234.011719 517.433594 233.824219 518.214844 233.875 519.058594 C 234.03125 519.859375 234.917969 520.539062 235.582031 520.164062 C 235.722656 523 235.058594 525.628906 233.585938 528.054688 C 233.480469 528.253906 233.363281 528.441406 233.230469 528.617188 L 232.871094 529.128906 C 232.886719 528.792969 232.886719 528.460938 232.871094 528.125 C 232.476562 523.859375 231.125 519.921875 228.8125 516.3125 C 226.695312 512.90625 223.847656 509.019531 225.28125 505.253906 C 222.644531 506.277344 220.445312 507.890625 218.679688 510.09375 C 218.105469 510.828125 217.597656 511.605469 217.160156 512.429688 C 216.363281 514.074219 215.726562 515.777344 215.25 517.542969 C 214.003906 521.714844 212.761719 526.0625 213.460938 530.375 C 213.695312 531.269531 213.738281 532.171875 213.597656 533.082031 C 213.375 533.96875 212.46875 534.789062 211.632812 534.445312 C 210.796875 534.105469 210.953125 532.488281 211.820312 532.574219 C 209.332031 531.636719 206.960938 530.542969 204.46875 529.605469 L 210.679688 527.785156 C 207.007812 526.695312 203.820312 524.796875 201.109375 522.089844 L 205.867188 521.324219 C 202.851562 518.476562 199.949219 515.5625 196.949219 512.699219 C 194.484375 515.25 191.640625 517.265625 188.417969 518.75 C 189.859375 519.832031 191.480469 520.398438 193.28125 520.457031 C 191.347656 522.773438 189.074219 524.6875 186.457031 526.199219 L 192.394531 528.941406 C 190.007812 531.5 185.914062 531.398438 182.757812 530 C 183.882812 528.703125 185.265625 527.785156 186.902344 527.253906 L 179.753906 524.1875 C 179.128906 524.007812 178.644531 523.636719 178.304688 523.078125 C 178.242188 522.875 178.214844 522.664062 178.230469 522.445312 C 178.242188 522.230469 178.292969 522.023438 178.378906 521.828125 C 178.46875 521.628906 178.585938 521.453125 178.738281 521.300781 C 178.890625 521.144531 179.0625 521.023438 179.261719 520.933594 C 180.054688 520.605469 180.878906 520.496094 181.734375 520.609375 C 178.988281 518.289062 176.410156 515.683594 173.664062 513.347656 C 170.539062 517.03125 167.082031 520.371094 163.292969 523.371094 L 168.273438 524.527344 C 167.796875 525.925781 166.382812 525.789062 164.863281 525.773438 C 162.125 525.671875 159.488281 525.101562 156.949219 524.066406 L 159.816406 522.773438 L 152.703125 517.660156 C 153.980469 517.660156 155.671875 517.0625 155.566406 515.769531 C 155.566406 515.019531 154.851562 514.523438 154.289062 514.066406 C 152.164062 512.28125 150.457031 510.164062 149.171875 507.707031 C 148.234375 506.089844 147.3125 504.382812 146.527344 502.679688 C 141.160156 509.304688 135.644531 515.808594 129.980469 522.195312 L 136.328125 520.589844 C 133.367188 523.898438 130.015625 526.738281 126.265625 529.113281 C 125.804688 529.417969 125.324219 529.710938 124.847656 530 C 126.195312 529.367188 127.867188 530.699219 127.96875 532.214844 C 127.96875 532.988281 127.761719 533.703125 127.351562 534.359375 C 126.945312 535.015625 126.394531 535.515625 125.699219 535.863281 C 124.332031 536.496094 122.894531 536.84375 121.386719 536.902344 C 122.601562 537.472656 123.691406 538.222656 124.65625 539.15625 C 125.621094 540.09375 126.40625 541.15625 127.015625 542.355469 C 123.769531 542.894531 120.519531 542.894531 117.273438 542.355469 C 118.179688 541.960938 118.296875 542.492188 118.980469 541.722656 C 119.214844 541.445312 119.5 541.242188 119.839844 541.113281 C 120.179688 540.980469 120.53125 540.941406 120.890625 540.992188 C 118.890625 540.59375 117 539.902344 115.214844 538.921875 C 113.425781 537.941406 111.828125 536.71875 110.417969 535.25 L 117.242188 534.15625 L 117.871094 534.054688 C 116.699219 533.105469 115.597656 532.082031 114.5625 530.988281 C 112.207031 528.5 110.296875 525.875 107.910156 522.960938 L 113.25 521.835938 C 107.957031 518.0625 103.632812 513.402344 100.269531 507.84375 L 89.0625 521.050781 C 90 520.878906 90.933594 520.882812 91.871094 521.058594 C 92.804688 521.234375 93.675781 521.574219 94.488281 522.074219 C 93.203125 524.660156 91.59375 527.023438 89.660156 529.164062 C 87.722656 531.304688 85.535156 533.144531 83.09375 534.6875 L 87.425781 536.183594 C 84.628906 537.910156 81.585938 538.726562 78.300781 538.640625 L 84.933594 539.984375 C 82.035156 541.09375 79.816406 542.457031 76.851562 543.582031 L 62.351562 540.394531 L 67.722656 539.371094 C 64.320312 537.390625 61.40625 534.851562 58.972656 531.753906 L 65.011719 531.363281 C 59.753906 526.984375 55.515625 521.773438 52.304688 515.734375 C 51.535156 518.289062 50.464844 520.707031 49.089844 522.992188 C 47.714844 525.277344 46.082031 527.355469 44.183594 529.230469 L 44.183594 546.445312 L 600.976562 546.445312 L 601.199219 546.75 L 601.199219 546.445312 L 766.039062 546.445312 L 766.039062 530.628906 C 765.082031 530.238281 764.105469 529.914062 763.105469 529.660156 Z M 763.105469 529.660156 " fill-opacity="1" fill-rule="nonzero"/></g></svg>