<svg xmlns="http://www.w3.org/2000/svg" xmlns:xlink="http://www.w3.org/1999/xlink" width="1080" zoomAndPan="magnify" viewBox="0 0 810 1012.49997" height="1350" preserveAspectRatio="xMidYMid meet" version="1.0"><defs><clipPath id="3394c32173"><path d="M 211 193.402344 L 643 193.402344 L 643 818 L 211 818 Z M 211 193.402344 " clip-rule="nonzero"/></clipPath></defs><path fill="#0e0f1a" d="M 309.980469 322.167969 C 287.320312 322.167969 267.722656 300.851562 268.949219 263.027344 C 270.171875 225.203125 296.199219 216.605469 314.265625 218.328125 C 332.574219 220.066406 351.625 229.671875 351.625 270.246094 C 351.625 312.542969 330.191406 322.167969 309.980469 322.167969 Z M 498.527344 270.253906 C 498.527344 226.847656 518.910156 216.570312 538.496094 214.707031 C 557.824219 212.867188 585.667969 222.0625 586.980469 262.53125 C 588.289062 302.996094 567.324219 325.804688 543.082031 325.804688 C 521.460938 325.804688 498.527344 315.503906 498.527344 270.253906 Z M 380.3125 405.601562 C 360.007812 415.054688 365.019531 473.335938 426.96875 473.335938 C 488.914062 473.335938 498.5 416.117188 473.621094 405.601562 C 454.4375 397.492188 439.714844 414.9375 427.988281 414.652344 C 415.765625 414.355469 404.789062 394.207031 380.3125 405.601562 Z M 380.3125 405.601562 " fill-opacity="1" fill-rule="nonzero"/><path fill="#ffffff" d="M 550.875 196.519531 C 515.058594 196.519531 484.085938 225.804688 486.023438 277.765625 C 487.957031 329.722656 529.09375 341.53125 557.648438 339.171875 C 586.582031 336.777344 616.691406 323.582031 616.691406 267.84375 C 616.691406 209.746094 582.816406 196.519531 550.875 196.519531 Z M 543.035156 317.25 C 524.738281 317.25 505.328125 308.53125 505.328125 270.238281 C 505.328125 233.5 522.578125 224.804688 539.152344 223.226562 C 555.511719 221.667969 579.078125 229.453125 580.1875 263.699219 C 581.296875 297.949219 563.550781 317.25 543.035156 317.25 Z M 302.167969 196.519531 C 270.226562 196.519531 236.347656 209.746094 236.347656 267.84375 C 236.347656 323.582031 266.457031 336.777344 295.394531 339.171875 C 323.945312 341.53125 365.085938 329.722656 367.019531 277.765625 C 368.957031 225.804688 337.980469 196.519531 302.167969 196.519531 Z M 310.007812 317.25 C 289.488281 317.25 271.746094 297.949219 272.855469 263.699219 C 273.964844 229.453125 297.53125 221.667969 313.886719 223.226562 C 330.464844 224.804688 347.714844 233.5 347.714844 270.238281 C 347.710938 308.53125 328.304688 317.25 310.007812 317.25 Z M 406.382812 410.558594 C 406.382812 410.558594 404.070312 429.652344 409.59375 432.679688 C 415.113281 435.707031 427.183594 419.675781 427.183594 419.675781 C 427.183594 419.675781 420.554688 415.667969 406.382812 410.558594 Z M 430.257812 419.675781 C 430.257812 419.675781 448.664062 447.898438 457.023438 443.175781 C 464.128906 439.160156 451.058594 410.558594 451.058594 410.558594 C 436.890625 415.667969 430.257812 419.675781 430.257812 419.675781 Z M 426.660156 468.074219 C 426.660156 468.074219 426.582031 448.84375 420.726562 446.523438 C 414.871094 444.207031 404.886719 461.613281 404.886719 461.613281 C 404.886719 461.613281 411.964844 464.765625 426.660156 468.074219 Z M 426.660156 468.074219 " fill-opacity="1" fill-rule="nonzero"/><path fill="#77bfd7" d="M 705.90625 529.289062 C 705.902344 529.285156 705.902344 529.285156 705.898438 529.28125 C 671.757812 587.535156 601.925781 593.296875 601.925781 593.296875 L 610.820312 549.691406 C 610.820312 549.691406 655 535.5625 662.996094 477.015625 C 666.945312 448.105469 663.019531 411.40625 656.585938 390.761719 C 652.691406 378.265625 637.066406 345.882812 640.703125 340.871094 C 644.066406 336.234375 662.453125 345.109375 662.453125 345.109375 C 662.453125 345.109375 657.679688 320.402344 662.996094 317.492188 C 668.316406 314.585938 682.445312 338.75 682.445312 338.75 C 682.445312 338.75 687.667969 323.261719 691.699219 323.757812 C 698.863281 324.640625 717.609375 359.070312 724.714844 401.433594 C 728.859375 426.144531 729.15625 460.664062 717.914062 501.421875 C 715.039062 511.839844 710.753906 520.972656 705.980469 529.144531 C 705.953125 529.191406 705.929688 529.242188 705.90625 529.289062 Z M 147.414062 529.289062 C 147.417969 529.285156 147.417969 529.285156 147.421875 529.28125 C 181.5625 587.535156 251.394531 593.296875 251.394531 593.296875 L 242.5 549.691406 C 242.5 549.691406 198.320312 535.5625 190.324219 477.015625 C 186.375 448.105469 190.296875 411.40625 196.730469 390.761719 C 200.625 378.265625 216.253906 345.882812 212.617188 340.871094 C 209.253906 336.234375 190.867188 345.109375 190.867188 345.109375 C 190.867188 345.109375 195.640625 320.402344 190.324219 317.492188 C 185.003906 314.585938 170.875 338.75 170.875 338.75 C 170.875 338.75 165.652344 323.261719 161.621094 323.757812 C 154.457031 324.640625 135.710938 359.070312 128.605469 401.433594 C 124.460938 426.144531 124.160156 460.664062 135.40625 501.421875 C 138.28125 511.839844 142.566406 520.972656 147.339844 529.144531 C 147.367188 529.191406 147.390625 529.242188 147.414062 529.289062 Z M 147.414062 529.289062 " fill-opacity="1" fill-rule="nonzero"/><g clip-path="url(#3394c32173)"><path fill="#98daf5" d="M 627.722656 556.914062 C 609.664062 452.203125 557.394531 393.640625 507.390625 364.28125 C 512.402344 354.421875 518.019531 343.4375 519.140625 341.015625 C 528.480469 344.875 539.40625 346.871094 551.855469 346.871094 C 570.507812 346.871094 587.816406 339.570312 600.59375 326.3125 C 611.304688 315.199219 623.808594 294.808594 622.542969 260.796875 C 621.457031 231.65625 608.242188 215.726562 597.347656 207.496094 C 585.332031 198.417969 569.207031 193.421875 551.9375 193.421875 C 549.527344 193.421875 547.097656 193.519531 544.722656 193.714844 C 525.960938 195.269531 511.628906 200.964844 500.90625 211.125 C 487.21875 224.101562 480.277344 244.003906 480.277344 270.273438 C 480.277344 298.453125 488.566406 319.398438 504.246094 332.203125 C 503.109375 334.652344 497.230469 346.140625 492.132812 356.160156 C 467.171875 344.203125 443.753906 339.324219 426.660156 339.324219 C 409.566406 339.324219 386.148438 344.203125 361.1875 356.160156 C 356.089844 346.140625 350.207031 334.652344 349.074219 332.203125 C 364.753906 319.398438 373.042969 298.453125 373.042969 270.273438 C 373.042969 244.003906 366.101562 224.101562 352.410156 211.125 C 341.691406 200.964844 327.359375 195.269531 308.597656 193.714844 C 306.21875 193.519531 303.792969 193.421875 301.378906 193.421875 C 284.113281 193.421875 267.988281 198.417969 255.972656 207.496094 C 245.078125 215.726562 231.863281 231.65625 230.777344 260.796875 C 229.511719 294.808594 242.011719 315.199219 252.726562 326.3125 C 265.503906 339.570312 282.8125 346.871094 301.464844 346.871094 C 313.914062 346.871094 324.839844 344.875 334.179688 341.015625 C 335.300781 343.4375 340.917969 354.421875 345.929688 364.28125 C 295.925781 393.640625 243.65625 452.203125 225.597656 556.914062 C 196.515625 725.519531 215.417969 806.917969 250.316406 808.371094 C 285.210938 809.824219 295.390625 785.117188 295.390625 785.117188 C 295.390625 785.117188 308.476562 818.546875 341.921875 817.09375 C 375.363281 815.640625 385.542969 789.476562 385.542969 789.476562 C 385.542969 789.476562 386.351562 817.140625 426.660156 817.140625 C 466.96875 817.140625 469.878906 789.476562 469.878906 789.476562 C 469.878906 789.476562 477.957031 815.640625 511.398438 817.09375 C 544.84375 818.546875 557.929688 785.117188 557.929688 785.117188 C 557.929688 785.117188 568.105469 809.824219 603.003906 808.371094 C 637.902344 806.917969 656.804688 725.519531 627.722656 556.914062 Z M 301.464844 335.34375 C 268.792969 335.34375 240.535156 308.625 242.300781 261.222656 C 243.929688 217.511719 275.972656 204.945312 301.378906 204.945312 C 303.523438 204.945312 305.617188 205.035156 307.644531 205.203125 C 334.042969 207.386719 361.511719 219.425781 361.511719 270.273438 C 361.511719 323.277344 330.605469 335.34375 301.464844 335.34375 Z M 427.105469 465.339844 C 373.621094 465.339844 369.296875 420.023438 386.828125 412.671875 C 407.957031 403.808594 417.433594 419.480469 427.984375 419.710938 C 438.109375 419.933594 450.820312 406.367188 467.382812 412.671875 C 488.863281 420.847656 480.589844 465.339844 427.105469 465.339844 Z M 491.808594 270.273438 C 491.808594 219.425781 519.277344 207.386719 545.675781 205.203125 C 547.703125 205.035156 549.796875 204.945312 551.9375 204.945312 C 577.347656 204.945312 609.390625 217.511719 611.019531 261.222656 C 612.785156 308.625 584.527344 335.34375 551.855469 335.34375 C 522.714844 335.34375 491.808594 323.277344 491.808594 270.273438 Z M 491.808594 270.273438 " fill-opacity="1" fill-rule="nonzero"/></g><path fill="#3e8caf" d="M 708.285156 346.867188 L 649.941406 373.070312 C 644.460938 359.480469 638.433594 344.1875 640.839844 340.871094 C 644.203125 336.234375 662.589844 345.109375 662.589844 345.109375 C 662.589844 345.109375 657.816406 320.398438 663.136719 317.492188 C 668.453125 314.585938 682.582031 338.75 682.582031 338.75 C 682.582031 338.75 687.804688 323.261719 691.839844 323.757812 C 695.40625 324.195312 701.84375 332.957031 708.285156 346.867188 Z M 145.3125 346.867188 L 203.65625 373.070312 C 209.136719 359.480469 215.160156 344.1875 212.757812 340.871094 C 209.394531 336.234375 191.007812 345.109375 191.007812 345.109375 C 191.007812 345.109375 195.78125 320.398438 190.460938 317.492188 C 185.144531 314.585938 171.015625 338.75 171.015625 338.75 C 171.015625 338.75 165.792969 323.261719 161.757812 323.757812 C 158.191406 324.195312 151.753906 332.957031 145.3125 346.867188 Z M 145.3125 346.867188 " fill-opacity="1" fill-rule="nonzero"/><path fill="#3e8caf" d="M 306.074219 394.40625 C 327.308594 408.019531 334.816406 439.703125 314.835938 477.414062 C 293.558594 517.5625 260.949219 513.113281 242.371094 501.734375 C 241.578125 501.25 240.796875 500.742188 240.015625 500.222656 C 256.160156 453.539062 280.039062 419.132812 306.074219 394.40625 Z M 328.5625 502.003906 C 307.183594 532.773438 345.183594 555.183594 366.652344 525.136719 C 387.707031 495.664062 353.207031 466.539062 328.5625 502.003906 Z M 589.769531 662.285156 C 589.773438 689.652344 615.199219 711.273438 641.664062 716.992188 C 642.859375 686.84375 640.882812 649.105469 634.863281 603.574219 C 612.714844 609.632812 589.761719 624.921875 589.769531 662.285156 Z M 532.5 686.164062 C 515.414062 710.75 553.039062 733.703125 570.273438 709.742188 C 587.179688 686.246094 552.195312 657.824219 532.5 686.164062 Z M 533.292969 587.851562 C 524.539062 600.445312 543.382812 611.902344 552.203125 599.628906 C 560.859375 587.589844 543.378906 573.335938 533.292969 587.851562 Z M 530.914062 402.4375 C 520.378906 392.753906 507.390625 408.714844 517.625 418.425781 C 527.660156 427.949219 543.058594 413.601562 530.914062 402.4375 Z M 660.742188 488.859375 C 671.058594 484.125 690.816406 471.40625 687.855469 446.3125 C 684.21875 415.523438 661.933594 415.542969 661.933594 415.542969 L 661.929688 415.578125 C 664.742188 434.777344 665.644531 457.636719 662.996094 477.015625 C 662.425781 481.195312 661.652344 485.125 660.742188 488.859375 Z M 205.722656 580.34375 C 207.835938 565.632812 200.382812 547.101562 186.207031 535.472656 C 165.242188 518.277344 144.453125 523.652344 144.320312 523.679688 C 145.300781 525.546875 146.304688 527.375 147.339844 529.144531 C 147.367188 529.191406 147.390625 529.242188 147.414062 529.289062 C 147.417969 529.285156 147.417969 529.285156 147.421875 529.28125 C 162.824219 555.5625 185.484375 571.136719 205.722656 580.34375 Z M 173.71875 491.519531 C 168.582031 480.117188 152.660156 488.476562 157.542969 499.796875 C 162.332031 510.898438 179.636719 504.660156 173.71875 491.519531 Z M 706.023438 396.863281 C 699.796875 383.035156 683.96875 391.609375 689.925781 405.316406 C 695.769531 418.761719 713.199219 412.800781 706.023438 396.863281 Z M 706.023438 396.863281 " fill-opacity="0.3" fill-rule="nonzero"/><path fill="#3e8caf" d="M 441.964844 476.785156 C 446.578125 475.464844 448.53125 482.636719 443.941406 483.949219 C 433.578125 486.914062 422.644531 487.195312 412.128906 484.894531 C 410.15625 484.464844 409.019531 482.183594 409.53125 480.324219 C 410.082031 478.320312 412.144531 477.300781 414.101562 477.730469 C 423.328125 479.75 432.894531 479.378906 441.964844 476.785156 Z M 441.964844 476.785156 C 446.578125 475.464844 448.53125 482.636719 443.941406 483.949219 C 433.578125 486.914062 422.644531 487.195312 412.128906 484.894531 C 410.15625 484.464844 409.019531 482.183594 409.53125 480.324219 C 410.082031 478.320312 412.144531 477.300781 414.101562 477.730469 C 423.328125 479.75 432.894531 479.378906 441.964844 476.785156 Z M 441.964844 476.785156 " fill-opacity="1" fill-rule="nonzero"/></svg>