<svg xmlns="http://www.w3.org/2000/svg" xmlns:xlink="http://www.w3.org/1999/xlink" width="1080" zoomAndPan="magnify" viewBox="0 0 810 1012.49997" height="1350" preserveAspectRatio="xMidYMid meet" version="1.0"><path fill="#fade3f" d="M 530.292969 500.804688 C 530.292969 582.761719 473.480469 647.902344 391.523438 647.902344 C 309.566406 647.902344 240.726562 587.851562 240.726562 505.894531 C 240.726562 423.9375 302.910156 363.886719 384.867188 363.886719 C 473.378906 363.886719 530.292969 418.847656 530.292969 500.804688 Z M 397.769531 209.15625 C 393.28125 202.21875 374.546875 201.523438 369.460938 209.386719 C 364.222656 217.480469 368.953125 328.96875 383.621094 328.964844 C 399.652344 328.960938 401.636719 215.140625 397.769531 209.15625 Z M 247.757812 242.785156 C 240.402344 239.015625 223.832031 247.785156 223.355469 257.136719 C 222.867188 266.765625 282.707031 360.949219 295.40625 353.613281 C 309.292969 345.59375 254.097656 246.03125 247.757812 242.785156 Z M 134.65625 346.910156 C 126.40625 347.324219 116.4375 363.203125 120.703125 371.539062 C 125.09375 380.121094 224.007812 431.769531 231.339844 419.066406 C 239.351562 405.179688 141.773438 346.550781 134.65625 346.910156 Z M 88.773438 493.636719 C 81.832031 498.121094 81.140625 516.855469 89.003906 521.945312 C 97.097656 527.179688 208.582031 522.453125 208.578125 507.785156 C 208.578125 491.75 94.753906 489.769531 88.773438 493.636719 Z M 122.398438 643.648438 C 118.632812 651 127.398438 667.570312 136.753906 668.046875 C 146.378906 668.535156 240.566406 608.699219 233.230469 595.996094 C 225.210938 582.113281 125.644531 637.304688 122.398438 643.648438 Z M 226.523438 756.746094 C 226.941406 765 242.816406 774.96875 251.15625 770.699219 C 259.738281 766.3125 311.386719 667.398438 298.683594 660.066406 C 284.796875 652.050781 226.167969 749.632812 226.523438 756.746094 Z M 373.25 802.632812 C 377.738281 809.570312 396.472656 810.265625 401.558594 802.402344 C 406.792969 794.308594 402.066406 682.824219 387.398438 682.824219 C 371.367188 682.828125 369.382812 796.648438 373.25 802.632812 Z M 523.261719 769.007812 C 530.617188 772.773438 547.1875 764.003906 547.664062 754.652344 C 548.152344 745.023438 488.3125 650.839844 475.613281 658.175781 C 461.726562 666.195312 516.921875 765.757812 523.261719 769.007812 Z M 636.363281 664.878906 C 644.613281 664.464844 654.582031 648.585938 650.316406 640.25 C 645.925781 631.667969 547.011719 580.019531 539.679688 592.722656 C 531.667969 606.609375 629.246094 665.238281 636.363281 664.878906 Z M 682.246094 518.152344 C 689.1875 513.667969 689.878906 494.933594 682.015625 489.84375 C 673.921875 484.609375 562.4375 489.335938 562.441406 504.003906 C 562.441406 520.039062 676.265625 522.019531 682.246094 518.152344 Z M 648.621094 368.140625 C 652.386719 360.789062 643.621094 344.21875 634.265625 343.742188 C 624.640625 343.253906 530.453125 403.089844 537.789062 415.792969 C 545.808594 429.675781 645.375 374.484375 648.621094 368.140625 Z M 544.496094 255.042969 C 544.078125 246.789062 528.199219 236.820312 519.863281 241.089844 C 511.28125 245.480469 459.632812 344.390625 472.335938 351.722656 C 486.222656 359.738281 544.851562 262.15625 544.496094 255.042969 Z M 544.496094 255.042969 " fill-opacity="1" fill-rule="nonzero"/></svg>