<svg xmlns="http://www.w3.org/2000/svg" xmlns:xlink="http://www.w3.org/1999/xlink" width="1080" zoomAndPan="magnify" viewBox="0 0 810 1012.49997" height="1350" preserveAspectRatio="xMidYMid meet" version="1.0"><defs><clipPath id="498b22c608"><path d="M 11.179688 515 L 302 515 L 302 800 L 11.179688 800 Z M 11.179688 515 " clip-rule="nonzero"/></clipPath></defs><path fill="#ffd600" d="M 800.988281 630.800781 L 800.636719 630.925781 L 678.933594 682.152344 C 676.394531 683.234375 673.757812 683.960938 671.023438 684.328125 C 668.285156 684.695312 665.550781 684.691406 662.816406 684.320312 L 672.8125 577.898438 L 666.914062 569.179688 L 755.066406 534.007812 C 759.007812 538.164062 762.523438 542.648438 765.621094 547.464844 L 806.855469 611.859375 C 806.972656 612.042969 807.078125 612.234375 807.171875 612.433594 C 807.402344 612.828125 807.609375 613.234375 807.792969 613.652344 C 807.980469 614.070312 808.140625 614.496094 808.28125 614.933594 C 808.421875 615.367188 808.539062 615.808594 808.632812 616.257812 C 808.726562 616.703125 808.792969 617.15625 808.839844 617.609375 C 808.886719 618.0625 808.90625 618.519531 808.902344 618.976562 C 808.902344 619.433594 808.875 619.890625 808.820312 620.34375 C 808.769531 620.796875 808.695312 621.25 808.597656 621.695312 C 808.496094 622.140625 808.375 622.578125 808.226562 623.011719 C 808.082031 623.445312 807.914062 623.871094 807.722656 624.285156 C 807.53125 624.699219 807.320312 625.105469 807.085938 625.496094 C 806.851562 625.890625 806.597656 626.269531 806.324219 626.636719 C 806.050781 627 805.757812 627.351562 805.445312 627.6875 C 805.136719 628.019531 804.804688 628.339844 804.460938 628.636719 C 804.117188 628.9375 803.757812 629.21875 803.382812 629.480469 C 803.007812 629.742188 802.621094 629.984375 802.21875 630.203125 C 801.820312 630.421875 801.40625 630.621094 800.988281 630.800781 Z M 800.988281 630.800781 " fill-opacity="1" fill-rule="nonzero"/><path fill="#ffd600" d="M 755.132812 534.007812 L 667.058594 569.179688 L 664.617188 559.039062 L 452.308594 399.992188 C 456.554688 397.269531 461.023438 394.984375 465.714844 393.136719 L 522.539062 370.65625 L 523.335938 370.335938 C 524.816406 369.75 526.347656 369.347656 527.925781 369.132812 C 529.503906 368.914062 531.085938 368.890625 532.667969 369.058594 C 534.253906 369.222656 535.792969 369.578125 537.292969 370.117188 C 538.792969 370.65625 540.203125 371.367188 541.53125 372.25 C 541.847656 372.441406 542.167969 372.664062 542.484375 372.886719 L 542.933594 373.207031 L 743.15625 523.261719 C 747.457031 526.503906 751.445312 530.085938 755.132812 534.007812 Z M 755.132812 534.007812 " fill-opacity="1" fill-rule="nonzero"/><path fill="#ffb229" d="M 701.878906 531.058594 L 696.171875 533.324219 L 686.605469 537.148438 C 685.207031 537.703125 683.761719 538.070312 682.269531 538.25 C 680.777344 538.433594 679.285156 538.425781 677.796875 538.230469 C 676.304688 538.03125 674.863281 537.648438 673.472656 537.082031 C 672.082031 536.515625 670.78125 535.785156 669.574219 534.886719 L 511.523438 416.429688 L 504.429688 411.136719 C 504.023438 410.832031 503.664062 410.480469 503.351562 410.078125 C 503.042969 409.679688 502.789062 409.246094 502.59375 408.777344 C 502.398438 408.308594 502.265625 407.824219 502.199219 407.324219 C 502.132812 406.820312 502.136719 406.316406 502.203125 405.816406 C 502.273438 405.3125 502.40625 404.828125 502.601562 404.363281 C 502.800781 403.894531 503.054688 403.460938 503.367188 403.0625 C 503.683594 402.664062 504.042969 402.316406 504.449219 402.011719 C 504.855469 401.710938 505.296875 401.46875 505.765625 401.28125 L 521.105469 395.191406 C 522.503906 394.636719 523.949219 394.269531 525.4375 394.089844 C 526.929688 393.90625 528.421875 393.914062 529.910156 394.117188 C 531.402344 394.316406 532.839844 394.703125 534.230469 395.273438 C 535.621094 395.847656 536.917969 396.582031 538.117188 397.488281 L 703.21875 521.222656 C 703.625 521.523438 703.984375 521.875 704.292969 522.277344 C 704.605469 522.675781 704.859375 523.109375 705.054688 523.574219 C 705.25 524.042969 705.382812 524.527344 705.449219 525.027344 C 705.515625 525.53125 705.511719 526.03125 705.445312 526.535156 C 705.375 527.035156 705.242188 527.519531 705.046875 527.988281 C 704.847656 528.453125 704.59375 528.886719 704.277344 529.28125 C 703.964844 529.679688 703.605469 530.03125 703.199219 530.332031 C 702.789062 530.632812 702.351562 530.875 701.878906 531.058594 Z M 701.878906 531.058594 " fill-opacity="1" fill-rule="nonzero"/><path fill="#ffd600" d="M 696.171875 533.324219 L 686.605469 537.148438 C 685.207031 537.703125 683.761719 538.070312 682.269531 538.25 C 680.777344 538.433594 679.285156 538.425781 677.796875 538.230469 C 676.304688 538.03125 674.863281 537.648438 673.472656 537.082031 C 672.082031 536.515625 670.78125 535.785156 669.574219 534.886719 L 511.523438 416.429688 L 521.089844 412.601562 C 522.488281 412.046875 523.929688 411.679688 525.421875 411.496094 C 526.914062 411.316406 528.40625 411.324219 529.894531 411.527344 C 531.386719 411.726562 532.824219 412.113281 534.214844 412.683594 C 535.605469 413.253906 536.902344 413.992188 538.101562 414.898438 Z M 696.171875 533.324219 " fill-opacity="1" fill-rule="nonzero"/><path fill="#ffb229" d="M 672.875 577.898438 L 662.878906 684.320312 C 660.28125 683.976562 657.769531 683.316406 655.339844 682.339844 C 652.910156 681.363281 650.640625 680.101562 648.53125 678.546875 L 388.53125 480.648438 C 387.253906 479.699219 386.191406 478.550781 385.34375 477.203125 C 384.828125 476.40625 384.425781 475.554688 384.128906 474.652344 C 383.394531 472.675781 383.191406 470.644531 383.523438 468.5625 C 383.488281 468.476562 383.488281 468.390625 383.523438 468.308594 C 383.621094 467.726562 383.75 467.152344 383.90625 466.585938 C 384.136719 465.773438 384.457031 464.996094 384.863281 464.257812 C 385.28125 463.496094 385.761719 462.773438 386.300781 462.089844 C 386.585938 461.738281 386.90625 461.417969 387.222656 461.101562 L 439.488281 410.082031 C 443.390625 406.285156 447.644531 402.925781 452.242188 400.007812 L 664.472656 559.054688 C 665.925781 560.128906 667.21875 561.371094 668.351562 562.78125 C 669.484375 564.191406 670.417969 565.722656 671.152344 567.371094 C 671.890625 569.023438 672.402344 570.742188 672.695312 572.523438 C 672.988281 574.308594 673.046875 576.101562 672.875 577.898438 Z M 672.875 577.898438 " fill-opacity="1" fill-rule="nonzero"/><path fill="#ffd600" d="M 597.957031 675.058594 L 597.605469 675.183594 L 475.921875 726.410156 C 473.378906 727.492188 470.738281 728.21875 468 728.585938 C 465.261719 728.953125 462.523438 728.953125 459.785156 728.578125 L 469.796875 622.15625 L 463.882812 613.4375 L 552.050781 578.265625 C 555.992188 582.421875 559.507812 586.90625 562.609375 591.722656 L 603.824219 656.117188 C 603.941406 656.300781 604.046875 656.492188 604.140625 656.691406 C 604.371094 657.085938 604.578125 657.492188 604.761719 657.910156 C 604.949219 658.328125 605.109375 658.753906 605.25 659.191406 C 605.390625 659.625 605.507812 660.066406 605.601562 660.515625 C 605.695312 660.960938 605.765625 661.414062 605.808594 661.867188 C 605.855469 662.320312 605.875 662.777344 605.871094 663.234375 C 605.871094 663.691406 605.84375 664.148438 605.789062 664.601562 C 605.738281 665.054688 605.664062 665.507812 605.566406 665.953125 C 605.464844 666.398438 605.34375 666.839844 605.199219 667.269531 C 605.050781 667.703125 604.882812 668.128906 604.691406 668.542969 C 604.5 668.960938 604.289062 669.363281 604.054688 669.753906 C 603.820312 670.148438 603.566406 670.527344 603.292969 670.894531 C 603.019531 671.257812 602.726562 671.609375 602.414062 671.945312 C 602.105469 672.277344 601.777344 672.597656 601.429688 672.894531 C 601.085938 673.195312 600.726562 673.476562 600.351562 673.738281 C 599.976562 674 599.589844 674.242188 599.1875 674.460938 C 598.789062 674.683594 598.378906 674.878906 597.957031 675.058594 Z M 597.957031 675.058594 " fill-opacity="1" fill-rule="nonzero"/><path fill="#ffb229" d="M 552.050781 578.265625 L 463.882812 613.4375 L 461.378906 603.3125 L 249.210938 444.25 C 253.464844 441.53125 257.941406 439.246094 262.636719 437.394531 L 319.476562 414.914062 L 320.273438 414.59375 C 321.757812 414.007812 323.289062 413.605469 324.867188 413.386719 C 326.445312 413.171875 328.027344 413.144531 329.613281 413.3125 C 331.199219 413.480469 332.742188 413.832031 334.242188 414.375 C 335.742188 414.914062 337.15625 415.625 338.484375 416.507812 C 338.800781 416.699219 339.121094 416.921875 339.441406 417.144531 L 339.886719 417.464844 L 540.09375 567.519531 C 544.390625 570.757812 548.375 574.339844 552.050781 578.265625 Z M 552.050781 578.265625 " fill-opacity="1" fill-rule="nonzero"/><path fill="#ffb229" d="M 498.785156 575.316406 L 493.074219 577.582031 L 483.507812 581.40625 C 482.113281 581.960938 480.667969 582.328125 479.175781 582.507812 C 477.683594 582.691406 476.191406 582.683594 474.703125 582.488281 C 473.210938 582.289062 471.769531 581.90625 470.378906 581.339844 C 468.984375 580.773438 467.6875 580.042969 466.480469 579.144531 L 308.316406 460.6875 L 301.269531 455.394531 C 300.863281 455.089844 300.503906 454.738281 300.195312 454.335938 C 299.882812 453.9375 299.628906 453.503906 299.433594 453.035156 C 299.238281 452.566406 299.105469 452.082031 299.042969 451.582031 C 298.976562 451.078125 298.976562 450.574219 299.042969 450.074219 C 299.113281 449.570312 299.246094 449.085938 299.445312 448.621094 C 299.640625 448.152344 299.898438 447.71875 300.210938 447.320312 C 300.523438 446.921875 300.882812 446.574219 301.289062 446.269531 C 301.699219 445.96875 302.136719 445.726562 302.609375 445.539062 L 317.945312 439.449219 C 319.347656 438.898438 320.792969 438.535156 322.285156 438.351562 C 323.777344 438.171875 325.269531 438.183594 326.757812 438.382812 C 328.25 438.585938 329.691406 438.96875 331.082031 439.539062 C 332.472656 440.109375 333.773438 440.84375 334.976562 441.746094 L 500.125 565.480469 C 500.527344 565.785156 500.886719 566.132812 501.199219 566.535156 C 501.511719 566.933594 501.765625 567.367188 501.960938 567.832031 C 502.15625 568.300781 502.289062 568.785156 502.355469 569.285156 C 502.421875 569.789062 502.417969 570.292969 502.351562 570.792969 C 502.28125 571.296875 502.148438 571.777344 501.949219 572.246094 C 501.753906 572.710938 501.496094 573.144531 501.183594 573.542969 C 500.871094 573.9375 500.511719 574.289062 500.101562 574.589844 C 499.695312 574.890625 499.257812 575.132812 498.785156 575.316406 Z M 498.785156 575.316406 " fill-opacity="1" fill-rule="nonzero"/><path fill="#ffb229" d="M 493.074219 577.582031 L 483.507812 581.40625 C 482.113281 581.960938 480.667969 582.328125 479.175781 582.507812 C 477.683594 582.691406 476.191406 582.683594 474.703125 582.488281 C 473.210938 582.289062 471.769531 581.90625 470.378906 581.339844 C 468.984375 580.773438 467.6875 580.042969 466.480469 579.144531 L 308.316406 460.6875 L 317.882812 456.859375 C 319.28125 456.308594 320.726562 455.945312 322.222656 455.761719 C 323.714844 455.582031 325.207031 455.59375 326.695312 455.792969 C 328.1875 455.996094 329.628906 456.378906 331.019531 456.949219 C 332.410156 457.519531 333.707031 458.253906 334.910156 459.15625 Z M 493.074219 577.582031 " fill-opacity="1" fill-rule="nonzero"/><path fill="#dd8e1b" d="M 469.863281 619.257812 C 469.941406 620.246094 469.941406 621.234375 469.863281 622.222656 L 463.484375 689.996094 L 459.785156 728.578125 C 457.1875 728.234375 454.675781 727.578125 452.246094 726.597656 C 449.816406 725.621094 447.546875 724.359375 445.433594 722.808594 L 185.453125 524.90625 C 184.175781 523.957031 183.113281 522.808594 182.261719 521.460938 C 181.75 520.664062 181.34375 519.8125 181.050781 518.910156 C 180.316406 516.933594 180.113281 514.902344 180.445312 512.820312 C 180.410156 512.734375 180.410156 512.648438 180.445312 512.566406 C 180.574219 511.984375 180.734375 511.410156 180.925781 510.84375 C 181.15625 510.03125 181.472656 509.253906 181.878906 508.515625 C 182.300781 507.753906 182.777344 507.03125 183.316406 506.347656 C 183.601562 505.996094 183.921875 505.675781 184.242188 505.359375 L 236.488281 454.339844 C 240.394531 450.542969 244.644531 447.183594 249.246094 444.265625 L 461.378906 603.3125 C 462.640625 604.238281 463.78125 605.292969 464.804688 606.472656 C 465.824219 607.65625 466.703125 608.9375 467.4375 610.316406 C 468.171875 611.699219 468.746094 613.140625 469.152344 614.652344 C 469.5625 616.160156 469.796875 617.695312 469.863281 619.257812 Z M 469.863281 619.257812 " fill-opacity="1" fill-rule="nonzero"/><path fill="#ffb229" d="M 529.15625 629.109375 L 463.421875 689.933594 L 469.796875 622.15625 C 469.878906 621.167969 469.878906 620.179688 469.796875 619.191406 Z M 529.15625 629.109375 " fill-opacity="1" fill-rule="nonzero"/><path fill="#ffd600" d="M 429.363281 746.195312 L 429.011719 746.324219 L 307.3125 797.546875 C 304.769531 798.628906 302.128906 799.355469 299.390625 799.722656 C 296.652344 800.09375 293.914062 800.089844 291.175781 799.714844 L 301.191406 693.3125 L 295.289062 684.574219 L 299.53125 682.886719 L 383.445312 649.40625 C 387.382812 653.558594 390.902344 658.046875 394 662.859375 L 420.179688 703.753906 L 435.214844 727.238281 C 435.332031 727.421875 435.441406 727.613281 435.535156 727.8125 C 435.761719 728.207031 435.96875 728.617188 436.15625 729.035156 C 436.339844 729.453125 436.503906 729.878906 436.644531 730.3125 C 436.785156 730.746094 436.902344 731.1875 436.996094 731.636719 C 437.089844 732.085938 437.160156 732.535156 437.203125 732.992188 C 437.25 733.445312 437.269531 733.902344 437.269531 734.359375 C 437.265625 734.816406 437.238281 735.269531 437.1875 735.726562 C 437.136719 736.179688 437.0625 736.628906 436.964844 737.078125 C 436.863281 737.523438 436.742188 737.960938 436.597656 738.394531 C 436.449219 738.828125 436.28125 739.253906 436.09375 739.667969 C 435.902344 740.085938 435.691406 740.488281 435.457031 740.882812 C 435.222656 741.277344 434.96875 741.65625 434.695312 742.023438 C 434.421875 742.386719 434.128906 742.738281 433.820312 743.074219 C 433.507812 743.410156 433.179688 743.726562 432.835938 744.027344 C 432.492188 744.328125 432.132812 744.609375 431.757812 744.871094 C 431.382812 745.132812 430.996094 745.375 430.59375 745.597656 C 430.195312 745.816406 429.785156 746.019531 429.363281 746.195312 Z M 429.363281 746.195312 " fill-opacity="1" fill-rule="nonzero"/><path fill="#f2a222" d="M 383.445312 649.40625 L 299.53125 682.886719 L 295.289062 684.625 L 292.835938 674.484375 L 80.605469 515.386719 C 84.859375 512.667969 89.332031 510.382812 94.03125 508.53125 L 150.835938 486.066406 L 151.636719 485.75 C 153.117188 485.160156 154.648438 484.757812 156.226562 484.542969 C 157.804688 484.324219 159.390625 484.300781 160.972656 484.464844 C 162.558594 484.632812 164.101562 484.988281 165.601562 485.527344 C 167.101562 486.066406 168.515625 486.777344 169.84375 487.660156 C 170.160156 487.851562 170.480469 488.078125 170.800781 488.300781 L 171.246094 488.617188 L 371.453125 638.675781 C 372.316406 639.3125 373.175781 639.964844 374.007812 640.667969 C 377.351562 643.363281 380.5 646.277344 383.445312 649.40625 Z M 383.445312 649.40625 " fill-opacity="1" fill-rule="nonzero"/><path fill="#dd8e1b" d="M 330.191406 646.457031 L 324.484375 648.71875 L 314.917969 652.546875 C 313.519531 653.097656 312.074219 653.464844 310.582031 653.648438 C 309.089844 653.832031 307.597656 653.824219 306.109375 653.625 C 304.621094 653.425781 303.179688 653.042969 301.785156 652.476562 C 300.394531 651.910156 299.09375 651.179688 297.890625 650.28125 L 139.820312 531.824219 L 132.789062 526.53125 C 132.382812 526.226562 132.023438 525.875 131.714844 525.476562 C 131.402344 525.074219 131.148438 524.640625 130.953125 524.175781 C 130.757812 523.707031 130.625 523.222656 130.5625 522.71875 C 130.496094 522.214844 130.496094 521.714844 130.5625 521.210938 C 130.632812 520.710938 130.765625 520.226562 130.964844 519.757812 C 131.160156 519.292969 131.417969 518.859375 131.730469 518.460938 C 132.042969 518.0625 132.402344 517.710938 132.808594 517.410156 C 133.21875 517.105469 133.65625 516.863281 134.128906 516.679688 L 149.449219 510.589844 C 150.84375 510.042969 152.285156 509.683594 153.773438 509.503906 C 155.261719 509.328125 156.746094 509.339844 158.230469 509.539062 C 159.714844 509.742188 161.148438 510.125 162.535156 510.691406 C 163.921875 511.257812 165.214844 511.988281 166.414062 512.882812 L 331.53125 636.601562 C 331.9375 636.90625 332.296875 637.257812 332.605469 637.660156 C 332.917969 638.058594 333.171875 638.492188 333.367188 638.960938 C 333.5625 639.425781 333.695312 639.914062 333.757812 640.414062 C 333.824219 640.917969 333.824219 641.421875 333.757812 641.921875 C 333.6875 642.425781 333.554688 642.910156 333.355469 643.375 C 333.160156 643.84375 332.902344 644.273438 332.589844 644.671875 C 332.277344 645.070312 331.917969 645.421875 331.511719 645.722656 C 331.101562 646.027344 330.664062 646.269531 330.191406 646.457031 Z M 330.191406 646.457031 " fill-opacity="1" fill-rule="nonzero"/><path fill="#dd8e1b" d="M 324.484375 648.71875 L 314.917969 652.546875 C 313.519531 653.097656 312.074219 653.464844 310.582031 653.648438 C 309.089844 653.832031 307.597656 653.824219 306.109375 653.625 C 304.621094 653.425781 303.179688 653.042969 301.785156 652.476562 C 300.394531 651.910156 299.09375 651.179688 297.890625 650.28125 L 139.820312 531.824219 L 149.386719 527.996094 C 150.785156 527.449219 152.230469 527.082031 153.726562 526.902344 C 155.21875 526.71875 156.710938 526.730469 158.199219 526.933594 C 159.691406 527.132812 161.128906 527.519531 162.523438 528.085938 C 163.914062 528.65625 165.210938 529.390625 166.414062 530.292969 Z M 324.484375 648.71875 " fill-opacity="1" fill-rule="nonzero"/><g clip-path="url(#498b22c608)"><path fill="#ffb229" d="M 301.191406 693.296875 L 291.175781 799.714844 C 288.582031 799.375 286.066406 798.714844 283.636719 797.738281 C 281.207031 796.757812 278.9375 795.496094 276.828125 793.945312 L 16.84375 596.027344 C 15.566406 595.078125 14.503906 593.929688 13.65625 592.582031 C 13.140625 591.785156 12.738281 590.933594 12.445312 590.03125 C 11.707031 588.0625 11.507812 586.035156 11.839844 583.957031 C 11.804688 583.875 11.804688 583.789062 11.839844 583.703125 C 11.933594 583.121094 12.0625 582.546875 12.222656 581.980469 C 12.453125 581.167969 12.769531 580.394531 13.175781 579.652344 C 13.597656 578.890625 14.074219 578.167969 14.613281 577.484375 C 14.898438 577.132812 15.21875 576.816406 15.535156 576.496094 L 67.800781 525.480469 C 71.703125 521.675781 75.953125 518.316406 80.558594 515.402344 L 292.835938 674.417969 C 294.285156 675.5 295.574219 676.746094 296.699219 678.160156 C 297.828125 679.574219 298.757812 681.109375 299.492188 682.761719 C 300.222656 684.414062 300.730469 686.132812 301.019531 687.917969 C 301.308594 689.703125 301.363281 691.496094 301.191406 693.296875 Z M 301.191406 693.296875 " fill-opacity="1" fill-rule="nonzero"/></g><path fill="#ffb229" d="M 420.179688 703.753906 L 339.007812 734.796875 C 338.242188 735.089844 337.453125 735.3125 336.640625 735.460938 C 335.832031 735.609375 335.015625 735.679688 334.195312 735.679688 C 333.371094 735.675781 332.554688 735.597656 331.746094 735.445312 C 330.9375 735.292969 330.152344 735.070312 329.382812 734.769531 C 328.617188 734.472656 327.882812 734.105469 327.183594 733.675781 C 326.484375 733.242188 325.832031 732.746094 325.222656 732.191406 C 324.613281 731.640625 324.0625 731.035156 323.566406 730.378906 C 323.070312 729.722656 322.636719 729.027344 322.269531 728.292969 L 299.5625 683.027344 L 299.5625 682.933594 L 383.476562 649.453125 C 387.414062 653.609375 390.933594 658.09375 394.03125 662.910156 Z M 420.179688 703.753906 " fill-opacity="1" fill-rule="nonzero"/><path fill="#ffd600" d="M 524.917969 632.011719 L 524.566406 632.136719 L 402.878906 683.363281 C 400.339844 684.445312 397.699219 685.171875 394.960938 685.539062 C 392.222656 685.90625 389.484375 685.90625 386.746094 685.53125 L 396.757812 579.128906 L 390.84375 570.390625 L 479.011719 535.21875 C 482.941406 539.378906 486.453125 543.867188 489.550781 548.675781 L 530.785156 613.070312 C 530.902344 613.253906 531.007812 613.445312 531.101562 613.644531 C 531.332031 614.039062 531.539062 614.445312 531.722656 614.863281 C 531.910156 615.28125 532.070312 615.707031 532.210938 616.144531 C 532.351562 616.578125 532.46875 617.019531 532.5625 617.46875 C 532.65625 617.914062 532.722656 618.367188 532.769531 618.820312 C 532.816406 619.277344 532.835938 619.730469 532.832031 620.1875 C 532.828125 620.644531 532.804688 621.101562 532.75 621.554688 C 532.699219 622.007812 532.625 622.460938 532.527344 622.90625 C 532.425781 623.351562 532.304688 623.792969 532.15625 624.226562 C 532.011719 624.65625 531.84375 625.082031 531.652344 625.496094 C 531.460938 625.914062 531.25 626.316406 531.015625 626.710938 C 530.78125 627.101562 530.527344 627.480469 530.253906 627.847656 C 529.980469 628.210938 529.6875 628.5625 529.375 628.898438 C 529.0625 629.230469 528.734375 629.550781 528.390625 629.847656 C 528.046875 630.148438 527.6875 630.429688 527.3125 630.691406 C 526.9375 630.953125 526.550781 631.195312 526.148438 631.414062 C 525.75 631.636719 525.335938 631.832031 524.917969 632.011719 Z M 524.917969 632.011719 " fill-opacity="1" fill-rule="nonzero"/><path fill="#ffd600" d="M 479.011719 535.21875 L 390.84375 570.390625 L 388.402344 560.265625 L 176.171875 401.203125 C 180.421875 398.488281 184.890625 396.203125 189.582031 394.347656 L 246.40625 371.882812 L 247.203125 371.5625 C 248.683594 370.976562 250.214844 370.574219 251.792969 370.359375 C 253.371094 370.140625 254.949219 370.117188 256.535156 370.28125 C 258.117188 370.449219 259.660156 370.800781 261.160156 371.34375 C 262.65625 371.882812 264.070312 372.59375 265.394531 373.476562 C 265.714844 373.667969 266.035156 373.890625 266.351562 374.113281 L 266.796875 374.433594 L 467.023438 524.492188 C 471.324219 527.726562 475.320312 531.300781 479.011719 535.21875 Z M 479.011719 535.21875 " fill-opacity="1" fill-rule="nonzero"/><path fill="#ffb229" d="M 425.746094 532.285156 L 420.035156 534.550781 L 410.46875 538.378906 C 409.074219 538.929688 407.628906 539.296875 406.140625 539.480469 C 404.648438 539.664062 403.160156 539.65625 401.667969 539.457031 C 400.179688 539.257812 398.742188 538.875 397.351562 538.308594 C 395.957031 537.742188 394.660156 537.011719 393.457031 536.113281 L 235.390625 417.65625 L 228.339844 412.363281 C 227.9375 412.058594 227.578125 411.707031 227.265625 411.304688 C 226.953125 410.90625 226.703125 410.472656 226.503906 410.003906 C 226.308594 409.539062 226.179688 409.050781 226.113281 408.550781 C 226.046875 408.046875 226.046875 407.546875 226.117188 407.042969 C 226.183594 406.539062 226.316406 406.054688 226.515625 405.589844 C 226.714844 405.121094 226.96875 404.691406 227.28125 404.292969 C 227.59375 403.894531 227.957031 403.542969 228.363281 403.242188 C 228.769531 402.9375 229.210938 402.695312 229.679688 402.511719 L 245.019531 396.417969 C 246.417969 395.867188 247.859375 395.496094 249.351562 395.316406 C 250.84375 395.132812 252.335938 395.144531 253.824219 395.34375 C 255.316406 395.546875 256.753906 395.929688 258.144531 396.503906 C 259.535156 397.074219 260.832031 397.8125 262.03125 398.714844 L 427.148438 522.433594 C 427.550781 522.742188 427.910156 523.09375 428.21875 523.496094 C 428.527344 523.898438 428.78125 524.335938 428.972656 524.804688 C 429.167969 525.273438 429.296875 525.761719 429.359375 526.265625 C 429.421875 526.765625 429.417969 527.269531 429.34375 527.773438 C 429.273438 528.277344 429.136719 528.761719 428.9375 529.226562 C 428.734375 529.691406 428.476562 530.125 428.160156 530.519531 C 427.84375 530.917969 427.480469 531.265625 427.070312 531.566406 C 426.660156 531.863281 426.21875 532.105469 425.746094 532.285156 Z M 425.746094 532.285156 " fill-opacity="1" fill-rule="nonzero"/><path fill="#ffd600" d="M 420.035156 534.550781 L 410.46875 538.378906 C 409.074219 538.929688 407.628906 539.296875 406.140625 539.480469 C 404.648438 539.664062 403.160156 539.65625 401.667969 539.457031 C 400.179688 539.257812 398.742188 538.875 397.351562 538.308594 C 395.957031 537.742188 394.660156 537.011719 393.457031 536.113281 L 235.390625 417.65625 L 244.957031 413.828125 C 246.351562 413.277344 247.796875 412.90625 249.289062 412.726562 C 250.78125 412.542969 252.273438 412.554688 253.761719 412.753906 C 255.25 412.953125 256.691406 413.339844 258.082031 413.914062 C 259.472656 414.484375 260.765625 415.222656 261.96875 416.125 Z M 420.035156 534.550781 " fill-opacity="1" fill-rule="nonzero"/><path fill="#ffb229" d="M 396.757812 579.128906 L 386.746094 685.53125 C 384.148438 685.191406 381.636719 684.53125 379.207031 683.550781 C 376.777344 682.574219 374.507812 681.3125 372.394531 679.761719 L 112.414062 481.859375 C 111.136719 480.910156 110.070312 479.761719 109.222656 478.414062 C 108.710938 477.617188 108.304688 476.765625 108.011719 475.863281 C 107.28125 473.886719 107.085938 471.855469 107.421875 469.773438 C 107.386719 469.6875 107.386719 469.605469 107.421875 469.519531 C 107.546875 468.9375 107.699219 468.363281 107.882812 467.796875 C 108.117188 466.984375 108.433594 466.207031 108.839844 465.46875 C 109.261719 464.707031 109.738281 463.984375 110.277344 463.300781 C 110.5625 462.949219 110.882812 462.632812 111.199219 462.3125 L 163.449219 411.292969 C 167.351562 407.496094 171.605469 404.136719 176.203125 401.21875 L 388.402344 560.265625 C 389.851562 561.347656 391.140625 562.59375 392.265625 564.003906 C 393.394531 565.417969 394.324219 566.949219 395.054688 568.601562 C 395.785156 570.253906 396.296875 571.972656 396.585938 573.753906 C 396.875 575.539062 396.929688 577.328125 396.757812 579.128906 Z M 396.757812 579.128906 " fill-opacity="1" fill-rule="nonzero"/></svg>