<svg xmlns="http://www.w3.org/2000/svg" xmlns:xlink="http://www.w3.org/1999/xlink" width="1080" zoomAndPan="magnify" viewBox="0 0 810 1012.49997" height="1350" preserveAspectRatio="xMidYMid meet" version="1.0"><path fill="#7dadc5" d="M 224.363281 239.8125 C 224.363281 239.8125 174.070312 141.34375 184.859375 127.378906 C 195.648438 113.417969 301.417969 155.378906 301.417969 155.378906 C 259.613281 180.132812 224.363281 239.8125 224.363281 239.8125 Z M 585.472656 239.609375 C 585.472656 239.609375 635.378906 141.34375 624.589844 127.378906 C 613.800781 113.417969 508.324219 155.265625 508.324219 155.265625 C 550.128906 180.019531 585.472656 239.609375 585.472656 239.609375 Z M 585.472656 239.609375 " fill-opacity="1" fill-rule="nonzero"/><path fill="#add7e5" d="M 663.605469 445.085938 C 649.476562 459.75 630.964844 468.660156 610.769531 470.675781 C 597.710938 641.296875 549.660156 841.335938 549.660156 841.335938 C 549.660156 841.335938 585.832031 850.855469 583.929688 865.136719 C 582.023438 879.414062 539.1875 865.136719 539.1875 865.136719 C 539.1875 865.136719 543.945312 887.03125 534.425781 891.789062 C 524.90625 896.550781 498.253906 869.894531 498.253906 869.894531 C 498.253906 869.894531 495.398438 889.886719 483.023438 890.839844 C 470.648438 891.789062 448.753906 860.375 449.707031 845.144531 C 450.65625 829.914062 454.585938 711.761719 452.5625 697.59375 C 448.753906 670.941406 425.90625 663.007812 404.964844 663.007812 C 384.023438 663.007812 361.175781 670.941406 357.367188 697.59375 C 355.34375 711.761719 359.273438 829.914062 360.222656 845.144531 C 361.175781 860.375 339.28125 891.789062 326.90625 890.839844 C 314.53125 889.886719 311.675781 869.894531 311.675781 869.894531 C 311.675781 869.894531 285.019531 896.550781 275.5 891.789062 C 265.980469 887.03125 270.742188 865.136719 270.742188 865.136719 C 270.742188 865.136719 227.90625 879.414062 226 865.136719 C 224.097656 850.855469 260.269531 841.335938 260.269531 841.335938 C 260.269531 841.335938 212.234375 641.367188 199.167969 470.765625 C 180.652344 469.308594 163.59375 463.238281 150.433594 453.292969 C 136.640625 442.871094 119.914062 422.699219 118.539062 385.796875 C 116.9375 342.726562 132.761719 316.90625 146.324219 302.832031 C 162.496094 286.042969 184.40625 276.796875 208.019531 276.796875 C 208.714844 276.796875 209.386719 276.828125 210.074219 276.835938 C 237.984375 183.492188 303.269531 146.3125 356.445312 133.398438 C 356.488281 133.214844 368.359375 82.917969 420.304688 61.378906 C 472.34375 39.800781 507.882812 76.609375 441.882812 107.074219 C 475.835938 114.054688 501.21875 138.488281 506.527344 154.238281 C 544.550781 175.796875 580.859375 213.308594 599.855469 276.84375 C 600.578125 276.828125 601.296875 276.796875 602.015625 276.796875 C 623.871094 276.796875 644.285156 283.128906 659.496094 294.625 C 673.285156 305.046875 690.015625 325.214844 691.386719 362.117188 C 692.992188 405.191406 677.164062 431.011719 663.605469 445.085938 Z M 663.605469 445.085938 C 649.476562 459.75 630.964844 468.660156 610.769531 470.675781 C 597.710938 641.296875 549.660156 841.335938 549.660156 841.335938 C 549.660156 841.335938 585.832031 850.855469 583.929688 865.136719 C 582.023438 879.414062 539.1875 865.136719 539.1875 865.136719 C 539.1875 865.136719 543.945312 887.03125 534.425781 891.789062 C 524.90625 896.550781 498.253906 869.894531 498.253906 869.894531 C 498.253906 869.894531 495.398438 889.886719 483.023438 890.839844 C 470.648438 891.789062 448.753906 860.375 449.707031 845.144531 C 450.65625 829.914062 454.585938 711.761719 452.5625 697.59375 C 448.753906 670.941406 425.90625 663.007812 404.964844 663.007812 C 384.023438 663.007812 361.175781 670.941406 357.367188 697.59375 C 355.34375 711.761719 359.273438 829.914062 360.222656 845.144531 C 361.175781 860.375 339.28125 891.789062 326.90625 890.839844 C 314.53125 889.886719 311.675781 869.894531 311.675781 869.894531 C 311.675781 869.894531 285.019531 896.550781 275.5 891.789062 C 265.980469 887.03125 270.742188 865.136719 270.742188 865.136719 C 270.742188 865.136719 227.90625 879.414062 226 865.136719 C 224.097656 850.855469 260.269531 841.335938 260.269531 841.335938 C 260.269531 841.335938 212.234375 641.367188 199.167969 470.765625 C 180.652344 469.308594 163.59375 463.238281 150.433594 453.292969 C 136.640625 442.871094 119.914062 422.699219 118.539062 385.796875 C 116.9375 342.726562 132.761719 316.90625 146.324219 302.832031 C 162.496094 286.042969 184.40625 276.796875 208.019531 276.796875 C 208.714844 276.796875 209.386719 276.828125 210.074219 276.835938 C 237.984375 183.492188 303.269531 146.3125 356.445312 133.398438 C 356.488281 133.214844 368.359375 82.917969 420.304688 61.378906 C 472.34375 39.800781 507.882812 76.609375 441.882812 107.074219 C 475.835938 114.054688 501.21875 138.488281 506.527344 154.238281 C 544.550781 175.796875 580.859375 213.308594 599.855469 276.84375 C 600.578125 276.828125 601.296875 276.796875 602.015625 276.796875 C 623.871094 276.796875 644.285156 283.128906 659.496094 294.625 C 673.285156 305.046875 690.015625 325.214844 691.386719 362.117188 C 692.992188 405.191406 677.164062 431.011719 663.605469 445.085938 Z M 663.605469 445.085938 " fill-opacity="1" fill-rule="nonzero"/><path fill="#44718b" d="M 273.230469 175.449219 C 273.332031 175.605469 321.734375 251.519531 266.578125 291.394531 C 229.460938 318.230469 189.398438 301.113281 167.125 287.011719 C 179.472656 280.34375 193.417969 276.796875 208.019531 276.796875 C 208.714844 276.796875 209.386719 276.828125 210.074219 276.835938 C 223.933594 230.492188 247.003906 198.007812 273.230469 175.449219 Z M 344.226562 301.128906 C 359.027344 268.238281 316.582031 259.960938 305.304688 283.914062 C 290.269531 315.855469 330.753906 331.066406 344.226562 301.128906 Z M 335.308594 226.945312 C 344.714844 236.355469 353.125 222.800781 346.34375 215.777344 C 337.296875 206.40625 326.746094 218.375 335.308594 226.945312 Z M 556.113281 529.316406 C 545.964844 574.777344 596.324219 596.113281 596.363281 596.128906 C 601.769531 559.230469 606.476562 521.136719 609.667969 484.117188 C 609.609375 484.117188 566.261719 483.867188 556.113281 529.316406 Z M 505.625 473.835938 C 498.019531 490.671875 519.753906 494.941406 525.546875 482.683594 C 533.273438 466.332031 512.546875 458.511719 505.625 473.835938 Z M 262.027344 697.113281 C 266.628906 734.554688 309.074219 718.9375 306.171875 691.402344 C 302.296875 654.679688 257.839844 663.03125 262.027344 697.113281 Z M 356.921875 705.175781 C 356.917969 705.175781 317.179688 723.296875 319.558594 758.519531 C 321.9375 793.742188 358.71875 806.570312 358.71875 806.570312 C 357.589844 771.984375 356.40625 724.679688 356.921875 705.175781 Z M 472.140625 755.152344 C 474.890625 777.558594 500.289062 768.210938 498.550781 751.738281 C 496.234375 729.761719 469.632812 734.761719 472.140625 755.152344 Z M 472.140625 755.152344 " fill-opacity="0.3" fill-rule="nonzero"/><path fill="#0e0f1a" d="M 273.226562 373.824219 C 273.226562 426.507812 248.5 438.980469 224.742188 441.242188 C 201.292969 443.472656 167.511719 432.3125 165.921875 383.199219 C 164.332031 334.089844 189.765625 306.410156 219.175781 306.410156 C 245.40625 306.410156 273.226562 318.910156 273.226562 373.824219 Z M 592.777344 441.507812 C 622.1875 441.507812 647.625 413.828125 646.035156 364.714844 C 644.445312 315.605469 610.664062 304.441406 587.214844 306.675781 C 563.453125 308.9375 538.726562 321.410156 538.726562 374.089844 C 538.726562 429.007812 566.546875 441.507812 592.777344 441.507812 Z M 592.777344 441.507812 " fill-opacity="1" fill-rule="nonzero"/><path fill="#ffffff" d="M 208.019531 291.394531 C 166.660156 291.394531 130.890625 325.226562 133.125 385.253906 C 135.363281 445.28125 182.871094 458.925781 215.84375 456.195312 C 249.257812 453.429688 284.03125 438.1875 284.03125 373.796875 C 284.03125 306.675781 244.90625 291.394531 208.019531 291.394531 Z M 223.753906 433.386719 C 203.042969 435.355469 173.207031 425.5 171.800781 382.121094 C 170.398438 338.746094 192.863281 314.296875 218.839844 314.296875 C 242.007812 314.296875 266.578125 325.335938 266.578125 373.839844 C 266.578125 420.371094 244.738281 431.386719 223.753906 433.386719 Z M 676.800781 362.660156 C 674.566406 302.632812 627.058594 288.992188 594.085938 291.71875 C 560.667969 294.484375 525.898438 309.726562 525.898438 374.121094 C 525.898438 441.242188 565.019531 456.523438 601.910156 456.523438 C 643.269531 456.523438 679.039062 422.6875 676.800781 362.660156 Z M 592.355469 433.621094 C 569.1875 433.621094 544.617188 422.578125 544.617188 374.074219 C 544.617188 327.542969 566.457031 316.527344 587.441406 314.53125 C 608.152344 312.558594 637.992188 322.417969 639.394531 365.792969 C 640.796875 409.171875 618.332031 433.621094 592.355469 433.621094 Z M 468.121094 421.691406 C 468.121094 421.691406 461.140625 456.753906 448.445312 455.484375 C 435.753906 454.214844 430.707031 417.488281 430.707031 417.488281 Z M 468.121094 421.691406 " fill-opacity="1" fill-rule="nonzero"/><path fill="#44718b" d="M 472.027344 417 C 436.953125 410.457031 400.28125 410.753906 364.84375 413.8125 C 355.847656 414.589844 346.867188 415.628906 337.9375 417 C 335.339844 417.402344 333.902344 420.664062 334.539062 422.988281 C 335.304688 425.761719 337.917969 426.785156 340.527344 426.386719 C 373.75 421.277344 408.167969 420.28125 441.664062 422.867188 C 450.976562 423.585938 460.253906 424.671875 469.441406 426.386719 C 475.5625 427.527344 478.183594 418.152344 472.027344 417 Z M 490.738281 644.824219 C 490.582031 644.390625 490.417969 643.953125 490.28125 643.511719 C 488.394531 637.402344 488.113281 631.152344 488.117188 624.800781 C 488.121094 618.113281 488.257812 611.421875 488.335938 604.734375 C 488.519531 589.144531 488.699219 573.554688 488.878906 557.964844 C 488.910156 555.335938 491.894531 553.433594 494.296875 553.722656 C 497.144531 554.066406 498.570312 556.503906 498.542969 559.144531 C 498.40625 570.933594 498.265625 582.726562 498.128906 594.519531 C 497.996094 606 497.40625 617.582031 497.828125 629.054688 C 498.160156 638.144531 500.355469 648.210938 509.59375 652.140625 C 518.175781 655.792969 526.007812 650.074219 529.375 642.195312 C 531.367188 637.542969 532.246094 632.546875 533.328125 627.632812 C 534.292969 623.25 535.277344 618.875 536.226562 614.488281 C 536.78125 611.921875 538.867188 609.910156 541.644531 610.246094 C 544.074219 610.539062 546.445312 613.082031 545.886719 615.664062 C 543.8125 625.277344 542.414062 635.683594 538.804688 644.851562 C 538.078125 646.699219 537.171875 648.484375 536.125 650.167969 C 536.9375 657.296875 537.242188 671.902344 533.429688 673 C 529.644531 674.085938 524.46875 670.421875 521.296875 665.96875 C 518.898438 671.945312 514.367188 681.082031 509.28125 681.148438 C 504.046875 681.214844 502.28125 671.777344 501.542969 663.320312 C 496.867188 666.285156 489.546875 669.414062 486.300781 667.738281 C 483.167969 666.121094 488.210938 651.503906 490.738281 644.824219 Z M 514.464844 158.117188 C 511.019531 145.238281 501.070312 134.089844 490.980469 125.820312 C 477.890625 115.09375 461.742188 107 445.179688 103.355469 C 439.078125 102.011719 436.472656 111.390625 442.59375 112.738281 C 455.839844 115.65625 468.523438 121.589844 479.625 129.332031 C 488.878906 135.785156 497.496094 144.402344 502.671875 154.511719 C 504.78125 158.628906 506.386719 163.5 505.6875 168.179688 C 505.074219 172.28125 502.296875 176.917969 498.40625 178.660156 C 490.6875 182.113281 480.050781 176.40625 473.433594 172.566406 C 468.761719 169.855469 465.476562 167.367188 461.835938 164.390625 C 454.625 158.488281 447.414062 152.589844 440.199219 146.6875 C 435.933594 143.195312 430.070312 147.453125 432.558594 152.582031 C 438.582031 165.007812 439.210938 180.3125 438.683594 193.890625 C 438.234375 205.550781 434.777344 219.015625 423.742188 225.046875 C 423.242188 225.320312 422.730469 225.570312 422.21875 225.8125 C 422.167969 225.835938 422.15625 225.84375 422.117188 225.863281 C 422.101562 225.867188 422.101562 225.867188 422.085938 225.875 C 421.765625 226 421.441406 226.121094 421.113281 226.230469 C 420.503906 226.441406 419.886719 226.621094 419.261719 226.777344 C 418.902344 226.863281 418.546875 226.9375 418.183594 227.011719 C 418.039062 227.042969 417.953125 227.0625 417.878906 227.082031 C 417.816406 227.085938 417.78125 227.085938 417.691406 227.09375 C 414.480469 227.386719 412.335938 227.015625 409.699219 225.519531 C 401.042969 220.605469 397.132812 209.132812 395.285156 199.953125 C 393.214844 189.683594 392.527344 178.777344 393.160156 168.3125 C 393.539062 162.058594 383.804688 162.082031 383.429688 168.3125 C 382.761719 179.375 383.652344 190.839844 385.738281 201.707031 C 387.996094 213.484375 393.335938 226.53125 403.785156 233.308594 C 410.914062 237.9375 419.617188 237.734375 427.128906 234.21875 C 439.546875 228.398438 445.914062 214.832031 447.703125 201.878906 C 448.949219 192.859375 448.609375 183.59375 447.785156 174.546875 C 447.464844 171.058594 447.003906 167.613281 446.34375 164.226562 C 449.527344 166.832031 452.710938 169.4375 455.898438 172.042969 C 459.726562 175.175781 463.65625 178.09375 467.921875 180.617188 C 477.058594 186.015625 489.628906 191.871094 500.414062 188.265625 C 512.773438 184.132812 517.613281 169.894531 514.464844 158.117188 Z M 323.109375 667.738281 C 319.863281 669.414062 312.542969 666.285156 307.867188 663.320312 C 307.128906 671.777344 305.367188 681.214844 300.128906 681.148438 C 295.042969 681.082031 290.511719 671.945312 288.113281 665.96875 C 284.941406 670.421875 279.765625 674.085938 275.980469 673 C 272.167969 671.902344 272.472656 657.296875 273.285156 650.167969 C 272.238281 648.480469 271.332031 646.699219 270.605469 644.851562 C 266.996094 635.683594 265.597656 625.277344 263.523438 615.664062 C 262.964844 613.082031 265.335938 610.539062 267.765625 610.246094 C 270.542969 609.90625 272.628906 611.917969 273.183594 614.488281 C 274.132812 618.871094 275.117188 623.25 276.082031 627.632812 C 277.164062 632.546875 278.042969 637.542969 280.035156 642.195312 C 283.402344 650.074219 291.234375 655.792969 299.820312 652.140625 C 309.054688 648.210938 311.25 638.144531 311.582031 629.054688 C 312.003906 617.582031 311.414062 606 311.28125 594.519531 C 311.144531 582.726562 311.007812 570.933594 310.867188 559.140625 C 310.839844 556.503906 312.265625 554.066406 315.113281 553.722656 C 317.515625 553.433594 320.5 555.335938 320.53125 557.964844 C 320.710938 573.554688 320.894531 589.144531 321.074219 604.734375 C 321.152344 611.421875 321.289062 618.113281 321.292969 624.800781 C 321.296875 631.152344 321.015625 637.402344 319.128906 643.507812 C 318.992188 643.953125 318.828125 644.390625 318.671875 644.824219 C 321.199219 651.503906 326.246094 666.121094 323.109375 667.738281 Z M 584 129.824219 C 595.792969 141.738281 607.132812 154.273438 617.515625 167.496094 C 616.214844 171.039062 614.820312 174.667969 613.359375 178.320312 C 601.140625 162.375 587.78125 147.035156 573.445312 132.742188 C 577.015625 131.703125 580.546875 130.722656 584 129.824219 Z M 544.777344 141.894531 C 541.242188 143.105469 537.839844 144.300781 534.621094 145.449219 C 553.816406 163.3125 571.519531 183.070312 587.222656 203.859375 C 590.429688 208.109375 593.527344 212.441406 596.5 216.855469 C 598.015625 213.625 599.617188 210.15625 601.261719 206.535156 C 584.972656 183.023438 565.308594 161.578125 544.777344 141.894531 Z M 226.339844 130.066406 C 214.105469 141.628906 202.613281 154.046875 191.785156 166.839844 C 193.007812 170.179688 194.328125 173.597656 195.699219 177.046875 C 208.648438 161.496094 222.722656 146.808594 237.539062 133.203125 C 233.757812 132.089844 230.003906 131.035156 226.339844 130.066406 Z M 266.625 142.578125 C 245.835938 160.320312 227.128906 180.804688 210.082031 201.894531 C 209.265625 202.90625 208.484375 203.949219 207.671875 204.96875 C 209.21875 208.375 210.734375 211.652344 212.183594 214.746094 C 229.34375 192.359375 248.910156 171.46875 269.859375 152.800781 C 272.316406 150.609375 274.820312 148.46875 277.34375 146.355469 C 273.980469 145.148438 270.382812 143.875 266.625 142.578125 Z M 534.425781 891.789062 C 543.945312 887.03125 539.1875 865.136719 539.1875 865.136719 C 539.1875 865.136719 582.023438 879.414062 583.929688 865.136719 C 585.832031 850.855469 549.660156 841.335938 549.660156 841.335938 L 451.316406 854.941406 C 456.523438 870.882812 472.933594 891.613281 483.023438 890.839844 C 495.398438 889.886719 498.253906 869.894531 498.253906 869.894531 C 498.253906 869.894531 524.90625 896.550781 534.425781 891.789062 Z M 326.90625 890.839844 C 337.066406 891.621094 353.636719 870.582031 358.71875 854.597656 L 260.269531 841.339844 C 260.269531 841.339844 224.097656 850.855469 226 865.136719 C 227.90625 879.414062 270.742188 865.136719 270.742188 865.136719 C 270.742188 865.136719 265.980469 887.03125 275.5 891.789062 C 285.019531 896.550781 311.675781 869.894531 311.675781 869.894531 C 311.675781 869.894531 314.53125 889.886719 326.90625 890.839844 Z M 326.90625 890.839844 " fill-opacity="1" fill-rule="nonzero"/></svg>