<svg xmlns="http://www.w3.org/2000/svg" xmlns:xlink="http://www.w3.org/1999/xlink" width="1080" zoomAndPan="magnify" viewBox="0 0 810 1012.49997" height="1350" preserveAspectRatio="xMidYMid meet" version="1.0"><defs><clipPath id="a5cb558e1b"><path d="M 188 107.257812 L 375 107.257812 L 375 296 L 188 296 Z M 188 107.257812 " clip-rule="nonzero"/></clipPath></defs><path fill="#ffffff" d="M 229.410156 393.429688 C 229.410156 454.988281 196.941406 469.558594 165.742188 472.203125 C 134.953125 474.8125 90.597656 461.769531 88.507812 404.386719 C 86.421875 347 119.820312 314.65625 158.4375 314.65625 C 192.878906 314.65625 229.410156 329.265625 229.410156 393.429688 Z M 330.835938 317.53125 C 286.367188 317.53125 247.910156 354.773438 250.3125 420.851562 C 252.71875 486.929688 303.796875 493.101562 339.25 490.097656 C 375.175781 487.054688 412.5625 479.121094 412.5625 408.238281 C 412.5625 334.351562 370.496094 317.53125 330.835938 317.53125 Z M 330.835938 317.53125 " fill-opacity="1" fill-rule="nonzero"/><path fill="#634d9f" d="M 693.832031 803.886719 C 644.03125 798.363281 636.390625 770.617188 624.574219 744.375 C 602.960938 696.363281 549.816406 738.003906 538.050781 695.652344 C 530.03125 666.796875 538.050781 553.191406 538.050781 477.179688 C 538.050781 401.171875 500.960938 232.46875 330.34375 232.46875 C 291.890625 232.46875 228.394531 252.273438 178.042969 310.464844 C 171.480469 309.234375 164.84375 308.734375 158.4375 308.734375 C 138.8125 308.734375 120.535156 316.480469 106.964844 330.546875 C 95.066406 342.882812 81.175781 365.746094 82.585938 404.601562 C 83.460938 428.5625 91.328125 447.289062 105.980469 460.265625 C 107.109375 461.265625 108.257812 462.207031 109.417969 463.101562 C 107.707031 472.515625 103.339844 495.371094 102.234375 518.390625 C 91.109375 750.125 109.652344 870.625 339.617188 868.773438 C 569.578125 866.917969 721.648438 859.503906 734.632812 859.503906 C 763.378906 859.503906 752.335938 810.375 693.832031 803.886719 Z M 112.066406 449.734375 C 101.078125 439.039062 95.140625 423.734375 94.429688 404.171875 C 93.429688 376.707031 100.714844 354.089844 115.496094 338.769531 C 126.808594 327.039062 142.058594 320.582031 158.4375 320.582031 C 162.226562 320.582031 165.839844 320.773438 169.292969 321.128906 C 144.578125 353 123.84375 395.066406 112.066406 449.734375 Z M 338.214844 487.035156 C 307.425781 489.640625 263.066406 476.601562 260.980469 419.214844 C 258.890625 361.832031 292.292969 329.488281 330.910156 329.488281 C 365.351562 329.488281 401.882812 344.09375 401.882812 408.261719 C 401.882812 469.820312 369.414062 484.390625 338.214844 487.035156 Z M 338.214844 487.035156 " fill-opacity="1" fill-rule="nonzero"/><path fill="#2e2767" d="M 534.519531 622.609375 C 534.519531 622.609375 476.765625 611.648438 481.144531 543.820312 C 485.519531 475.992188 538.050781 477.179688 538.050781 477.179688 C 536.636719 550.859375 534.519531 622.609375 534.519531 622.609375 Z M 469.660156 614.605469 C 453.988281 583.75 396.625 604.945312 412.089844 647.457031 C 427.554688 689.964844 495.316406 665.117188 469.660156 614.605469 Z M 118.128906 752.867188 C 118.128906 752.867188 189.863281 733.4375 175.324219 665.960938 C 161.984375 604.066406 99.796875 613.398438 99.796875 613.398438 C 99.796875 711.191406 118.128906 752.867188 118.128906 752.867188 Z M 213.6875 707.847656 C 196.039062 707.847656 186.957031 722.527344 187.773438 743.5625 C 188.953125 773.867188 241.316406 770.546875 243.242188 743.5625 C 244.675781 723.496094 237.222656 707.847656 213.6875 707.847656 Z M 561.394531 743.703125 C 545.527344 743.703125 537.359375 756.898438 538.097656 775.808594 C 539.15625 803.050781 586.230469 800.066406 587.960938 775.808594 C 589.25 757.769531 582.546875 743.703125 561.394531 743.703125 Z M 561.394531 743.703125 " fill-opacity="0.35" fill-rule="nonzero"/><g clip-path="url(#a5cb558e1b)"><path fill="#1a1448" d="M 239.152344 157.75 C 240.785156 154.644531 241.53125 151.300781 241.394531 147.710938 C 241.085938 145.402344 240.777344 143.09375 240.464844 140.785156 C 239.226562 136.371094 236.992188 132.539062 233.761719 129.285156 C 232.003906 127.929688 230.246094 126.570312 228.484375 125.210938 C 224.421875 122.855469 220.035156 121.667969 215.328125 121.652344 C 215.074219 121.652344 214.820312 121.652344 214.5625 121.652344 C 210.976562 121.519531 207.628906 122.265625 204.519531 123.898438 C 201.289062 124.949219 198.492188 126.746094 196.132812 129.285156 C 193.589844 131.644531 191.792969 134.441406 190.742188 137.671875 C 189.109375 140.777344 188.363281 144.125 188.496094 147.710938 C 188.808594 150.019531 189.117188 152.328125 189.429688 154.636719 C 190.667969 159.050781 192.902344 162.886719 196.132812 166.136719 C 197.890625 167.496094 199.648438 168.851562 201.40625 170.210938 C 205.472656 172.570312 209.859375 173.753906 214.5625 173.769531 C 214.820312 173.769531 215.074219 173.769531 215.328125 173.769531 C 218.917969 173.902344 222.265625 173.15625 225.371094 171.523438 C 225.515625 171.476562 225.648438 171.410156 225.789062 171.359375 C 245.980469 192.363281 260.609375 217.804688 268.511719 245.472656 C 273.382812 243.6875 278.648438 242.027344 284.09375 240.023438 C 275.460938 210.304688 259.835938 182.945312 238.128906 160.261719 C 238.519531 159.453125 238.867188 158.621094 239.152344 157.75 Z M 214.285156 157.992188 C 207.886719 157.992188 202.703125 152.808594 202.703125 146.414062 C 202.703125 140.015625 207.886719 134.832031 214.285156 134.832031 C 220.683594 134.832031 225.871094 140.015625 225.871094 146.414062 C 225.871094 152.808594 220.683594 157.992188 214.285156 157.992188 Z M 364.332031 155.375 C 381.730469 142.648438 376.757812 107.863281 349.304688 107.863281 C 316.070312 107.863281 315.726562 158.980469 348.394531 159.933594 C 354.410156 179.464844 357.875 199.453125 358.132812 219.957031 C 358.386719 240.257812 357.167969 263.96875 347.953125 282.457031 C 343.207031 291.980469 357.511719 300.390625 362.277344 290.828125 C 372.28125 270.753906 374.566406 246.429688 374.730469 224.269531 C 374.902344 200.894531 371.222656 177.679688 364.332031 155.375 Z M 349.433594 146.414062 C 342.949219 146.414062 337.691406 141.15625 337.691406 134.671875 C 337.691406 128.1875 342.949219 122.929688 349.433594 122.929688 C 355.921875 122.929688 361.179688 128.1875 361.179688 134.671875 C 361.179688 141.15625 355.921875 146.414062 349.433594 146.414062 Z M 349.433594 146.414062 " fill-opacity="1" fill-rule="nonzero"/></g><path fill="#0e0f1a" d="M 365.390625 429.996094 C 359.128906 468.898438 301.726562 474.792969 296.507812 429.996094 C 291.289062 385.203125 310.074219 366.339844 331.992188 366.339844 C 361.21875 366.339844 371.65625 391.097656 365.390625 429.996094 Z M 118.027344 425.746094 C 126.738281 394.921875 138.453125 368.582031 152.078125 346.199219 C 150.878906 346.109375 149.660156 346.042969 148.394531 346.042969 C 126.476562 346.042969 107.691406 364.90625 112.910156 409.703125 C 113.652344 416.070312 115.472656 421.378906 118.027344 425.746094 Z M 118.027344 425.746094 " fill-opacity="1" fill-rule="nonzero"/><path fill="#2e2767" d="M 450.34375 755.832031 C 450.21875 756.253906 450.070312 756.660156 449.925781 757.066406 C 455.832031 759.171875 461.328125 760.257812 461.1875 765.015625 C 461.082031 768.449219 455.800781 773.003906 449.117188 772.703125 C 445.640625 772.546875 441.863281 771.441406 438.640625 770.214844 C 441.847656 773.136719 444.148438 775.738281 442.636719 779.015625 C 441.195312 782.136719 434.550781 784.257812 428.519531 781.359375 C 424.890625 779.621094 421.390625 776.5625 418.730469 773.863281 C 400.300781 772.5 383.253906 759.28125 372.585938 744.914062 C 365.261719 735.042969 360.074219 723.773438 355.640625 712.363281 C 350.898438 700.144531 347.09375 687.566406 344.25 674.773438 C 338.535156 649.050781 336.601562 622.511719 338.632812 596.242188 C 338.84375 593.550781 340.746094 591.265625 343.613281 591.265625 C 346.15625 591.265625 348.800781 593.558594 348.589844 596.242188 C 346.46875 623.695312 348.648438 651.355469 355.25 678.097656 C 358.167969 689.90625 361.894531 701.527344 366.464844 712.800781 C 370.671875 723.179688 375.878906 733.535156 383.019531 742.230469 C 389.621094 750.269531 398 757.3125 407.835938 761.011719 C 416.261719 764.179688 426.710938 765.738281 434.832031 760.863281 C 443.988281 755.371094 441.570312 744.292969 437.800781 736.148438 C 435.402344 730.96875 432.429688 726.085938 429.765625 721.046875 C 426.898438 715.621094 424.285156 710.074219 421.890625 704.429688 C 412.464844 682.199219 406.8125 658.632812 405.023438 634.554688 C 404.824219 631.863281 407.464844 629.578125 410.003906 629.578125 C 412.835938 629.578125 414.785156 631.875 414.980469 634.554688 C 417.085938 662.921875 425.070312 690.863281 438.363281 716.023438 C 442.289062 723.457031 447.257812 731.128906 449.726562 739.375 C 450.351562 739.5 450.925781 739.589844 451.390625 739.609375 C 458.648438 739.910156 465.515625 738.105469 467.222656 743.21875 C 468.308594 746.480469 464.925781 752.574219 458.546875 754.597656 C 456.003906 755.402344 453.109375 755.734375 450.34375 755.832031 Z M 184.640625 437.722656 C 182.8125 444.085938 177.257812 450.269531 170.757812 450.523438 C 169.242188 450.582031 167.929688 450.328125 166.886719 449.832031 C 165.121094 448.992188 164.265625 448.265625 163.007812 446.769531 C 161.113281 444.519531 160.113281 441.347656 160.203125 438.304688 C 160.351562 433.179688 152.382812 433.183594 152.234375 438.304688 C 151.945312 448.3125 159.789062 458.5625 170.308594 458.5 C 180.960938 458.433594 189.523438 449.574219 192.320312 439.839844 C 193.738281 434.90625 186.054688 432.796875 184.640625 437.722656 Z M 184.640625 437.722656 " fill-opacity="1" fill-rule="nonzero"/></svg>