<svg xmlns="http://www.w3.org/2000/svg" xmlns:xlink="http://www.w3.org/1999/xlink" width="1080" zoomAndPan="magnify" viewBox="0 0 810 1012.49997" height="1350" preserveAspectRatio="xMidYMid meet" version="1.0"><defs><clipPath id="cecd15d9f0"><path d="M 51.632812 183.15625 L 706.808594 183.15625 L 706.808594 828.585938 L 51.632812 828.585938 Z M 51.632812 183.15625 " clip-rule="nonzero"/></clipPath></defs><g clip-path="url(#cecd15d9f0)"><path stroke-linecap="round" transform="matrix(0.448138, 0, 0, 0.448138, 51.813342, 183.335237)" fill-opacity="1" fill="#905a51" fill-rule="nonzero" stroke-linejoin="round" d="M -0.00187952 1439.996472 L 1462.002505 1439.996472 L 1462.002505 1381.002365 L 1455.003056 1381.002365 C 1433.098181 1380.400918 1412.003952 1378.500694 1389.000783 1378.003846 C 1365.596649 1379.302623 1343.003161 1376.49587 1324.000922 1377.001434 C 1300.004058 1378.500694 1281.097702 1374.403881 1256.996238 1374.996611 C 1233.295739 1376.800952 1211.600063 1373.898316 1191.002682 1374.002916 L 1122.00189 1374.002916 C 1101.99724 1370.995681 1076.902081 1373.096387 1054.003511 1371.998093 C 1030.398895 1371.396646 1009.496432 1373.497352 986.998826 1374.002916 C 963.803891 1373.601951 942.596347 1377.402399 921.998965 1374.002916 C 901.602067 1371.90221 881.597416 1368.903691 863.998553 1363.002537 C 850.40062 1354.102865 837.299535 1344.20078 826.002791 1331.997508 C 818.80286 1316.699833 793.40262 1319.096905 790.003137 1298.996371 C 788.198796 1279.000437 784.502947 1257.897492 783.997383 1237.003745 C 782.297641 1216.702729 781.199347 1194.797855 779.996453 1172.997579 C 777.895747 1152.801163 779.403722 1126.50311 776.997934 1107.997718 L 776.997934 1038.996927 C 774.897228 1018.896393 778.000346 996.904352 783.997383 981.998926 C 789.698055 964.696429 799.800621 951.795826 814.000001 943.000753 C 830.003722 936.001304 837.7005 920.70363 848.997244 908.997205 C 864.6 924.198996 885.197381 905.798204 895.003583 897.996826 C 913.203892 880.502563 929.695744 904.69991 935.997863 912.998135 C 945.202617 890.300048 922.896778 875.002374 903.999138 887.998859 C 887.298087 910.496464 863.998553 872.099738 894.001171 871.001443 C 902.700361 857.203028 909.69981 841.199308 924.003789 832.00327 C 936.59931 852.600651 945.2985 814.796655 952.001583 807.997689 C 967.595623 800.902358 992.403133 796.99731 1004.998654 810.002513 C 1017.698774 825.901634 1033.798378 821.595622 1054.003511 820.00048 C 1079.09867 828.298705 1081.103493 802.201135 1091.999272 792.002685 C 1100.097016 779.503047 1130.099634 774.20334 1137.996894 789.004167 C 1160.102251 799.899946 1187.498599 780.697225 1149.999685 785.996932 C 1125.497256 778.997483 1135.303458 757.999137 1152.998203 753.998207 C 1163.196653 746.902875 1187.202234 729.896743 1199.998237 746.998758 C 1206.396239 762.897879 1217.300735 776.800894 1230.000855 784.000825 C 1237.401268 797.502875 1288.402232 792.40365 1249.003094 782.998413 C 1237.898116 771.59707 1216.699287 769.801445 1212.001027 750.999688 C 1200.800166 722.49633 1239.902939 734.995968 1255.000131 728.998931 C 1278.0033 729.199413 1292.403162 718.896364 1314.002955 720.003375 C 1319.79951 704.400619 1329.19603 675.897261 1314.002955 698.996313 C 1304.597718 717.597587 1288.803197 708.000585 1268.999028 716.99614 C 1229.800373 720.003375 1253.099907 701.001136 1263.001991 690.000758 C 1277.000888 682.896709 1292.002197 666.300258 1300.004058 669.002412 C 1296.499975 647.899466 1300.500905 623.501637 1302.000165 607.001069 C 1304.501835 604.002551 1308.502766 601.997727 1314.002955 601.004032 C 1339.298596 602.503291 1321.699734 592.601207 1337.999819 583.004205 C 1350.00261 572.500674 1366.799543 566.303154 1376.997993 553.001587 C 1381.800852 545.897539 1374.295839 552.304257 1372.003367 554.997694 C 1360.401542 572.204308 1352.896529 561.901259 1360.000577 553.001587 C 1346.202162 562.197625 1339.202713 578.201345 1324.000922 586.002723 C 1313.697873 607.001069 1286.196926 579.901087 1292.995893 612.998106 C 1298.696564 633.09864 1282.70156 672.401895 1278.0033 637.003687 C 1270.00144 622.699708 1265.503662 595.503843 1284.000337 590.997348 C 1280.400372 603.802068 1240.49567 581.801311 1271.997547 572.997521 C 1282.195996 575.202827 1276.695807 566.800002 1272.999958 564.995661 C 1257.702284 563.496401 1261.19765 541.303878 1260.003473 536.997866 C 1256.900355 538.20076 1252.899425 545.200209 1256.996238 549.000657 C 1268.702663 568.900708 1253.004024 570.896815 1255.000131 579.99697 C 1258.695979 599.696539 1267.002921 616.101224 1266.00051 637.003687 C 1264.396651 641.902429 1251.400165 634.902981 1253.997719 643.000724 C 1279.903524 644.4041 1243.598787 656.903738 1266.00051 663.99907 C 1263.995686 684.796933 1244.601199 690.20124 1235.997892 702.003548 C 1220.700218 709.203479 1214.302216 728.301601 1188.004163 720.003375 C 1172.096325 718.599999 1151.298462 748.097053 1144.002648 723.001894 C 1125.601856 694.20217 1188.100046 724.396554 1165.000994 690.000758 C 1149.59872 675.696778 1158.202028 654.001103 1178.999891 651.996279 C 1199.797755 626.90112 1170.300701 657.295986 1152.998203 654.001103 C 1147.297532 654.201585 1146.800684 648.701396 1143.000236 645.999242 C 1150.104284 616.598072 1130.300116 628.104014 1137.003199 644.996831 C 1141.997825 657.200104 1155.595757 684.003721 1143.000236 692.999276 C 1105.19624 687.804168 1130.003751 712.899327 1127.998927 730.001343 C 1125.802338 751.296054 1107.602028 756.098913 1091.999272 763.002479 C 1080.998894 774.79607 1069.100703 787.60079 1054.003511 792.99638 C 1033.101048 803.404029 1016.696363 788.29812 1007.997172 777.001376 C 990.903874 763.002479 1006.497913 740.199792 1018.003856 732.999861 C 1031.898154 728.798449 1026.397964 681.597933 1011.998103 709.002997 C 1006.201548 725.503565 992.403133 736.399344 986.998826 750.999688 C 978.700601 766.20148 964.902186 775.397517 948.000653 781.002306 C 937.898087 797.598757 907.503221 799.699464 927.002307 771.998034 C 932.702979 764.998586 948.000653 730.097225 938.996381 732.999861 C 928.702049 745.499499 918.895847 760.500808 916.001929 778.003788 C 909.900292 791.898086 902.003031 816.295915 885.999311 810.996208 C 883.201274 819.89588 852.797692 851.101392 859.003928 817.001961 C 850.696986 805.400135 855.403962 766.401962 859.003928 766.000997 C 844.298984 772.198517 843.000207 803.203546 851.995763 814.003443 C 857.696434 836.797413 843.296572 850.499945 829.00131 857.996241 C 815.699743 866.599549 795.799691 871.297809 780.998865 876.99848 C 785.496642 871.899256 775.298193 859.312451 773.894816 835.969334 C 772.482723 812.634933 772.988288 819.30315 779.665221 810.394761 C 791.711595 794.33874 822.28951 772.852263 822.28951 772.852263 C 822.28951 772.852263 868.199966 724.701635 888.004134 720.997071 C 910.196657 720.700705 924.300154 711.801033 938.996381 702.997243 C 951.496019 693.696606 965.799998 683.201791 975.998448 673.003342 C 989.099533 663.101258 1007.997172 658.995728 1024.000893 651.996279 C 1060.497395 639.496641 1014.796139 641.396865 1002.000135 645.999242 C 986.597862 654.096986 968.598034 659.100327 953.99769 666.997588 C 938.900498 674.798966 915.696847 676.202343 898.002101 679.000379 C 879.601309 683.602756 860.904152 687.900051 845.998726 695.997794 C 826.299157 681.998897 859.099811 670.702153 862.002446 658.002033 C 871.704048 644.700466 881.597416 631.59938 894.001171 620.999966 C 898.403066 603.000139 906.003961 585.898124 927.996002 587.99883 C 948.401618 591.101948 966.000481 596.497538 982.004201 603.000139 C 998.199688 612.196177 1016.399997 616.702671 1032.002753 605.998657 C 1049.497017 600.498468 1064.297843 592.296125 1080.998894 586.002723 C 1094.004096 576.597487 1086.202718 544.197797 1098.998721 536.997866 C 1107.401546 521.900674 1117.30363 508.799589 1129.001339 497.999693 C 1141.59686 486.502467 1119.003372 468.39804 1119.997067 449.997248 C 1109.9991 421.703088 1134.196447 419.2973 1143.000236 405.995732 C 1156.798651 397.897989 1175.896773 392.301917 1185.99934 381.998868 C 1198.202613 371.198972 1205.297944 355.29985 1224.997513 351.99625 C 1239.702457 323.597491 1230.29722 331.102504 1213.003439 345.999213 C 1195.299977 348.09992 1182.103009 366.396112 1170.004336 366.003864 C 1165.201476 364.80097 1166.203888 357.801521 1163.998582 354.001074 C 1159.195723 327.302056 1153.59965 343.401659 1155.996722 362.996629 C 1157.400098 386.89761 1126.70015 379.200832 1123.004302 398.996284 C 1112.500771 392.101435 1112.997618 363.702675 1116.998549 344.996802 C 1114.095913 324.896268 1119.099255 301.901815 1119.997067 282.001764 C 1122.80382 261.997113 1138.798824 253.297923 1141.004129 235.00173 C 1146.399719 217.402868 1151.403061 199.40304 1158.001545 182.998355 C 1154.096498 160.099785 1138.702941 200.7977 1137.996894 210.002454 C 1138.197377 220.000421 1125.200891 267.802384 1119.997067 233.999319 C 1125.096292 216.295856 1122.202373 188.603144 1126.002821 171.997976 C 1128.399892 155.00056 1143.697566 132.90392 1126.002821 120.997012 C 1126.203303 115.801905 1121.199961 114.799493 1119.997067 109.002938 C 1104.995758 97.401113 1122.603337 126.697684 1125.000409 131.997391 C 1128.399892 153.196219 1118.602407 170.001869 1115.996137 189.004108 C 1115.699772 207.901748 1108.299358 233.903436 1111.001512 246.002109 C 1120.197549 277.599869 1082.001305 254.195735 1083.997412 239.996356 C 1079.499634 221.299198 1090.40413 192.996322 1079.996482 179.999836 C 1076.902081 199.899888 1079.403752 225.396011 1078.000375 246.995804 C 1079.002787 267.601902 1108.499841 268.002867 1104.002063 286.002694 C 1103.104251 291.703366 1101.596275 299.103779 1098.998721 290.997319 C 1091.79879 275.603762 1097.900427 314.802418 1097.996309 322.002349 C 1098.597756 344.299472 1087.196413 360.895923 1090.003166 380.996456 C 1095.398756 399.100883 1096.49705 420.997041 1098.998721 441.001692 C 1098.998721 462.801967 1102.598687 491.200727 1089.000754 497.999693 C 1079.796 511.798108 1070.800444 525.797005 1065.00389 543.00362 C 1062.999066 563.295919 1044.903356 569.90312 1029.004235 573.999933 C 1003.996242 576.501604 989.901462 567.601931 975.998448 557.996212 C 961.598586 554.396247 948.898465 527.697229 963.995657 517.001932 C 963.603409 493.597798 978.500119 485.500055 1000.004029 484.000796 C 1018.701186 479.7035 1032.203236 470.202381 1037.99979 452.995766 C 1045.897051 437.898574 1056.696948 425.704018 1065.00389 410.999074 C 1047.701392 399.597731 1039.002202 427.604242 1032.996448 438.003174 C 1030.102529 461.799556 1002.296501 455.802519 1002.000135 432.999832 C 1001.70377 410.197145 1017.899257 403.398179 1022.998481 384.997387 C 1025.404269 369.60383 1006.497913 405.002037 996.996794 408.000556 C 981.498637 421.999453 991.801686 443.599246 1002.000135 452.995766 C 1022.998481 474.403793 979.302048 469.696817 970.001411 478.003759 C 950.598207 493.702398 934.097639 484.497643 942.997311 453.998178 C 942.204099 432.79935 937.096157 414.904122 932.999344 395.997765 C 925.70353 380.900574 924.797002 348.004037 942.997311 348.004037 C 951.496019 334.397387 980.89719 337.300023 982.004201 320.999937 C 967.595623 327.197457 952.698913 324.103055 971.997518 303.00011 C 974.202823 286.002694 981.803719 270.199456 996.003098 261.003418 C 1002.296501 249.602075 988.602685 225.997458 993.998275 203.996701 C 994.896087 180.601283 987.896639 164.597563 985.00272 144.000182 C 985.403684 134.403179 981.402754 145.403558 982.004201 149.997218 C 990.502909 171.701611 963.603409 171.004281 975.998448 189.004108 C 990.502909 203.796218 977.297225 228.098165 975.998448 246.002109 C 978.003271 250.700369 979.598413 257.20297 971.997518 256.000076 C 962.400515 237.398802 956.403478 247.501368 957.99862 268.002867 C 953.500843 286.499542 949.700395 305.702263 942.997311 322.002349 C 939.100981 334.702469 911.199069 351.203037 902.996726 330.997904 C 901.802549 313.102676 893.600206 304.403486 894.001171 276.998422 C 883.898604 254.003969 905.402514 246.995804 899.998208 221.996528 C 895.997278 195.001145 912.497846 188.498544 912.000998 164.998527 C 908.89788 140.696581 919.200929 123.001836 913.00341 99.998666 C 895.50043 88.902405 911.896399 152.699372 891.002652 128.998873 C 883.898604 113.797081 863.501705 109.403903 849.999656 102.00349 C 837.404135 115.200458 876.201826 116.499235 877.003755 131.997391 C 872.296779 141.402628 922.696295 157.598114 885.999311 160.003902 C 870.902119 159.297856 921.397518 192.699957 880.002274 181.002248 C 845.70236 168.101645 877.003755 194.504298 880.002274 203.996701 C 886.10391 226.197941 876.297709 244.598733 877.003755 267.000455 C 870.797519 285.802212 852.998174 254.300335 843.000207 250.003039 C 832.400793 238.096132 819.901155 227.601317 804.002034 220.000421 C 792.304325 209.897855 782.001276 195.497993 773.999416 182.998355 C 771.89871 169.496305 750.900364 134.603661 757.002 174.996495 C 760.601966 192.002627 739.002173 155.80249 722.998452 164.998527 C 714.900709 173.296753 749.296505 178.901542 753.00107 192.002627 C 766.102155 201.198665 778.296711 213.802902 786.002206 225.997458 C 797.40355 238.096132 820.502602 238.000249 827.998898 253.001558 C 837.996865 266.503607 854.000586 273.503056 859.003928 290.997319 C 866.099259 307.402005 872.898226 323.597491 880.002274 338.999765 C 889.102429 352.702297 902.796244 363.798558 902.996726 384.003692 C 905.00155 398.604036 906.596692 425.198454 906.997656 445.002622 C 905.498397 469.801416 911.303668 488.803655 913.00341 507.003965 C 921.301636 521.900674 911.800516 565.701707 903.999138 531.000829 C 898.097984 514.997109 890.200723 498.200175 888.004134 479.999866 C 900.30329 472.895817 861.601482 445.699952 870.004307 459.00152 C 880.098157 471.902122 884.404169 490.59928 888.004134 510.002483 C 893.696089 545.296092 870.100189 539.00269 867.999483 514.003414 C 860.198105 500.396764 855.20348 480.697195 847.001137 467.997075 C 840.899501 451.601106 838.999277 430.498161 831.999828 413.997593 C 829.69864 394.402623 812.19566 387.202692 796.000174 381.998868 C 784.197865 371.800419 777.599381 355.395733 768.996074 340.002176 C 757.69933 327.302056 766.904084 299.304261 760.000519 285.000282 C 758.701742 280.79887 757.69933 275.804245 757.002 269.998973 C 761.796143 246.603556 737.903878 268.700197 747.004033 271.001385 C 763.495885 282.402729 753.898882 304.298887 753.00107 325.000867 C 733.702466 337.700988 729.997901 285.401247 725.996971 327.999386 C 701.198177 336.097129 702.802036 306.399593 684.000279 305.998628 C 666.802381 300.202074 672.904017 271.097268 663.001933 257.996183 C 656.002484 242.602626 656.795697 217.097786 656.996179 196.003557 C 660.203897 185.700508 651.60059 140.199734 645.002106 160.003902 C 651.304224 177.001318 651.199625 202.096477 649.003036 220.000421 C 640.103363 236.004142 632.397868 186.70292 624.997455 199.002075 C 631.299574 216.696821 641.898988 229.100576 648.000624 246.002109 C 652.097437 247.902333 650.702777 255.302746 652.001554 258.998595 C 664.501192 280.702987 639.196834 262.197595 655.000073 283.004176 C 662.295886 299.103779 667.203345 318.803348 684.000279 322.002349 C 697.197247 332.296681 707.395696 345.101401 732.996419 341.998283 C 749.401105 339.496612 772.404274 368.200453 750.002552 373.003313 C 733.798349 375.400384 702.296471 356.10178 729.997901 377.997938 C 747.300398 390.497576 779.700088 368.8019 780.998865 381.998868 C 790.003137 395.7014 803.200104 409.002968 809.999071 420.003346 C 808.796177 444.200693 828.399863 447.600176 829.00131 468.999487 C 828.103498 493.90288 838.999277 506.001553 845.998726 521.996557 C 852.501327 533.999348 865.898777 558.397177 851.995763 571.001414 C 837.404135 579.901087 834.797864 600.297986 825.00038 612.998106 C 815.202895 626.003308 809.397624 644.996831 798.998692 655.003514 C 788.70436 667.703635 780.4933 680.630387 771.79411 694.934366 C 766.093438 706.727958 744.842311 722.077932 744.99921 713.997622 C 733.101019 684.796933 770.800415 694.402652 768.002379 669.996107 C 768.699709 648.195832 786.403171 642.896124 791.999243 625.000897 C 802.398175 612.902223 813.302671 600.80355 815.996108 579.99697 C 822.097744 564.097849 822.097744 535.899572 814.000001 522.998969 C 806.599588 507.901777 809.197141 481.995972 808.002964 463.00245 C 804.699364 426.000383 789.29709 462.401003 796.000174 479.999866 C 803.200104 495.898987 796.000174 528.403276 801.99721 539.996385 C 809.301741 556.496953 790.796349 574.60138 786.002206 582.001793 C 761.499778 575.29871 779.20324 634.196934 755.999589 603.000139 C 743.700433 596.69802 726.502535 578.297228 737.999761 561.003447 C 739.098056 538.20076 713.40145 582.699123 732.002724 590.997348 C 739.403137 602.904256 764.201931 611.298364 754.003482 630.004238 C 752.30374 633.79597 746.803551 634.301534 747.004033 640.002205 C 721.098228 632.096228 745.304292 666.701223 724.000864 656.999621 C 720.601381 638.598829 715.702638 618.698778 710.995662 603.000139 C 705.303707 585.697641 700.099882 567.898296 699.001588 546.002138 C 696.003069 526.999899 711.300744 510.002483 703.002518 489.004138 C 693.701881 472.102605 699.8994 451.400624 702.000106 430.001313 C 687.89661 399.397249 690.302398 453.396731 685.002691 462.000038 C 653.596696 475.903052 686.998797 475.197006 690.999728 489.004138 C 691.296093 528.80424 675.998419 494.60021 670.001382 484.000796 C 653.797179 472.102605 671.997488 514.700743 671.997488 525.003792 C 672.9999 546.995833 681.786257 614.697848 686.484517 632.000345 C 692.080589 650.401137 665.599487 609.903705 660.99711 590.997348 C 659.201485 570.896815 657.196662 548.198727 650.999143 533.999348 C 646.300882 515.703155 645.40307 493.597798 639.998764 474.996524 C 627.202761 464.196627 631.700538 436.80028 637.000245 423.001865 C 639.902881 416.996111 632.502468 409.499815 632.999315 417.998523 C 625.102054 441.001692 620.403794 409.700297 617.998006 399.998696 C 606.195698 388.597352 619.697748 362.299299 620.996525 348.004037 C 621.197007 324.800385 611.19904 311.6993 606.997627 291.999731 C 602.796215 274.200386 587.60314 266.399008 588.004105 243.003591 C 576.097197 210.900266 580.499092 268.299232 588.004105 272.997492 C 588.901917 278.096717 590.401176 282.603211 591.996318 286.002694 C 568.199936 297.098956 596.99966 294.396802 602.996697 301.004003 C 597.400625 318.602866 622.199419 350.60159 598.002072 351.002555 C 579.49668 345.502366 581.597387 322.804278 573.002796 311.995665 C 568.600901 293.403107 560.799523 278.201316 561.000005 254.997665 C 555.996664 237.703884 557.696405 211.196632 552.998145 195.001145 C 552.998145 178.59646 539.696578 148.402076 555.996664 141.001663 C 570.300643 131.796909 585.598317 124.10013 595.003553 110.999045 C 581.701986 94.603076 570.10016 144.096064 561.000005 117.998494 C 557.199558 85.101957 557.103675 159.297856 540.00166 131.997391 C 545.798214 105.603455 539.496095 82.399804 523.004244 109.002938 C 502.598628 98.604007 525.401315 76.202284 530.997388 66.99753 C 538.798766 60.399046 550.104226 26.59598 543.000178 25.000838 C 536.698059 52.397186 519.099197 9.999529 525.000351 0.00156224 L 519.997009 0.00156224 C 508.499782 18.602837 540.498507 31.703922 525.000351 48.997703 C 522.202314 69.699683 517.303572 87.80411 501.003486 94.001629 C 503.200075 109.996633 531.598835 119.802835 522.001832 132.999803 C 547.096991 157.502231 510.103641 141.097546 511.001453 124.004247 C 473.39794 115.697305 489.698026 137.898545 507.000523 144.000182 C 513.703607 159.602938 537.299506 160.797115 540.00166 178.00373 C 540.498507 212.896373 518.802831 182.301025 509.999042 174.996495 C 505.701746 179.398389 512.30023 183.896167 511.001453 189.004108 C 522.097715 204.301783 473.197457 196.596287 504.002005 203.996701 C 528.896681 202.096477 542.398731 211.597596 540.00166 236.997837 C 537.299506 257.699818 547.602555 283.901988 544.00259 291.999731 C 528.495717 285.49713 519.404278 271.602832 504.002005 264.001937 C 489.000696 256.697406 473.101575 247.902333 457.001971 243.003591 C 435.001214 242.498026 436.901437 217.60335 432.99639 197.999664 C 434.495649 190.799733 426.101541 190.398768 425.996942 196.003557 C 432.99639 228.499129 416.896787 197.703299 407.997114 207.003936 C 419.102092 216.897303 441.704297 238.296614 404.998596 228.002282 C 387.696098 222.99894 370.201835 215.799009 370.001352 195.001145 C 371.204247 180.801766 348.602042 143.398735 360.003385 178.00373 C 355.601491 198.400628 322.399872 188.803626 312.00094 181.002248 C 305.602938 178.300095 304.199562 181.699578 298.002043 182.998355 C 269.803766 190.904332 302.203455 187.199767 313.003352 192.002627 C 333.696616 194.199216 358.504126 194.103333 364.004316 207.997631 C 366.898235 214.003384 365.895823 218.004315 360.99708 220.000421 C 339.998735 229.597424 350.197184 231.497648 371.997459 228.002282 C 385.900474 228.499129 424.802764 237.102437 408.999526 243.003591 C 394.303299 244.598733 363.402869 254.500817 378.996908 269.998973 C 375.100577 302.503262 392.899922 271.201867 396.00304 257.996183 C 410.803867 251.502299 435.498061 248.102815 455.999559 251.999146 C 473.999387 256.401041 479.098612 275.900128 491.999214 283.004176 C 501.901298 296.602108 518.898714 302.599145 533.995906 309.999558 C 551.097921 315.796113 575.696233 328.400351 543.000178 333.002728 C 524.303021 342.59973 583.698093 336.698576 561.000005 362.996629 C 558.09737 366.204346 548.099403 365.201935 548.997215 359.998111 C 546.303778 355.796698 534.396871 376.202314 519.003314 369.996078 C 520.798938 389.399281 496.29651 391.996835 486.995872 405.002037 C 475.699128 413.300263 456.897372 429.696232 443.996769 413.997593 C 470.695787 448.402106 421.202799 422.400418 418.003798 427.002795 C 447.300369 441.001692 390.197769 445.795835 381.001731 434.995939 C 360.700715 429.303984 338.795841 425.198454 316.00187 420.997041 C 274.597909 417.798041 341.297511 424.797489 342.003558 432.999832 C 367.203316 431.204207 396.796253 436.10295 388.00118 459.00152 C 372.302541 468.799004 363.603351 486.101502 337.000216 485.996902 C 331.996874 485.299573 327.202731 480.697195 324.003731 479.999866 C 319.697719 494.60021 356.603902 486.397867 348.000595 496.003586 C 364.396564 487.496162 375.702024 471.196076 390.999698 463.00245 C 407.796632 463.996145 419.703539 444.601658 444.999181 445.002622 C 446.297958 463.795663 469.702091 425.198454 483.003659 428.998902 C 486.89999 431.204207 487.998284 439.702915 486.995872 444.000211 C 501.099369 459.402484 485.601213 410.903191 496.000144 409.002968 C 518.898714 406.501297 527.301539 387.298575 545.998696 381.998868 C 577.300091 373.901125 591.002623 395.797283 580.002245 420.003346 C 573.203278 445.002622 541.396319 421.502606 519.997009 426.000383 C 491.397767 428.301572 546.303778 438.900986 559.003899 438.003174 C 585.197352 432.79935 604.495956 454.399142 591.996318 471.998005 C 575.199385 481.20276 554.401521 486.397867 530.997388 489.004138 C 507.802453 491.802174 485.40073 495.402139 465.003831 500.998211 C 433.397355 524.297746 478.802246 516.10412 493.001626 507.99766 C 511.402418 507.30033 543.802107 507.30033 563.998524 504.999142 C 578.302503 504.598177 621.197007 487.199796 620.996525 514.003414 C 610.597593 530.103017 573.203278 518.701674 565.000936 536.997866 C 580.202727 552.40014 600.399143 518.501191 620.996525 535.001759 C 607.703674 536.701501 582.303433 579.596005 609.002451 557.996212 C 630.602244 530.399382 627.603725 580.502534 627.002278 597.003102 C 642.700917 605.902775 631.325723 624.99218 637.505809 643.131473 C 643.677179 661.279483 649.395284 668.575297 651.696472 669.568992 C 662.191287 705.568647 660.482829 700.495572 664.483759 719.497811 C 664.483759 733.148044 616.402864 715.400998 619.000418 698.996313 C 620.796042 691.5959 615.801417 687.002239 614.999488 684.003721 C 597.296025 657.801551 618.704053 699.501877 609.996146 705.002067 C 591.298989 709.299362 580.202727 686.296193 562.002417 680.996486 C 552.196216 669.298777 543.20066 638.903911 555.002969 623.998485 C 562.002417 611.402964 572.000384 561.901259 555.996664 601.004032 C 555.796181 606.89647 549.502779 610.104187 548.997215 612.998106 C 531.903916 633.700087 541.396319 597.003102 525.000351 600.00162 C 521.496268 596.69802 525.401315 586.002723 526.002762 585.000312 C 539.89706 562.101742 525.898163 558.301294 519.997009 579.99697 C 508.499782 596.297056 487.701919 568.098779 472.00328 567.000484 C 454.5003 558.998624 420.095787 567.401449 418.003798 543.00362 C 404.196666 548.303327 366.200905 513.297367 389.997287 540.998796 C 415.59801 550.098951 422.501576 568.499743 381.001731 558.998624 C 355.401008 567.401449 337.601663 546.098021 316.00187 556.000105 C 319.000389 564.001966 353.195702 567.096367 372.999871 568.002896 C 401.39863 561.997142 415.197045 575.900157 443.996769 572.997521 C 471.602315 571.402379 484.999766 583.9979 501.003486 593.995867 C 520.703055 599.696539 523.797457 624.198967 530.997388 640.002205 C 548.70085 675.295814 504.29837 645.10143 489.000696 651.996279 C 462.598043 654.898915 438.897544 645.598278 417.001386 651.996279 C 377.096684 666.596624 398.400112 624.303567 386.998768 615.996625 C 360.700715 615.499777 336.302886 618.803377 327.002249 633.002757 C 306.003903 633.002757 292.397254 617.304118 276.001285 608.997176 C 260.599012 600.202103 238.502371 591.502913 245.998667 564.001966 C 248.099374 559.695954 248.099374 549.497504 245.998667 546.995833 C 245.902785 562.999554 232.095653 582.699123 243.000149 593.995867 C 255.299305 619.300225 219.700614 582.60324 219.99698 572.997521 C 211.803354 555.70374 200.698375 540.798314 183.997325 531.000829 C 191.59822 542.803137 224.302992 568.299261 179.996395 564.995661 C 161.299237 556.095988 131.497102 573.79945 122.998394 550.003068 C 103.603907 561.299812 145.400116 571.899226 162.998979 568.002896 C 183.901442 574.095816 213.398496 570.60045 222.001803 587.99883 C 227.798358 608.203963 249.999598 611.995694 267.999425 619.00386 C 289.599218 624.39945 298.49889 641.501465 319.000389 645.999242 C 340.696064 649.79969 345.804006 617.495884 371.997459 630.997933 C 388.402145 650.897985 365.198493 670.501671 353.997632 679.000379 C 343.7033 688.100534 325.302507 717.10074 309.996117 697.000206 C 295.997219 685.999827 281.79784 674.197519 265.000906 663.99907 C 261.095859 662.796176 253.895928 660.399104 251.995704 658.002033 C 247.698409 657.801551 244.403525 656.101809 237.996807 656.999621 C 207.000494 653.896503 256.502199 665.602929 233.995877 661.000551 C 211.097307 656.703256 185.897549 661.296917 162.998979 659.99814 C 174.89717 676.00186 221.696721 652.597726 219.003285 676.00186 C 226.002733 676.498708 261.095859 660.399104 270.004248 681.998897 C 277.395945 695.59683 319.898201 694.001688 303.99908 715.000034 C 279.400768 710.903221 262.298753 723.202376 241.004042 727.002824 C 216.998461 726.000412 197.603974 719.401928 173.999358 716.99614 C 157.49879 717.902669 121.002287 695.004099 124.000806 712.001515 C 114.796051 715.697363 52.602943 719.000964 85.002632 723.001894 C 110.298274 723.001894 130.198325 713.701257 154.003424 716.99614 C 179.098582 718.399517 196.697445 726.802342 219.003285 730.001343 C 250.696927 725.704047 246.89648 764.196656 219.99698 759.001549 C 208.604353 756.499878 220.703026 765.39955 222.001803 764.998586 C 241.596773 771.004339 238.598254 745.203134 251.995704 741.001721 C 260.398529 725.503565 287.298029 719.802893 309.996117 727.002824 C 335.701439 726.697742 343.398218 708.40155 360.99708 699.998725 C 372.398424 669.002412 392.899922 696.398759 378.003213 716.99614 C 368.301611 734.699603 403.900301 739.99931 406.001007 756.00303 C 413.802385 754.800136 420.697234 757.50229 424.000835 756.996725 C 458.998078 763.699809 419.904022 748.498018 411.998044 746.998758 C 388.498027 744.200722 385.299027 713.396175 408.999526 708.000585 C 415.903092 705.699396 410.699267 695.59683 408.999526 694.001688 C 405.199078 682.495745 445.10378 691.700499 455.999559 687.995934 C 479.996424 687.699569 508.595665 684.500568 526.002762 691.003169 C 538.903365 705.097949 548.796733 721.197553 559.003899 735.998379 C 564.199006 737.898603 563.798042 747.89657 567.999454 746.998758 C 596.598696 742.004133 589.503364 773.401411 567.999454 760.00396 C 547.803038 758.304219 533.603658 738.099086 513.999972 742.004133 C 507.401488 751.104288 545.397249 759.297914 549.999627 771.004339 C 562.699747 778.500635 578.781917 806.777362 616.629496 791.192039 C 639.684965 781.69092 662.200004 819.268283 665.102639 832.866216 C 666.488582 858.745871 668.266774 845.47917 659.985981 893.586215 C 654.049961 928.104044 646.597248 913.895947 645.002106 938.999823 C 655.802002 978.895808 621.903053 943.000753 606.997627 943.000753 C 590.200694 935.399857 569.899678 928.104044 555.996664 918.001477 C 542.198249 906.303768 525.497198 897.003131 515.996079 879.996999 C 504.097888 866.503666 474.199869 865.998102 457.001971 873.999962 C 438.49658 878.401857 430.398836 904.795793 408.999526 897.996826 C 384.802179 897.203613 380.199802 875.804303 370.001352 858.998653 C 359.898786 844.903873 359.602421 829.196517 352.001525 804.999171 C 363.298269 825.901634 342.099441 846.002167 352.001525 857.996241 C 364.597046 870.896844 382.997838 900.202132 352.001525 875.996069 C 326.801767 864.699325 367.604281 894.597343 371.997459 901.004061 C 375.501542 904.098463 378.996908 910.200099 382.004143 909.999617 C 403.603936 927.197515 365.303092 925.802855 360.99708 915.002959 C 342.003558 919.901701 312.602387 881.10401 331.003179 909.999617 C 304.400044 917.600512 309.202904 882.001822 288.004076 879.003304 C 273.700097 888.800788 322.303989 907.497946 298.002043 915.996654 C 263.397048 929.699186 306.997598 920.999995 316.00187 912.998135 C 320.996495 915.098841 330.698097 914.898359 331.003179 918.001477 C 354.102231 916.598101 303.397633 933.900598 342.997253 923.998514 C 359.898786 924.896326 384.096133 943.497601 400.00397 923.998514 C 419.102092 916.598101 436.003625 907.497946 455.999559 901.004061 C 481.800765 890.099565 496.802074 909.39817 509.999042 919.003889 C 540.402624 925.297291 507.497371 960.102768 530.997388 962.996687 C 554.401521 965.602958 576.001314 969.996136 584.99687 987.002268 C 595.997249 1002.003577 608.200521 1015.801992 619.000418 1030.001372 C 626.897679 1049.099494 647.704259 1054.303318 649.003036 1078.003817 C 648.201106 1105.199682 652.498402 1128.499217 650.999143 1153.001645 C 652.202037 1178.297286 654.90419 1201.596821 653.997661 1227.999473 C 658.896403 1254.80309 651.304224 1274.903624 649.003036 1298.996371 C 652.603001 1321.703175 635.997834 1336.399402 619.000418 1344.000298 C 600.800108 1350.703381 578.398386 1355.898489 559.003899 1360.004019 C 538.397801 1365.399609 515.298749 1368.302244 493.001626 1371.998093 C 470.399421 1375.397576 453.096924 1384.096766 429.004177 1385.99699 C 405.303677 1388.298178 378.404177 1387.400366 352.001525 1386.999402 C 325.799355 1386.197472 302.499821 1390.503484 277.003697 1389.004225 C 252.597151 1390.102519 232.400735 1395.899074 207.000494 1396.003674 C 183.204112 1397.99978 159.303131 1401.800228 136.003596 1402.00071 C 113.697757 1405.696559 90.502822 1408.503312 67.002805 1410.996266 C 45.995742 1415.398161 20.499619 1417.498867 -0.00187952 1420.000538 Z M -0.00187952 1439.996472 " stroke="#503500" stroke-width="0.75" stroke-opacity="1" stroke-miterlimit="4"/></g><path stroke-linecap="round" transform="matrix(0.448138, 0, 0, 0.448138, 51.813342, 183.335237)" fill-opacity="1" fill="#905a51" fill-rule="nonzero" stroke-linejoin="round" d="M 440.99825 413.997593 L 443.996769 413.997593 C 438.296097 405.498885 427.696683 397.000177 419.999905 387.995905 C 419.398458 402.299884 435.097096 404.601073 440.99825 413.997593 Z M 440.99825 413.997593 " stroke="#503500" stroke-width="0.75" stroke-opacity="1" stroke-miterlimit="4"/><path stroke-linecap="round" transform="matrix(0.448138, 0, 0, 0.448138, 51.813342, 183.335237)" fill-opacity="1" fill="#905a51" fill-rule="nonzero" stroke-linejoin="round" d="M 414.996563 387.995905 L 419.999905 387.995905 C 421.499164 382.495716 404.196666 382.495716 414.996563 387.995905 Z M 414.996563 387.995905 " stroke="#503500" stroke-width="0.75" stroke-opacity="1" stroke-miterlimit="4"/></svg>