<svg xmlns="http://www.w3.org/2000/svg" xmlns:xlink="http://www.w3.org/1999/xlink" width="1080" zoomAndPan="magnify" viewBox="0 0 810 1012.49997" height="1350" preserveAspectRatio="xMidYMid meet" version="1.0"><defs><clipPath id="9c0b3a36d8"><path d="M 43 106 L 690.640625 106 L 690.640625 842 L 43 842 Z M 43 106 " clip-rule="nonzero"/></clipPath></defs><g clip-path="url(#9c0b3a36d8)"><path fill="#905a51" d="M 689.851562 460.699219 C 687.082031 460.859375 684.867188 462.359375 682.574219 463.863281 C 679.726562 465.761719 676.5625 466.945312 673.402344 468.132812 C 666.917969 470.425781 660.589844 472.957031 654.027344 474.855469 C 647.699219 476.753906 641.054688 477.859375 634.652344 479.203125 C 627.929688 480.550781 621.207031 481.734375 614.328125 482.128906 C 607.289062 482.527344 600.25 481.8125 593.210938 481.339844 C 585.699219 480.945312 578.1875 480.46875 570.59375 480.628906 C 563.636719 480.785156 556.675781 481.8125 549.875 483.316406 C 546.316406 484.109375 542.835938 484.976562 539.277344 485.925781 C 535.796875 486.875 532.320312 488.300781 528.679688 488.457031 C 524.886719 488.695312 521.328125 488.457031 517.609375 489.484375 C 515.789062 489.960938 514.050781 490.59375 512.152344 490.988281 C 510.097656 491.460938 507.960938 491.621094 505.746094 491.699219 C 503.929688 491.777344 502.109375 491.859375 500.289062 492.09375 C 498.394531 492.332031 496.652344 492.886719 494.832031 493.4375 C 491.117188 494.46875 487.242188 495.257812 483.367188 494.308594 C 483.128906 488.140625 487.953125 483.554688 491.828125 479.285156 C 493.964844 476.910156 495.78125 474.460938 497.207031 471.691406 C 498.789062 468.609375 499.894531 465.285156 501.320312 462.121094 C 504.324219 455.402344 509.226562 450.023438 513.578125 444.171875 C 517.6875 438.554688 521.167969 432.546875 525.914062 427.40625 C 530.421875 422.503906 535.640625 418.785156 541.492188 415.703125 C 547.34375 412.617188 553.433594 410.167969 559.445312 407.476562 C 565.769531 404.628906 571.621094 400.835938 577.949219 397.828125 C 584.355469 394.824219 591.472656 394.113281 597.5625 390.394531 C 604.203125 386.363281 609.820312 380.90625 616.9375 377.664062 C 624.449219 374.261719 631.09375 369.597656 638.128906 365.328125 C 638.445312 365.167969 638.605469 364.695312 638.367188 364.378906 C 637.578125 363.269531 636.074219 363.351562 634.808594 363.507812 C 632.515625 363.824219 630.300781 364.535156 628.164062 365.328125 C 623.183594 367.066406 618.28125 369.28125 613.378906 371.335938 C 610.769531 372.445312 608.078125 373.3125 605.546875 374.5 C 601.671875 376.320312 598.035156 378.535156 594.238281 380.589844 C 585.621094 385.253906 576.050781 387.945312 567.035156 391.660156 C 557.230469 395.613281 548.054688 400.992188 538.171875 404.710938 C 537.617188 402.257812 538.25 400.4375 540.226562 398.621094 C 542.28125 396.722656 544.339844 394.902344 546.15625 392.769531 C 547.738281 390.949219 549.085938 389.367188 551.140625 388.179688 C 552.878906 387.230469 554.777344 386.441406 556.519531 385.492188 C 558.019531 384.703125 559.523438 383.671875 560.550781 382.25 C 561.261719 381.222656 562.371094 378.613281 561.578125 377.425781 C 560.945312 376.476562 559.046875 376.792969 558.097656 376.953125 C 556.359375 377.347656 554.621094 378.296875 553.039062 379.164062 C 550.902344 380.351562 548.769531 381.695312 546.632812 382.882812 C 544.972656 383.832031 543.074219 384.9375 541.175781 385.253906 C 539.355469 377.980469 541.175781 370.941406 544.65625 364.457031 C 546.316406 361.371094 548.136719 358.527344 549.082031 355.046875 C 550.03125 351.566406 550.429688 347.929688 551.378906 344.449219 C 553.273438 337.09375 556.519531 330.136719 559.679688 323.253906 C 562.84375 316.453125 565.769531 309.730469 568.0625 302.613281 C 570.515625 294.863281 573.757812 287.351562 576.683594 279.761719 C 579.609375 272.328125 581.824219 264.734375 584.117188 257.144531 C 586.332031 249.710938 588.703125 242.355469 591.394531 235.078125 C 594.003906 228.039062 596.847656 220.605469 601.039062 214.28125 C 603.175781 211.039062 605.863281 208.113281 608.632812 205.34375 C 611.558594 202.496094 614.5625 199.492188 617.804688 197.121094 C 621.128906 194.667969 625.003906 193.164062 628.402344 190.792969 C 631.722656 188.421875 634.414062 185.257812 637.339844 182.410156 C 637.339844 182.410156 637.339844 182.332031 637.417969 182.332031 C 637.65625 182.015625 637.578125 181.699219 637.339844 181.460938 C 637.261719 181.382812 637.261719 181.382812 637.179688 181.304688 C 637.179688 181.304688 637.101562 181.304688 637.101562 181.222656 C 633.78125 180.039062 630.144531 180.988281 626.980469 182.332031 C 623.105469 183.992188 619.546875 186.363281 615.988281 188.65625 C 613.613281 190.160156 611.320312 191.664062 609.1875 193.480469 C 607.839844 194.589844 606.496094 195.617188 605.074219 196.644531 C 604.363281 197.121094 602.859375 198.464844 601.910156 198.386719 C 599.300781 198.148438 602.226562 191.820312 602.703125 190.792969 C 603.730469 188.578125 604.835938 186.445312 605.390625 184.070312 C 605.707031 182.804688 606.023438 181.460938 606.101562 180.117188 C 606.179688 179.328125 606.261719 178.140625 605.707031 177.507812 C 603.964844 175.6875 601.277344 180.589844 600.804688 181.621094 C 598.90625 185.335938 597.5625 189.449219 596.058594 193.324219 C 594.003906 198.542969 592.421875 204 590.917969 209.378906 C 589.496094 214.675781 588.464844 220.054688 586.171875 225.035156 C 584.117188 229.542969 581.429688 233.65625 579.136719 238.003906 C 574.074219 247.574219 572.335938 258.40625 568.539062 268.453125 C 564.425781 279.285156 560.3125 290.039062 555.726562 300.71875 C 553.511719 305.777344 550.980469 310.761719 548.847656 315.902344 C 546.710938 321.039062 545.050781 326.417969 542.996094 331.558594 C 540.9375 336.699219 538.089844 341.285156 535.402344 346.03125 C 534.214844 348.085938 532.953125 350.300781 532.398438 352.671875 C 531.84375 354.730469 531.765625 356.945312 531.605469 359.078125 C 531.449219 360.898438 531.210938 362.796875 530.339844 364.378906 C 530.023438 362.085938 530.578125 359.871094 531.054688 357.578125 C 531.6875 354.808594 531.84375 352.121094 531.605469 349.273438 C 531.054688 343.578125 529.472656 337.964844 528.128906 332.429688 C 526.703125 326.734375 525.121094 321.039062 523.9375 315.347656 C 522.75 309.730469 521.722656 303.878906 522.195312 298.105469 C 522.671875 292.808594 524.410156 287.828125 526.070312 282.84375 C 527.730469 277.78125 528.917969 272.644531 530.816406 267.660156 C 532.636719 262.835938 534.929688 258.089844 536.746094 253.269531 C 537.695312 250.894531 538.488281 248.445312 539.121094 245.992188 C 539.753906 243.382812 540.070312 240.695312 540.464844 238.003906 C 541.332031 231.996094 543.230469 226.300781 544.894531 220.449219 C 546.316406 215.546875 547.898438 209.773438 546.15625 204.710938 C 546 204.238281 545.367188 204 545.050781 204.394531 C 543.945312 205.503906 543.46875 206.769531 543.3125 208.269531 C 543.074219 210.167969 542.757812 211.90625 541.886719 213.648438 C 540.226562 217.128906 538.25 220.289062 537.457031 224.164062 C 536.667969 228.039062 536.589844 232.074219 536.035156 236.027344 C 535.480469 240.0625 534.53125 244.09375 533.347656 247.96875 C 530.816406 256.195312 526.941406 263.945312 523.621094 271.851562 C 520.296875 279.839844 517.136719 287.90625 514.683594 296.210938 C 513.339844 300.875 512.230469 305.460938 512.152344 310.285156 C 512.074219 315.03125 512.785156 319.777344 513.8125 324.441406 C 513.8125 329.660156 516.421875 334.246094 518.164062 338.914062 C 520.21875 344.289062 520.0625 349.746094 520.378906 355.363281 C 520.773438 361.371094 521.40625 367.382812 521.484375 373.394531 C 521.5625 379.324219 520.773438 385.019531 519.269531 390.710938 C 517.847656 396.246094 515.871094 401.625 514.207031 407.082031 C 513.417969 409.691406 512.390625 412.0625 510.964844 414.355469 C 509.621094 416.414062 508.121094 418.390625 506.773438 420.445312 C 503.769531 425.035156 501.953125 430.332031 499.578125 435.3125 C 497.128906 440.375 494.28125 445.199219 491.273438 449.945312 C 484.789062 459.988281 477.753906 469.714844 472.769531 480.628906 C 469.84375 475.804688 472.058594 469.160156 473.402344 464.179688 C 474.195312 461.410156 474.824219 458.722656 475.140625 455.875 C 475.617188 452.160156 475.933594 448.285156 476.960938 444.644531 C 477.910156 441.324219 479.808594 438.238281 481.230469 435.15625 C 482.578125 432.152344 483.921875 429.144531 485.503906 426.21875 C 486.925781 423.609375 488.507812 421 490.722656 418.945312 C 492.539062 417.285156 494.832031 416.175781 496.96875 415.148438 C 501.636719 413.011719 507.089844 410.878906 508.671875 405.5 C 508.832031 405.105469 508.4375 404.628906 508.039062 404.628906 C 503.375 404.867188 498.945312 407.953125 495.070312 410.324219 C 490.957031 412.855469 486.53125 415.070312 482.890625 418.3125 C 474.351562 426.0625 470.082031 437.921875 466.917969 448.757812 C 465.097656 454.847656 463.4375 461.09375 462.726562 467.5 C 462.410156 470.742188 462.253906 474.0625 462.332031 477.386719 C 462.332031 480.550781 462.648438 483.710938 462.570312 486.953125 C 462.09375 498.34375 454.503906 506.488281 447.226562 514.394531 C 437.421875 525.070312 428.246094 536.300781 419.628906 547.925781 C 418.519531 544.367188 418.203125 540.730469 418.125 537.09375 C 418.046875 533.296875 417.964844 529.5 418.203125 525.703125 C 418.597656 518.429688 419.945312 511.152344 422.472656 504.351562 C 423.738281 500.871094 425.398438 497.550781 427.457031 494.386719 C 429.511719 491.144531 430.460938 487.507812 432.359375 484.1875 C 434.179688 480.945312 437.023438 478.253906 440.03125 476.121094 C 441.214844 475.25 442.402344 474.460938 443.429688 473.351562 C 444.617188 472.085938 445.566406 470.742188 446.515625 469.320312 C 447.542969 467.816406 448.648438 466.234375 449.996094 465.050781 C 451.023438 464.101562 452.367188 463.386719 453.554688 462.675781 C 455.6875 461.332031 458.0625 459.671875 458.21875 456.902344 C 458.21875 456.585938 457.980469 456.269531 457.746094 456.269531 C 456.480469 456.035156 455.292969 456.191406 454.027344 456.191406 C 452.367188 456.191406 451.8125 454.925781 451.8125 453.34375 C 451.734375 450.179688 454.421875 447.96875 456.875 446.464844 C 459.722656 444.726562 466.207031 441.796875 464.148438 437.449219 C 463.992188 437.132812 463.515625 437.054688 463.203125 437.210938 C 459.5625 439.03125 456.636719 441.878906 453.078125 443.777344 C 449.914062 445.4375 446.121094 445.753906 443.035156 447.570312 C 441.613281 448.441406 440.347656 449.628906 439.554688 451.050781 C 438.605469 452.871094 438.289062 455.003906 436.867188 456.667969 C 435.601562 458.167969 433.863281 459.277344 432.28125 460.382812 C 430.9375 461.410156 429.511719 462.359375 428.167969 463.386719 C 426.03125 464.96875 423.976562 466.710938 422.554688 468.84375 C 422.710938 458.167969 423.820312 447.492188 426.746094 437.210938 C 429.671875 426.695312 435.523438 417.601562 439.636719 407.554688 C 441.691406 402.652344 442.71875 397.511719 444.773438 392.609375 C 446.59375 388.261719 448.886719 384.148438 451.65625 380.273438 C 457.429688 372.285156 465.335938 366.195312 470.554688 357.894531 C 472.136719 355.441406 473.5625 352.832031 475.222656 350.460938 C 476.960938 348.007812 479.015625 345.871094 480.996094 343.660156 C 484.238281 339.941406 486.925781 335.75 486.214844 330.609375 C 486.136719 330.136719 485.582031 329.976562 485.1875 330.214844 C 478.9375 334.011719 474.511719 339.941406 470.320312 345.792969 C 468.023438 348.957031 465.8125 352.199219 463.203125 355.125 C 460.355469 358.367188 457.191406 361.214844 454.105469 364.140625 C 447.9375 369.992188 440.742188 376.320312 436.945312 384.148438 C 433.148438 391.976562 433.148438 401.308594 428.011719 408.585938 C 425.398438 412.222656 422 415.386719 419.863281 419.339844 C 417.808594 423.214844 417.964844 427.484375 417.015625 431.597656 C 415.039062 427.800781 414.488281 423.054688 413.855469 418.945312 C 412.90625 413.25 412.035156 407.554688 411.796875 401.785156 C 411.480469 394.507812 411.164062 387.230469 411.085938 379.878906 C 411.007812 372.363281 411.085938 364.851562 410.136719 357.417969 C 409.425781 351.410156 407.921875 345.554688 408.320312 339.46875 C 408.632812 334.011719 410.453125 328.871094 414.011719 324.679688 C 418.28125 319.617188 424.371094 316.058594 429.90625 312.421875 C 435.917969 308.464844 442.085938 304.589844 448.175781 300.714844 C 451.339844 298.738281 454.503906 296.761719 457.347656 294.390625 C 460.195312 291.9375 462.886719 289.171875 465.890625 286.957031 C 468.5 284.980469 471.425781 284.425781 474.511719 283.554688 C 477.515625 282.6875 480.046875 281.339844 481.945312 278.890625 C 482.339844 278.414062 482.101562 277.703125 481.46875 277.703125 C 469.765625 277.546875 459.089844 281.738281 449.519531 288.378906 C 444.695312 291.78125 440.1875 295.578125 435.761719 299.53125 C 433.78125 301.347656 431.804688 303.167969 429.511719 304.589844 C 426.980469 306.171875 424.136719 306.964844 421.367188 308.070312 C 416.148438 310.046875 412.429688 313.84375 408.160156 317.246094 C 407.605469 304.90625 406.5 292.652344 406.65625 280.3125 C 406.816406 269.480469 407.605469 258.566406 409.347656 247.8125 C 412.667969 227.011719 419.3125 206.53125 430.699219 188.738281 C 437.261719 178.535156 445.328125 169.441406 454.738281 161.769531 C 455.292969 161.296875 454.660156 160.503906 454.105469 160.664062 C 450.863281 161.375 448.015625 162.796875 445.40625 164.773438 C 442.71875 166.832031 440.347656 169.28125 437.578125 171.261719 C 434.019531 173.789062 430.144531 173.871094 426.191406 175.214844 C 422.871094 176.320312 420.417969 179.246094 417.175781 180.355469 C 416.78125 166.910156 418.363281 153.941406 421.605469 140.890625 C 424.214844 130.136719 427.695312 117.800781 424.449219 106.808594 C 424.292969 106.253906 423.503906 106.097656 423.1875 106.648438 C 418.046875 115.746094 413.222656 124.996094 408.003906 134.089844 C 405.707031 138.125 403.574219 141.839844 403.257812 146.507812 C 403.019531 150.621094 403.890625 154.652344 404.445312 158.6875 C 404.917969 162.324219 405.15625 166.671875 402.941406 169.835938 C 401.28125 172.207031 398.511719 172.839844 395.746094 172.207031 C 392.027344 171.261719 388.152344 168.332031 386.015625 165.25 C 383.804688 162.007812 383.011719 157.972656 380.796875 154.652344 C 379.136719 152.121094 376.605469 150.144531 374.3125 148.167969 C 373.128906 147.140625 371.863281 146.113281 370.515625 145.164062 C 369.804688 144.6875 368.9375 144.054688 367.988281 144.054688 C 367.511719 144.054688 367.195312 144.449219 367.355469 144.925781 C 368.382812 148.800781 371.464844 151.410156 373.757812 154.496094 C 376.6875 158.449219 378.1875 163.273438 380.5625 167.542969 C 384.988281 175.214844 391.789062 181.699219 391.632812 191.1875 C 391.632812 211.828125 391.871094 232.46875 391.632812 253.109375 C 391.472656 263.863281 391.472656 274.699219 390.207031 285.375 C 389.734375 289.566406 389.339844 295.261719 386.648438 298.738281 C 386.492188 298.976562 386.253906 299.292969 386.015625 299.453125 C 385.386719 299.847656 385.78125 299.53125 385.621094 299.453125 C 384.832031 299.054688 384.039062 297.472656 383.40625 296.761719 C 382.539062 295.734375 381.589844 294.707031 380.71875 293.679688 C 377.714844 290.199219 374.628906 286.640625 372.097656 282.765625 C 370.992188 281.023438 369.964844 279.207031 369.09375 277.308594 C 368.066406 274.9375 367.511719 272.40625 366.5625 270.03125 C 364.980469 266.078125 362.371094 262.597656 360.472656 258.804688 C 358.339844 254.53125 357.863281 249.707031 357.152344 245.042969 C 356.441406 240.695312 355.414062 236.265625 354.542969 231.914062 C 353.515625 227.25 351.617188 223.53125 347.820312 220.527344 C 346.003906 219.105469 344.105469 217.839844 342.207031 216.496094 C 339.914062 214.832031 337.9375 212.9375 335.800781 211.195312 C 331.847656 208.03125 327.339844 205.660156 323.621094 202.261719 C 320.0625 199.015625 316.898438 195.140625 312.628906 192.691406 C 312.15625 192.453125 311.679688 192.769531 311.601562 193.246094 C 310.414062 205.738281 325.996094 211.828125 333.347656 219.023438 C 339.199219 224.796875 345.371094 230.964844 348.53125 238.714844 C 350.273438 243.066406 350.746094 247.496094 350.589844 252.160156 C 350.429688 256.351562 350.035156 260.542969 351.300781 264.65625 C 353.671875 272.40625 360.710938 278.097656 365.535156 284.347656 C 368.144531 287.746094 369.804688 291.464844 371.941406 295.179688 C 374.15625 299.136719 376.765625 302.851562 379.214844 306.570312 C 381.667969 310.285156 384.121094 314.160156 385.859375 318.273438 C 387.679688 322.464844 387.996094 327.050781 387.914062 331.558594 C 387.835938 335.988281 387.519531 340.414062 387.996094 344.765625 C 388.46875 349.195312 389.972656 353.464844 391.078125 357.8125 C 396.457031 378.058594 400.726562 398.9375 399.9375 419.894531 C 396.296875 410.640625 390.761719 402.335938 386.175781 393.636719 C 383.488281 388.496094 381.351562 383.277344 379.769531 377.664062 C 378.347656 372.523438 377.160156 367.304688 374.867188 362.480469 C 372.730469 357.894531 369.726562 353.78125 367.433594 349.273438 C 364.585938 343.816406 362.132812 338.203125 359.683594 332.585938 C 357.390625 327.210938 355.097656 321.832031 352.722656 316.453125 C 350.746094 312.027344 349.007812 307.835938 348.296875 303.011719 C 346.871094 293.914062 347.347656 283.238281 341.019531 275.886719 C 340.625 275.488281 340.070312 275.726562 339.914062 276.203125 C 337.304688 283.871094 339.992188 291.386719 341.8125 298.820312 C 342.839844 302.929688 343.3125 307.042969 343.390625 311.3125 C 343.472656 314.714844 343.472656 318.035156 344.183594 321.355469 C 345.84375 328.632812 351.140625 333.773438 355.015625 339.863281 C 359.289062 346.585938 359.683594 355.125 362.765625 362.402344 C 365.929688 369.835938 370.359375 376.792969 374.074219 383.988281 C 378.03125 391.421875 381.589844 399.09375 383.960938 407.238281 C 388.46875 422.976562 396.773438 438.398438 396.929688 455.164062 C 397.011719 464.335938 396.0625 473.984375 397.800781 483 C 398.828125 488.613281 405.078125 496.917969 400.410156 502.058594 C 385.9375 491.621094 373.601562 478.097656 361.421875 465.128906 C 358.65625 462.121094 356.046875 458.960938 353.671875 455.558594 C 351.378906 452.238281 349.402344 448.601562 346.949219 445.355469 C 344.421875 442.113281 341.574219 439.269531 338.964844 436.183594 C 336.039062 432.703125 333.664062 428.910156 332.082031 424.558594 C 329.238281 416.886719 328.207031 408.503906 323.542969 401.546875 C 321.328125 398.222656 318.71875 395.296875 316.109375 392.292969 C 313.105469 388.734375 310.257812 385.097656 307.648438 381.300781 C 302.746094 374.183594 298.632812 366.59375 294.914062 358.761719 C 293.097656 354.886719 291.277344 350.933594 289.539062 346.980469 C 288.746094 345.160156 288.035156 343.339844 287.164062 341.601562 C 286.214844 339.625 284.871094 337.804688 283.765625 335.90625 C 281.074219 331.320312 281.472656 326.261719 280.207031 321.277344 C 279.574219 318.667969 278.78125 316.136719 277.832031 313.6875 C 276.171875 309.414062 273.246094 302.929688 267.632812 303.800781 C 267.316406 303.878906 267.15625 304.195312 267.15625 304.433594 C 267.316406 309.8125 270.082031 314.003906 272.457031 318.667969 C 274.039062 321.832031 274.988281 325.074219 275.222656 328.554688 C 275.382812 331.875 275.144531 335.195312 275.460938 338.4375 C 276.410156 349.667969 282.972656 359.15625 289.300781 368.09375 C 292.621094 372.761719 295.625 377.664062 298.871094 382.328125 C 302.191406 387.152344 306.144531 391.582031 309.625 396.328125 C 313.578125 401.785156 317.058594 407.792969 317.53125 414.59375 C 318.007812 421.078125 316.820312 427.722656 318.480469 434.046875 C 321.488281 445.199219 330.976562 453.027344 335.640625 463.386719 C 337.699219 467.976562 340.070312 472.324219 343.707031 475.882812 C 346.949219 479.125 350.746094 481.65625 354.699219 483.949219 C 359.523438 486.796875 364.269531 489.167969 368.304688 493.203125 C 372.574219 497.394531 376.132812 502.21875 379.214844 507.277344 C 382.457031 512.578125 385.386719 518.113281 387.125 524.042969 C 389.023438 530.527344 389.8125 537.328125 391.316406 543.972656 C 392.582031 549.429688 395.03125 554.492188 396.296875 559.945312 C 397.484375 564.851562 397.800781 569.910156 397.722656 574.972656 C 397.640625 585.09375 396.140625 595.535156 392.34375 604.945312 C 391.710938 606.605469 390.921875 608.1875 390.050781 609.769531 C 386.808594 604.46875 382.539062 599.960938 378.582031 595.136719 C 374.074219 589.683594 370.4375 583.671875 366.957031 577.425781 C 363.558594 571.335938 360.394531 565.167969 356.996094 559.078125 C 353.671875 553.144531 349.71875 548.003906 345.054688 543.179688 C 342.601562 540.652344 340.070312 538.121094 337.699219 535.511719 C 335.40625 532.902344 333.347656 530.132812 331.054688 527.523438 C 326.785156 522.542969 321.882812 518.269531 316.898438 514 C 311.839844 509.652344 309.386719 503.5625 306.144531 497.867188 C 303.140625 492.410156 298.394531 488.296875 294.519531 483.476562 C 292.226562 480.707031 290.722656 477.78125 289.539062 474.300781 C 288.507812 471.21875 287.324219 468.527344 285.425781 465.839844 C 281.628906 460.382812 278.148438 454.6875 274.039062 449.46875 C 271.824219 446.703125 269.609375 443.933594 267.789062 440.929688 C 265.890625 437.84375 264.625 434.445312 263.519531 430.964844 C 261.464844 424.402344 259.40625 417.757812 257.507812 411.195312 C 256.558594 407.871094 255.691406 404.472656 255.136719 401.070312 C 254.582031 397.433594 254.582031 393.875 254.425781 390.160156 C 254.265625 386.519531 253.792969 382.566406 254.820312 379.007812 C 255.691406 375.765625 257.589844 372.917969 258.222656 369.597656 C 259.40625 363.113281 257.351562 357.023438 255.769531 350.777344 C 253.871094 343.34375 254.425781 336.066406 255.214844 328.554688 C 256.875 313.449219 255.136719 298.421875 254.664062 283.320312 C 254.425781 275.726562 254.109375 267.976562 254.347656 260.386719 C 254.425781 256.667969 255.296875 253.03125 255.53125 249.3125 C 255.691406 246.070312 255.296875 242.90625 254.742188 239.746094 C 254.1875 236.265625 253.632812 232.863281 253.554688 229.304688 C 253.554688 229.070312 253.476562 228.910156 253.316406 228.753906 C 253.160156 228.59375 252.84375 228.515625 252.527344 228.671875 C 252.449219 228.671875 252.449219 228.753906 252.371094 228.753906 C 249.441406 230.730469 249.207031 234.761719 249.285156 238.003906 C 249.363281 239.824219 249.601562 241.644531 249.757812 243.460938 C 249.996094 245.992188 249.523438 248.207031 249.046875 250.65625 C 248.574219 253.347656 248.652344 256.113281 248.808594 258.804688 C 248.96875 261.886719 248.96875 264.894531 248.96875 267.976562 C 248.96875 274.066406 247.625 279.996094 247.464844 286.085938 C 247.386719 289.171875 247.464844 292.253906 247.703125 295.417969 C 247.941406 298.265625 248.179688 301.191406 247.703125 304.039062 C 246.753906 303.722656 245.804688 302.378906 245.332031 301.746094 C 244.144531 300.242188 243.117188 298.582031 242.167969 296.839844 C 240.191406 293.441406 238.925781 289.804688 237.265625 286.324219 C 234.734375 280.945312 230.382812 276.675781 227.300781 271.535156 C 224.058594 266.15625 221.367188 260.464844 217.890625 255.164062 C 216.070312 252.398438 213.855469 250.023438 211.640625 247.574219 C 209.585938 245.359375 208.003906 242.75 205.394531 241.089844 C 205 240.851562 204.445312 241.089844 204.367188 241.484375 C 203.972656 243.222656 204.128906 244.886719 205.15625 246.464844 C 206.265625 248.128906 207.765625 249.550781 208.875 251.289062 C 211.800781 256.035156 214.804688 260.78125 217.730469 265.523438 C 219.234375 267.976562 220.65625 270.347656 222.082031 272.878906 C 223.347656 275.171875 224.296875 277.625 225.558594 279.917969 C 226.746094 282.132812 228.722656 283.792969 230.148438 285.847656 C 231.570312 287.90625 232.757812 290.121094 234.023438 292.335938 C 236.710938 297.15625 239.164062 302.140625 241.535156 307.203125 C 243.988281 312.261719 246.28125 317.480469 246.597656 323.175781 C 246.753906 326.023438 246.597656 328.789062 246.753906 331.636719 C 246.914062 334.328125 247.308594 337.015625 247.78125 339.625 C 248.730469 345.082031 250.3125 350.539062 250.550781 356.074219 C 250.707031 358.921875 250.3125 361.609375 249.679688 364.378906 C 248.96875 367.382812 248.574219 370.386719 248.019531 373.394531 C 247.464844 376.792969 246.121094 380.273438 246.121094 383.671875 C 245.410156 383.121094 245.015625 382.25 244.621094 381.539062 C 243.90625 380.113281 243.355469 378.613281 242.878906 377.1875 C 242.40625 375.921875 242.007812 374.660156 241.457031 373.394531 C 240.507812 371.496094 239.242188 369.675781 238.054688 367.9375 C 235.523438 364.140625 232.914062 360.421875 229.910156 356.945312 C 226.984375 353.464844 223.820312 350.144531 221.289062 346.425781 C 218.679688 342.472656 216.625 338.042969 214.726562 333.695312 C 212.75 329.1875 211.007812 324.679688 209.429688 320.089844 C 207.925781 315.980469 206.660156 311.789062 205 307.835938 C 203.339844 303.878906 201.28125 300.402344 198.515625 297.15625 C 196.695312 295.023438 194.957031 292.730469 193.136719 290.59375 C 191.476562 288.539062 189.816406 286.246094 187.839844 284.425781 C 184.515625 281.5 180.246094 280.550781 176.292969 278.730469 C 175.738281 278.496094 175.183594 278.890625 175.265625 279.523438 C 175.421875 280.945312 177.480469 282.054688 178.585938 282.765625 C 180.246094 283.871094 181.90625 284.898438 183.410156 286.164062 C 185.625 287.984375 187.363281 289.882812 188.707031 292.414062 C 190.132812 295.101562 191.792969 297.632812 193.53125 300.164062 C 197.171875 305.621094 200.253906 311.472656 202.941406 317.480469 C 203.65625 318.984375 204.289062 320.488281 204.761719 322.070312 C 205.238281 323.730469 205.394531 325.546875 205.949219 327.210938 C 206.582031 329.265625 207.847656 331.003906 208.636719 332.980469 C 208.953125 333.773438 209.347656 334.960938 208.875 335.75 C 208.320312 336.777344 207.214844 336.144531 206.5 335.671875 C 204.761719 334.5625 203.339844 332.980469 201.679688 331.714844 C 196.617188 328.078125 192.1875 323.652344 187.125 320.089844 C 176.925781 312.816406 163.875 312.578125 151.933594 310.363281 C 139.203125 307.992188 129.714844 298.34375 120.144531 290.4375 C 119.828125 290.199219 119.273438 290.121094 119.039062 290.59375 C 117.21875 294.628906 122.597656 298.421875 124.808594 301.113281 C 126.867188 303.5625 128.84375 306.171875 131.292969 308.308594 C 133.507812 310.285156 136.199219 311.710938 138.886719 312.972656 C 144.660156 315.664062 150.828125 317.796875 157.074219 318.667969 C 160.554688 319.144531 164.113281 319.300781 167.59375 320.089844 C 171.152344 320.960938 174.472656 322.386719 177.796875 323.886719 C 183.964844 326.578125 189.894531 329.738281 195.113281 334.089844 C 197.566406 336.144531 199.859375 338.4375 202.46875 340.335938 C 205.238281 342.3125 208.082031 343.972656 210.535156 346.425781 C 214.882812 350.777344 219.472656 355.203125 222.949219 360.265625 C 226.589844 365.5625 228.488281 371.652344 231.253906 377.425781 C 232.914062 380.90625 235.050781 383.832031 237.265625 386.914062 C 239.480469 390 241.21875 393.242188 242.167969 396.960938 C 243.195312 400.992188 244.144531 404.945312 245.488281 408.902344 C 246.753906 412.777344 248.179688 416.652344 249.363281 420.605469 C 249.285156 425.191406 250.789062 429.304688 252.683594 433.417969 C 253.714844 435.550781 254.742188 437.6875 255.613281 439.820312 C 256.558594 442.195312 257.429688 444.566406 258.457031 446.9375 C 259.488281 449.3125 260.515625 451.84375 261.9375 454.054688 C 262.332031 454.6875 263.914062 455.875 263.203125 456.746094 C 262.730469 457.296875 261.304688 457.21875 260.671875 457.140625 C 258.539062 456.902344 256.875 455.003906 255.453125 453.660156 C 253.871094 452.078125 252.054688 450.8125 250.15625 449.628906 C 246.121094 447.097656 241.773438 445.277344 237.738281 442.828125 C 235.605469 441.5625 233.625 440.21875 231.648438 438.792969 C 229.671875 437.292969 227.933594 435.628906 226.113281 434.046875 C 222.476562 431.042969 218.601562 428.355469 214.882812 425.507812 C 211.167969 422.582031 208.082031 419.417969 205.15625 415.78125 C 202.074219 411.984375 198.355469 408.902344 194.957031 405.421875 C 191.632812 401.941406 189.023438 397.828125 185.308594 394.746094 C 181.589844 391.660156 178.113281 388.261719 174.394531 385.253906 C 170.519531 382.09375 166.089844 379.796875 162.058594 376.871094 C 158.261719 374.027344 154.78125 370.546875 150.671875 368.171875 C 146.480469 365.722656 141.574219 364.773438 137.066406 363.191406 C 132.242188 361.453125 127.816406 358.921875 122.753906 358.050781 C 117.929688 357.179688 113.027344 357.261719 108.203125 357.023438 C 105.59375 356.863281 102.90625 356.707031 100.375 356.230469 C 97.84375 355.757812 95.3125 354.96875 92.859375 354.097656 C 90.488281 353.304688 88.117188 352.515625 85.585938 352.039062 C 82.898438 351.488281 80.207031 351.011719 77.597656 350.378906 C 72.300781 349.035156 67.160156 347.058594 61.941406 345.238281 C 57.273438 343.578125 52.292969 342.234375 48.023438 339.703125 C 46.757812 338.992188 45.253906 337.886719 43.75 337.964844 C 43.199219 337.964844 42.960938 338.519531 43.199219 338.992188 C 45.648438 344.527344 52.054688 347.375 57.351562 349.429688 C 64.550781 352.277344 71.984375 354.730469 79.339844 356.945312 C 83.847656 358.289062 88.511719 359.160156 92.941406 360.738281 C 97.132812 362.164062 101.085938 364.378906 105.59375 364.613281 C 107.886719 364.695312 110.101562 364.457031 112.394531 364.378906 C 114.847656 364.296875 117.296875 364.457031 119.667969 364.851562 C 124.175781 365.5625 128.765625 366.828125 132.875 368.886719 C 137.066406 370.941406 140.46875 374.34375 144.738281 376.320312 C 147.109375 377.425781 149.324219 378.296875 151.460938 379.878906 C 152.804688 380.90625 154.148438 382.011719 155.574219 382.882812 C 154.148438 382.960938 152.726562 382.804688 151.300781 382.566406 C 149.089844 382.328125 146.953125 382.171875 144.738281 382.25 C 142.128906 382.328125 139.519531 382.488281 136.910156 382.722656 C 134.933594 382.882812 132.957031 383.039062 131.136719 383.753906 C 127.894531 385.019531 125.441406 387.863281 122.832031 390.078125 C 120.460938 392.136719 117.375 394.664062 116.824219 397.988281 C 116.742188 398.460938 117.140625 399.015625 117.691406 398.855469 C 119.90625 398.066406 121.332031 396.167969 122.914062 394.585938 C 125.046875 392.453125 128.289062 391.421875 131.292969 390.949219 C 134.773438 390.316406 138.570312 390.789062 142.050781 390.710938 C 145.371094 390.632812 148.691406 390.160156 152.015625 390.160156 C 155.257812 390.078125 158.578125 390.394531 161.664062 391.582031 C 164.507812 392.609375 167.039062 394.351562 169.332031 396.246094 C 174 400.121094 177.875 404.789062 182.222656 409.058594 C 184.4375 411.195312 186.652344 413.25 189.105469 414.988281 C 191.714844 416.886719 194.480469 418.628906 197.011719 420.605469 C 199.464844 422.582031 201.835938 424.796875 203.972656 427.167969 C 205 428.355469 205.949219 429.542969 206.738281 430.886719 C 207.449219 432.230469 208.003906 433.574219 208.714844 434.917969 C 211.5625 440.136719 217.414062 442.746094 222.316406 445.59375 C 225.085938 447.175781 227.855469 448.757812 230.148438 451.050781 C 232.203125 453.027344 234.179688 455.003906 236.554688 456.585938 C 239.320312 458.40625 242.324219 459.828125 245.171875 461.488281 C 248.179688 463.230469 250.789062 465.285156 253.160156 467.816406 C 255.613281 470.347656 257.824219 473.113281 260.355469 475.566406 C 262.414062 477.464844 264.785156 479.203125 266.289062 481.578125 C 263.914062 481.65625 261.464844 482.210938 259.089844 481.734375 C 257.824219 481.496094 256.640625 481.101562 255.375 480.707031 C 253.949219 480.3125 252.527344 480.074219 251.183594 479.757812 C 245.566406 478.652344 240.269531 477.148438 234.972656 474.855469 C 230.382812 472.878906 225.875 471.058594 220.894531 470.503906 C 215.4375 469.953125 210.613281 467.183594 205.472656 465.445312 C 200.015625 463.546875 194.480469 461.648438 188.867188 460.226562 C 183.25 458.800781 177.714844 458.167969 171.941406 458.089844 C 166.722656 458.011719 161.820312 457.140625 157.15625 454.6875 C 152.488281 452.316406 148.457031 448.835938 143.710938 446.703125 C 138.175781 444.25 132.164062 443.0625 126.234375 441.71875 C 121.015625 440.535156 115.558594 438.636719 110.101562 439.503906 C 109.390625 439.585938 109.546875 440.613281 110.101562 440.851562 C 112.710938 441.878906 115.480469 442.511719 118.246094 443.144531 C 121.015625 443.777344 124.019531 444.25 126.628906 445.4375 C 128.921875 446.464844 130.980469 447.96875 133.429688 448.679688 C 136.039062 449.390625 138.808594 448.917969 141.179688 450.578125 C 143.394531 452.078125 144.816406 454.371094 146.636719 456.191406 C 147.980469 457.535156 149.484375 458.484375 151.222656 459.195312 C 153.515625 460.066406 155.890625 460.777344 158.183594 461.726562 C 160.554688 462.597656 162.925781 463.46875 165.378906 463.863281 C 168.382812 464.335938 171.546875 464.179688 174.550781 464.257812 C 177.636719 464.417969 180.640625 464.574219 183.726562 464.734375 C 180.40625 469.160156 173.207031 468.6875 169.492188 472.957031 C 169.175781 473.351562 169.253906 473.90625 169.808594 474.0625 C 173.367188 475.171875 177.480469 473.273438 180.800781 472.007812 C 182.699219 471.296875 184.675781 470.585938 186.730469 470.664062 C 188.707031 470.742188 190.527344 471.453125 192.347656 472.007812 C 194.402344 472.640625 196.378906 472.957031 198.515625 473.195312 C 200.964844 473.429688 203.417969 474.144531 205.710938 475.09375 C 207.925781 475.960938 209.980469 477.148438 212.195312 478.097656 C 213.933594 478.808594 215.675781 479.285156 217.492188 479.601562 C 222.160156 480.46875 226.984375 480.863281 231.648438 481.734375 C 236.472656 482.683594 240.664062 485.054688 245.25 486.558594 C 247.546875 487.351562 249.917969 487.667969 252.289062 488.300781 C 254.820312 488.929688 257.273438 489.800781 259.804688 490.511719 C 264.546875 491.859375 269.53125 492.253906 273.722656 494.941406 C 277.753906 497.472656 281.3125 501.03125 284.476562 504.589844 C 287.796875 508.304688 290.882812 512.339844 293.492188 516.53125 C 294.757812 518.585938 296.101562 520.722656 296.890625 523.09375 C 297.523438 525.230469 297.921875 527.367188 298.789062 529.421875 C 300.765625 533.613281 304.957031 536.539062 308.121094 539.703125 C 315.316406 546.742188 319.90625 556.152344 326.152344 563.980469 C 329.316406 568.011719 333.113281 571.652344 335.957031 575.921875 C 337.304688 577.976562 338.488281 580.113281 339.753906 582.25 C 341.097656 584.460938 342.523438 586.597656 344.023438 588.652344 C 350.113281 597.117188 356.203125 605.578125 362.925781 613.644531 C 369.332031 621.316406 376.6875 629.066406 379.769531 638.792969 C 380.480469 640.925781 380.957031 643.21875 380.957031 645.511719 C 380.957031 649.941406 380.5625 654.292969 380.085938 658.640625 C 379.613281 663.148438 379.691406 667.65625 379.929688 672.085938 C 380.402344 680.941406 381.507812 689.878906 380.324219 698.734375 C 379.214844 707.433594 379.769531 716.132812 379.929688 724.832031 C 380.085938 733.769531 378.898438 742.46875 377.632812 751.324219 C 377.003906 755.832031 376.6875 760.261719 376.605469 764.769531 C 376.527344 769.355469 376.605469 773.863281 376.210938 778.449219 C 375.816406 783.035156 375.023438 787.625 374.234375 792.210938 C 373.523438 796.402344 372.8125 800.59375 371.941406 804.785156 C 371.148438 808.738281 370.042969 812.613281 368.382812 816.332031 C 367.117188 819.257812 365.773438 822.65625 363.714844 825.1875 C 360.15625 829.457031 352.960938 829.851562 350.589844 835.390625 C 349.796875 837.207031 349.878906 839.898438 351.855469 840.925781 C 353.753906 841.953125 356.363281 841.160156 358.179688 840.449219 C 363.558594 838.394531 369.488281 832.699219 375.5 836.023438 C 375.972656 836.257812 376.371094 836.574219 376.765625 836.890625 C 376.921875 837.050781 377.160156 837.207031 377.398438 837.285156 C 377.714844 837.445312 377.632812 837.683594 377.554688 837.285156 C 377.632812 837.523438 377.949219 837.839844 378.1875 837.761719 C 378.820312 837.683594 379.375 837.601562 379.769531 837.128906 C 380.007812 836.890625 380.085938 836.65625 380.246094 836.417969 C 380.640625 835.941406 381.113281 835.625 381.667969 835.390625 C 383.566406 834.519531 384.988281 835.230469 386.808594 835.863281 C 388.390625 836.339844 389.972656 836.890625 391.632812 836.339844 C 392.503906 836.023438 393.214844 835.546875 393.925781 835.074219 C 394.636719 834.597656 395.269531 833.886719 396.0625 833.570312 C 397.324219 833.015625 399.222656 834.441406 400.410156 834.914062 C 401.515625 835.390625 402.464844 835.152344 403.574219 834.757812 C 405.472656 833.964844 407.289062 833.015625 409.425781 833.015625 C 411.71875 833.015625 413.378906 834.203125 415.4375 835.152344 C 416.78125 835.785156 418.363281 836.101562 419.785156 835.390625 C 421.445312 834.519531 422.15625 832.9375 424.292969 833.175781 C 428.246094 833.570312 431.488281 836.652344 435.285156 837.839844 C 437.023438 838.394531 440.03125 838.949219 440.503906 836.496094 C 440.898438 834.441406 439.476562 832.066406 438.527344 830.40625 C 434.890625 824.316406 428.640625 820.207031 425.398438 813.878906 C 423.1875 809.6875 423.027344 804.625 422.710938 799.960938 C 422.394531 794.820312 422.472656 789.679688 422.949219 784.539062 C 423.898438 774.019531 423.265625 763.503906 422.710938 752.984375 C 422.472656 747.6875 422.15625 742.386719 422.316406 737.167969 C 422.554688 732.109375 423.34375 727.046875 423.503906 721.984375 C 423.738281 716.6875 423.503906 711.386719 423.660156 706.167969 C 423.738281 703.558594 423.898438 700.949219 424.136719 698.261719 C 424.371094 695.886719 425.082031 693.515625 425.398438 691.144531 C 426.03125 686.242188 424.765625 681.101562 424.214844 676.277344 C 423.820312 672.320312 422.316406 668.527344 421.921875 664.492188 C 421.683594 662.4375 421.761719 660.300781 422.710938 658.324219 C 422.710938 658.324219 422.710938 658.324219 422.710938 658.246094 C 422.710938 658.246094 422.789062 658.167969 422.789062 658.167969 C 423.582031 655.320312 425.003906 652.789062 426.03125 650.019531 C 427.140625 647.175781 427.140625 644.25 427.457031 641.242188 C 427.773438 637.84375 428.246094 634.363281 428.246094 630.882812 C 428.246094 627.640625 427.773438 624.398438 427.296875 621.234375 C 426.269531 614.988281 425.003906 608.742188 425.558594 602.335938 C 426.113281 595.691406 427.851562 589.128906 429.988281 582.800781 C 434.097656 570.386719 440.1875 558.761719 446.515625 547.292969 C 451.8125 537.644531 456.320312 527.050781 465.890625 520.800781 C 475.773438 514.316406 487.875 513.210938 498.550781 508.703125 C 503.613281 506.566406 507.40625 502.613281 512.230469 500.238281 C 515 498.894531 518.085938 498.578125 521.167969 498.183594 C 524.410156 497.710938 527.652344 497.394531 530.894531 497.234375 C 537.378906 496.996094 543.945312 497.394531 549.953125 499.921875 C 556.042969 502.453125 561.421875 506.410156 566.957031 509.808594 C 569.882812 511.550781 572.730469 513.367188 575.339844 515.582031 C 577.789062 517.558594 580.085938 519.613281 582.535156 521.511719 C 584.75 523.253906 586.964844 525.070312 588.941406 527.207031 C 591.078125 529.5 592.65625 532.1875 594.636719 534.640625 C 598.429688 539.386719 602.9375 543.417969 608 546.820312 C 611.875 549.429688 615.195312 552.59375 618.519531 555.914062 C 624.921875 562.320312 631.644531 570.226562 640.738281 572.757812 C 642.558594 573.234375 644.457031 573.46875 646.277344 573.390625 C 646.511719 573.390625 646.75 573.390625 646.988281 573.390625 C 647.855469 573.3125 647.855469 571.96875 646.988281 572.046875 C 646.828125 572.046875 646.59375 572.046875 646.433594 572.046875 C 645.167969 571.886719 644.0625 570.859375 643.191406 569.910156 C 642.085938 568.804688 641.136719 567.539062 640.105469 566.273438 C 638.761719 564.769531 637.179688 563.503906 635.757812 562.242188 C 634.019531 560.660156 632.277344 559.15625 630.617188 557.574219 C 623.578125 551.246094 616.699219 544.84375 610.136719 538.042969 C 606.972656 534.71875 603.492188 531.636719 600.171875 528.550781 C 596.847656 525.46875 593.84375 521.988281 590.445312 518.984375 C 587.359375 516.214844 583.878906 513.921875 580.320312 511.785156 C 576.761719 509.570312 572.886719 507.515625 569.722656 504.667969 C 566.640625 501.742188 563.953125 498.261719 560.15625 496.207031 C 556.597656 494.230469 552.328125 493.359375 549.164062 490.75 C 551.296875 488.378906 555.804688 489.011719 558.574219 489.246094 C 560.3125 489.328125 562.054688 489.484375 563.792969 489.40625 C 566.246094 489.246094 568.617188 488.695312 570.988281 488.140625 C 573.597656 487.507812 576.128906 486.953125 578.820312 486.953125 C 581.585938 486.953125 584.355469 487.269531 587.121094 487.585938 C 592.578125 488.140625 598.113281 488.695312 603.652344 487.824219 C 606.578125 487.429688 609.421875 486.875 612.347656 486.796875 C 615.117188 486.71875 617.886719 486.796875 620.652344 486.953125 C 626.03125 487.191406 631.410156 487.429688 636.707031 486.402344 C 641.769531 485.453125 646.511719 483.554688 651.257812 481.8125 C 655.84375 480.074219 660.589844 478.808594 665.253906 477.226562 C 674.824219 474.0625 683.523438 469.160156 689.929688 461.253906 C 690.640625 461.410156 690.484375 460.621094 689.851562 460.699219 Z M 604.679688 178.773438 C 604.601562 178.773438 604.601562 178.695312 604.679688 178.773438 Z M 604.679688 178.773438 " fill-opacity="1" fill-rule="nonzero"/></g></svg>