<svg xmlns="http://www.w3.org/2000/svg" xmlns:xlink="http://www.w3.org/1999/xlink" width="1080" zoomAndPan="magnify" viewBox="0 0 810 1012.49997" height="1350" preserveAspectRatio="xMidYMid meet" version="1.0"><defs><clipPath id="45e8790cff"><path d="M 53.273438 117.589844 L 756.425781 117.589844 L 756.425781 581 L 53.273438 581 Z M 53.273438 117.589844 " clip-rule="nonzero"/></clipPath><clipPath id="e44268d974"><path d="M 167 638 L 640 638 L 640 664.820312 L 167 664.820312 Z M 167 638 " clip-rule="nonzero"/></clipPath></defs><g clip-path="url(#45e8790cff)"><path fill="#f09e32" d="M 715.398438 312.316406 C 692.589844 312.316406 674.089844 330.804688 674.089844 353.625 C 674.089844 368.351562 681.800781 381.28125 693.410156 388.589844 L 674.515625 407.484375 C 649.859375 432.144531 607.640625 416.125 605.539062 381.316406 L 600.890625 304.066406 C 600.890625 304.066406 600.910156 304.066406 600.921875 304.066406 C 623.730469 304.066406 642.230469 285.578125 642.230469 262.757812 C 642.230469 239.933594 623.742188 221.445312 600.921875 221.445312 C 578.101562 221.445312 559.613281 239.933594 559.613281 262.757812 C 559.613281 279.058594 569.0625 293.160156 582.785156 299.875 L 555.378906 341.273438 C 527.351562 383.613281 463.152344 376.402344 445.222656 328.902344 L 409.042969 233.109375 C 439.09375 231.039062 462.835938 206.019531 462.835938 175.433594 C 462.835938 144.84375 436.953125 117.589844 405.015625 117.589844 C 373.082031 117.589844 347.1875 143.488281 347.1875 175.421875 C 347.1875 205.617188 370.324219 230.382812 399.84375 233.011719 L 363.628906 328.890625 C 345.6875 376.390625 281.492188 383.601562 253.472656 341.261719 L 226.355469 300.292969 C 240.554688 293.761719 250.421875 279.417969 250.421875 262.757812 C 250.421875 239.945312 231.933594 221.445312 209.113281 221.445312 C 186.289062 221.445312 167.800781 239.933594 167.800781 262.757812 C 167.800781 285.578125 185.679688 303.421875 207.964844 304.035156 L 203.300781 381.316406 C 201.203125 416.125 158.984375 432.144531 134.324219 407.484375 L 115.890625 389.050781 C 127.902344 381.828125 135.945312 368.667969 135.945312 353.625 C 135.945312 330.816406 117.457031 312.316406 94.632812 312.316406 C 71.8125 312.316406 53.324219 330.816406 53.324219 353.625 C 53.324219 376.433594 71.8125 394.933594 94.632812 394.933594 C 97.632812 394.933594 100.554688 394.605469 103.363281 394.003906 L 156.589844 580.820312 C 265.160156 556.039062 404.425781 558.390625 404.425781 558.390625 C 404.425781 558.390625 543.683594 556.027344 652.265625 580.820312 L 705.566406 393.753906 C 708.714844 394.53125 712.007812 394.945312 715.410156 394.945312 C 738.222656 394.945312 756.722656 376.457031 756.722656 353.636719 C 756.722656 330.816406 738.230469 312.324219 715.410156 312.324219 Z M 715.398438 312.316406 " fill-opacity="1" fill-rule="nonzero"/></g><path fill="#f09e32" d="M 636.914062 623.289062 C 636.914062 614.316406 640.371094 606.15625 646.015625 600.050781 C 643.273438 598.007812 639.980469 596.59375 636.300781 596.113281 C 481.980469 575.960938 325.691406 575.949219 171.367188 596.113281 C 167.691406 596.59375 164.386719 598.007812 161.652344 600.050781 C 167.296875 606.15625 170.753906 614.316406 170.753906 623.289062 C 170.753906 627.542969 169.980469 631.613281 168.558594 635.367188 C 171.09375 636.054688 173.808594 636.265625 176.566406 635.902344 C 327.441406 616.199219 480.230469 616.199219 631.105469 635.902344 C 633.875 636.265625 636.574219 636.054688 639.113281 635.367188 C 637.691406 631.613281 636.914062 627.542969 636.914062 623.289062 Z M 636.914062 623.289062 " fill-opacity="1" fill-rule="nonzero"/><g clip-path="url(#e44268d974)"><path fill="#f09e32" d="M 639.277344 651.613281 C 639.277344 651.824219 639.183594 652.039062 638.992188 652.25 C 638.804688 652.460938 638.519531 652.675781 638.140625 652.886719 C 637.761719 653.097656 637.289062 653.308594 636.722656 653.519531 C 636.15625 653.726562 635.496094 653.9375 634.742188 654.144531 C 633.988281 654.355469 633.144531 654.5625 632.203125 654.769531 C 631.265625 654.972656 630.234375 655.179688 629.113281 655.382812 C 627.992188 655.585938 626.78125 655.789062 625.480469 655.988281 C 624.179688 656.1875 622.789062 656.386719 621.3125 656.582031 C 619.832031 656.777344 618.269531 656.972656 616.617188 657.164062 C 614.964844 657.355469 613.230469 657.546875 611.40625 657.734375 C 609.585938 657.921875 607.683594 658.105469 605.699219 658.289062 C 603.710938 658.472656 601.644531 658.652344 599.5 658.828125 C 597.351562 659.003906 595.128906 659.179688 592.828125 659.347656 C 590.527344 659.519531 588.152344 659.6875 585.703125 659.851562 C 583.25 660.015625 580.726562 660.175781 578.132812 660.332031 C 575.539062 660.492188 572.878906 660.644531 570.144531 660.796875 C 567.414062 660.945312 564.617188 661.09375 561.753906 661.234375 C 558.894531 661.378906 555.96875 661.515625 552.984375 661.652344 C 549.996094 661.785156 546.953125 661.917969 543.851562 662.042969 C 540.746094 662.167969 537.589844 662.292969 534.378906 662.410156 C 531.167969 662.527344 527.902344 662.640625 524.589844 662.75 C 521.277344 662.859375 517.917969 662.964844 514.511719 663.066406 C 511.101562 663.164062 507.652344 663.261719 504.160156 663.351562 C 500.671875 663.441406 497.140625 663.527344 493.570312 663.609375 C 490.003906 663.691406 486.398438 663.769531 482.761719 663.839844 C 479.125 663.910156 475.457031 663.976562 471.761719 664.039062 C 468.066406 664.101562 464.34375 664.15625 460.597656 664.210938 C 456.847656 664.261719 453.082031 664.308594 449.292969 664.347656 C 445.503906 664.390625 441.699219 664.425781 437.878906 664.457031 C 434.058594 664.488281 430.222656 664.515625 426.378906 664.535156 C 422.535156 664.558594 418.683594 664.574219 414.828125 664.582031 C 410.96875 664.59375 407.109375 664.597656 403.246094 664.597656 C 399.382812 664.597656 395.519531 664.59375 391.664062 664.582031 C 387.804688 664.574219 383.953125 664.558594 380.109375 664.535156 C 376.265625 664.515625 372.433594 664.488281 368.613281 664.457031 C 364.789062 664.425781 360.984375 664.390625 357.195312 664.347656 C 353.40625 664.308594 349.640625 664.261719 345.894531 664.210938 C 342.144531 664.15625 338.425781 664.101562 334.726562 664.039062 C 331.03125 663.976562 327.363281 663.910156 323.726562 663.839844 C 320.089844 663.769531 316.488281 663.691406 312.917969 663.609375 C 309.351562 663.527344 305.820312 663.441406 302.328125 663.351562 C 298.835938 663.261719 295.386719 663.164062 291.980469 663.066406 C 288.574219 662.964844 285.210938 662.859375 281.898438 662.75 C 278.585938 662.640625 275.324219 662.527344 272.113281 662.410156 C 268.898438 662.292969 265.742188 662.167969 262.640625 662.042969 C 259.535156 661.917969 256.492188 661.785156 253.507812 661.652344 C 250.519531 661.515625 247.597656 661.378906 244.734375 661.234375 C 241.871094 661.09375 239.074219 660.945312 236.34375 660.796875 C 233.613281 660.644531 230.949219 660.492188 228.355469 660.332031 C 225.761719 660.175781 223.238281 660.015625 220.789062 659.851562 C 218.335938 659.6875 215.960938 659.519531 213.660156 659.347656 C 211.359375 659.179688 209.136719 659.003906 206.988281 658.828125 C 204.84375 658.652344 202.777344 658.472656 200.792969 658.289062 C 198.804688 658.105469 196.902344 657.921875 195.082031 657.734375 C 193.261719 657.546875 191.523438 657.355469 189.871094 657.164062 C 188.222656 656.972656 186.65625 656.777344 185.179688 656.582031 C 183.699219 656.386719 182.308594 656.1875 181.007812 655.988281 C 179.707031 655.789062 178.496094 655.585938 177.375 655.382812 C 176.253906 655.179688 175.222656 654.972656 174.285156 654.769531 C 173.347656 654.5625 172.5 654.355469 171.746094 654.144531 C 170.992188 653.9375 170.332031 653.726562 169.765625 653.519531 C 169.199219 653.308594 168.726562 653.097656 168.347656 652.886719 C 167.96875 652.675781 167.683594 652.460938 167.496094 652.25 C 167.304688 652.039062 167.210938 651.824219 167.210938 651.613281 C 167.210938 651.398438 167.304688 651.1875 167.496094 650.976562 C 167.683594 650.761719 167.96875 650.550781 168.347656 650.339844 C 168.726562 650.128906 169.199219 649.917969 169.765625 649.707031 C 170.332031 649.496094 170.992188 649.289062 171.746094 649.078125 C 172.5 648.871094 173.347656 648.664062 174.285156 648.457031 C 175.222656 648.25 176.253906 648.046875 177.375 647.84375 C 178.496094 647.640625 179.707031 647.4375 181.007812 647.238281 C 182.308594 647.039062 183.699219 646.839844 185.179688 646.644531 C 186.65625 646.445312 188.222656 646.253906 189.871094 646.0625 C 191.523438 645.867188 193.261719 645.679688 195.082031 645.492188 C 196.902344 645.304688 198.804688 645.117188 200.792969 644.9375 C 202.777344 644.753906 204.84375 644.574219 206.988281 644.398438 C 209.136719 644.222656 211.359375 644.046875 213.660156 643.878906 C 215.960938 643.707031 218.335938 643.539062 220.789062 643.375 C 223.238281 643.210938 225.761719 643.050781 228.355469 642.890625 C 230.949219 642.734375 233.613281 642.582031 236.34375 642.429688 C 239.074219 642.28125 241.871094 642.132812 244.734375 641.992188 C 247.597656 641.847656 250.519531 641.710938 253.507812 641.574219 C 256.492188 641.441406 259.535156 641.308594 262.640625 641.183594 C 265.742188 641.054688 268.898438 640.933594 272.113281 640.816406 C 275.324219 640.699219 278.585938 640.582031 281.898438 640.472656 C 285.210938 640.363281 288.574219 640.261719 291.980469 640.160156 C 295.386719 640.058594 298.835938 639.964844 302.328125 639.875 C 305.820312 639.78125 309.351562 639.695312 312.917969 639.617188 C 316.488281 639.535156 320.089844 639.457031 323.726562 639.386719 C 327.363281 639.3125 331.03125 639.246094 334.726562 639.1875 C 338.425781 639.125 342.144531 639.066406 345.894531 639.015625 C 349.640625 638.964844 353.40625 638.917969 357.195312 638.875 C 360.984375 638.835938 364.789062 638.796875 368.613281 638.765625 C 372.433594 638.734375 376.265625 638.710938 380.109375 638.6875 C 383.953125 638.667969 387.804688 638.652344 391.664062 638.640625 C 395.519531 638.632812 399.382812 638.625 403.246094 638.625 C 407.109375 638.625 410.96875 638.632812 414.828125 638.640625 C 418.683594 638.652344 422.535156 638.667969 426.378906 638.6875 C 430.222656 638.710938 434.058594 638.734375 437.878906 638.765625 C 441.699219 638.796875 445.503906 638.835938 449.292969 638.875 C 453.082031 638.917969 456.847656 638.964844 460.597656 639.015625 C 464.34375 639.066406 468.066406 639.125 471.761719 639.1875 C 475.457031 639.246094 479.125 639.3125 482.761719 639.386719 C 486.398438 639.457031 490.003906 639.535156 493.570312 639.617188 C 497.140625 639.695312 500.671875 639.78125 504.160156 639.875 C 507.652344 639.964844 511.101562 640.058594 514.511719 640.160156 C 517.917969 640.261719 521.277344 640.363281 524.589844 640.472656 C 527.902344 640.582031 531.167969 640.699219 534.378906 640.816406 C 537.589844 640.933594 540.746094 641.054688 543.851562 641.183594 C 546.953125 641.308594 549.996094 641.441406 552.984375 641.574219 C 555.96875 641.710938 558.894531 641.847656 561.753906 641.992188 C 564.617188 642.132812 567.414062 642.28125 570.144531 642.429688 C 572.878906 642.582031 575.539062 642.734375 578.132812 642.890625 C 580.726562 643.050781 583.25 643.210938 585.703125 643.375 C 588.152344 643.539062 590.527344 643.707031 592.828125 643.878906 C 595.128906 644.046875 597.351562 644.222656 599.5 644.398438 C 601.644531 644.574219 603.710938 644.753906 605.699219 644.9375 C 607.683594 645.117188 609.585938 645.304688 611.40625 645.492188 C 613.230469 645.679688 614.964844 645.867188 616.617188 646.0625 C 618.269531 646.253906 619.832031 646.445312 621.3125 646.644531 C 622.789062 646.839844 624.179688 647.039062 625.480469 647.238281 C 626.78125 647.4375 627.992188 647.640625 629.113281 647.84375 C 630.234375 648.046875 631.265625 648.25 632.203125 648.457031 C 633.144531 648.664062 633.988281 648.871094 634.742188 649.078125 C 635.496094 649.289062 636.15625 649.496094 636.722656 649.707031 C 637.289062 649.917969 637.761719 650.128906 638.140625 650.339844 C 638.519531 650.550781 638.804688 650.761719 638.992188 650.976562 C 639.183594 651.1875 639.277344 651.398438 639.277344 651.613281 Z M 639.277344 651.613281 " fill-opacity="1" fill-rule="nonzero"/></g></svg>