<svg xmlns="http://www.w3.org/2000/svg" xmlns:xlink="http://www.w3.org/1999/xlink" width="1080" zoomAndPan="magnify" viewBox="0 0 810 1012.49997" height="1350" preserveAspectRatio="xMidYMid meet" version="1.0"><defs><clipPath id="eb62114bd3"><path d="M 238 210 L 674.867188 210 L 674.867188 619 L 238 619 Z M 238 210 " clip-rule="nonzero"/></clipPath><clipPath id="3cbbe53a23"><path d="M 265 209.105469 L 674 209.105469 L 674 646 L 265 646 Z M 265 209.105469 " clip-rule="nonzero"/></clipPath></defs><g clip-path="url(#eb62114bd3)"><path fill="#8ba0b0" d="M 674.9375 210.191406 L 266.414062 618.738281 L 238.128906 590.457031 L 496.660156 268.265625 L 674.9375 210.191406 " fill-opacity="1" fill-rule="nonzero"/></g><g clip-path="url(#3cbbe53a23)"><path fill="#687785" d="M 673.898438 209.140625 L 265.351562 617.691406 L 293.636719 645.949219 L 615.824219 387.417969 L 673.902344 209.128906 " fill-opacity="1" fill-rule="nonzero"/></g><path fill="#f79924" d="M 364.742188 717.070312 L 285.480469 598.609375 L 167.023438 519.347656 C 167.023438 519.347656 111.671875 537.613281 112.484375 591.609375 C 113.273438 645.609375 164.050781 636.746094 180.976562 619.824219 C 197.898438 602.875 168.082031 585.953125 168.082031 585.953125 C 205.15625 577.917969 248.40625 635.683594 248.40625 635.683594 C 248.40625 635.683594 306.175781 678.933594 298.113281 716.007812 C 298.113281 716.007812 281.214844 686.195312 264.292969 703.117188 C 247.371094 720.039062 238.484375 770.808594 292.480469 771.609375 C 346.476562 772.433594 364.742188 717.070312 364.742188 717.070312 " fill-opacity="1" fill-rule="nonzero"/><path fill="#f79924" d="M 271.292969 656.402344 L 262.902344 621.167969 L 227.6875 612.800781 C 227.6875 612.800781 196.765625 675.894531 140.390625 700.097656 L 162.191406 721.902344 L 183.992188 743.703125 C 208.199219 687.347656 271.292969 656.402344 271.292969 656.402344 " fill-opacity="1" fill-rule="nonzero"/><path fill="#f36c29" d="M 171.855469 783.132812 C 152.269531 802.71875 120.519531 802.71875 100.945312 783.132812 C 81.363281 763.570312 81.363281 731.824219 100.945312 712.238281 C 120.519531 692.652344 152.269531 692.652344 171.855469 712.238281 C 191.441406 731.824219 191.441406 763.570312 171.855469 783.132812 " fill-opacity="1" fill-rule="nonzero"/></svg>