<svg xmlns="http://www.w3.org/2000/svg" xmlns:xlink="http://www.w3.org/1999/xlink" width="1080" zoomAndPan="magnify" viewBox="0 0 810 1012.49997" height="1350" preserveAspectRatio="xMidYMid meet" version="1.0"><defs><clipPath id="33564f11eb"><path d="M 0.199219 470 L 809.800781 470 L 809.800781 632 L 0.199219 632 Z M 0.199219 470 " clip-rule="nonzero"/></clipPath><clipPath id="fe373c62ff"><path d="M 0.199219 496 L 809.800781 496 L 809.800781 658.503906 L 0.199219 658.503906 Z M 0.199219 496 " clip-rule="nonzero"/></clipPath><clipPath id="e8175268e7"><path d="M 0.199219 534 L 809.800781 534 L 809.800781 658.503906 L 0.199219 658.503906 Z M 0.199219 534 " clip-rule="nonzero"/></clipPath></defs><g clip-path="url(#33564f11eb)"><path fill="#c37231" d="M 0.757812 631.84375 L 809.339844 631.84375 L 809.339844 496.363281 C 809.339844 496.363281 705.398438 441.9375 572.625 490.554688 C 479.277344 524.738281 415.410156 515.5625 357.003906 489.585938 C 306.039062 466.921875 258.789062 479.605469 194.113281 503.136719 C 60.464844 551.761719 0.75 480.84375 0.75 481.847656 Z M 0.757812 631.84375 " fill-opacity="1" fill-rule="nonzero"/></g><g clip-path="url(#fe373c62ff)"><path fill="#d08244" d="M 809.335938 658.613281 L 0.75 658.613281 L 0.75 523.128906 C 0.75 523.128906 96.84375 487.324219 237.46875 517.324219 C 378.089844 547.324219 403.871094 541.515625 453.089844 516.355469 C 502.308594 491.195312 570.277344 485.390625 615.980469 529.90625 C 661.683594 574.417969 809.34375 508.613281 809.34375 508.613281 Z M 809.335938 658.613281 " fill-opacity="1" fill-rule="nonzero"/></g><g clip-path="url(#e8175268e7)"><path fill="#ab692e" d="M 272.761719 534.382812 L 190.617188 546.148438 L 110.507812 541.09375 L 27.277344 540.710938 L 112.058594 543.042969 L 180.957031 547.53125 L 128.855469 547.988281 L 0.75 553.292969 L 0.75 557.226562 L 126.777344 550.28125 L 144.746094 570.890625 L 0.75 594.167969 L 0.75 597.882812 L 152.886719 572.097656 L 233.714844 588.445312 L 109.308594 601.824219 L 0.75 604.578125 L 0.75 612.738281 L 46.699219 610.472656 L 0.75 621.285156 L 0.75 631.035156 L 75.28125 609.066406 L 120.160156 606.851562 L 260.144531 591.765625 L 268.101562 606.019531 L 386.628906 610.808594 C 366.910156 612.992188 340.46875 616.097656 316.429688 619.289062 C 276.027344 624.660156 4.070312 648.285156 0.75 648.574219 L 0.75 658.613281 L 138.375 641.023438 L 170.234375 658.613281 L 230.527344 658.613281 L 168.765625 639.960938 L 406.675781 613.269531 L 564.542969 658.613281 L 603.394531 658.613281 L 508.199219 631.28125 L 575.949219 623.3125 L 618.429688 614.90625 L 575.464844 620.472656 L 481.207031 623.535156 L 438.078125 611.152344 C 438.078125 611.152344 425.960938 607.597656 416.546875 607.800781 C 405.113281 607.460938 307.671875 604.414062 288.785156 599.050781 C 268.730469 593.351562 270.054688 573.316406 270.054688 573.316406 L 357.640625 575.132812 L 410.972656 580.742188 L 472.648438 575.726562 L 410.183594 576.382812 L 364 562.90625 L 370.578125 551.910156 L 418.652344 547.398438 L 442.894531 536.140625 C 461.6875 541.429688 489.242188 549.046875 498.105469 550.734375 L 521.390625 576.941406 L 486.195312 584.929688 C 486.195312 584.929688 474.789062 597.699219 473.398438 597.699219 C 472.007812 597.699219 442.335938 602.054688 442.335938 602.054688 L 481.925781 599.121094 L 491.839844 587.082031 L 539.949219 578.03125 L 510.578125 551.496094 C 535.242188 552.660156 597.636719 556.070312 597.636719 556.070312 L 663.960938 569.613281 L 755.296875 558.621094 L 809.339844 569.773438 L 809.339844 564.09375 L 753.566406 552.144531 L 666.019531 565.78125 L 609.804688 550.367188 C 609.804688 550.367188 509.800781 547.742188 505.746094 546.164062 C 502.519531 544.910156 463.796875 537.476562 447.535156 534.382812 L 436.683594 534.382812 C 438.5 534.898438 438.261719 534.832031 440.390625 535.433594 L 409.679688 545.519531 L 366.085938 546.957031 L 343.378906 556.695312 L 245.039062 567.980469 L 249.699219 573.066406 L 256.894531 585.953125 L 245.828125 587.144531 L 151.613281 568.425781 L 131.398438 550.027344 L 187.871094 550.933594 L 289.355469 534.382812 Z M 809.339844 539.992188 L 716.875 543.777344 C 716.875 543.777344 796.296875 542.304688 809.339844 542.132812 Z M 345.964844 562.539062 L 364.078125 567.164062 L 396.277344 576.5 L 353.398438 570.585938 L 277.085938 568.75 Z M 632.953125 579.054688 L 575.871094 582.023438 L 553.890625 584.789062 L 629.226562 582.136719 L 679.871094 584.203125 L 709.175781 580.585938 L 678.390625 582.542969 Z M 787.398438 591.539062 L 735.949219 602.070312 L 550.933594 598.910156 L 689.46875 604.832031 L 720.910156 627.683594 L 660.007812 658.613281 L 696.492188 658.613281 L 739.1875 627.195312 L 709.988281 605.707031 L 809.339844 609.957031 L 809.339844 603.320312 L 752.25 602.347656 Z M 787.398438 591.539062 " fill-opacity="1" fill-rule="nonzero"/></g></svg>