<svg xmlns="http://www.w3.org/2000/svg" xmlns:xlink="http://www.w3.org/1999/xlink" width="1080" zoomAndPan="magnify" viewBox="0 0 810 1012.49997" height="1350" preserveAspectRatio="xMidYMid meet" version="1.0"><defs><filter x="0%" y="0%" width="100%" height="100%" id="d42f954354"><feColorMatrix values="0 0 0 0 1 0 0 0 0 1 0 0 0 0 1 0 0 0 1 0" color-interpolation-filters="sRGB"/></filter><mask id="80b7f2bdc0"><g filter="url(#d42f954354)"><rect x="-81" width="972" fill="#000000" y="-101.249997" height="1214.999964" fill-opacity="0.1"/></g></mask><clipPath id="d8d94d903c"><path d="M 0.476562 0.292969 L 211 0.292969 L 211 163.890625 L 0.476562 163.890625 Z M 0.476562 0.292969 " clip-rule="nonzero"/></clipPath><clipPath id="b7f092ba2f"><rect x="0" width="212" y="0" height="164"/></clipPath><mask id="cddc3388d8"><g filter="url(#d42f954354)"><rect x="-81" width="972" fill="#000000" y="-101.249997" height="1214.999964" fill-opacity="0.1"/></g></mask><clipPath id="bd4827155a"><path d="M 0.71875 0.160156 L 110.585938 0.160156 L 110.585938 187 L 0.71875 187 Z M 0.71875 0.160156 " clip-rule="nonzero"/></clipPath><clipPath id="550b1be6e2"><rect x="0" width="111" y="0" height="188"/></clipPath><mask id="5c2e089f61"><g filter="url(#d42f954354)"><rect x="-81" width="972" fill="#000000" y="-101.249997" height="1214.999964" fill-opacity="0.1"/></g></mask><clipPath id="1f467e8072"><path d="M 0.773438 0.308594 L 128.632812 0.308594 L 128.632812 168.464844 L 0.773438 168.464844 Z M 0.773438 0.308594 " clip-rule="nonzero"/></clipPath><clipPath id="6c930c2f1b"><rect x="0" width="129" y="0" height="169"/></clipPath><mask id="cc860b0a99"><g filter="url(#d42f954354)"><rect x="-81" width="972" fill="#000000" y="-101.249997" height="1214.999964" fill-opacity="0.1"/></g></mask><clipPath id="566b758715"><path d="M 0.210938 0.71875 L 150 0.71875 L 150 111.78125 L 0.210938 111.78125 Z M 0.210938 0.71875 " clip-rule="nonzero"/></clipPath><clipPath id="fa7b0842bc"><rect x="0" width="151" y="0" height="112"/></clipPath><clipPath id="e55fbce69b"><path d="M 0.414062 0.558594 L 482.816406 0.558594 L 482.816406 83.558594 L 0.414062 83.558594 Z M 0.414062 0.558594 " clip-rule="nonzero"/></clipPath><clipPath id="dba8cf1172"><rect x="0" width="483" y="0" height="84"/></clipPath><mask id="54cd8b235e"><g filter="url(#d42f954354)"><rect x="-81" width="972" fill="#000000" y="-101.249997" height="1214.999964" fill-opacity="0.3"/></g></mask><clipPath id="a940482e4d"><path d="M 1 0.378906 L 205 0.378906 L 205 82.417969 L 1 82.417969 Z M 1 0.378906 " clip-rule="nonzero"/></clipPath><clipPath id="da9e1ea606"><rect x="0" width="206" y="0" height="83"/></clipPath><mask id="91e4a30dfb"><g filter="url(#d42f954354)"><rect x="-81" width="972" fill="#000000" y="-101.249997" height="1214.999964" fill-opacity="0.3"/></g></mask><clipPath id="2b29100b65"><path d="M 1 1 L 290 1 L 290 111.734375 L 1 111.734375 Z M 1 1 " clip-rule="nonzero"/></clipPath><clipPath id="6bcccdef36"><rect x="0" width="291" y="0" height="112"/></clipPath></defs><path fill="#b48b7d" d="M 123.015625 437.976562 C 163.253906 425.277344 203.492188 412.578125 243.730469 399.878906 C 250.871094 397.628906 258.230469 395.253906 263.882812 390.34375 C 272.105469 383.203125 275.304688 372.015625 278.023438 361.46875 C 291.679688 308.515625 303.339844 255.050781 312.96875 201.222656 C 312.96875 201.222656 453.730469 171.324219 453.730469 171.324219 C 464.605469 169.015625 478.242188 167.699219 484.628906 176.804688 C 487.28125 180.582031 488.015625 185.5 490.917969 189.085938 C 494.238281 193.183594 499.699219 194.746094 504.820312 196.011719 C 573.238281 212.878906 645.121094 215.570312 714.609375 203.855469 C 720.890625 202.796875 728.21875 201.917969 732.816406 206.320312 C 735.902344 209.273438 736.789062 213.789062 737.515625 217.996094 C 742.09375 244.511719 746.6875 271.53125 743.058594 298.195312 C 739.433594 324.859375 726.222656 351.601562 702.832031 364.902344 C 694.375 369.710938 683.78125 373.867188 681.300781 383.273438 C 680.164062 387.589844 681.085938 392.148438 681.980469 396.519531 C 694.84375 459.453125 700.894531 523.777344 699.996094 588.003906 C 540.546875 624.144531 376.679688 640.742188 213.222656 637.308594 C 180.09375 636.613281 146.886719 635.085938 114.214844 629.597656 C 95.136719 626.390625 74.863281 620.988281 62.578125 606.046875 C 42.054688 581.085938 65.402344 555.628906 79.023438 534.839844 C 98.53125 505.0625 113.4375 472.265625 123.015625 437.976562 Z M 123.015625 437.976562 " fill-opacity="1" fill-rule="nonzero"/><g mask="url(#80b7f2bdc0)"><g transform="matrix(1, 0, 0, 1, 491, 218)"><g clip-path="url(#b7f092ba2f)"><g clip-path="url(#d8d94d903c)"><path fill="#f0f2f4" d="M 176.15625 3.242188 C 186.109375 11.21875 196.0625 19.195312 206.015625 27.175781 C 207.933594 28.710938 209.972656 30.4375 210.515625 32.835938 C 210.972656 34.867188 210.25 36.964844 209.507812 38.914062 C 203.140625 55.628906 194.546875 71.492188 184.027344 85.960938 C 154.335938 73.21875 122.703125 65.003906 90.5625 61.683594 C 72.484375 93.636719 58.433594 127.867188 48.847656 163.308594 C 38.96875 147.191406 19.773438 137.269531 0.910156 138.539062 C 4.199219 124.269531 7.707031 110.054688 11.4375 95.898438 C 19.40625 65.667969 32.265625 20.339844 65.515625 8.257812 C 79.023438 3.351562 97.199219 5.773438 111.230469 5.324219 C 122.640625 4.957031 167.875 -3.394531 176.15625 3.242188 Z M 176.15625 3.242188 " fill-opacity="1" fill-rule="nonzero"/></g></g></g></g><g mask="url(#cddc3388d8)"><g transform="matrix(1, 0, 0, 1, 568, 322)"><g clip-path="url(#550b1be6e2)"><g clip-path="url(#bd4827155a)"><path fill="#f0f2f4" d="M 109.976562 21.304688 C 108.085938 32.074219 108.042969 43.167969 109.855469 53.949219 C 110.28125 56.476562 110.777344 59.214844 109.589844 61.484375 C 108.234375 64.078125 105.160156 65.175781 102.363281 66.046875 C 92.734375 69.054688 83.101562 72.0625 73.472656 75.070312 C 65.253906 112.414062 56.683594 149.679688 47.765625 186.859375 C 43.261719 162.085938 38.753906 137.3125 34.25 112.539062 C 23.117188 111.296875 11.800781 111.742188 0.800781 113.855469 C 7.261719 112.613281 10.425781 60.804688 10.816406 54.152344 C 11.703125 39.03125 8.398438 15.863281 22.636719 5.398438 C 41.355469 -8.363281 93.527344 10.4375 109.976562 21.304688 Z M 109.976562 21.304688 " fill-opacity="1" fill-rule="nonzero"/></g></g></g></g><g mask="url(#5c2e089f61)"><g transform="matrix(1, 0, 0, 1, 294, 188)"><g clip-path="url(#6c930c2f1b)"><g clip-path="url(#1f467e8072)"><path fill="#f0f2f4" d="M 44.789062 22.992188 C 40.351562 24.242188 35.640625 25.660156 32.667969 29.179688 C 30.210938 32.085938 29.335938 35.96875 28.539062 39.6875 C 19.355469 82.515625 10.175781 125.34375 0.996094 168.167969 C 13.179688 144.640625 25.359375 121.113281 37.542969 97.589844 C 45.058594 102.402344 55.191406 95.296875 58.253906 86.914062 C 61.320312 78.53125 60.335938 69.175781 62.703125 60.570312 C 66.742188 45.902344 79.363281 36.554688 92.078125 29.613281 C 101.648438 24.386719 124.058594 21.191406 127.664062 9.359375 C 132.972656 -8.042969 108.574219 5.03125 99.425781 7.609375 C 81.214844 12.738281 63 17.863281 44.789062 22.992188 Z M 44.789062 22.992188 " fill-opacity="1" fill-rule="nonzero"/></g></g></g></g><g mask="url(#cc860b0a99)"><g transform="matrix(1, 0, 0, 1, 142, 409)"><g clip-path="url(#fa7b0842bc)"><g clip-path="url(#566b758715)"><path fill="#f0f2f4" d="M 129.894531 0.890625 C 143.621094 36.019531 150.296875 73.890625 149.410156 111.597656 C 152.511719 102.96875 142.351562 94.757812 133.183594 94.570312 C 124.019531 94.386719 115.347656 98.757812 106.21875 99.578125 C 98.644531 85.859375 93.144531 70.996094 89.960938 55.652344 C 66.382812 54.808594 42.621094 59.503906 21.136719 69.257812 C 21.773438 58.230469 11.753906 47.765625 0.710938 47.925781 C 18.695312 47.925781 42.382812 32.371094 58.683594 24.777344 C 81.351562 14.222656 105.601562 6.699219 129.894531 0.890625 Z M 129.894531 0.890625 " fill-opacity="1" fill-rule="nonzero"/></g></g></g></g><path fill="#3a7ca6" d="M 789.015625 616.46875 C 789.015625 574.53125 617.25 540.53125 405.371094 540.53125 C 193.488281 540.53125 21.722656 574.53125 21.722656 616.46875 C 21.722656 658.410156 193.488281 692.40625 405.371094 692.40625 C 617.25 692.40625 789.015625 658.410156 789.015625 616.46875 Z M 789.015625 616.46875 " fill-opacity="1" fill-rule="nonzero"/><g transform="matrix(1, 0, 0, 1, 131, 567)"><g clip-path="url(#dba8cf1172)"><g clip-path="url(#e55fbce69b)"><path fill="#425986" d="M 379.039062 8.113281 C 370.554688 7.105469 363.617188 6.367188 357.4375 5.746094 C 351.257812 5.128906 345.839844 4.621094 340.375 4.15625 C 329.445312 3.257812 318.347656 2.441406 300.65625 1.78125 C 283.777344 1.035156 265.757812 0.738281 249.25 0.714844 C 241.417969 1.011719 227.574219 0.722656 218.3125 1.183594 C 218.3125 1.183594 214.714844 1.042969 214.714844 1.042969 C 211.519531 1.199219 207.777344 1.359375 204.5625 1.328125 C 204.5625 1.328125 204.761719 1.261719 204.761719 1.261719 C 199.996094 1.539062 194.613281 1.617188 192.246094 1.777344 C 192.246094 1.777344 192.445312 1.710938 192.445312 1.710938 C 192.445312 1.710938 186.652344 1.949219 186.652344 1.949219 C 186.652344 1.949219 187.644531 1.824219 187.644531 1.824219 C 179.332031 2.300781 170.769531 2.726562 163.21875 3.082031 C 163.21875 3.082031 163.859375 3.292969 163.859375 3.292969 C 155.785156 3.613281 150.28125 4.046875 144.980469 4.484375 C 139.675781 4.929688 134.574219 5.363281 127.292969 5.851562 C 127.292969 5.851562 127.484375 5.773438 127.484375 5.773438 C 118.332031 6.925781 111.074219 7.574219 103.75 8.304688 C 96.425781 9.042969 89.027344 9.867188 79.664062 11.582031 C 82 11.144531 78.640625 11.609375 78.820312 11.523438 C 70.164062 12.882812 60.960938 14.660156 60.917969 15.160156 C 54.644531 16.363281 55.785156 16.023438 54.933594 15.996094 C 55.007812 16.195312 49.585938 17.386719 44.738281 18.5625 C 44.738281 18.5625 46.957031 17.957031 46.957031 17.957031 C 42.3125 19.050781 37.6875 20.234375 33.105469 21.59375 C 34.042969 21.453125 34.984375 21.339844 35.921875 21.214844 C 34.085938 21.6875 33.046875 21.945312 32.410156 22.085938 C 31.773438 22.222656 31.535156 22.238281 31.308594 22.253906 C 30.859375 22.292969 30.449219 22.324219 26.996094 23.496094 C 26.996094 23.496094 27.1875 23.78125 27.1875 23.78125 C 22.1875 25.398438 18.246094 26.8125 14.410156 28.464844 C 12.5 29.320312 10.613281 30.234375 8.683594 31.398438 C 6.773438 32.574219 4.773438 33.976562 2.933594 36.15625 C 2.035156 37.335938 1.246094 38.71875 0.871094 40.316406 C 0.488281 41.90625 0.609375 43.65625 1.164062 45.167969 C 1.707031 46.6875 2.578125 48 3.566406 49.089844 C 4.550781 50.191406 5.628906 51.160156 6.765625 52 C 9.027344 53.707031 11.449219 55.070312 13.917969 56.28125 C 16.390625 57.484375 18.921875 58.53125 21.476562 59.488281 C 24.03125 60.453125 26.617188 61.3125 29.21875 62.109375 C 31.816406 62.917969 34.433594 63.640625 37.054688 64.335938 C 42.300781 65.707031 47.578125 66.90625 52.851562 67.988281 C 63.394531 70.140625 73.914062 71.851562 84.222656 73.339844 C 94.53125 74.820312 104.628906 76.089844 114.359375 77.238281 C 114.359375 77.238281 116.054688 77.664062 116.054688 77.664062 C 116.410156 77.886719 119.113281 78.015625 121.910156 78.148438 C 124.707031 78.273438 127.59375 78.402344 128.324219 78.628906 C 128.324219 78.628906 132.878906 78.855469 132.878906 78.855469 C 134.148438 79.023438 136.832031 79.316406 134.566406 79.210938 C 138.761719 79.570312 138.871094 79.511719 141.90625 79.636719 C 141.90625 79.636719 146.398438 80.191406 146.398438 80.191406 C 162.976562 81.535156 177.117188 81.828125 194.585938 82.503906 C 205.078125 83.082031 220.21875 83.433594 235.578125 83.410156 C 250.941406 83.402344 266.519531 83.015625 277.902344 82.605469 C 293.898438 81.933594 311.207031 81.433594 328.601562 80.535156 C 345.996094 79.632812 363.484375 78.3125 379.75 76.101562 C 380.28125 76.070312 381.230469 75.9375 382.042969 75.8125 C 382.449219 75.746094 382.824219 75.683594 383.09375 75.640625 C 383.359375 75.589844 383.527344 75.554688 383.519531 75.546875 C 393.460938 74.355469 403.382812 72.980469 413.265625 71.320312 C 413.265625 71.320312 413.828125 71.226562 414.855469 71.050781 C 415.878906 70.871094 417.367188 70.605469 419.226562 70.277344 C 422.933594 69.59375 428.105469 68.605469 433.941406 67.296875 C 439.773438 65.984375 446.265625 64.351562 452.597656 62.378906 C 458.917969 60.398438 465.089844 58.070312 470.167969 55.347656 C 472.703125 53.980469 474.96875 52.53125 476.785156 50.960938 C 478.605469 49.402344 479.964844 47.722656 480.703125 46.164062 C 480.792969 45.96875 480.894531 45.789062 480.964844 45.601562 C 481.03125 45.40625 481.09375 45.222656 481.152344 45.042969 C 481.210938 44.867188 481.265625 44.695312 481.320312 44.53125 C 481.347656 44.359375 481.378906 44.195312 481.40625 44.039062 C 481.449219 43.726562 481.523438 43.457031 481.511719 43.203125 C 481.511719 42.953125 481.507812 42.738281 481.5 42.5625 C 481.488281 42.195312 481.433594 42.019531 481.386719 41.964844 C 481.339844 41.910156 481.292969 41.996094 481.242188 42.234375 C 481.164062 42.484375 481.109375 42.898438 480.964844 43.453125 C 480.867188 43.730469 480.78125 44.046875 480.648438 44.390625 C 480.570312 44.558594 480.488281 44.734375 480.398438 44.921875 C 480.304688 45.105469 480.234375 45.3125 480.101562 45.496094 C 479.855469 45.878906 479.617188 46.3125 479.265625 46.722656 C 479.09375 46.929688 478.941406 47.167969 478.734375 47.375 C 478.535156 47.585938 478.328125 47.804688 478.113281 48.03125 C 477.210938 48.902344 476.117188 49.835938 474.746094 50.730469 C 469.300781 54.367188 460.105469 57.90625 446.789062 61.199219 C 446.789062 61.199219 447.476562 60.925781 447.476562 60.925781 C 439.597656 63.019531 433.082031 64.378906 427.183594 65.605469 C 421.273438 66.796875 415.988281 67.859375 410.457031 68.976562 C 409.535156 68.878906 406.21875 69.410156 402.644531 69.976562 C 399.070312 70.542969 395.242188 71.148438 393.335938 71.328125 C 393.335938 71.328125 393.6875 71.238281 393.6875 71.238281 C 383.835938 72.957031 373.238281 73.484375 363.6875 74.75 C 364.054688 74.671875 364.25 74.527344 366.453125 74.292969 C 359.480469 75.082031 349.921875 76 349.378906 75.753906 C 341.03125 76.488281 331.015625 77.199219 321.746094 77.765625 C 312.472656 78.347656 303.949219 78.8125 298.589844 79.25 C 298.589844 79.25 299.324219 79.144531 299.324219 79.144531 C 293.214844 79.695312 291.402344 79.496094 284.566406 79.867188 C 284.191406 79.84375 283.707031 79.839844 283.785156 79.820312 C 277.125 80.335938 264.320312 80.324219 258.925781 80.503906 C 258.925781 80.503906 258.574219 80.320312 258.574219 80.320312 C 254.148438 80.382812 249.71875 80.433594 245.289062 80.457031 C 245.289062 80.457031 250.253906 80.476562 250.253906 80.476562 C 248.535156 81.011719 240.207031 80.207031 230.570312 80.472656 C 221.558594 80.34375 212.265625 81.328125 202.898438 80.820312 C 198.425781 80.941406 206.84375 80.535156 200.164062 80.539062 C 199.953125 80.265625 203.285156 80.457031 201.574219 80.195312 C 195.015625 80.132812 190.835938 79.597656 182.75 79.449219 C 182.75 79.449219 182.429688 79.226562 182.429688 79.226562 C 171.875 79.164062 162.570312 77.980469 155.542969 77.898438 C 150.113281 77.632812 148.304688 77.347656 146.441406 77.085938 C 144.574219 76.828125 142.652344 76.597656 136.992188 76.351562 C 136.992188 76.351562 132.632812 75.710938 132.632812 75.710938 C 127.8125 75.242188 129.144531 75.765625 123.808594 75.132812 C 124.148438 74.996094 117.070312 74.339844 120.214844 74.472656 C 114.183594 73.746094 108.042969 73.191406 101.433594 72.476562 C 94.828125 71.757812 87.75 70.894531 79.882812 69.457031 C 76.394531 69.300781 68.488281 67.78125 65.898438 67.558594 C 65.699219 67.449219 61.734375 66.730469 58.949219 66.148438 C 57.554688 65.863281 56.453125 65.621094 56.257812 65.539062 C 56.0625 65.460938 56.769531 65.5625 59 65.910156 C 59.765625 66.03125 61.109375 66.296875 61.007812 66.339844 C 61.007812 66.339844 62.105469 66.332031 62.105469 66.332031 C 57.671875 65.300781 53.617188 64.523438 49.578125 63.722656 C 45.539062 62.921875 41.511719 62.09375 37.191406 60.882812 C 39.738281 61.652344 43.1875 62.488281 40.851562 62.050781 C 38.160156 61.34375 35.472656 60.617188 32.816406 59.808594 C 32.816406 59.808594 34.527344 60.132812 34.527344 60.132812 C 30.5625 58.957031 26.636719 57.664062 22.8125 56.179688 C 23.316406 56.445312 23.816406 56.71875 24.328125 56.976562 C 21.507812 55.882812 19.675781 55 17.765625 54.082031 C 15.878906 53.136719 13.882812 52.203125 11.003906 50.597656 C 9.726562 49.847656 10.808594 50.6875 11.640625 51.242188 C 12.046875 51.527344 12.375 51.753906 12.265625 51.710938 C 12.207031 51.695312 12.042969 51.605469 11.722656 51.425781 C 11.414062 51.234375 10.917969 50.984375 10.28125 50.550781 C 8.671875 49.445312 6.949219 48.058594 5.617188 46.339844 C 4.984375 45.476562 4.464844 44.53125 4.226562 43.5625 C 3.984375 42.589844 4.027344 41.601562 4.371094 40.621094 C 4.699219 39.640625 5.347656 38.671875 6.160156 37.785156 C 6.964844 36.890625 7.910156 36.050781 8.953125 35.300781 C 11.019531 33.78125 13.328125 32.507812 15.609375 31.40625 C 14.652344 31.617188 17.09375 30.382812 19.703125 29.25 C 19.703125 29.25 20.089844 29.320312 20.089844 29.320312 C 20.714844 29.050781 21.277344 28.808594 21.78125 28.59375 C 22.292969 28.390625 22.75 28.210938 23.160156 28.050781 C 23.976562 27.726562 24.609375 27.511719 25.113281 27.347656 C 26.121094 27.019531 26.609375 26.90625 27.101562 26.8125 C 28.089844 26.628906 29.03125 26.382812 34.222656 24.734375 C 34.222656 24.734375 33.34375 25.144531 33.34375 25.144531 C 34.21875 24.730469 35.105469 24.328125 35.992188 23.929688 C 40.6875 22.417969 42.023438 22.242188 43.464844 21.964844 C 44.917969 21.71875 46.484375 21.378906 51.789062 19.929688 C 47.554688 20.898438 49.683594 19.894531 54.945312 18.886719 C 54.945312 18.886719 53.660156 19.355469 53.660156 19.355469 C 56.550781 18.71875 57.503906 18.4375 59.449219 18.105469 C 57.742188 18.554688 58.589844 18.554688 62.863281 17.722656 C 62.863281 17.722656 60.042969 18.511719 60.042969 18.511719 C 62.710938 17.871094 65.390625 17.257812 68.074219 16.660156 C 74.375 15.753906 84.3125 14.007812 86.945312 13.945312 C 86.945312 13.945312 90.339844 13.5 94.121094 13.003906 C 97.90625 12.511719 102.078125 11.96875 103.621094 11.628906 C 100.910156 12.136719 108.417969 11.351562 106.308594 11.824219 C 108.058594 11.507812 111.53125 11.027344 115.097656 10.617188 C 118.664062 10.203125 122.316406 9.867188 124.417969 9.789062 C 124.417969 9.789062 123.628906 9.890625 123.628906 9.890625 C 131.367188 9.289062 137.976562 8.671875 144.390625 8.121094 C 150.804688 7.570312 157.027344 7.09375 163.992188 6.847656 C 163.34375 6.632812 170.703125 6.375 168.871094 6.160156 C 183.261719 5.089844 195.164062 5.667969 200.339844 4.554688 C 206.898438 4.316406 208.121094 4.585938 211.511719 4.554688 C 211.511719 4.554688 209.949219 4.640625 209.949219 4.640625 C 222.238281 4.3125 225.808594 4.28125 234.941406 4.246094 C 239.5 4.140625 240.214844 3.675781 248.386719 3.8125 C 245.746094 3.976562 249.082031 3.960938 252.140625 3.980469 C 250.1875 3.996094 249.582031 4.058594 253.59375 4.203125 C 254.160156 4.152344 255.03125 4.128906 255.847656 4.109375 C 255.882812 4.121094 256.042969 4.136719 255.960938 4.152344 C 261.0625 4.144531 260.175781 4.078125 257.804688 4.03125 C 257.925781 4.003906 257.726562 3.964844 256.996094 3.910156 C 262.285156 4.179688 271.753906 4.117188 272.386719 4.441406 C 280.054688 4.574219 286.628906 4.6875 292.882812 4.792969 C 299.136719 4.917969 305.070312 5.058594 311.445312 5.324219 C 312.871094 5.554688 309.882812 5.539062 306.179688 5.425781 C 306.179688 5.425781 315.226562 5.820312 315.226562 5.820312 C 315.136719 6.039062 310.023438 5.679688 307.238281 5.59375 C 317.984375 6.472656 329.453125 6.402344 342.03125 7.703125 C 342.03125 7.703125 344.660156 7.722656 344.660156 7.722656 C 344.660156 7.722656 345.410156 7.8125 345.410156 7.8125 C 345.378906 7.714844 348.214844 7.816406 350.085938 7.941406 C 351.847656 8.289062 349.921875 8.378906 356.15625 8.914062 C 361.066406 9.535156 370.15625 10.152344 376.601562 10.785156 C 373.136719 10.363281 374.269531 10.382812 375.769531 10.476562 C 378.878906 10.824219 380.644531 11.226562 383.054688 11.4375 C 383.054688 11.4375 383.320312 11.734375 383.320312 11.734375 C 382.132812 11.320312 391.460938 12.480469 392.617188 12.542969 C 394.359375 12.972656 387.785156 12.070312 386.992188 12.132812 C 393.214844 12.914062 394.761719 13.144531 396.316406 13.355469 C 397.867188 13.574219 399.421875 13.769531 405.617188 14.710938 C 412.253906 15.5625 404.457031 14.265625 407.652344 14.542969 C 413.492188 15.421875 419.210938 16.226562 425.832031 17.699219 C 425.832031 17.699219 423.769531 17.054688 423.769531 17.054688 C 429.238281 18.023438 433.585938 18.933594 437.460938 19.855469 C 441.335938 20.777344 444.742188 21.71875 448.304688 22.851562 C 458.300781 25.4375 465.902344 28.148438 471.371094 31.003906 C 474.109375 32.421875 476.292969 33.910156 477.941406 35.421875 C 479.585938 36.929688 480.671875 38.496094 481.199219 39.929688 C 481.320312 40.289062 481.410156 40.636719 481.507812 40.957031 C 481.59375 41.28125 481.613281 41.59375 481.660156 41.882812 C 481.679688 42.019531 481.707031 42.167969 481.71875 42.289062 C 481.726562 42.40625 481.738281 42.515625 481.746094 42.625 C 481.769531 42.835938 481.785156 43.03125 481.804688 43.203125 C 481.878906 43.894531 481.953125 44.265625 482.019531 44.375 C 482.152344 44.585938 482.273438 43.738281 482.378906 42.238281 C 482.375 42.007812 482.371094 41.765625 482.363281 41.507812 C 482.351562 41.253906 482.363281 40.980469 482.300781 40.710938 C 482.25 40.4375 482.195312 40.15625 482.140625 39.863281 C 482.082031 39.570312 481.964844 39.300781 481.871094 39.003906 C 481.695312 38.398438 481.375 37.855469 481.082031 37.257812 C 480.730469 36.726562 480.386719 36.125 479.953125 35.625 C 479.132812 34.546875 478.128906 33.625 477.113281 32.734375 C 476.074219 31.882812 474.996094 31.089844 473.929688 30.402344 C 471.796875 29.019531 469.746094 27.953125 468.238281 27.230469 C 467.488281 26.859375 466.871094 26.570312 466.441406 26.382812 C 466.011719 26.191406 465.773438 26.085938 465.773438 26.085938 C 461.960938 24.371094 458.292969 23.058594 454.769531 21.898438 C 451.246094 20.746094 447.859375 19.773438 444.554688 18.910156 C 437.941406 17.1875 431.664062 15.847656 425.171875 14.644531 C 418.683594 13.4375 411.976562 12.359375 404.480469 11.296875 C 396.988281 10.230469 388.703125 9.1875 379.039062 8.113281 Z M 379.039062 8.113281 " fill-opacity="1" fill-rule="nonzero"/></g></g></g><path fill="#425986" d="M 422.402344 596.734375 C 419.320312 596.371094 416.800781 596.101562 414.558594 595.875 C 412.316406 595.652344 410.347656 595.46875 408.363281 595.300781 C 404.394531 594.972656 400.363281 594.675781 393.9375 594.4375 C 387.808594 594.164062 381.265625 594.058594 375.269531 594.050781 C 372.425781 594.15625 367.398438 594.050781 364.035156 594.21875 C 364.035156 594.21875 362.730469 594.167969 362.730469 594.167969 C 361.570312 594.226562 360.210938 594.28125 359.042969 594.273438 C 359.042969 594.273438 359.117188 594.25 359.117188 594.25 C 357.386719 594.347656 355.429688 594.375 354.570312 594.433594 C 354.570312 594.433594 354.644531 594.410156 354.644531 594.410156 C 354.644531 594.410156 352.539062 594.496094 352.539062 594.496094 C 352.539062 594.496094 352.898438 594.453125 352.898438 594.453125 C 349.882812 594.625 346.773438 594.78125 344.03125 594.910156 C 344.03125 594.910156 344.261719 594.984375 344.261719 594.984375 C 341.332031 595.101562 339.332031 595.257812 337.40625 595.417969 C 335.480469 595.578125 333.628906 595.738281 330.984375 595.914062 C 330.984375 595.914062 331.054688 595.886719 331.054688 595.886719 C 327.730469 596.304688 325.09375 596.539062 322.433594 596.804688 C 319.773438 597.074219 317.089844 597.371094 313.6875 597.996094 C 314.535156 597.835938 313.316406 598.003906 313.382812 597.972656 C 310.238281 598.46875 306.894531 599.113281 306.878906 599.296875 C 304.601562 599.730469 305.015625 599.609375 304.707031 599.597656 C 304.734375 599.671875 302.765625 600.105469 301.003906 600.53125 C 301.003906 600.53125 301.808594 600.3125 301.808594 600.3125 C 300.125 600.707031 298.445312 601.136719 296.78125 601.632812 C 297.121094 601.578125 297.464844 601.539062 297.804688 601.492188 C 297.136719 601.664062 296.757812 601.757812 296.527344 601.808594 C 296.296875 601.859375 296.210938 601.863281 296.128906 601.871094 C 295.964844 601.886719 295.816406 601.898438 294.5625 602.320312 C 294.5625 602.320312 294.632812 602.425781 294.632812 602.425781 C 292.816406 603.011719 291.386719 603.527344 289.992188 604.125 C 289.296875 604.4375 288.613281 604.769531 287.914062 605.191406 C 287.21875 605.617188 286.492188 606.128906 285.824219 606.917969 C 285.496094 607.347656 285.210938 607.851562 285.074219 608.429688 C 284.933594 609.007812 284.980469 609.644531 285.179688 610.191406 C 285.378906 610.742188 285.695312 611.21875 286.054688 611.617188 C 286.410156 612.015625 286.800781 612.367188 287.214844 612.671875 C 288.035156 613.292969 288.917969 613.789062 289.8125 614.226562 C 290.710938 614.664062 291.628906 615.042969 292.558594 615.394531 C 293.484375 615.742188 294.425781 616.054688 295.367188 616.34375 C 296.3125 616.636719 297.261719 616.898438 298.214844 617.152344 C 300.121094 617.652344 302.035156 618.085938 303.949219 618.480469 C 307.78125 619.261719 311.601562 619.882812 315.34375 620.421875 C 319.085938 620.960938 322.753906 621.421875 326.289062 621.839844 C 326.289062 621.839844 326.902344 621.992188 326.902344 621.992188 C 327.03125 622.074219 328.015625 622.121094 329.027344 622.167969 C 330.042969 622.214844 331.09375 622.261719 331.359375 622.34375 C 331.359375 622.34375 333.011719 622.425781 333.011719 622.425781 C 333.472656 622.488281 334.449219 622.59375 333.625 622.554688 C 335.148438 622.683594 335.1875 622.664062 336.289062 622.707031 C 336.289062 622.707031 337.921875 622.910156 337.921875 622.910156 C 343.941406 623.398438 349.078125 623.503906 355.421875 623.75 C 359.230469 623.960938 364.730469 624.089844 370.308594 624.078125 C 375.886719 624.078125 381.542969 623.933594 385.675781 623.785156 C 391.484375 623.542969 397.769531 623.363281 404.085938 623.035156 C 410.402344 622.707031 416.753906 622.226562 422.660156 621.425781 C 422.855469 621.414062 423.199219 621.363281 423.496094 621.320312 C 423.640625 621.296875 423.777344 621.273438 423.875 621.257812 C 423.972656 621.238281 424.03125 621.226562 424.03125 621.222656 C 427.640625 620.789062 431.242188 620.292969 434.832031 619.6875 C 434.832031 619.6875 435.035156 619.65625 435.410156 619.589844 C 435.78125 619.527344 436.320312 619.429688 436.996094 619.308594 C 438.34375 619.0625 440.222656 618.703125 442.339844 618.226562 C 444.457031 617.75 446.816406 617.160156 449.113281 616.441406 C 451.410156 615.722656 453.652344 614.878906 455.496094 613.886719 C 456.414062 613.390625 457.238281 612.863281 457.898438 612.296875 C 458.558594 611.730469 459.054688 611.121094 459.320312 610.554688 C 459.355469 610.484375 459.390625 610.417969 459.417969 610.347656 C 459.441406 610.277344 459.464844 610.210938 459.484375 610.148438 C 459.503906 610.082031 459.527344 610.019531 459.542969 609.960938 C 459.554688 609.898438 459.566406 609.839844 459.578125 609.78125 C 459.589844 609.667969 459.617188 609.570312 459.613281 609.480469 C 459.613281 609.386719 459.613281 609.308594 459.609375 609.246094 C 459.605469 609.113281 459.585938 609.046875 459.570312 609.027344 C 459.554688 609.007812 459.535156 609.039062 459.515625 609.125 C 459.488281 609.21875 459.46875 609.367188 459.414062 609.570312 C 459.382812 609.667969 459.347656 609.785156 459.300781 609.910156 C 459.273438 609.972656 459.242188 610.035156 459.210938 610.101562 C 459.175781 610.167969 459.152344 610.242188 459.101562 610.3125 C 459.011719 610.449219 458.925781 610.609375 458.800781 610.757812 C 458.738281 610.832031 458.679688 610.917969 458.605469 610.992188 C 458.535156 611.070312 458.460938 611.148438 458.382812 611.230469 C 458.054688 611.546875 457.65625 611.886719 457.15625 612.210938 C 455.179688 613.53125 451.839844 614.816406 447.007812 616.011719 C 447.007812 616.011719 447.253906 615.914062 447.253906 615.914062 C 444.394531 616.675781 442.027344 617.167969 439.886719 617.613281 C 437.738281 618.046875 435.820312 618.433594 433.8125 618.835938 C 433.476562 618.800781 432.273438 618.996094 430.976562 619.199219 C 429.675781 619.40625 428.289062 619.625 427.59375 619.691406 C 427.59375 619.691406 427.722656 619.660156 427.722656 619.660156 C 424.144531 620.285156 420.296875 620.472656 416.828125 620.933594 C 416.960938 620.90625 417.03125 620.851562 417.832031 620.769531 C 415.300781 621.054688 411.828125 621.386719 411.632812 621.300781 C 408.601562 621.566406 404.964844 621.824219 401.597656 622.03125 C 398.230469 622.242188 395.136719 622.410156 393.1875 622.570312 C 393.1875 622.570312 393.453125 622.53125 393.453125 622.53125 C 391.238281 622.730469 390.578125 622.65625 388.097656 622.792969 C 387.960938 622.785156 387.785156 622.78125 387.8125 622.773438 C 385.394531 622.964844 380.742188 622.957031 378.785156 623.023438 C 378.785156 623.023438 378.65625 622.957031 378.65625 622.957031 C 377.050781 622.980469 375.441406 623 373.832031 623.007812 C 373.832031 623.007812 375.636719 623.015625 375.636719 623.015625 C 375.011719 623.207031 371.988281 622.914062 368.488281 623.011719 C 365.214844 622.964844 361.839844 623.324219 358.441406 623.140625 C 356.816406 623.183594 359.871094 623.035156 357.445312 623.035156 C 357.371094 622.9375 358.578125 623.007812 357.957031 622.910156 C 355.578125 622.890625 354.058594 622.695312 351.121094 622.640625 C 351.121094 622.640625 351.003906 622.558594 351.003906 622.558594 C 347.171875 622.539062 343.792969 622.105469 341.242188 622.078125 C 339.269531 621.980469 338.613281 621.878906 337.9375 621.78125 C 337.257812 621.6875 336.5625 621.605469 334.507812 621.515625 C 334.507812 621.515625 332.921875 621.28125 332.921875 621.28125 C 331.171875 621.113281 331.65625 621.304688 329.71875 621.074219 C 329.84375 621.023438 327.269531 620.785156 328.414062 620.835938 C 326.222656 620.570312 323.992188 620.367188 321.59375 620.109375 C 319.195312 619.847656 316.625 619.535156 313.769531 619.011719 C 312.5 618.957031 309.628906 618.402344 308.6875 618.324219 C 308.617188 618.285156 307.175781 618.023438 306.164062 617.808594 C 305.660156 617.707031 305.257812 617.617188 305.1875 617.589844 C 305.117188 617.5625 305.375 617.597656 306.183594 617.722656 C 306.460938 617.769531 306.949219 617.863281 306.914062 617.878906 C 306.914062 617.878906 307.3125 617.878906 307.3125 617.878906 C 305.699219 617.503906 304.230469 617.222656 302.761719 616.929688 C 301.296875 616.636719 299.832031 616.339844 298.265625 615.898438 C 299.1875 616.175781 300.441406 616.480469 299.59375 616.320312 C 298.617188 616.066406 297.640625 615.800781 296.675781 615.507812 C 296.675781 615.507812 297.296875 615.625 297.296875 615.625 C 295.855469 615.199219 294.433594 614.730469 293.042969 614.191406 C 293.226562 614.285156 293.40625 614.386719 293.59375 614.480469 C 292.570312 614.082031 291.902344 613.761719 291.210938 613.429688 C 290.523438 613.085938 289.800781 612.746094 288.753906 612.164062 C 288.289062 611.890625 288.683594 612.195312 288.984375 612.398438 C 289.132812 612.5 289.253906 612.582031 289.210938 612.566406 C 289.191406 612.5625 289.132812 612.53125 289.015625 612.464844 C 288.902344 612.394531 288.722656 612.304688 288.492188 612.144531 C 287.90625 611.746094 287.28125 611.242188 286.796875 610.617188 C 286.570312 610.304688 286.378906 609.960938 286.292969 609.609375 C 286.203125 609.257812 286.222656 608.898438 286.34375 608.542969 C 286.464844 608.183594 286.699219 607.832031 286.996094 607.511719 C 287.289062 607.1875 287.632812 606.882812 288.011719 606.609375 C 288.757812 606.058594 289.597656 605.59375 290.425781 605.195312 C 290.078125 605.269531 290.964844 604.824219 291.914062 604.410156 C 291.914062 604.410156 292.054688 604.4375 292.054688 604.4375 C 292.28125 604.339844 292.484375 604.25 292.667969 604.171875 C 292.855469 604.097656 293.019531 604.035156 293.167969 603.976562 C 293.464844 603.859375 293.695312 603.78125 293.878906 603.722656 C 294.242188 603.601562 294.421875 603.5625 294.601562 603.527344 C 294.957031 603.460938 295.300781 603.371094 297.1875 602.769531 C 297.1875 602.769531 296.867188 602.921875 296.867188 602.921875 C 297.183594 602.769531 297.507812 602.625 297.828125 602.480469 C 299.535156 601.929688 300.019531 601.867188 300.542969 601.765625 C 301.070312 601.675781 301.636719 601.550781 303.566406 601.027344 C 302.027344 601.378906 302.800781 601.011719 304.710938 600.648438 C 304.710938 600.648438 304.242188 600.820312 304.242188 600.820312 C 305.292969 600.585938 305.640625 600.484375 306.347656 600.363281 C 305.726562 600.527344 306.035156 600.527344 307.585938 600.226562 C 307.585938 600.226562 306.5625 600.511719 306.5625 600.511719 C 307.53125 600.277344 308.503906 600.054688 309.480469 599.839844 C 311.765625 599.511719 315.375 598.875 316.332031 598.851562 C 316.332031 598.851562 317.5625 598.691406 318.9375 598.511719 C 320.3125 598.332031 321.828125 598.136719 322.386719 598.011719 C 321.402344 598.195312 324.128906 597.910156 323.363281 598.082031 C 324 597.96875 325.261719 597.792969 326.554688 597.644531 C 327.851562 597.492188 329.175781 597.371094 329.941406 597.34375 C 329.941406 597.34375 329.652344 597.382812 329.652344 597.382812 C 332.464844 597.164062 334.863281 596.9375 337.191406 596.738281 C 339.523438 596.539062 341.78125 596.367188 344.3125 596.277344 C 344.074219 596.199219 346.746094 596.105469 346.082031 596.027344 C 351.308594 595.636719 355.628906 595.847656 357.507812 595.445312 C 359.890625 595.359375 360.335938 595.453125 361.566406 595.441406 C 361.566406 595.441406 361 595.472656 361 595.472656 C 365.460938 595.355469 366.757812 595.34375 370.074219 595.332031 C 371.730469 595.292969 371.992188 595.125 374.957031 595.175781 C 374 595.234375 375.210938 595.226562 376.320312 595.234375 C 375.609375 595.242188 375.390625 595.261719 376.847656 595.316406 C 377.054688 595.296875 377.371094 595.289062 377.667969 595.28125 C 377.679688 595.285156 377.738281 595.292969 377.707031 595.296875 C 379.558594 595.292969 379.238281 595.269531 378.378906 595.253906 C 378.421875 595.242188 378.347656 595.230469 378.082031 595.210938 C 380.003906 595.308594 383.441406 595.285156 383.671875 595.402344 C 386.457031 595.449219 388.84375 595.492188 391.117188 595.53125 C 393.386719 595.574219 395.542969 595.625 397.855469 595.722656 C 398.375 595.804688 397.289062 595.800781 395.945312 595.761719 C 395.945312 595.761719 399.230469 595.902344 399.230469 595.902344 C 399.199219 595.980469 397.339844 595.851562 396.328125 595.820312 C 400.230469 596.140625 404.394531 596.113281 408.964844 596.585938 C 408.964844 596.585938 409.917969 596.59375 409.917969 596.59375 C 409.917969 596.59375 410.191406 596.625 410.191406 596.625 C 410.179688 596.589844 411.210938 596.628906 411.886719 596.671875 C 412.527344 596.800781 411.828125 596.832031 414.09375 597.027344 C 415.875 597.253906 419.175781 597.476562 421.519531 597.707031 C 420.257812 597.550781 420.671875 597.558594 421.214844 597.59375 C 422.34375 597.71875 422.988281 597.867188 423.859375 597.941406 C 423.859375 597.941406 423.957031 598.050781 423.957031 598.050781 C 423.527344 597.902344 426.914062 598.320312 427.335938 598.34375 C 427.964844 598.5 425.578125 598.171875 425.289062 598.195312 C 427.550781 598.480469 428.113281 598.5625 428.675781 598.640625 C 429.238281 598.71875 429.804688 598.789062 432.054688 599.132812 C 434.464844 599.441406 431.632812 598.96875 432.792969 599.070312 C 434.914062 599.390625 436.992188 599.683594 439.394531 600.214844 C 439.394531 600.214844 438.648438 599.984375 438.648438 599.984375 C 440.632812 600.335938 442.210938 600.664062 443.617188 601 C 445.027344 601.335938 446.261719 601.675781 447.554688 602.089844 C 451.1875 603.027344 453.945312 604.011719 455.933594 605.050781 C 456.925781 605.5625 457.71875 606.105469 458.316406 606.652344 C 458.914062 607.199219 459.308594 607.769531 459.5 608.289062 C 459.546875 608.417969 459.578125 608.546875 459.613281 608.664062 C 459.644531 608.78125 459.652344 608.894531 459.667969 609 C 459.675781 609.050781 459.683594 609.101562 459.6875 609.144531 C 459.691406 609.1875 459.695312 609.230469 459.699219 609.269531 C 459.707031 609.34375 459.714844 609.414062 459.722656 609.476562 C 459.75 609.730469 459.773438 609.863281 459.800781 609.902344 C 459.847656 609.980469 459.890625 609.671875 459.929688 609.128906 C 459.929688 609.042969 459.925781 608.957031 459.925781 608.863281 C 459.921875 608.769531 459.921875 608.671875 459.902344 608.574219 C 459.882812 608.476562 459.863281 608.371094 459.84375 608.265625 C 459.824219 608.160156 459.78125 608.0625 459.746094 607.953125 C 459.679688 607.734375 459.566406 607.535156 459.457031 607.320312 C 459.332031 607.125 459.207031 606.910156 459.046875 606.726562 C 458.75 606.335938 458.386719 606 458.015625 605.675781 C 457.640625 605.367188 457.25 605.078125 456.859375 604.832031 C 456.085938 604.328125 455.34375 603.941406 454.796875 603.679688 C 454.523438 603.542969 454.296875 603.4375 454.140625 603.371094 C 453.984375 603.300781 453.898438 603.261719 453.898438 603.261719 C 452.515625 602.640625 451.183594 602.164062 449.902344 601.742188 C 448.625 601.324219 447.394531 600.96875 446.195312 600.65625 C 443.792969 600.03125 441.511719 599.542969 439.15625 599.105469 C 436.796875 598.667969 434.363281 598.277344 431.640625 597.890625 C 428.921875 597.503906 425.914062 597.125 422.402344 596.734375 Z M 422.402344 596.734375 " fill-opacity="1" fill-rule="nonzero"/><path fill="#b48b7d" d="M 154.835938 579.046875 C 159.90625 576.871094 164.863281 574.300781 170.226562 573.007812 C 174.78125 571.914062 179.5 571.765625 184.164062 571.335938 C 199.964844 569.867188 215.445312 565 229.242188 557.160156 C 234.933594 553.929688 241.023438 548.847656 240.320312 542.335938 C 239.835938 537.847656 236.160156 534.378906 232.324219 532 C 220.265625 524.519531 205.230469 523.890625 191.074219 524.839844 C 150.71875 527.550781 111.273438 541.679688 78.140625 564.820312 C 73.578125 568.007812 56.460938 577.519531 58.082031 583.820312 C 59.839844 590.65625 82.609375 589.273438 87.863281 589.453125 C 110.59375 590.222656 133.742188 588.097656 154.835938 579.046875 Z M 154.835938 579.046875 " fill-opacity="1" fill-rule="nonzero"/><path fill="#b48b7d" d="M 579.523438 568.347656 C 599.378906 573.039062 615.808594 588.917969 636.132812 590.699219 C 645.746094 591.542969 655.3125 589.101562 664.65625 586.679688 C 672.511719 584.644531 680.367188 582.609375 688.21875 580.574219 C 694.09375 579.050781 701.335938 575.746094 700.871094 569.695312 C 700.558594 565.671875 696.789062 562.925781 693.347656 560.816406 C 637.652344 526.710938 572.054688 509.445312 506.835938 510.351562 C 483.429688 510.679688 440.019531 508.039062 429.472656 535.40625 C 419.058594 562.433594 456.050781 581.347656 477.996094 583.265625 C 512.738281 586.304688 544.574219 560.085938 579.523438 568.347656 Z M 579.523438 568.347656 " fill-opacity="1" fill-rule="nonzero"/><path fill="#81c4d7" d="M 490.863281 189.085938 C 490.863281 189.085938 382.375 176.660156 344.40625 352.265625 C 306.4375 527.875 301.691406 589.597656 301.691406 589.597656 C 301.691406 589.597656 442.492188 599.066406 442.492188 599.066406 C 442.492188 599.066406 421.148438 278.757812 553.636719 205.558594 C 553.636719 205.558594 547.144531 185.691406 490.863281 189.085938 Z M 490.863281 189.085938 " fill-opacity="1" fill-rule="nonzero"/><path fill="#f0f2f4" d="M 553.636719 205.5625 C 553.636719 205.5625 547.144531 185.691406 490.863281 189.085938 C 490.863281 189.085938 382.375 176.660156 344.40625 352.269531 C 329.996094 418.917969 320.375 469.148438 313.976562 505.839844 C 314.28125 510.304688 314.84375 514.75 315.777344 519.152344 C 328.699219 454.824219 345.371094 391.25 365.675781 328.855469 C 368.652344 319.707031 371.902344 310.253906 378.59375 303.335938 C 377.496094 313.605469 376.394531 323.875 375.300781 334.144531 C 377.738281 327.410156 381.972656 321.339844 387.445312 316.726562 C 384.632812 319.546875 389.164062 322.957031 393.125 323.394531 C 400.894531 324.25 413.535156 304.253906 415.226562 300.644531 C 428.285156 272.824219 436.695312 265.515625 454.152344 240.15625 C 454.011719 264.496094 440.566406 286.410156 430.238281 308.453125 C 414.417969 342.222656 405.269531 379.101562 403.472656 416.347656 C 416.164062 357.699219 444.414062 301.605469 472.910156 258.894531 C 475.664062 270.519531 467.4375 281.882812 462.6875 292.84375 C 448.570312 325.449219 437.734375 360.375 440.765625 395.777344 C 444.277344 353.128906 461.761719 312.042969 488.941406 279.035156 C 504.8125 247.160156 525.839844 220.917969 553.636719 205.5625 Z M 553.636719 205.5625 " fill-opacity="1" fill-rule="nonzero"/><path fill="#f0f2f4" d="M 264.714844 587.457031 C 277.027344 580.664062 293.183594 581.566406 304.667969 589.683594 C 313.738281 581.125 325.289062 575.226562 337.539062 572.890625 C 346.683594 571.144531 359.101562 573.753906 360.1875 583 C 369.328125 575.082031 385.390625 577.550781 391.726562 587.855469 C 410.496094 575.851562 431.25 566.953125 452.886719 561.640625 C 454.972656 561.125 457.335938 560.6875 459.140625 561.859375 C 461.785156 563.574219 461.535156 567.496094 460.699219 570.539062 C 458.300781 579.289062 453.636719 587.414062 447.289062 593.898438 C 454.710938 591.847656 462.917969 592.785156 469.6875 596.457031 C 467.457031 604.660156 458.175781 608.625 449.808594 610.128906 C 437.375 612.363281 424.425781 611.675781 412.300781 608.136719 C 410.59375 607.640625 408.785156 607.082031 407.066406 607.546875 C 405.171875 608.058594 403.835938 609.679688 402.390625 611.007812 C 396.667969 616.273438 388.363281 617.359375 380.628906 618.195312 C 369.777344 619.371094 355.390625 618.285156 352.636719 607.722656 C 341.082031 616.554688 323.257812 615.859375 312.429688 606.148438 C 311.574219 605.386719 291.183594 607.53125 286.480469 605.472656 C 279.035156 602.214844 269.78125 593.578125 264.714844 587.457031 Z M 264.714844 587.457031 " fill-opacity="1" fill-rule="nonzero"/><path stroke-linecap="round" transform="matrix(0.559365, 0, 0, 0.559365, 406.208386, 429.970406)" fill="none" stroke-linejoin="miter" d="M -5.379612 -233.352057 C -22.146669 -197.841653 -38.396956 -153.602044 -51.791047 -98.817556 " stroke="#f0f2f4" stroke-width="7" stroke-opacity="1" stroke-miterlimit="4"/><path stroke-linecap="round" transform="matrix(0.559365, 0, 0, 0.559365, 445.363935, 428.851671)" fill="none" stroke-linejoin="miter" d="M -94.353396 95.706805 C -104.723691 159.241447 -111.225202 205.624949 -115.24762 237.657638 " stroke="#f0f2f4" stroke-width="7" stroke-opacity="1" stroke-miterlimit="4"/><path stroke-linecap="round" transform="matrix(0.559365, 0, 0, 0.559365, 473.332202, 422.139306)" fill="none" stroke-linejoin="miter" d="M 72.940928 -352.867007 C 50.880482 -337.161422 17.081002 -304.339613 -11.774256 -239.108013 " stroke="#f0f2f4" stroke-width="7" stroke-opacity="1" stroke-miterlimit="4"/><path stroke-linecap="round" transform="matrix(0.559365, 0, 0, 0.559365, 456.551266, 422.139306)" fill="none" stroke-linejoin="miter" d="M -65.092799 -14.006269 C -74.150222 41.574322 -81.482754 89.291645 -87.404646 129.676437 " stroke="#f0f2f4" stroke-width="7" stroke-opacity="1" stroke-miterlimit="4"/><path stroke-linecap="round" transform="matrix(0.559365, 0, 0, 0.559365, 425.226817, 422.139306)" fill="none" stroke-linejoin="miter" d="M 96.502647 -366.002714 C 96.502647 -366.002714 48.813257 -349.989861 2.974458 -258.053879 " stroke="#f0f2f4" stroke-width="7" stroke-opacity="1" stroke-miterlimit="4"/><path stroke-linecap="round" transform="matrix(0.559365, 0, 0, 0.559365, 393.902359, 422.139306)" fill="none" stroke-linejoin="miter" d="M -117.564953 186.667668 C -130.875245 262.402247 -134.49961 298.003434 -134.49961 298.003434 M 96.503075 -366.002714 C 96.503075 -366.002714 86.349265 -362.287564 70.483063 -348.635088 " stroke="#f0f2f4" stroke-width="7" stroke-opacity="1" stroke-miterlimit="4"/><g mask="url(#54cd8b235e)"><g transform="matrix(1, 0, 0, 1, 254, 530)"><g clip-path="url(#da9e1ea606)"><g clip-path="url(#a940482e4d)"><path fill="#f0f2f4" d="M 17.386719 65.695312 C 17.332031 62.203125 23.171875 60.742188 24.769531 63.847656 C 19.699219 66.179688 13.9375 68.011719 8.609375 66.355469 C 3.285156 64.695312 -0.722656 58.160156 2.074219 53.335938 C 4.949219 48.382812 12.046875 48.578125 17.21875 46.121094 C 18.0625 45.722656 18.90625 45.199219 19.339844 44.371094 C 19.980469 43.140625 19.53125 41.65625 19.265625 40.292969 C 18.257812 35.125 20.40625 29.46875 24.59375 26.273438 C 28.78125 23.082031 34.804688 22.503906 39.523438 24.839844 C 42.472656 16.714844 53.199219 14.652344 61.710938 16.171875 C 70.21875 17.695312 78.640625 21.476562 87.167969 20.054688 C 90.238281 19.542969 93.273438 18.351562 96.367188 18.71875 C 99.460938 19.082031 102.605469 21.902344 101.777344 24.902344 C 112.808594 18.714844 127.367188 19.460938 137.707031 26.746094 C 140.832031 16.960938 147.667969 8.410156 156.523438 3.203125 C 159.035156 1.722656 161.902344 0.476562 164.78125 0.929688 C 167.660156 1.378906 170.316406 4.167969 169.644531 7.003906 C 172.414062 2.707031 179.691406 4.261719 182.429688 8.574219 C 185.167969 12.890625 184.730469 18.417969 184.175781 23.5 C 193.761719 23.949219 201.800781 33.773438 200.34375 43.257812 C 205.847656 45.386719 206.621094 54.421875 201.558594 57.453125 C 205.292969 59.996094 204.527344 66.167969 201.21875 69.246094 C 197.90625 72.320312 193.136719 73.109375 188.660156 73.707031 C 167.660156 76.496094 146.492188 77.976562 125.308594 78.132812 C 123.339844 80.527344 119.957031 81.101562 116.871094 81.40625 C 98.277344 83.257812 80.261719 80.816406 62.375 75.777344 C 47.457031 71.574219 31.902344 71.652344 17.386719 65.695312 Z M 17.386719 65.695312 " fill-opacity="1" fill-rule="nonzero"/></g></g></g></g><g mask="url(#91e4a30dfb)"><g transform="matrix(1, 0, 0, 1, 221, 511)"><g clip-path="url(#6bcccdef36)"><g clip-path="url(#2b29100b65)"><path fill="#f0f2f4" d="M 225.273438 1.332031 C 213.667969 -0.410156 213.667969 23.378906 213.667969 23.378906 C 213.667969 23.378906 207.285156 19.898438 200.902344 18.15625 C 194.523438 16.417969 181.175781 28.601562 181.175781 28.601562 C 181.175781 28.601562 176.535156 14.675781 161.453125 14.675781 C 146.367188 14.675781 142.304688 28.019531 142.304688 28.019531 C 142.304688 28.019531 135.34375 10.035156 124.320312 7.132812 C 113.296875 4.230469 100.53125 10.613281 100.53125 10.613281 C 100.53125 10.613281 97.050781 2.492188 76.164062 3.070312 C 55.277344 3.652344 44.832031 28.019531 44.832031 28.019531 C 44.832031 28.019531 34.96875 28.601562 19.304688 40.203125 C 3.640625 51.808594 21.625 67.472656 8.28125 71.535156 C -5.0625 75.597656 3.640625 88.941406 5.960938 93.582031 C 8.28125 98.222656 33.808594 96.484375 48.3125 95.902344 C 62.820312 95.324219 69.78125 101.125 103.433594 108.667969 C 137.082031 116.210938 174.214844 105.1875 174.214844 105.1875 C 174.214844 105.1875 201.484375 104.027344 220.628906 102.863281 C 239.777344 101.703125 253.121094 94.742188 253.121094 94.742188 C 253.121094 94.742188 275.75 93.582031 280.390625 87.78125 C 285.03125 81.976562 278.070312 67.472656 278.070312 67.472656 C 278.070312 67.472656 291.414062 62.832031 289.671875 54.128906 C 287.933594 45.425781 275.167969 44.847656 275.167969 44.847656 C 275.167969 44.847656 279.230469 30.339844 269.367188 23.378906 C 259.503906 16.417969 247.320312 22.796875 249.058594 21.058594 C 250.800781 19.316406 236.875 3.070312 225.273438 1.332031 Z M 225.273438 1.332031 " fill-opacity="1" fill-rule="nonzero"/></g></g></g></g></svg>