<svg xmlns="http://www.w3.org/2000/svg" xmlns:xlink="http://www.w3.org/1999/xlink" width="1080" zoomAndPan="magnify" viewBox="0 0 810 1012.49997" height="1350" preserveAspectRatio="xMidYMid meet" version="1.0"><path fill="#98d832" d="M 149.574219 550.09375 C 149.574219 550.09375 101.136719 540.460938 108.621094 481.613281 C 116.109375 422.761719 208.398438 416.796875 212.066406 419.855469 C 215.734375 422.761719 205.34375 348.316406 290.910156 327.527344 C 376.476562 306.738281 421.089844 359.476562 421.089844 359.476562 C 421.089844 359.476562 469.527344 271.582031 559.523438 309.644531 C 649.523438 347.554688 623.546875 429.484375 623.546875 429.484375 C 623.546875 429.484375 650.285156 419.089844 671.984375 457 C 693.527344 494.910156 674.886719 510.65625 674.886719 510.65625 C 674.886719 510.65625 712.78125 537.40625 703.917969 572.410156 C 695.054688 607.414062 649.523438 597.785156 622.019531 585.863281 C 594.515625 573.785156 217.261719 507.597656 149.574219 550.09375 Z M 149.574219 550.09375 " fill-opacity="1" fill-rule="nonzero"/><path fill="#85c125" d="M 273.796875 581.277344 C 273.796875 581.277344 131.695312 602.066406 114.582031 574.550781 C 97.46875 547.035156 131.695312 534.347656 131.695312 534.347656 C 131.695312 534.347656 128.792969 515.699219 146.515625 503.011719 C 164.242188 490.324219 185.9375 506.679688 185.9375 506.679688 C 185.9375 506.679688 200.757812 470.910156 244.765625 484.363281 C 288.769531 497.96875 273.796875 581.277344 273.796875 581.277344 Z M 273.796875 581.277344 " fill-opacity="1" fill-rule="nonzero"/><path fill="#628e1b" d="M 279.753906 582.804688 C 279.753906 582.804688 201.675781 525.484375 255.917969 460.667969 C 310.3125 395.855469 362.265625 461.433594 362.265625 461.433594 C 362.265625 461.433594 366.695312 392.1875 443.398438 397.386719 C 520.105469 402.582031 498.40625 473.355469 498.40625 473.355469 C 498.40625 473.355469 556.46875 434.683594 611.476562 476.261719 C 666.484375 517.992188 632.257812 582.652344 625.6875 584.945312 C 618.960938 587.238281 579.542969 579.746094 562.429688 586.472656 C 545.316406 593.199219 448.59375 604.359375 414.367188 599.160156 C 380.140625 593.964844 374.945312 582.039062 368.222656 581.277344 C 361.652344 580.511719 308.785156 598.398438 279.753906 582.804688 Z M 279.753906 582.804688 " fill-opacity="1" fill-rule="nonzero"/></svg>