<svg xmlns="http://www.w3.org/2000/svg" xmlns:xlink="http://www.w3.org/1999/xlink" width="1080" zoomAndPan="magnify" viewBox="0 0 810 1012.49997" height="1350" preserveAspectRatio="xMidYMid meet" version="1.0"><path fill="#5dcae9" d="M 710.15625 725.675781 C 707.09375 726.933594 703.664062 725.84375 701.679688 723.195312 C 700.503906 721.640625 698.53125 720.214844 695.238281 719.820312 C 655.480469 715.035156 535.164062 703.980469 523.9375 652.679688 C 511.367188 595.136719 384.808594 583.75 338.941406 560.53125 C 295.210938 538.386719 281.546875 494.367188 300.773438 433.101562 C 301.832031 429.691406 300.671875 426.183594 298.15625 424.050781 C 296.683594 422.808594 294.777344 422.210938 292.839844 422.195312 L 279.976562 421.996094 L 280.007812 421.996094 C 243.480469 424.777344 206.917969 422.957031 175.621094 418.289062 C 166.449219 416.917969 156.199219 414.335938 151.609375 406.292969 C 149.574219 402.71875 148.894531 398.382812 146.230469 395.253906 C 142.320312 390.621094 135.515625 390.039062 129.457031 389.890625 C 101.355469 389.210938 73.207031 390.488281 45.289062 393.730469 C 40.285156 389.792969 34.707031 380.972656 39.375 376.636719 C 43.582031 372.746094 54.941406 371.570312 61.78125 370.710938 C 73.585938 369.222656 92.976562 368.09375 104.882812 368.144531 C 133 368.226562 142.902344 366.523438 161.199219 374.5 C 169.992188 378.339844 168.699219 389.046875 177.195312 393.5 C 184.101562 397.105469 192.097656 397.933594 199.878906 398.480469 C 254.90625 402.386719 329.304688 402.5 369.9375 379.066406 C 373.648438 376.933594 375.402344 372.515625 374.210938 368.410156 L 374.113281 368.046875 L 424.863281 372.730469 L 420.460938 377.214844 C 404.613281 389.179688 385.851562 398.445312 365.46875 405.429688 L 365.484375 405.429688 C 365.484375 405.429688 353.179688 412.976562 348.695312 419.828125 C 330.363281 447.878906 299.28125 518.332031 365.320312 542.34375 C 447.46875 572.214844 544.667969 590.550781 551.953125 634.65625 C 558.757812 675.796875 694.707031 690.425781 756.917969 686.570312 C 809.855469 683.261719 733.949219 715.878906 710.15625 725.675781 Z M 710.15625 725.675781 " fill-opacity="1" fill-rule="nonzero"/></svg>