<svg xmlns="http://www.w3.org/2000/svg" xmlns:xlink="http://www.w3.org/1999/xlink" width="1080" zoomAndPan="magnify" viewBox="0 0 810 1012.49997" height="1350" preserveAspectRatio="xMidYMid meet" version="1.0"><path fill="#5dcae9" d="M 117.054688 684.785156 C 120.121094 686.042969 123.546875 684.949219 125.535156 682.300781 C 126.710938 680.746094 128.679688 679.320312 131.976562 678.925781 C 171.734375 674.140625 292.050781 663.085938 303.277344 611.785156 C 315.84375 554.242188 442.402344 542.855469 488.269531 519.636719 C 532.003906 497.496094 545.664062 453.472656 526.4375 392.207031 C 525.378906 388.796875 526.539062 385.289062 529.054688 383.15625 C 530.53125 381.914062 532.433594 381.316406 534.371094 381.300781 L 547.238281 381.101562 L 547.203125 381.101562 C 583.734375 383.882812 620.292969 382.0625 651.589844 377.394531 C 660.765625 376.023438 671.015625 373.441406 675.601562 365.398438 C 677.636719 361.824219 678.316406 357.488281 680.984375 354.359375 C 684.890625 349.726562 691.695312 349.144531 697.757812 348.996094 C 725.855469 348.320312 754.007812 349.59375 781.925781 352.835938 C 786.925781 348.898438 792.507812 340.078125 787.835938 335.742188 C 783.628906 331.851562 772.269531 330.675781 765.433594 329.816406 C 753.625 328.328125 734.234375 327.203125 722.328125 327.25 C 694.214844 327.335938 684.3125 325.628906 666.011719 333.605469 C 657.21875 337.445312 658.511719 348.152344 650.019531 352.605469 C 643.113281 356.214844 635.113281 357.039062 627.332031 357.585938 C 572.308594 361.492188 497.910156 361.609375 457.273438 338.175781 C 453.5625 336.039062 451.808594 331.621094 453 327.515625 L 453.101562 327.152344 L 402.347656 331.835938 L 406.753906 336.320312 C 422.597656 348.285156 441.359375 357.554688 461.742188 364.539062 L 461.726562 364.539062 C 461.726562 364.539062 474.03125 372.082031 478.519531 378.933594 C 496.847656 406.984375 527.929688 477.4375 461.894531 501.449219 C 379.746094 531.320312 282.542969 549.65625 275.257812 593.761719 C 268.453125 634.902344 132.503906 649.535156 70.292969 645.675781 C 17.355469 642.367188 93.261719 674.984375 117.054688 684.785156 Z M 117.054688 684.785156 " fill-opacity="1" fill-rule="nonzero"/></svg>