<svg xmlns="http://www.w3.org/2000/svg" xmlns:xlink="http://www.w3.org/1999/xlink" width="1080" zoomAndPan="magnify" viewBox="0 0 810 1012.49997" height="1350" preserveAspectRatio="xMidYMid meet" version="1.0"><path fill="#266753" d="M 348.691406 649.617188 C 264.085938 726.226562 351.640625 795.214844 349.183594 821.75 C 347.824219 836.417969 236.542969 836.707031 235.558594 823.199219 C 234.574219 809.6875 253.265625 799.074219 293.601562 801.003906 C 231.625 731.53125 295.566406 636.007812 295.566406 636.007812 C 295.566406 636.007812 418.5 586.402344 348.691406 649.617188 Z M 460.609375 649.617188 C 545.210938 726.226562 457.65625 795.214844 460.117188 821.75 C 461.476562 836.417969 572.757812 836.707031 573.738281 823.199219 C 574.722656 809.6875 556.03125 799.074219 515.699219 801.003906 C 577.675781 731.53125 513.730469 636.007812 513.730469 636.007812 C 513.730469 636.007812 390.800781 586.402344 460.609375 649.617188 Z M 515.355469 342.890625 C 515.355469 342.890625 554.308594 325.125 588.722656 258.511719 C 623.140625 191.894531 652.050781 175.382812 669.707031 182.664062 C 693.242188 192.363281 682.726562 253.210938 634.378906 322.503906 C 586.03125 391.796875 549.519531 407.390625 549.519531 407.390625 Z M 259.78125 407.390625 C 259.78125 407.390625 223.265625 391.796875 174.917969 322.503906 C 126.570312 253.210938 116.058594 192.363281 139.589844 182.664062 C 157.246094 175.382812 186.160156 191.894531 220.574219 258.511719 C 254.988281 325.125 293.941406 342.890625 293.941406 342.890625 Z M 259.78125 407.390625 " fill-opacity="1" fill-rule="nonzero"/><path fill="#338168" d="M 611.847656 610.496094 C 634.71875 679.828125 549.132812 686.464844 533.933594 646.441406 C 539.542969 694.578125 464.445312 699.886719 453.957031 654.011719 C 448.421875 683.148438 419.214844 690.523438 405.257812 690.523438 C 391.304688 690.523438 364.308594 684.253906 356.5625 654.011719 C 346.074219 699.886719 270.976562 694.578125 276.585938 646.441406 C 261.386719 686.464844 175.796875 679.828125 198.671875 610.496094 C 129.683594 635.941406 106.933594 537.84375 161.042969 512.398438 C 94.882812 503.792969 118.25 400.285156 174.324219 415.035156 C 125.257812 379.632812 171.050781 303.769531 221.960938 326.265625 C 178.058594 276.847656 260.359375 218.945312 290.199219 252.96875 C 271.46875 198.433594 359.023438 177.78125 369.109375 222.019531 C 363.207031 189.566406 386.074219 176.429688 405.257812 176.429688 C 424.441406 176.429688 447.3125 189.566406 441.410156 222.019531 C 451.496094 177.78125 539.050781 198.433594 520.320312 252.96875 C 550.160156 218.945312 632.460938 276.84375 588.558594 326.265625 C 639.46875 303.765625 685.261719 379.632812 636.195312 415.035156 C 692.269531 400.285156 715.632812 503.792969 649.476562 512.398438 C 703.585938 537.84375 680.832031 635.941406 611.847656 610.496094 Z M 611.847656 610.496094 C 634.71875 679.828125 549.132812 686.464844 533.933594 646.441406 C 539.542969 694.578125 464.445312 699.886719 453.957031 654.011719 C 448.421875 683.148438 419.214844 690.523438 405.257812 690.523438 C 391.304688 690.523438 364.308594 684.253906 356.5625 654.011719 C 346.074219 699.886719 270.976562 694.578125 276.585938 646.441406 C 261.386719 686.464844 175.796875 679.828125 198.671875 610.496094 C 129.683594 635.941406 106.933594 537.84375 161.042969 512.398438 C 94.882812 503.792969 118.25 400.285156 174.324219 415.035156 C 125.257812 379.632812 171.050781 303.769531 221.960938 326.265625 C 178.058594 276.847656 260.359375 218.945312 290.199219 252.96875 C 271.46875 198.433594 359.023438 177.78125 369.109375 222.019531 C 363.207031 189.566406 386.074219 176.429688 405.257812 176.429688 C 424.441406 176.429688 447.3125 189.566406 441.410156 222.019531 C 451.496094 177.78125 539.050781 198.433594 520.320312 252.96875 C 550.160156 218.945312 632.460938 276.84375 588.558594 326.265625 C 639.46875 303.765625 685.261719 379.632812 636.195312 415.035156 C 692.269531 400.285156 715.632812 503.792969 649.476562 512.398438 C 703.585938 537.84375 680.832031 635.941406 611.847656 610.496094 Z M 611.847656 610.496094 " fill-opacity="1" fill-rule="nonzero"/><path fill="#ffffff" d="M 439.679688 404.871094 C 439.679688 465.847656 471.164062 480.28125 501.421875 482.898438 C 531.277344 485.480469 574.292969 472.5625 576.316406 415.722656 C 578.34375 358.882812 545.953125 326.847656 508.503906 326.847656 C 475.105469 326.847656 439.679688 341.316406 439.679688 404.871094 Z M 232.890625 404.871094 C 232.890625 465.847656 265.828125 480.28125 297.476562 482.898438 C 328.710938 485.480469 373.710938 472.5625 375.828125 415.722656 C 377.949219 358.882812 344.066406 326.847656 304.890625 326.847656 C 269.949219 326.847656 232.890625 341.316406 232.890625 404.871094 Z M 232.890625 404.871094 " fill-opacity="1" fill-rule="nonzero"/><path fill="#0e0f1a" d="M 496.90625 353.496094 C 519.351562 353.496094 538.761719 374.613281 537.546875 412.078125 C 536.335938 449.542969 510.554688 458.054688 492.660156 456.351562 C 474.53125 454.628906 455.660156 445.113281 455.660156 404.925781 C 455.660156 363.03125 476.890625 353.496094 496.90625 353.496094 Z M 312.390625 458.917969 C 289.949219 458.917969 270.539062 437.804688 271.75 400.339844 C 272.964844 362.875 298.742188 354.359375 316.636719 356.0625 C 334.769531 357.789062 353.636719 367.300781 353.636719 407.492188 C 353.636719 449.382812 332.40625 458.917969 312.390625 458.917969 Z M 312.390625 458.917969 " fill-opacity="1" fill-rule="nonzero"/><path fill="#174441" d="M 272.484375 688.183594 C 286.460938 692.460938 300.382812 696.921875 314.375 701.152344 C 313.476562 704.527344 312.824219 707.867188 312.398438 711.167969 C 298.246094 706.898438 284.164062 702.382812 270.027344 698.054688 C 270.761719 694.679688 271.589844 691.386719 272.484375 688.183594 Z M 312.226562 729.847656 C 297.007812 729.761719 281.789062 729.671875 266.566406 729.585938 C 266.585938 732.949219 266.738281 736.339844 267.046875 739.746094 C 282.65625 739.835938 298.269531 739.925781 313.878906 740.015625 C 313.148438 736.6875 312.589844 733.292969 312.226562 729.847656 Z M 324.019531 768.324219 C 307.464844 769.820312 290.859375 769.921875 274.242188 770.089844 C 275.605469 773.480469 277.183594 776.855469 278.976562 780.199219 C 295.667969 780.03125 312.34375 779.800781 328.960938 778.003906 C 327.28125 774.878906 325.617188 771.652344 324.019531 768.324219 Z M 536.777344 688.058594 C 522.800781 692.332031 508.878906 696.792969 494.886719 701.027344 C 495.792969 704.398438 496.449219 707.738281 496.878906 711.039062 C 511.03125 706.761719 525.105469 702.25 539.242188 697.929688 C 538.503906 694.554688 537.675781 691.261719 536.777344 688.058594 Z M 542.730469 729.582031 C 527.511719 729.671875 512.289062 729.757812 497.070312 729.84375 C 496.707031 733.292969 496.152344 736.683594 495.417969 740.011719 C 511.03125 739.925781 526.640625 739.835938 542.25 739.746094 C 542.558594 736.335938 542.710938 732.945312 542.730469 729.582031 Z M 535.054688 770.09375 C 518.433594 769.921875 501.820312 769.835938 485.257812 768.367188 C 483.660156 771.695312 481.996094 774.921875 480.3125 778.046875 C 496.941406 779.816406 513.621094 780.039062 530.316406 780.203125 C 532.113281 776.859375 533.6875 773.488281 535.054688 770.09375 Z M 347.628906 503.078125 C 350.261719 504.621094 351.710938 510.234375 352.503906 515.261719 C 357.601562 510.332031 366.234375 502.835938 368.578125 506.140625 C 371.042969 509.605469 368.179688 519.324219 366.417969 524.40625 C 370.859375 523.332031 376.5 522.542969 379.117188 524.539062 C 382.898438 527.417969 371.542969 538.4375 367.125 542.488281 C 366.863281 544.125 366.457031 545.746094 365.90625 547.308594 C 363.164062 555.070312 351.660156 574.3125 347.707031 581.515625 C 346.644531 583.449219 343.753906 583.753906 342.0625 582.613281 C 340.125 581.304688 339.910156 578.894531 340.964844 576.96875 C 342.769531 573.683594 351.230469 558.464844 353.023438 555.175781 C 355.03125 551.480469 357.210938 547.847656 358.5 543.824219 C 360.6875 537.007812 358.878906 529.117188 351.460938 526.722656 C 343.484375 524.144531 336.585938 529.292969 331.398438 534.84375 C 324.851562 541.851562 318.882812 549.480469 312.683594 556.796875 C 306.3125 564.308594 309.984375 559.851562 303.613281 567.363281 C 302.1875 569.042969 299.953125 569.800781 297.96875 568.460938 C 296.292969 567.328125 295.453125 564.496094 296.871094 562.820312 C 305.292969 552.886719 303.671875 554.925781 312.09375 544.992188 C 315.707031 540.730469 319.28125 536.433594 322.941406 532.214844 C 326.414062 528.207031 330.015625 524.417969 334.550781 521.597656 C 334.878906 521.390625 335.222656 521.207031 335.5625 521.015625 C 337.621094 515.421875 343.519531 500.671875 347.628906 503.078125 Z M 473.738281 521.019531 C 474.078125 521.207031 474.417969 521.390625 474.746094 521.597656 C 479.28125 524.417969 482.882812 528.207031 486.355469 532.214844 C 490.015625 536.4375 493.589844 540.730469 497.203125 544.992188 C 505.625 554.925781 504.003906 552.886719 512.425781 562.820312 C 513.847656 564.496094 513.003906 567.328125 511.328125 568.460938 C 509.347656 569.800781 507.109375 569.046875 505.683594 567.363281 C 499.316406 559.851562 502.988281 564.308594 496.617188 556.796875 C 490.414062 549.480469 484.449219 541.851562 477.902344 534.84375 C 472.714844 529.292969 465.816406 524.144531 457.835938 526.722656 C 450.421875 529.117188 448.609375 537.011719 450.796875 543.824219 C 452.089844 547.847656 454.269531 551.480469 456.277344 555.175781 C 458.066406 558.464844 466.53125 573.683594 468.332031 576.96875 C 469.390625 578.894531 469.175781 581.304688 467.238281 582.613281 C 465.542969 583.757812 462.652344 583.449219 461.59375 581.515625 C 457.640625 574.3125 446.132812 555.070312 443.394531 547.308594 C 442.839844 545.746094 442.4375 544.125 442.171875 542.488281 C 437.757812 538.4375 426.398438 527.417969 430.179688 524.539062 C 432.796875 522.542969 438.441406 523.332031 442.878906 524.40625 C 441.121094 519.324219 438.257812 509.605469 440.71875 506.140625 C 443.066406 502.835938 451.699219 510.332031 456.792969 515.265625 C 457.585938 510.234375 459.035156 504.621094 461.667969 503.078125 C 465.777344 500.671875 471.675781 515.421875 473.738281 521.019531 Z M 424.777344 469.691406 C 421.003906 477.214844 413.273438 482.488281 404.738281 482.535156 C 396.203125 482.578125 388.398438 477.433594 384.539062 469.941406 C 382.144531 465.289062 375.125 469.398438 377.519531 474.042969 C 382.652344 484.011719 393.488281 490.707031 404.738281 490.660156 C 415.972656 490.613281 426.777344 483.804688 431.796875 473.792969 C 434.136719 469.128906 427.125 465.007812 424.777344 469.691406 Z M 588.558594 326.265625 C 594.40625 323.679688 600.183594 322.40625 605.761719 322.207031 C 620.964844 298.484375 659.71875 235.246094 646.835938 226.230469 C 637.941406 220.007812 616.148438 252.207031 598.664062 281.804688 C 603.5625 295.542969 601.859375 311.289062 588.558594 326.265625 Z M 221.957031 326.265625 C 210.039062 312.847656 207.4375 298.804688 210.546875 286.148438 C 192.691406 255.46875 169.160156 219.699219 159.828125 226.230469 C 146.945312 235.25 185.726562 298.523438 200.921875 322.230469 C 207.664062 321.871094 214.757812 323.082031 221.957031 326.265625 Z M 221.957031 326.265625 " fill-opacity="1" fill-rule="nonzero"/><path fill="#174441" d="M 207.261719 555.464844 C 216.652344 566.574219 214.8125 584.59375 196.636719 598.914062 C 178.457031 613.234375 163.660156 603.863281 156.976562 594.328125 C 150.207031 584.664062 146.800781 571.535156 165.753906 555.527344 C 185.511719 538.84375 198.890625 545.554688 207.261719 555.464844 Z M 261.777344 623.792969 C 256.691406 630.992188 245.769531 634.601562 234.597656 626.132812 C 223.425781 617.660156 226.738281 605.617188 231.3125 600.246094 C 235.945312 594.804688 246.058594 589.816406 258.335938 598.484375 C 271.136719 607.523438 266.3125 617.375 261.777344 623.792969 Z M 256.027344 551.449219 C 253.3125 555.292969 247.476562 557.21875 241.511719 552.695312 C 235.542969 548.171875 237.3125 541.742188 239.757812 538.875 C 242.230469 535.964844 247.632812 533.304688 254.1875 537.933594 C 261.023438 542.757812 258.449219 548.019531 256.027344 551.449219 Z M 569.042969 293.554688 C 564.015625 300.667969 553.222656 304.234375 542.183594 295.863281 C 531.140625 287.492188 534.414062 275.589844 538.933594 270.28125 C 543.515625 264.902344 553.507812 259.972656 565.644531 268.539062 C 578.292969 277.472656 573.523438 287.210938 569.042969 293.554688 Z M 490.085938 294.289062 C 486.765625 298.988281 479.636719 301.34375 472.34375 295.816406 C 465.046875 290.285156 467.210938 282.421875 470.195312 278.917969 C 473.222656 275.363281 479.824219 272.105469 487.839844 277.765625 C 496.195312 283.664062 493.046875 290.097656 490.085938 294.289062 Z M 621.226562 400.292969 C 617.90625 404.992188 610.777344 407.347656 603.484375 401.820312 C 596.191406 396.289062 598.351562 388.429688 601.339844 384.921875 C 604.363281 381.367188 610.964844 378.113281 618.980469 383.773438 C 627.335938 389.671875 624.1875 396.101562 621.226562 400.292969 Z M 397.761719 289.238281 C 388.378906 302.519531 368.222656 309.179688 347.605469 293.550781 C 326.992188 277.921875 333.101562 255.699219 341.542969 245.785156 C 350.09375 235.742188 368.753906 226.539062 391.414062 242.535156 C 415.035156 259.207031 406.128906 277.390625 397.761719 289.238281 Z M 397.761719 289.238281 " fill-opacity="0.25" fill-rule="nonzero"/><path fill="#266753" d="M 453.902344 459.613281 C 453.902344 459.613281 507.238281 411.519531 567.015625 452.300781 C 557.339844 483.207031 486.691406 504.09375 453.902344 459.613281 Z M 361.722656 459.613281 C 361.722656 459.613281 308.546875 413.59375 244.089844 454.1875 C 253.765625 485.097656 328.933594 504.09375 361.722656 459.613281 Z M 361.722656 459.613281 " fill-opacity="1" fill-rule="nonzero"/></svg>