<svg xmlns="http://www.w3.org/2000/svg" xmlns:xlink="http://www.w3.org/1999/xlink" width="1080" zoomAndPan="magnify" viewBox="0 0 810 1012.49997" height="1350" preserveAspectRatio="xMidYMid meet" version="1.0"><defs><clipPath id="f5845f95d7"><path d="M 288 717 L 508 717 L 508 818.554688 L 288 818.554688 Z M 288 717 " clip-rule="nonzero"/></clipPath></defs><path fill="#9f2a22" d="M 377.386719 280.125 C 369.621094 256.757812 357.246094 234.207031 338.589844 217.769531 C 335.175781 214.761719 331.023438 211.542969 326.4375 208.582031 C 325.746094 207.949219 324.992188 207.472656 324.195312 207.175781 C 310.429688 198.816406 293.328125 193.292969 280.140625 202.207031 C 261.34375 214.910156 283.191406 239.207031 297.875 243.511719 C 311.332031 247.457031 325.375 240.933594 330.023438 230.199219 C 333.132812 233.097656 336.0625 236.1875 338.777344 239.402344 C 369.582031 275.867188 378.476562 332.554688 375.472656 378.71875 C 374.84375 388.371094 389.863281 388.332031 390.488281 378.71875 C 392.632812 345.742188 387.808594 311.480469 377.386719 280.125 Z M 398.546875 392.546875 C 399.171875 402.160156 414.191406 402.195312 413.5625 392.546875 C 410.5625 346.382812 419.453125 289.695312 450.257812 253.230469 C 452.972656 250.015625 455.902344 246.921875 459.011719 244.027344 C 463.664062 254.761719 477.707031 261.285156 491.160156 257.339844 C 505.847656 253.035156 527.691406 228.738281 508.898438 216.035156 C 495.707031 207.121094 478.609375 212.644531 464.84375 221.003906 C 464.042969 221.296875 463.289062 221.773438 462.597656 222.410156 C 458.011719 225.371094 453.863281 228.585938 450.445312 231.597656 C 431.792969 248.03125 419.414062 270.585938 411.648438 293.953125 C 401.226562 325.304688 396.402344 359.570312 398.546875 392.546875 Z M 398.546875 392.546875 " fill-opacity="1" fill-rule="nonzero"/><g clip-path="url(#f5845f95d7)"><path fill="#c13e27" d="M 341.464844 717.835938 C 341.464844 717.835938 340.488281 818.578125 311.515625 818.578125 C 282.546875 818.578125 289.789062 717.835938 289.789062 717.835938 Z M 454.628906 717.835938 C 454.628906 717.835938 455.605469 818.578125 484.578125 818.578125 C 513.546875 818.578125 506.304688 717.835938 506.304688 717.835938 Z M 454.628906 717.835938 " fill-opacity="1" fill-rule="nonzero"/></g><path fill="#e25026" d="M 634.519531 537.496094 C 636.46875 542.632812 638.292969 547.894531 639.964844 553.285156 C 685.292969 699.367188 606.386719 724.550781 544.269531 731.269531 C 482.152344 737.984375 398.046875 737.984375 398.046875 737.984375 C 398.046875 737.984375 313.941406 737.984375 251.824219 731.269531 C 189.707031 724.550781 110.800781 699.367188 156.128906 553.285156 C 157.804688 547.894531 159.625 542.632812 161.574219 537.496094 C 85.984375 506.300781 67.753906 458.820312 86.875 447.832031 C 103.390625 438.34375 162.761719 478.113281 183.632812 492.761719 C 193.554688 476.667969 204.824219 462.1875 216.941406 449.257812 C 211.945312 445.800781 207.410156 441.816406 203.507812 437.335938 C 193.199219 425.5 181.886719 404.328125 186.542969 370.667969 C 190.054688 345.257812 201.371094 324.863281 219.265625 311.691406 C 238.113281 297.8125 259.484375 294.898438 274.089844 294.898438 C 277.671875 294.898438 281.300781 295.074219 284.878906 295.425781 C 309.796875 297.863281 330.90625 308.75 344.316406 326.074219 C 352.332031 336.433594 357.347656 348.796875 359.300781 362.625 C 375.359375 358.089844 388.859375 355.996094 398.046875 355.996094 C 407.234375 355.996094 420.734375 358.089844 436.796875 362.625 C 438.746094 348.796875 443.761719 336.433594 451.78125 326.074219 C 465.1875 308.75 486.296875 297.863281 511.214844 295.425781 C 514.792969 295.074219 518.421875 294.898438 522.003906 294.898438 L 522.011719 294.898438 C 536.617188 294.898438 557.984375 297.8125 576.835938 311.691406 C 594.722656 324.863281 606.039062 345.257812 609.554688 370.667969 C 614.210938 404.324219 602.894531 425.5 592.585938 437.335938 C 588.683594 441.816406 584.148438 445.800781 579.152344 449.257812 C 591.269531 462.1875 602.539062 476.664062 612.460938 492.761719 C 633.332031 478.113281 692.707031 438.34375 709.21875 447.832031 C 728.339844 458.820312 710.113281 506.300781 634.519531 537.496094 Z M 634.519531 537.496094 C 636.46875 542.632812 638.292969 547.894531 639.964844 553.285156 C 685.292969 699.367188 606.386719 724.550781 544.269531 731.269531 C 482.152344 737.984375 398.046875 737.984375 398.046875 737.984375 C 398.046875 737.984375 313.941406 737.984375 251.824219 731.269531 C 189.707031 724.550781 110.800781 699.367188 156.128906 553.285156 C 157.804688 547.894531 159.625 542.632812 161.574219 537.496094 C 85.984375 506.300781 67.753906 458.820312 86.875 447.832031 C 103.390625 438.34375 162.761719 478.113281 183.632812 492.761719 C 193.554688 476.667969 204.824219 462.1875 216.941406 449.257812 C 211.945312 445.800781 207.410156 441.816406 203.507812 437.335938 C 193.199219 425.5 181.886719 404.328125 186.542969 370.667969 C 190.054688 345.257812 201.371094 324.863281 219.265625 311.691406 C 238.113281 297.8125 259.484375 294.898438 274.089844 294.898438 C 277.671875 294.898438 281.300781 295.074219 284.878906 295.425781 C 309.796875 297.863281 330.90625 308.75 344.316406 326.074219 C 352.332031 336.433594 357.347656 348.796875 359.300781 362.625 C 375.359375 358.089844 388.859375 355.996094 398.046875 355.996094 C 407.234375 355.996094 420.734375 358.089844 436.796875 362.625 C 438.746094 348.796875 443.761719 336.433594 451.78125 326.074219 C 465.1875 308.75 486.296875 297.863281 511.214844 295.425781 C 514.792969 295.074219 518.421875 294.898438 522.003906 294.898438 L 522.011719 294.898438 C 536.617188 294.898438 557.984375 297.8125 576.835938 311.691406 C 594.722656 324.863281 606.039062 345.257812 609.554688 370.667969 C 614.210938 404.324219 602.894531 425.5 592.585938 437.335938 C 588.683594 441.816406 584.148438 445.800781 579.152344 449.257812 C 591.269531 462.1875 602.539062 476.664062 612.460938 492.761719 C 633.332031 478.113281 692.707031 438.34375 709.21875 447.832031 C 728.339844 458.820312 710.113281 506.300781 634.519531 537.496094 Z M 634.519531 537.496094 " fill-opacity="1" fill-rule="nonzero"/><path fill="#ffffff" d="M 266.863281 453.480469 C 230.980469 453.859375 189.234375 429.46875 197.164062 372.136719 C 204.679688 317.8125 248.019531 302.59375 283.832031 306.101562 C 323.988281 310.03125 356.585938 338.902344 348.210938 392.265625 C 340.484375 441.472656 298.261719 453.152344 266.863281 453.480469 Z M 447.882812 392.265625 C 439.507812 338.902344 472.105469 310.03125 512.261719 306.101562 C 548.074219 302.59375 591.414062 317.8125 598.929688 372.136719 C 606.859375 429.46875 565.113281 453.859375 529.234375 453.480469 C 497.832031 453.152344 455.609375 441.472656 447.882812 392.265625 Z M 447.882812 392.265625 " fill-opacity="1" fill-rule="nonzero"/><path fill="#0e0f1a" d="M 268.265625 433.171875 C 266.527344 433.003906 264.835938 432.761719 263.207031 432.464844 C 241.992188 428.578125 217.972656 416.347656 222.804688 374.648438 C 227.839844 331.179688 256.941406 323.914062 280.585938 326.230469 C 307.101562 328.824219 327.496094 352.980469 321.558594 391.714844 C 316.082031 427.433594 288.882812 435.191406 268.265625 433.171875 Z M 474.535156 391.714844 C 468.597656 352.980469 488.992188 328.824219 515.507812 326.230469 C 539.15625 323.914062 568.253906 331.179688 573.289062 374.648438 C 578.121094 416.347656 554.101562 428.578125 532.890625 432.464844 C 531.257812 432.761719 529.570312 433.003906 527.828125 433.171875 C 507.210938 435.191406 480.011719 427.433594 474.535156 391.714844 Z M 357.199219 444.957031 C 339.886719 454.695312 344.160156 514.726562 396.96875 514.726562 C 449.777344 514.726562 458.90625 451.476562 436.738281 444.957031 C 414.570312 438.4375 407.832031 454.574219 397.835938 454.28125 C 387.417969 453.976562 378.0625 433.21875 357.199219 444.957031 Z M 357.199219 444.957031 " fill-opacity="1" fill-rule="nonzero"/><path fill="#9f2a22" d="M 173.425781 490.660156 C 176.222656 485.894531 183.636719 490.21875 180.835938 494.992188 C 173.746094 507.070312 168.34375 519.96875 164.699219 533.492188 C 163.261719 538.828125 154.988281 536.550781 156.425781 531.210938 C 160.25 517.015625 165.984375 503.339844 173.425781 490.660156 Z M 611.375 493.488281 C 619.5625 506.222656 626.769531 520.238281 631.339844 534.699219 C 633 539.945312 641.285156 537.703125 639.613281 532.417969 C 634.824219 517.269531 627.363281 502.5 618.785156 489.15625 C 615.808594 484.527344 608.378906 488.824219 611.375 493.488281 Z M 611.375 493.488281 " fill-opacity="1" fill-rule="nonzero"/><path fill="#9f2a22" d="M 600.667969 628.121094 C 582.496094 630.714844 571.332031 621.972656 570.300781 610.574219 C 569.378906 600.410156 572.980469 587.890625 593.359375 585.675781 C 612.914062 583.554688 618.472656 593.871094 620.144531 602.988281 C 620.273438 603.6875 620.375 604.414062 620.441406 605.160156 C 621.242188 614.023438 617.425781 625.726562 600.667969 628.121094 Z M 648.398438 665.234375 C 634.917969 656.804688 617.527344 655.53125 602.003906 657.074219 C 569.953125 660.261719 544.820312 684.921875 551.128906 723.613281 C 551.511719 725.949219 552.015625 728.15625 552.613281 730.253906 C 591.367188 725.019531 634.066406 711.171875 648.398438 665.234375 Z M 532.035156 664.105469 C 542.109375 656.550781 523.644531 639.757812 513.570312 650.671875 C 503.496094 661.585938 508.53125 681.734375 532.035156 664.105469 Z M 307.164062 478.355469 C 299.609375 468.28125 282.820312 486.75 293.734375 496.824219 C 304.644531 506.898438 324.792969 501.863281 307.164062 478.355469 Z M 181.457031 635.5625 C 202.773438 611.414062 205.503906 549.929688 165.929688 542.558594 C 163.722656 542.148438 162.875 539.464844 161.417969 537.933594 C 159.527344 542.933594 157.757812 548.042969 156.128906 553.285156 C 143.371094 594.402344 140.457031 625.9375 144.234375 650.183594 C 155.996094 651.773438 168.90625 649.777344 181.457031 635.5625 Z M 232.683594 677.808594 C 216.179688 685.839844 202.875 680.933594 198.402344 670.398438 C 194.417969 661.003906 194.015625 647.984375 212.738281 639.640625 C 230.703125 631.632812 239.152344 639.75 243.535156 647.917969 C 243.871094 648.546875 244.191406 649.207031 244.484375 649.898438 C 247.960938 658.089844 247.90625 670.398438 232.683594 677.808594 Z M 232.683594 677.808594 " fill-opacity="0.4" fill-rule="nonzero"/></svg>